<svg width="35" height="35" viewBox="0 0 35 35" fill="none" xmlns="http://www.w3.org/2000/svg">
<path fill-rule="evenodd" clip-rule="evenodd" d="M16.1568 0.264837C11.9124 1.03648 9.08243 5.19668 9.94072 9.40299C10.5952 12.6104 13.2185 15.0917 16.4309 15.5419L17.027 15.6255L17.0087 17.233L16.9904 18.8406L15.7961 19.465C14.6967 20.0398 14.5959 20.0794 14.5289 19.9637C10.8066 13.536 1.63497 14.9745 0.0988708 22.2269C-0.131472 23.3145 0.066953 25.5903 0.423186 25.9472C0.734898 26.2595 1.32736 25.9889 1.25284 25.5685C1.23483 25.4669 1.16647 25.0904 1.10099 24.7318C0.406542 20.9302 3.20414 17.275 7.08264 16.9164C13.2756 16.3438 16.8164 23.8013 12.4797 28.2833C11.851 28.9331 11.7848 28.9571 11.723 28.5578C11.6063 27.8026 11.1089 27.1932 10.1127 26.5848C9.3449 26.1158 9.28038 25.9126 9.78819 25.5626C12.7265 23.537 11.3033 18.9046 7.74106 18.8993C4.20668 18.8941 2.7149 23.4689 5.5888 25.4997C6.1999 25.9315 6.16634 26.0653 5.3123 26.6012C4.30565 27.2329 3.98435 27.6139 3.76332 28.4377C3.6975 28.6831 3.63565 28.8948 3.62579 28.9084C3.58086 28.9703 2.87038 28.2943 2.52182 27.8581C1.93853 27.1282 1.80668 27.0649 1.45168 27.3447C0.690789 27.9443 2.98072 30.1167 5.20127 30.9016C10.7821 32.8743 16.5269 27.7956 15.2464 22.021C15.1627 21.6436 15.0803 21.2576 15.0632 21.1632C15.0341 21.0025 15.1116 20.9506 16.2798 20.347L17.5275 19.7024L18.782 20.347C19.7251 20.8317 20.0266 21.0172 19.9972 21.0946C19.0372 23.6223 19.754 26.8513 21.7369 28.9308C26.5207 33.9478 34.9633 30.5746 34.9944 23.6338C35.0255 16.6495 26.5423 13.2286 21.7235 18.2822C21.2502 18.7785 20.5178 19.7836 20.5178 19.9367C20.5178 20.0778 20.2135 19.9606 19.1822 19.4221L18.0863 18.85L18.0679 17.2389L18.0496 15.6278L18.7186 15.5171C24.5815 14.5466 27.223 7.60598 23.4848 2.99408C23.2102 2.65541 22.8845 2.59577 22.6411 2.83967C22.4113 3.06992 22.4711 3.30654 22.9163 3.92934C24.8863 6.68487 24.6048 10.2219 22.2237 12.6301C21.6488 13.2116 21.5767 13.2348 21.5259 12.855C21.4267 12.1141 20.9102 11.48 19.9083 10.8691C19.1559 10.4103 19.0793 10.2001 19.5507 9.8875C22.5378 7.90692 21.1196 3.18892 17.5356 3.18363C14.0018 3.17842 12.5143 7.80672 15.4081 9.80364C15.9786 10.1973 15.9554 10.3601 15.2679 10.7853C14.1499 11.4768 13.702 12.0064 13.5282 12.8421C13.4319 13.3052 13.4517 13.3119 12.7344 12.5676C10.4824 10.2309 10.152 6.83454 11.9185 4.18141C13.8093 1.34181 17.4765 0.362013 20.5057 1.88719C21.2309 2.25236 21.4741 2.29319 21.6822 2.08477C22.6441 1.1209 18.6623 -0.190643 16.1568 0.264837ZM17.9913 4.21318C20.0848 4.60806 20.897 7.23402 19.3818 8.70944C18.3121 9.75114 16.5446 9.71333 15.5915 8.62833C13.9182 6.72357 15.5346 3.74981 17.9913 4.21318ZM18.2575 10.6318C18.2575 10.9595 18.4141 11.1185 19.2685 11.6589C20.3367 12.3346 20.5201 12.5747 20.5707 13.3649L20.603 13.8689L20.098 14.0789C18.434 14.771 16.4535 14.7661 14.8735 14.066L14.4904 13.8962V13.4909C14.4904 12.6638 14.7041 12.3523 15.7043 11.7216C16.6837 11.1041 16.7507 11.0403 16.7507 10.7247V10.4669L17.5041 10.4683C18.25 10.4697 18.2575 10.4712 18.2575 10.6318ZM28.1786 16.9439C33.6136 17.4603 35.943 24.4957 31.9744 28.4081C31.3489 29.0248 31.3967 29.0221 31.2498 28.4505C31.0394 27.6322 30.7063 27.2359 29.6959 26.6014C28.8418 26.0653 28.8083 25.9314 29.4193 25.4997C30.6075 24.6601 31.1975 23.0444 30.8274 21.6436C30.6152 20.8405 29.6241 20.8288 29.8049 21.6314C30.5534 24.9558 26.3327 26.6702 24.8757 23.6338C23.7813 21.3531 26.1704 19.1454 28.5826 20.2084L28.942 20.3668L29.1306 20.2262C29.8723 19.6734 28.8033 18.8973 27.3033 18.8993C23.6996 18.9043 22.2622 23.5195 25.2267 25.5668C25.727 25.9124 25.6602 26.1177 24.8954 26.5848C23.8993 27.1932 23.4019 27.8026 23.2851 28.5578C23.2234 28.9571 23.1572 28.9331 22.5285 28.2833C18.6192 24.2431 21.068 17.4586 26.6327 16.9123C27.185 16.8581 27.2989 16.8604 28.1786 16.9439ZM8.70853 20.0733C10.0578 20.579 10.7568 22.3243 10.1346 23.6338C8.9025 26.2268 5.14106 25.3997 5.14106 22.5357C5.14106 20.6077 6.89846 19.3947 8.70853 20.0733ZM8.46298 26.3444C8.46298 26.6741 8.6164 26.837 9.36709 27.3046C10.5167 28.0206 10.7917 28.3928 10.7917 29.2328V29.5915L10.2952 29.7981C8.64538 30.4842 6.64743 30.4767 5.07168 29.7785L4.68127 29.6055L4.70572 29.0681C4.72606 28.6191 4.76154 28.483 4.92113 28.2414C5.12065 27.9393 5.20812 27.8705 6.2712 27.1794C6.90928 26.7645 6.9223 26.7508 6.94284 26.4671L6.9638 26.1778L7.71339 26.1785C8.45949 26.1792 8.46298 26.1799 8.46298 26.3444ZM28.0653 26.4671C28.0859 26.7508 28.0989 26.7645 28.737 27.1794C29.8 27.8705 29.8875 27.9393 30.087 28.2414C30.2466 28.483 30.2821 28.6191 30.3024 29.0681L30.3269 29.6055L29.9365 29.7785C28.3607 30.4767 26.3628 30.4842 24.713 29.7981L24.2164 29.5915V29.2328C24.2164 28.3928 24.4915 28.0206 25.6411 27.3046C26.3917 26.837 26.5452 26.6741 26.5452 26.3444C26.5452 26.1799 26.5487 26.1792 27.2948 26.1785L28.0443 26.1778L28.0653 26.4671Z" fill="white"/>
</svg>
