<svg width="35" height="35" viewBox="0 0 35 35" fill="none" xmlns="http://www.w3.org/2000/svg">
<path fill-rule="evenodd" clip-rule="evenodd" d="M4.49233 0.209043C4.02981 0.440166 3.77756 0.698633 3.56209 1.16211L3.41909 1.46973V11.6994C3.41909 23.235 3.36946 22.2168 3.93178 22.2168C4.49274 22.2168 4.4401 23.226 4.47866 11.7236C4.51694 0.303379 4.4669 1.38147 4.97071 1.12096C5.24756 0.977744 29.6863 0.977744 29.9632 1.12096C30.4201 1.35728 30.4177 1.34647 30.4552 3.26013L30.4894 5.00233L30.6812 5.16722C30.9234 5.3753 31.081 5.37523 31.323 5.16694L31.5148 5.00179V3.23579C31.5148 1.00283 31.4038 0.689883 30.4415 0.209043L30.0233 0H17.4669H4.91062L4.49233 0.209043ZM6.86912 2.2925C6.44932 2.4219 5.99815 2.82434 5.80305 3.24324L5.64213 3.58887V7.14355V10.6982L5.80305 11.0439C6.27384 12.0549 6.4753 12.0996 10.5626 12.0996C14.65 12.0996 14.8514 12.0549 15.3222 11.0439L15.4831 10.6982V7.14355V3.58887L15.3222 3.24324C15.1215 2.81203 14.6727 2.42074 14.2275 2.28847C13.7419 2.1443 7.33861 2.14778 6.86912 2.2925ZM20.6777 2.2925C20.2579 2.4219 19.8067 2.82434 19.6116 3.24324L19.4507 3.58887V7.14355V10.6982L19.6116 11.0439C20.0824 12.0549 20.2839 12.0996 24.3712 12.0996C28.4586 12.0996 28.66 12.0549 29.1308 11.0439L29.2917 10.6982V7.14355V3.58887L29.1308 3.24324C28.9301 2.81203 28.4813 2.42074 28.0361 2.28847C27.5505 2.1443 21.1472 2.14778 20.6777 2.2925ZM14.1239 3.36766C14.2215 3.43396 14.3368 3.56617 14.3802 3.6614C14.4897 3.90175 14.4921 10.4035 14.3828 10.6173C14.1779 11.0179 14.3275 11.0029 10.5626 11.0029C7.39364 11.0029 7.09853 10.9931 6.96468 10.8847C6.66916 10.6453 6.66616 10.6077 6.66643 7.13098C6.6667 3.387 6.66048 3.4354 7.15916 3.28877C7.60822 3.15677 13.9187 3.2282 14.1239 3.36766ZM27.7415 3.28583C28.279 3.43506 28.2672 3.34865 28.2674 7.13098C28.2677 10.6077 28.2647 10.6453 27.9692 10.8847C27.7452 11.0661 20.9972 11.0661 20.7733 10.8847C20.4778 10.6454 20.4748 10.6069 20.4748 7.14465C20.4748 3.32083 20.4515 3.4678 21.09 3.25746C21.3031 3.18726 27.4814 3.21357 27.7415 3.28583ZM22.3254 5.17036C22.0652 5.50115 22.1594 5.69591 22.9649 6.49264C23.6779 7.19776 23.6834 7.07643 22.9031 7.8601C22.1727 8.59359 22.0763 8.80011 22.32 9.10998C22.6159 9.48603 22.8558 9.39504 23.6634 8.60029L24.3712 7.90371L25.0791 8.60029C25.8825 9.3908 26.1272 9.48527 26.417 9.11675C26.676 8.78753 26.6153 8.65095 25.8751 7.89879C25.0519 7.06221 25.0556 7.21417 25.8394 6.42701C26.5698 5.69352 26.6661 5.487 26.4224 5.17713C26.1266 4.80108 25.8867 4.89207 25.0791 5.68682L24.3712 6.3834L23.6634 5.68682C22.86 4.89631 22.6153 4.80184 22.3254 5.17036ZM11.2804 6.49414C10.5291 7.24609 9.88527 7.86133 9.84958 7.86133C9.81383 7.86133 9.48721 7.56909 9.12368 7.21191C8.39428 6.4953 8.22919 6.42879 7.92773 6.73032C7.60282 7.05517 7.67083 7.1858 8.70251 8.21755C9.9591 9.47406 9.66207 9.54488 11.7061 7.50087C13.509 5.69803 13.546 5.6432 13.1976 5.29478C12.8539 4.95106 12.7688 5.00432 11.2804 6.49414ZM30.6196 6.84312C30.4932 6.98277 30.4884 7.27029 30.4552 16.7139C30.4214 26.3165 30.4193 26.4427 30.2845 26.5917C30.0087 26.8963 29.8379 26.9336 28.7155 26.9336H27.6525V26.5545C27.6525 26.1188 27.4523 25.8398 27.1398 25.8398C27.0424 25.8398 26.8872 25.9154 26.7949 26.0077L26.6271 26.1754V28.0827V29.99L26.2853 31.3702C25.7253 33.6314 25.7861 35 26.4466 35C26.8649 35 26.9689 34.7631 26.9689 33.8099C26.9689 33.0142 26.9924 32.8606 27.3107 31.5753C27.6503 30.2038 27.6525 30.188 27.6525 29.0825V27.9699L28.9 27.9472C30.4938 27.9182 30.9013 27.7386 31.3233 26.8792L31.5148 26.4893V16.7381C31.5148 7.24507 31.5114 6.98318 31.3846 6.84312C31.2075 6.64747 30.7967 6.64747 30.6196 6.84312ZM7.03906 13.4295C6.94677 13.5218 6.87123 13.677 6.87123 13.7744C6.87123 13.8718 6.94677 14.027 7.03906 14.1193L7.20681 14.2871H10.552C14.3398 14.2871 14.213 14.3049 14.213 13.7744C14.213 13.2439 14.3398 13.2617 10.552 13.2617H7.20681L7.03906 13.4295ZM16.8055 13.3737C16.4178 13.511 15.9453 13.9419 15.7491 14.337L15.5871 14.6631L15.567 18.0713L15.5469 21.4796L15.3619 21.4346C14.5653 21.2406 13.9523 21.3674 13.4504 21.83C12.8536 22.3802 12.8555 22.3713 12.832 24.7974L12.8113 26.9336H8.9834C4.10863 26.9336 4.53061 27.0981 4.47866 25.1774L4.44448 23.9136L4.25266 23.7488C4.01046 23.5407 3.85289 23.5408 3.6109 23.7491L3.41909 23.9142V25.2017C3.41909 26.8905 3.58424 27.2817 4.50491 27.7743C4.7845 27.9238 4.81211 27.9249 8.80239 27.944L12.8185 27.9632V28.8373C12.8185 30.1885 12.923 30.4587 14.0056 31.9084C14.9176 33.1294 14.8693 33.0177 14.8693 33.9049C14.8693 34.7611 14.9853 35 15.4011 35C15.81 35 15.8949 34.7929 15.8932 33.7993C15.8913 32.7044 15.8761 32.6674 14.9023 31.3754C13.7783 29.8843 13.8781 30.3747 13.8781 26.3405C13.8781 22.9588 13.8801 22.9078 14.0221 22.7175C14.3693 22.2525 15.0716 22.2725 15.3968 22.7567C15.5494 22.9837 15.5529 23.029 15.5529 24.7662V26.5435L15.2453 26.8723C14.8899 27.2522 14.8539 27.4713 15.1055 27.7228C15.3935 28.0109 15.5991 27.9511 16.1172 27.4289L16.5753 26.9673L16.5939 20.9519C16.6146 14.23 16.5836 14.635 17.097 14.3914C17.5798 14.1622 18.1388 14.4325 18.2873 14.9668C18.3286 15.1154 18.355 16.9409 18.3552 19.6628C18.3556 23.809 18.3639 24.1259 18.4758 24.2641C18.6561 24.4868 19.0194 24.4752 19.2215 24.2403L19.381 24.0548V21.728C19.381 18.982 19.4336 18.7964 20.2118 18.7999C21.0328 18.8035 21.0896 18.9947 21.0922 21.7655C21.0945 24.2576 21.0952 24.2633 21.4403 24.3945C21.6429 24.4716 22.0041 24.3413 22.0709 24.167C22.0954 24.1034 22.1154 23.3453 22.1154 22.4824C22.1154 21.2717 22.1379 20.8598 22.2138 20.678C22.4395 20.1377 23.1525 20.0096 23.5764 20.4331L23.7902 20.6468L23.8244 22.3871C23.8626 24.3359 23.887 24.4271 24.3712 24.4271C24.8078 24.4271 24.8797 24.2541 24.9181 23.1106C24.9578 21.9296 25.1369 21.6016 25.7418 21.6016C26.388 21.6016 26.6235 22.0493 26.6256 23.2816C26.6273 24.2897 26.7088 24.4727 27.1563 24.4727C27.7074 24.4727 27.8971 22.5135 27.432 21.6263C26.9882 20.7801 26.0101 20.3735 25.1574 20.6807C25.007 20.7348 24.8762 20.7797 24.8668 20.7802C24.8575 20.7808 24.8497 20.7257 24.8497 20.6579C24.8497 19.6894 23.3886 18.8854 22.2769 19.2423C22.1509 19.2828 22.1078 19.2391 21.9631 18.9244C21.5232 17.9673 20.3857 17.4794 19.5052 17.8702C19.3996 17.9171 19.3885 17.7911 19.3685 16.3263C19.3469 14.7364 19.3462 14.7302 19.1547 14.3402C18.7193 13.4535 17.7294 13.0463 16.8055 13.3737ZM20.84 13.4371C20.6985 13.5786 20.6726 13.6546 20.7066 13.8302C20.798 14.3037 20.6649 14.2871 24.3712 14.2871C28.0775 14.2871 27.9444 14.3037 28.0359 13.8302C28.0698 13.6546 28.044 13.5786 27.9025 13.4371L27.7271 13.2617H24.3712H21.0154L20.84 13.4371ZM7.16955 15.5292C6.87376 15.6724 6.80144 16.0256 7.01294 16.2945L7.15458 16.4746H9.50307H11.8516L11.9932 16.2945C12.2109 16.0177 12.1307 15.6682 11.8166 15.5251C11.5965 15.4249 7.37737 15.4286 7.16955 15.5292ZM20.9781 15.5292C20.6824 15.6724 20.61 16.0256 20.8215 16.2945L20.9632 16.4746H23.3117H25.6602L25.8018 16.2945C26.0195 16.0177 25.9393 15.6682 25.6251 15.5251C25.4051 15.4249 21.186 15.4286 20.9781 15.5292Z" fill="white"/>
</svg>
