<svg width="35" height="35" viewBox="0 0 35 35" fill="none" xmlns="http://www.w3.org/2000/svg">
<mask id="path-1-inside-1_1239_9365" fill="white">
<path fill-rule="evenodd" clip-rule="evenodd" d="M16.4689 0.0793599C13.7511 0.504213 11.576 2.71379 11.1641 5.46813C10.9768 6.72157 11.0604 18.9656 11.2616 19.7312C12.2265 23.4027 16.0611 25.4741 19.6082 24.24C21.5996 23.5471 23.1783 21.8189 23.7269 19.7312C23.9282 18.9656 24.0118 6.72157 23.8244 5.46813C23.2954 1.93019 20.013 -0.474625 16.4689 0.0793599ZM18.505 1.45126C20.5031 1.86395 22.0314 3.39226 22.4441 5.39041C22.5341 5.82613 22.5529 6.44717 22.5529 8.99588V12.0749H17.4943H12.4357V8.99588C12.4357 6.44717 12.4544 5.82613 12.5445 5.39041C13.1105 2.6496 15.7766 0.88771 18.505 1.45126ZM0.438621 3.72879C0.000231825 3.91651 0.0305834 3.48229 0.00802481 9.87751C-0.0155592 16.5607 -0.0340162 16.3816 0.677878 16.3816C1.38977 16.3816 1.37132 16.5614 1.34773 9.87184L1.32729 4.07996L1.15639 3.90919C0.96656 3.71943 0.647595 3.63924 0.438621 3.72879ZM34.0714 3.72879C33.633 3.91651 33.6634 3.48229 33.6408 9.87751C33.6173 16.5607 33.5988 16.3816 34.3107 16.3816C35.0226 16.3816 35.0041 16.5614 34.9805 9.87184L34.9601 4.07996L34.7892 3.90919C34.5994 3.71943 34.2804 3.63924 34.0714 3.72879ZM15.538 5.14212C15.0371 5.38924 15.0692 6.14434 15.5884 6.32536C15.7247 6.37287 16.4348 6.4011 17.4943 6.4011C18.5538 6.4011 19.2638 6.37287 19.4002 6.32536C19.9253 6.14229 19.9507 5.3822 19.4398 5.13973C19.1128 4.98456 15.8535 4.98654 15.538 5.14212ZM5.78132 5.79496C5.46734 5.97748 5.46303 6.04707 5.46303 10.9688C5.46303 14.1014 5.48689 15.6777 5.53652 15.82C5.73353 16.3852 6.55972 16.3852 6.75674 15.82C6.87889 15.4697 6.85716 6.39283 6.73349 6.09676C6.5855 5.74266 6.12332 5.59617 5.78132 5.79496ZM28.399 5.88075C28.1566 6.12315 28.1503 6.23129 28.1723 9.73211L28.1925 12.9606L28.3805 13.1485C28.5229 13.2909 28.6348 13.3365 28.8419 13.3365C29.0491 13.3365 29.161 13.2909 29.3034 13.1485L29.4914 12.9606L29.5116 9.73211C29.5366 5.7443 29.5322 5.7175 28.8419 5.7175C28.6383 5.7175 28.5179 5.76187 28.399 5.88075ZM2.96935 6.56434C2.72634 6.80736 2.72073 6.90682 2.7426 10.5866L2.76284 13.986L2.95083 14.1739C3.21319 14.4362 3.61132 14.4362 3.87368 14.1739L4.06167 13.986L4.0819 10.5866C4.10672 6.40636 4.1059 6.4011 3.41225 6.4011C3.20861 6.4011 3.08823 6.44546 2.96935 6.56434ZM31.1334 6.56434C30.8904 6.80736 30.8848 6.90682 30.9067 10.5866L30.9269 13.986L31.1149 14.1739C31.3773 14.4362 31.7754 14.4362 32.0377 14.1739L32.2257 13.986L32.246 10.5866C32.2708 6.40636 32.27 6.4011 31.5763 6.4011C31.3727 6.4011 31.2523 6.44546 31.1334 6.56434ZM15.7023 7.60942C15.209 7.69118 15.0081 8.36876 15.3699 8.73058L15.5697 8.9304H17.4943H19.4189L19.6187 8.73058C19.8914 8.45783 19.8916 8.12574 19.6191 7.82065L19.4198 7.59739L17.6538 7.58802C16.6825 7.5829 15.8044 7.59254 15.7023 7.60942ZM8.4381 8.27333C8.20575 8.50568 8.18702 8.69606 8.21053 10.5867L8.23159 12.2771L8.41958 12.465C8.68194 12.7271 9.08007 12.7271 9.34243 12.465L9.53042 12.2771L9.55147 10.5867C9.57957 8.32617 9.52112 8.11008 8.881 8.11008C8.67736 8.11008 8.55698 8.15445 8.4381 8.27333ZM25.6647 8.27333C25.4323 8.50568 25.4136 8.69606 25.4371 10.5867L25.4582 12.2771L25.6461 12.465C25.9085 12.7271 26.3066 12.7271 26.569 12.465L26.757 12.2771L26.778 10.5867C26.8061 8.32617 26.7477 8.11008 26.1076 8.11008C25.9039 8.11008 25.7835 8.15445 25.6647 8.27333ZM22.5376 16.2961C22.5148 19.0637 22.5093 19.1646 22.3559 19.6286C20.7599 24.4538 14.2286 24.4538 12.6327 19.6286C12.4792 19.1646 12.4738 19.0637 12.451 16.2961L12.4275 13.4421H17.4943H22.5611L22.5376 16.2961ZM28.4524 15.0672C27.9578 15.4558 28.2188 16.2449 28.8419 16.2449C29.295 16.2449 29.5983 15.8182 29.4547 15.3829C29.321 14.9777 28.7822 14.808 28.4524 15.0672ZM20.1261 15.2132C19.4624 15.4973 19.648 16.481 20.3654 16.481C21.1603 16.481 21.2525 15.3191 20.4679 15.1887C20.3551 15.1699 20.2013 15.1809 20.1261 15.2132ZM8.31444 17.7071C7.71876 18.2592 8.30316 21.1364 9.38016 22.9538C10.665 25.1221 12.8492 26.7727 15.153 27.3163L15.5119 27.401V29.128V30.855L15.1188 30.9C13.4312 31.0933 12.0255 32.5662 12.0255 34.1411C12.0255 35.0096 11.8006 34.9753 17.4943 34.9753C23.188 34.9753 22.963 35.0096 22.963 34.1411C22.963 32.5662 21.5574 31.0933 19.8698 30.9L19.4767 30.855V29.128V27.401L19.8356 27.3163C23.5616 26.437 26.4431 23.0653 26.8629 19.0935C26.9835 17.9527 26.8201 17.5437 26.2443 17.5437C25.7375 17.5437 25.6055 17.7898 25.5294 18.8767C25.2857 22.3585 22.6068 25.3704 19.1076 26.0968C14.4284 27.0681 9.7895 23.5968 9.45912 18.8767C9.38303 17.7898 9.25103 17.5437 8.74428 17.5437C8.57174 17.5437 8.43448 17.5958 8.31444 17.7071ZM19.9758 17.6648C19.8004 17.8027 19.6818 18.0855 19.6818 18.3659C19.6818 19.2849 18.7889 20.192 17.7205 20.3583C16.5455 20.5412 16.4832 21.7136 17.6484 21.7136C19.2089 21.7136 20.7089 20.3853 20.9829 18.7607C21.1437 17.8073 20.578 17.1916 19.9758 17.6648ZM18.1779 29.2331V30.8738H17.4943H16.8107V29.2331V27.5925H17.4943H18.1779V29.2331ZM20.2062 32.3431C20.7023 32.4905 21.4591 33.2079 21.4591 33.5308C21.4591 33.5875 20.4001 33.6081 17.4943 33.6081C14.5885 33.6081 13.5294 33.5875 13.5294 33.5308C13.5294 33.2211 14.2837 32.492 14.7537 32.3472C15.2251 32.2019 19.7197 32.1986 20.2062 32.3431Z"/>
</mask>
<path fill-rule="evenodd" clip-rule="evenodd" d="M16.4689 0.0793599C13.7511 0.504213 11.576 2.71379 11.1641 5.46813C10.9768 6.72157 11.0604 18.9656 11.2616 19.7312C12.2265 23.4027 16.0611 25.4741 19.6082 24.24C21.5996 23.5471 23.1783 21.8189 23.7269 19.7312C23.9282 18.9656 24.0118 6.72157 23.8244 5.46813C23.2954 1.93019 20.013 -0.474625 16.4689 0.0793599ZM18.505 1.45126C20.5031 1.86395 22.0314 3.39226 22.4441 5.39041C22.5341 5.82613 22.5529 6.44717 22.5529 8.99588V12.0749H17.4943H12.4357V8.99588C12.4357 6.44717 12.4544 5.82613 12.5445 5.39041C13.1105 2.6496 15.7766 0.88771 18.505 1.45126ZM0.438621 3.72879C0.000231825 3.91651 0.0305834 3.48229 0.00802481 9.87751C-0.0155592 16.5607 -0.0340162 16.3816 0.677878 16.3816C1.38977 16.3816 1.37132 16.5614 1.34773 9.87184L1.32729 4.07996L1.15639 3.90919C0.96656 3.71943 0.647595 3.63924 0.438621 3.72879ZM34.0714 3.72879C33.633 3.91651 33.6634 3.48229 33.6408 9.87751C33.6173 16.5607 33.5988 16.3816 34.3107 16.3816C35.0226 16.3816 35.0041 16.5614 34.9805 9.87184L34.9601 4.07996L34.7892 3.90919C34.5994 3.71943 34.2804 3.63924 34.0714 3.72879ZM15.538 5.14212C15.0371 5.38924 15.0692 6.14434 15.5884 6.32536C15.7247 6.37287 16.4348 6.4011 17.4943 6.4011C18.5538 6.4011 19.2638 6.37287 19.4002 6.32536C19.9253 6.14229 19.9507 5.3822 19.4398 5.13973C19.1128 4.98456 15.8535 4.98654 15.538 5.14212ZM5.78132 5.79496C5.46734 5.97748 5.46303 6.04707 5.46303 10.9688C5.46303 14.1014 5.48689 15.6777 5.53652 15.82C5.73353 16.3852 6.55972 16.3852 6.75674 15.82C6.87889 15.4697 6.85716 6.39283 6.73349 6.09676C6.5855 5.74266 6.12332 5.59617 5.78132 5.79496ZM28.399 5.88075C28.1566 6.12315 28.1503 6.23129 28.1723 9.73211L28.1925 12.9606L28.3805 13.1485C28.5229 13.2909 28.6348 13.3365 28.8419 13.3365C29.0491 13.3365 29.161 13.2909 29.3034 13.1485L29.4914 12.9606L29.5116 9.73211C29.5366 5.7443 29.5322 5.7175 28.8419 5.7175C28.6383 5.7175 28.5179 5.76187 28.399 5.88075ZM2.96935 6.56434C2.72634 6.80736 2.72073 6.90682 2.7426 10.5866L2.76284 13.986L2.95083 14.1739C3.21319 14.4362 3.61132 14.4362 3.87368 14.1739L4.06167 13.986L4.0819 10.5866C4.10672 6.40636 4.1059 6.4011 3.41225 6.4011C3.20861 6.4011 3.08823 6.44546 2.96935 6.56434ZM31.1334 6.56434C30.8904 6.80736 30.8848 6.90682 30.9067 10.5866L30.9269 13.986L31.1149 14.1739C31.3773 14.4362 31.7754 14.4362 32.0377 14.1739L32.2257 13.986L32.246 10.5866C32.2708 6.40636 32.27 6.4011 31.5763 6.4011C31.3727 6.4011 31.2523 6.44546 31.1334 6.56434ZM15.7023 7.60942C15.209 7.69118 15.0081 8.36876 15.3699 8.73058L15.5697 8.9304H17.4943H19.4189L19.6187 8.73058C19.8914 8.45783 19.8916 8.12574 19.6191 7.82065L19.4198 7.59739L17.6538 7.58802C16.6825 7.5829 15.8044 7.59254 15.7023 7.60942ZM8.4381 8.27333C8.20575 8.50568 8.18702 8.69606 8.21053 10.5867L8.23159 12.2771L8.41958 12.465C8.68194 12.7271 9.08007 12.7271 9.34243 12.465L9.53042 12.2771L9.55147 10.5867C9.57957 8.32617 9.52112 8.11008 8.881 8.11008C8.67736 8.11008 8.55698 8.15445 8.4381 8.27333ZM25.6647 8.27333C25.4323 8.50568 25.4136 8.69606 25.4371 10.5867L25.4582 12.2771L25.6461 12.465C25.9085 12.7271 26.3066 12.7271 26.569 12.465L26.757 12.2771L26.778 10.5867C26.8061 8.32617 26.7477 8.11008 26.1076 8.11008C25.9039 8.11008 25.7835 8.15445 25.6647 8.27333ZM22.5376 16.2961C22.5148 19.0637 22.5093 19.1646 22.3559 19.6286C20.7599 24.4538 14.2286 24.4538 12.6327 19.6286C12.4792 19.1646 12.4738 19.0637 12.451 16.2961L12.4275 13.4421H17.4943H22.5611L22.5376 16.2961ZM28.4524 15.0672C27.9578 15.4558 28.2188 16.2449 28.8419 16.2449C29.295 16.2449 29.5983 15.8182 29.4547 15.3829C29.321 14.9777 28.7822 14.808 28.4524 15.0672ZM20.1261 15.2132C19.4624 15.4973 19.648 16.481 20.3654 16.481C21.1603 16.481 21.2525 15.3191 20.4679 15.1887C20.3551 15.1699 20.2013 15.1809 20.1261 15.2132ZM8.31444 17.7071C7.71876 18.2592 8.30316 21.1364 9.38016 22.9538C10.665 25.1221 12.8492 26.7727 15.153 27.3163L15.5119 27.401V29.128V30.855L15.1188 30.9C13.4312 31.0933 12.0255 32.5662 12.0255 34.1411C12.0255 35.0096 11.8006 34.9753 17.4943 34.9753C23.188 34.9753 22.963 35.0096 22.963 34.1411C22.963 32.5662 21.5574 31.0933 19.8698 30.9L19.4767 30.855V29.128V27.401L19.8356 27.3163C23.5616 26.437 26.4431 23.0653 26.8629 19.0935C26.9835 17.9527 26.8201 17.5437 26.2443 17.5437C25.7375 17.5437 25.6055 17.7898 25.5294 18.8767C25.2857 22.3585 22.6068 25.3704 19.1076 26.0968C14.4284 27.0681 9.7895 23.5968 9.45912 18.8767C9.38303 17.7898 9.25103 17.5437 8.74428 17.5437C8.57174 17.5437 8.43448 17.5958 8.31444 17.7071ZM19.9758 17.6648C19.8004 17.8027 19.6818 18.0855 19.6818 18.3659C19.6818 19.2849 18.7889 20.192 17.7205 20.3583C16.5455 20.5412 16.4832 21.7136 17.6484 21.7136C19.2089 21.7136 20.7089 20.3853 20.9829 18.7607C21.1437 17.8073 20.578 17.1916 19.9758 17.6648ZM18.1779 29.2331V30.8738H17.4943H16.8107V29.2331V27.5925H17.4943H18.1779V29.2331ZM20.2062 32.3431C20.7023 32.4905 21.4591 33.2079 21.4591 33.5308C21.4591 33.5875 20.4001 33.6081 17.4943 33.6081C14.5885 33.6081 13.5294 33.5875 13.5294 33.5308C13.5294 33.2211 14.2837 32.492 14.7537 32.3472C15.2251 32.2019 19.7197 32.1986 20.2062 32.3431Z" fill="white" stroke="white" stroke-width="0.4" mask="url(#path-1-inside-1_1239_9365)"/>
</svg>
