<svg width="35" height="35" viewBox="0 0 35 35" fill="none" xmlns="http://www.w3.org/2000/svg">
<path fill-rule="evenodd" clip-rule="evenodd" d="M10.5143 0.0802708C10.2391 0.200857 9.95181 0.550036 9.90252 0.824021C9.77278 1.54549 9.90375 13.5115 10.0435 13.6986C10.4074 14.186 10.29 14.1671 13.0872 14.1887L15.6126 14.2082L16.4068 15.2664C17.5284 16.7604 17.5208 16.7604 18.6423 15.2664L19.4366 14.2082L21.962 14.1887C24.7592 14.1671 24.6418 14.186 25.0057 13.6986C25.2279 13.401 25.2279 0.787038 25.0057 0.48947C24.6219 -0.0245925 25.3109 0.0205931 17.6051 0.00391338C11.9879 -0.00832294 10.6845 0.00575909 10.5143 0.0802708ZM24.0871 7.09401V13.1096H21.5158H18.9444L18.7301 13.3442C18.6123 13.4732 18.3005 13.8721 18.0373 14.2307C17.462 15.0145 17.5871 15.0145 17.0119 14.2307C16.7487 13.8721 16.4369 13.4732 16.3191 13.3442L16.1048 13.1096H13.5334H10.9621V7.09401V1.07839H17.5246H24.0871V7.09401ZM12.2237 3.43371C12.1178 3.53946 12.0558 3.6796 12.0558 3.81276C12.0558 3.94592 12.1178 4.08606 12.2237 4.19181L12.3914 4.35964H14.5168H16.6421L16.8099 4.19181C16.9157 4.08606 16.9777 3.94592 16.9777 3.81276C16.9777 3.6796 16.9157 3.53946 16.8099 3.43371L16.6421 3.26589H14.5168H12.3914L12.2237 3.43371ZM12.2237 5.62121C11.7841 6.06069 12.1269 6.54714 12.8762 6.54714C13.4447 6.54714 13.6965 6.37925 13.6965 6.00026C13.6965 5.47034 12.6451 5.1997 12.2237 5.62121ZM14.958 5.62121C14.8522 5.72696 14.7902 5.8671 14.7902 6.00026C14.7902 6.13342 14.8522 6.27356 14.958 6.37931L15.1258 6.54714H18.8918H22.6578L22.8255 6.37931C22.9313 6.27356 22.9933 6.13342 22.9933 6.00026C22.9933 5.8671 22.9313 5.72696 22.8255 5.62121L22.6578 5.45339H18.8918H15.1258L14.958 5.62121ZM12.2237 7.80871C12.1178 7.91446 12.0558 8.0546 12.0558 8.18776C12.0558 8.32092 12.1178 8.46106 12.2237 8.56681L12.3914 8.73464H17.5246H22.6578L22.8255 8.56681C23.0476 8.34485 23.0476 8.03067 22.8255 7.80871L22.6578 7.64089H17.5246H12.3914L12.2237 7.80871ZM12.2237 9.99621C12.1178 10.102 12.0558 10.2421 12.0558 10.3753C12.0558 10.5084 12.1178 10.6486 12.2237 10.7543L12.3914 10.9221H16.4308H20.4703L20.638 10.7543C20.7438 10.6486 20.8058 10.5084 20.8058 10.3753C20.8058 10.2421 20.7438 10.102 20.638 9.99621L20.4703 9.82839H16.4308H12.3914L12.2237 9.99621ZM17.1455 18.7462L16.9777 18.914V26.7815V34.6491L17.1455 34.8168C17.2513 34.9226 17.3914 34.9846 17.5246 34.9846C17.6578 34.9846 17.7979 34.9226 17.9036 34.8168L18.0715 34.6491V26.7815V18.914L17.9036 18.7462C17.7979 18.6404 17.6578 18.5784 17.5246 18.5784C17.3914 18.5784 17.2513 18.6404 17.1455 18.7462ZM25.8955 19.84L25.7277 20.0077V26.7815V33.5553L25.8955 33.7231C26.0013 33.8289 26.1414 33.8909 26.2746 33.8909C26.4078 33.8909 26.5479 33.8289 26.6536 33.7231L26.8215 33.5553V26.7815V20.0077L26.6536 19.84C26.5479 19.7341 26.4078 19.6721 26.2746 19.6721C26.1414 19.6721 26.0013 19.7341 25.8955 19.84ZM12.7705 20.3868L12.6027 20.5546V26.7815V33.0084L12.7705 33.1762C12.8763 33.282 13.0164 33.344 13.1496 33.344C13.2828 33.344 13.4229 33.282 13.5286 33.1762L13.6965 33.0084V26.7815V20.5546L13.5286 20.3868C13.4229 20.281 13.2828 20.219 13.1496 20.219C13.0164 20.219 12.8763 20.281 12.7705 20.3868ZM8.39554 21.4806L8.22772 21.6483V26.7815V31.9147L8.39554 32.0824C8.50129 32.1883 8.64143 32.2503 8.77459 32.2503C8.90776 32.2503 9.04789 32.1883 9.15365 32.0824L9.32147 31.9147V26.7815V21.6483L9.15365 21.4806C9.04789 21.3748 8.90776 21.3128 8.77459 21.3128C8.64143 21.3128 8.50129 21.3748 8.39554 21.4806ZM21.5205 21.4806L21.3527 21.6483V26.7815V31.9147L21.5205 32.0824C21.6263 32.1883 21.7664 32.2503 21.8996 32.2503C22.0328 32.2503 22.1729 32.1883 22.2786 32.0824L22.4465 31.9147V26.7815V21.6483L22.2786 21.4806C22.1729 21.3748 22.0328 21.3128 21.8996 21.3128C21.7664 21.3128 21.6263 21.3748 21.5205 21.4806ZM10.583 22.5743L10.4152 22.7421V26.7815V30.8209L10.583 30.9887C10.6888 31.0945 10.8289 31.1565 10.9621 31.1565C11.0953 31.1565 11.2354 31.0945 11.3411 30.9887L11.509 30.8209V26.7815V22.7421L11.3411 22.5743C11.2354 22.4685 11.0953 22.4065 10.9621 22.4065C10.8289 22.4065 10.6888 22.4685 10.583 22.5743ZM19.333 23.1212L19.1652 23.289V26.7815V30.2741L19.333 30.4418C19.4388 30.5476 19.5789 30.6096 19.7121 30.6096C19.8453 30.6096 19.9854 30.5476 20.0911 30.4418L20.259 30.2741V26.7815V23.289L20.0911 23.1212C19.9854 23.0154 19.8453 22.9534 19.7121 22.9534C19.5789 22.9534 19.4388 23.0154 19.333 23.1212ZM14.958 24.215L14.7902 24.3827V26.7815V29.1803L14.958 29.3481C15.0638 29.4539 15.2039 29.5159 15.3371 29.5159C15.4703 29.5159 15.6104 29.4539 15.7161 29.3481L15.884 29.1803V26.7815V24.3827L15.7161 24.215C15.6104 24.1091 15.4703 24.0471 15.3371 24.0471C15.2039 24.0471 15.0638 24.1091 14.958 24.215ZM23.708 24.215L23.5402 24.3827V26.7815V29.1803L23.708 29.3481C23.8138 29.4539 23.9539 29.5159 24.0871 29.5159C24.2203 29.5159 24.3604 29.4539 24.4661 29.3481L24.634 29.1803V26.7815V24.3827L24.4661 24.215C24.3604 24.1091 24.2203 24.0471 24.0871 24.0471C23.9539 24.0471 23.8138 24.1091 23.708 24.215ZM28.083 24.7618L27.9152 24.9296V26.7815V28.6334L28.083 28.8012C28.1888 28.907 28.3289 28.969 28.4621 28.969C28.5953 28.969 28.7354 28.907 28.8411 28.8012L29.009 28.6334V26.7815V24.9296L28.8411 24.7618C28.7354 24.656 28.5953 24.594 28.4621 24.594C28.3289 24.594 28.1888 24.656 28.083 24.7618ZM6.20804 25.3087C6.04158 25.4751 6.04022 25.4871 6.04022 26.7815C6.04022 28.252 6.09696 28.4221 6.58709 28.4221C7.07723 28.4221 7.13397 28.252 7.13397 26.7815C7.13397 25.311 7.07723 25.1409 6.58709 25.1409C6.45393 25.1409 6.31379 25.2029 6.20804 25.3087ZM4.02054 25.8556C3.76399 26.1121 3.76399 27.451 4.02054 27.7074C4.53488 28.2218 4.94647 27.8103 4.94647 26.7815C4.94647 25.9167 4.83203 25.6878 4.39959 25.6878C4.26643 25.6878 4.12629 25.7498 4.02054 25.8556ZM30.2705 25.8556C29.808 26.318 30.1003 27.8753 30.6496 27.8753C31.082 27.8753 31.1965 27.6463 31.1965 26.7815C31.1965 25.9167 31.082 25.6878 30.6496 25.6878C30.5164 25.6878 30.3763 25.7498 30.2705 25.8556Z" fill="white"/>
</svg>
