<svg width="36" height="36" viewBox="0 0 36 36" fill="none" xmlns="http://www.w3.org/2000/svg">
<path fill-rule="evenodd" clip-rule="evenodd" d="M17.5078 0.0756909C16.981 0.185211 16.8059 0.305691 16.7499 0.597129C16.7289 0.706239 16.6937 0.888636 16.6717 1.00247C16.6419 1.15672 16.5708 1.23487 16.3925 1.30939C16.2609 1.36439 16.0154 1.5024 15.8469 1.6161C15.4892 1.85747 15.4913 1.85727 15.0743 1.70912C14.5072 1.50775 14.0143 1.91624 13.367 3.12425C12.7417 4.2909 12.7087 4.70131 13.2098 5.07822L13.4666 5.27144L13.4624 5.96343L13.4583 6.65542L13.1238 6.9759C12.737 7.34658 12.736 7.37473 13.0804 8.23494C13.7067 9.79891 14.4637 10.5019 15.2033 10.206C15.4756 10.097 15.4815 10.0979 15.8039 10.3032C15.983 10.4171 16.2427 10.5637 16.3811 10.6288C16.6365 10.7491 16.7091 10.8812 16.7108 11.2288C16.7132 11.724 17.3367 11.9599 18.6429 11.9599C20.1098 11.9599 20.4722 11.7889 20.5839 11.0441C20.61 10.8697 20.6678 10.727 20.7124 10.727C20.757 10.727 21.0214 10.5864 21.3002 10.4145L21.8069 10.1021L22.087 10.209C22.7909 10.478 23.4155 9.94507 24.075 8.51295C24.5362 7.51144 24.5327 7.2285 24.055 6.87405L23.8008 6.68542L23.8076 5.99583L23.8145 5.30617L24.133 5.01377C24.512 4.6659 24.5167 4.61309 24.2386 3.84446C23.881 2.85617 22.9682 1.61781 22.5967 1.61706C22.5056 1.61686 22.2874 1.66816 22.112 1.73103L21.793 1.84535L21.4613 1.63418C21.2788 1.51809 21.0143 1.36877 20.8735 1.3024C20.6423 1.1935 20.613 1.14932 20.5732 0.849252C20.515 0.410622 20.3501 0.21528 19.9498 0.110828C19.4504 -0.0195831 18.0619 -0.0395146 17.5078 0.0756909ZM19.2788 1.0572C19.5428 1.10405 19.5531 1.11624 19.6083 1.44501C19.6807 1.87686 19.7365 1.9398 20.2529 2.17151C20.4865 2.27631 20.883 2.50275 21.1341 2.67466C21.6464 3.02542 21.6694 3.03048 22.0527 2.87713C22.4597 2.71432 22.7801 3.02473 23.1678 3.95754L23.3144 4.31035L23.0715 4.52206C22.709 4.83802 22.672 4.94617 22.7398 5.49069C22.7731 5.75768 22.7732 6.17384 22.7401 6.43836C22.6697 7.00138 22.7155 7.14733 23.0407 7.39528C23.1762 7.4987 23.2871 7.62377 23.2871 7.67336C23.2871 7.82247 22.828 8.68966 22.6139 8.94487L22.4139 9.18329L22.0569 9.06911C21.64 8.93583 21.6207 8.94124 20.9926 9.36569C20.7289 9.54391 20.359 9.74891 20.1707 9.82131C19.7899 9.96761 19.5887 10.2495 19.5886 10.6372C19.5885 10.9044 19.3178 10.9678 18.3867 10.9189C17.7171 10.8838 17.7407 10.898 17.6626 10.4806C17.5839 10.0593 17.5518 10.0273 16.884 9.70398C16.5708 9.5524 16.2233 9.35158 16.1117 9.25768C15.797 8.99281 15.6152 8.9472 15.3051 9.05514C15.1558 9.10706 14.9809 9.15007 14.9163 9.15062C14.7765 9.15185 14.2955 8.4672 14.0919 7.97713L13.9492 7.63391L14.2435 7.38048L14.5378 7.12699L14.5473 5.99891L14.5568 4.87083L14.2507 4.58487L13.9445 4.29898L14.2321 3.7287C14.3903 3.41507 14.5955 3.0672 14.6881 2.95555L14.8566 2.75261L15.1848 2.87028C15.6364 3.03213 15.6778 3.0248 16.1 2.70912C16.3046 2.5561 16.6724 2.33638 16.9172 2.22076C17.4896 1.95048 17.5904 1.85788 17.6411 1.55665C17.7154 1.11432 17.7383 1.07857 17.965 1.05028C18.3413 1.00329 18.9944 1.00672 19.2788 1.0572ZM17.9957 3.33124C15.9352 3.85185 15.2292 6.54555 16.7863 7.94548C18.7143 9.67891 21.8208 7.99227 21.3021 5.49364C21.0945 4.49357 20.2681 4.72973 20.2828 5.78487C20.3059 7.4498 18.5911 8.28076 17.4621 7.15172C16.3455 6.03521 17.1535 4.33877 18.8074 4.32727C19.6215 4.32158 19.878 4.09747 19.6267 3.61144C19.473 3.31425 18.6336 3.17001 17.9957 3.33124ZM28.187 9.3648C26.6409 9.59007 25.7857 10.1158 25.8594 10.7955L25.9002 11.1722L25.417 11.6484L24.9337 12.1247L24.4733 12.1279C23.8544 12.1322 23.4732 12.7102 23.1848 14.0811C22.9404 15.2429 23.0516 15.6519 23.6728 15.8766C23.8343 15.935 23.9204 16.0162 23.947 16.1354C24.0429 16.5656 24.1238 16.8734 24.1933 17.0726C24.2609 17.2667 24.2469 17.3173 24.0517 17.5827C23.6731 18.0975 23.8555 18.5576 24.8254 19.5345C25.8011 20.5172 26.2833 20.7096 26.7815 20.315L27.0537 20.0994L27.3794 20.2061C27.5584 20.2648 27.8591 20.3453 28.0476 20.3849C28.3704 20.4529 28.4 20.4777 28.5613 20.8147C28.7891 21.291 28.9252 21.3476 29.657 21.271C31.3317 21.0954 32.2597 20.5957 32.2597 19.8693V19.4323L32.7383 18.9471L33.2169 18.4618L33.5643 18.5079C34.1637 18.5874 34.5441 18.1016 34.865 16.847C35.2043 15.5204 35.131 15.0543 34.5396 14.7773C34.2114 14.6236 34.1964 14.604 34.1212 14.2306C34.0783 14.0177 34.007 13.7186 33.9628 13.5662C33.887 13.3039 33.8943 13.2728 34.0985 12.9908C34.3866 12.5932 34.3732 12.4701 33.9776 11.8786C33.5795 11.2834 32.9965 10.709 32.397 10.3216C31.8724 9.98254 31.8172 9.98007 31.3871 10.276L31.0472 10.5098L30.6444 10.3769C30.4229 10.3038 30.1278 10.2259 29.9885 10.2036C29.7648 10.1678 29.719 10.1249 29.5931 9.83226C29.3588 9.28747 29.1635 9.22254 28.187 9.3648ZM28.8281 10.6766C28.9969 11.0703 29.094 11.1364 29.61 11.2095C29.853 11.244 30.2673 11.3498 30.5305 11.4447C31.1246 11.659 31.2076 11.6592 31.521 11.4462C31.9165 11.1773 32.2844 11.3641 32.8801 12.1362L33.1643 12.5046L32.9517 12.7937C32.6963 13.141 32.6907 13.2538 32.9021 13.7803C32.9917 14.0034 33.1014 14.3995 33.1459 14.6605C33.2511 15.2774 33.3074 15.3709 33.6697 15.5312C34.0714 15.7088 34.0654 16.2695 33.652 17.1903L33.5333 17.4549L33.1728 17.4125L32.8124 17.3702L31.9801 18.1984L31.1478 19.0265L31.1791 19.4044L31.2105 19.7823L30.8961 19.9183C30.5896 20.0508 29.8104 20.244 29.5725 20.2464C29.4984 20.2471 29.3891 20.1199 29.2815 19.9075C29.0948 19.539 28.9504 19.4278 28.6512 19.4216C28.439 19.4173 27.7377 19.2307 27.2659 19.053L26.9638 18.9393L26.6243 19.1503C26.1972 19.4158 26.1385 19.3967 25.5476 18.7999C24.9758 18.2224 24.9379 18.1285 25.1584 17.8342C25.4208 17.484 25.4266 17.3732 25.213 16.7853C25.1043 16.4858 24.9933 16.0712 24.9666 15.864C24.9032 15.3737 24.8004 15.2234 24.4214 15.0676C24.2455 14.9953 24.1099 14.8945 24.1104 14.8366C24.1126 14.6052 24.3157 13.7919 24.4437 13.5025L24.5808 13.1927H25.0052C25.4105 13.1927 25.4391 13.1814 25.6426 12.9393C25.917 12.6129 26.4078 12.1225 26.7413 11.8415L27.0037 11.6205L26.9581 11.2172L26.9125 10.814L27.3087 10.6701C28.3779 10.2819 28.6594 10.2831 28.8281 10.6766ZM10.9241 11.0028C9.92606 11.1154 9.99154 11.0376 9.69627 12.4603L9.48572 13.4745L8.88846 13.6743C8.55997 13.7842 8.04442 13.9982 7.74271 14.1499C7.05271 14.4968 7.19154 14.5241 6.18819 13.8434C5.66141 13.486 5.26202 13.2612 5.15387 13.2612C4.62682 13.2612 2.32867 15.5645 2.32784 16.0934C2.32757 16.2522 2.48449 16.5396 2.92147 17.1809L3.51545 18.0527L3.16915 18.7905C2.97867 19.1963 2.75524 19.7364 2.67264 19.9907C2.5901 20.2449 2.5173 20.4532 2.51093 20.4533C2.41915 20.4553 0.479488 20.8634 0.391337 20.8992C-0.0915397 21.0951 -0.145101 24.6612 0.329077 25.0454C0.401132 25.1038 0.922364 25.2373 1.4875 25.3423L2.5149 25.533L2.70264 26.0923C2.80593 26.3999 3.02819 26.9405 3.19661 27.2935L3.50284 27.9353L2.91552 28.8171C2.12099 30.0098 2.1301 30.0547 3.4438 31.4066C4.88969 32.8946 5.04099 32.9335 6.23415 32.1247L7.10237 31.536L7.74613 31.8453C8.10017 32.0154 8.64209 32.2385 8.95045 32.341L9.51106 32.5274L9.70223 33.5621C9.97093 35.0166 9.95661 35.0078 12.0542 35.0078C13.2787 35.0078 13.842 34.9434 14.0401 34.7805C14.1498 34.6903 14.5778 32.9345 14.5882 32.5323C14.5883 32.5269 14.8428 32.4392 15.1535 32.3373C15.4643 32.2355 16.0055 32.0128 16.3561 31.8425L16.9937 31.5328L17.863 32.1238C19.0611 32.9382 19.2107 32.8997 20.6585 31.4026C21.9887 30.0272 21.9913 30.0149 21.198 28.8493C20.5182 27.8504 20.546 27.9862 20.8842 27.3136C21.0317 27.02 21.2504 26.4996 21.37 26.157L21.5875 25.5342L22.6257 25.3418C24.0696 25.0742 24.0705 25.0727 24.0735 23.0215C24.0764 20.9718 24.0557 20.9374 22.647 20.6618C21.4606 20.4297 21.5996 20.5149 21.3901 19.8909C21.2978 19.6162 21.0812 19.0908 20.9087 18.7233L20.5949 18.0552L21.1876 17.1655C21.5807 16.5754 21.7802 16.211 21.7802 16.0832C21.7802 15.581 19.4561 13.2612 18.9529 13.2612C18.8128 13.2612 18.4952 13.4375 17.9045 13.8434C16.9075 14.5284 17.0874 14.4973 16.2928 14.1221C15.9394 13.9551 15.4253 13.7432 15.1506 13.6511C14.5283 13.4425 14.6154 13.5847 14.3877 12.406C14.1688 11.2732 14.1028 11.1578 13.6198 11.0647C13.1426 10.9726 11.5213 10.9354 10.9241 11.0028ZM13.2285 12.087C13.2528 12.1112 13.355 12.5626 13.4557 13.09C13.6828 14.2801 13.7034 14.3132 14.3312 14.495C15.0565 14.7051 15.6446 14.9436 16.283 15.2867C17.0295 15.6879 17.0369 15.6866 18.0452 15.0025L18.9111 14.4151L19.1299 14.5826C19.4117 14.7984 20.2424 15.6288 20.4578 15.9102L20.6243 16.1277L20.0379 17.0057C19.3506 18.0348 19.3546 18.0053 19.7858 18.8246C20.1339 19.4862 20.3987 20.1476 20.5778 20.8036C20.7197 21.323 20.7572 21.3445 21.9434 21.586L22.9789 21.7969L23.0204 22.3064C23.0433 22.5867 23.0464 23.1301 23.0274 23.5138L22.9928 24.2116L21.9623 24.4042C20.733 24.634 20.7302 24.636 20.5102 25.4188C20.4149 25.7578 20.1377 26.4395 19.8942 26.9336C19.3419 28.0542 19.3361 27.9709 20.0382 28.9929L20.6249 29.8469L20.5067 30.0301C20.3326 30.3 19.0503 31.5489 18.9473 31.5489C18.8987 31.5489 18.4765 31.2869 18.0091 30.9667C17.0446 30.3059 16.9838 30.2925 16.4401 30.6228C15.9367 30.9286 15.2627 31.2132 14.4857 31.4478C13.6845 31.6898 13.6811 31.6946 13.4552 32.911L13.2651 33.935L12.6257 33.9829C12.274 34.0093 11.7271 34.0093 11.4102 33.9829L10.8343 33.9349L10.6418 32.8984C10.4235 31.7223 10.3992 31.6817 9.81791 31.5188C9.18579 31.3417 8.36956 31.0096 7.76647 30.684C7.04572 30.295 7.08106 30.2891 6.09024 30.9659C5.04449 31.6803 5.2138 31.6992 4.27805 30.7634C3.34223 29.8275 3.36456 30.0258 4.07476 28.9625C4.73723 27.9707 4.74421 27.938 4.41476 27.3759C4.10332 26.8445 3.82552 26.186 3.60161 25.4486C3.34702 24.6099 3.40531 24.6523 2.17723 24.4123L1.10682 24.2032L1.05921 23.5684C1.03305 23.2192 1.03819 22.6778 1.07058 22.3653L1.12956 21.7969L2.1749 21.584C3.39367 21.3358 3.36668 21.3553 3.59408 20.5558C3.69052 20.2167 3.96908 19.5351 4.21319 19.041C4.7636 17.9269 4.77284 18.0536 4.06497 17.0147C3.49778 16.1823 3.47675 16.1381 3.57599 15.9866C3.7223 15.7633 4.64216 14.8349 4.94093 14.609L5.19065 14.4202L6.0473 15.0051C7.06004 15.6966 7.05709 15.6962 7.89154 15.2516C8.53278 14.9099 9.1575 14.6619 9.87914 14.4623C10.3869 14.3219 10.4235 14.2562 10.6446 13.0909C10.7446 12.564 10.8484 12.1109 10.8753 12.084C10.9775 11.9818 13.1259 11.9845 13.2285 12.087ZM28.3898 12.6782C26.377 13.2243 25.6894 15.74 27.153 17.2036C28.8385 18.8892 31.7363 17.7411 31.7441 15.3845C31.7465 14.6445 31.6915 14.4541 31.4374 14.3227C30.9436 14.0673 30.72 14.3195 30.7142 15.1382C30.6984 17.4071 27.5943 17.6689 27.4135 15.4166C27.3284 14.3561 28.0691 13.642 29.2367 13.659C29.8957 13.6687 30.1364 13.5448 30.1364 13.196C30.1364 12.6727 29.3115 12.4282 28.3898 12.6782ZM11.2323 15.9372C6.36956 16.5249 3.52736 21.7281 5.67969 26.1021C6.24462 27.2501 6.65332 27.5662 7.05421 27.1653C7.26072 26.9588 7.2223 26.7332 6.88175 26.1522C5.05257 23.0318 6.1623 19.1666 9.34873 17.5595C11.2041 16.6237 13.7292 16.7986 15.4446 17.9816C15.7078 18.1631 16.054 18.1656 16.2323 17.9873C17.1294 17.0902 13.6149 15.6493 11.2323 15.9372ZM11.472 18.6736C8.82668 19.0342 7.0688 21.8114 7.89627 24.3229C9.1901 28.2498 14.5796 28.3743 16.1317 24.5132C17.3202 21.557 14.6713 18.2374 11.472 18.6736ZM17.0661 18.8307C16.848 19.063 16.8815 19.3201 17.195 19.8164C20.5485 25.1262 14.4371 31.3383 8.95325 28.1939C8.28319 27.8097 8.10428 27.7786 7.88805 28.0088C7.4973 28.4247 7.78682 28.8014 8.92449 29.357C14.8111 32.2323 21.108 26.2825 18.5883 20.2259C18.0456 18.9215 17.4735 18.3971 17.0661 18.8307ZM13.0395 19.8391C15.6648 20.65 16.171 24.2918 13.8636 25.7678C11.4641 27.3028 8.42127 25.3742 8.77551 22.5428C9.02469 20.551 11.0948 19.2385 13.0395 19.8391Z" fill="white"/>
</svg>
