<svg width="24" height="23" viewBox="0 0 24 23" fill="none" xmlns="http://www.w3.org/2000/svg">
<path fill-rule="evenodd" clip-rule="evenodd" d="M11.0025 0.0399457C2.94057 0.755731 -1.88031 9.33172 1.69987 16.5886C4.53395 22.3332 11.6081 24.6518 17.2675 21.6911C18.3318 21.1343 18.5572 20.7849 18.2498 20.1681C17.9539 19.5742 17.5133 19.5397 16.5696 20.0367C10.0632 23.4631 2.28444 18.8091 2.28444 11.49C2.28444 3.87295 10.6606 -0.745873 17.1661 3.28393C17.899 3.73791 18.2778 3.75952 18.6429 3.36816C19.1065 2.87115 18.972 2.3541 18.2519 1.86539C16.2723 0.521913 13.4835 -0.180351 11.0025 0.0399457ZM22.3002 1.89863C22.0265 1.99616 22.0218 2.00186 17.1114 8.12085C12.4301 13.9544 12.3097 14.0967 12.0595 14.0939C11.8364 14.0913 11.8324 14.0878 9.31112 11.6978C6.72928 9.25023 6.67744 9.20832 6.29727 9.26043C5.60713 9.35503 5.26303 10.0745 5.6446 10.6249C5.74801 10.7741 9.59435 14.4554 10.4602 15.234C11.4088 16.0869 12.7432 16.095 13.6208 15.2531C13.8763 15.0081 23.1982 3.43056 23.3503 3.16938C23.7567 2.4717 23.0596 1.62811 22.3002 1.89863ZM21.9827 7.99538C21.4446 8.18347 21.2842 8.61135 21.4609 9.38814C21.7749 10.7685 21.7512 12.483 21.3997 13.8297C21.1163 14.9153 20.8359 15.5611 20.1191 16.7789C19.6824 17.5209 20.008 18.2369 20.786 18.2455C21.314 18.2514 21.601 17.9197 22.298 16.4988C23.4272 14.1964 23.7472 11.6851 23.2336 9.15531C23.0278 8.14178 22.627 7.77015 21.9827 7.99538Z" fill="white"/>
</svg>
