<svg width="21" height="21" viewBox="0 0 21 21" fill="none" xmlns="http://www.w3.org/2000/svg">
<g opacity="0.6" clip-path="url(#clip0_387_3994)">
<path d="M13.9219 10.608L21.0015 15.0836V5.94336L13.9219 10.608Z" fill="#96A3AE"/>
<path d="M0 5.94336V15.0836L7.07963 10.608L0 5.94336Z" fill="#96A3AE"/>
<path d="M19.6872 3.28125H1.31219C0.65725 3.28125 0.1375 3.7695 0.0390625 4.39819L10.4997 11.2901L20.9603 4.39819C20.8619 3.7695 20.3421 3.28125 19.6872 3.28125Z" fill="#96A3AE"/>
<path d="M12.7191 11.3997L10.8619 12.623C10.7517 12.6952 10.627 12.7306 10.501 12.7306C10.375 12.7306 10.2503 12.6952 10.14 12.623L8.28284 11.3984L0.0429688 16.6104C0.144031 17.2338 0.661156 17.7181 1.31347 17.7181H19.6885C20.3408 17.7181 20.8579 17.2338 20.959 16.6104L12.7191 11.3997Z" fill="#96A3AE"/>
</g>
<defs>
<clipPath id="clip0_387_3994">
<rect width="21" height="21" fill="white"/>
</clipPath>
</defs>
</svg>
