<svg width="40" height="40" viewBox="0 0 40 40" fill="none" xmlns="http://www.w3.org/2000/svg">
<path fill-rule="evenodd" clip-rule="evenodd" d="M14.1462 2.07048C5.58898 2.93011 -0.0223126 11.566 2.6868 19.7064C5.44511 27.9946 15.2587 31.5451 22.6052 26.9129C22.9477 26.697 23.2485 26.5204 23.2737 26.5204C23.299 26.5204 23.8358 27.0373 24.4666 27.669L25.6136 28.8175L25.5304 29.1266C25.4346 29.4824 25.4795 29.9366 25.6429 30.2641C25.803 30.585 32.8118 37.5998 33.1576 37.7853C34.0331 38.2549 34.4866 38.0363 36.2373 36.3004C38.013 34.5397 38.2554 34.0468 37.7808 33.1621C37.5953 32.8163 30.5805 25.8075 30.2597 25.6474C29.9321 25.484 29.4779 25.4391 29.1221 25.5349L28.813 25.6181L27.6645 24.4711C27.0328 23.8403 26.5159 23.3035 26.5159 23.2782C26.5159 23.253 26.6925 22.9521 26.9084 22.6097C32.8279 13.2217 25.2084 0.9591 14.1462 2.07048ZM17.5742 3.28285C27.4363 5.12468 31.2716 16.9901 24.3092 24.12C19.4127 29.1343 11.4607 29.1022 6.59079 24.0484C0.957568 18.2026 2.35514 8.72814 9.44743 4.68288C11.7476 3.37092 15.0237 2.80655 17.5742 3.28285ZM14.3342 4.87729C5.42515 5.91269 1.63783 16.6852 7.96011 23.0075C14.3973 29.4446 25.2671 25.4347 26.1062 16.3132C26.7066 9.78561 20.8719 4.11746 14.3342 4.87729ZM16.8872 6.02985C23.2023 6.98893 26.8654 13.8115 24.134 19.5273C20.6583 26.8004 10.4238 26.8856 6.90299 19.6707C3.54186 12.7829 9.32528 4.88136 16.8872 6.02985ZM9.65019 20.4962C9.38909 20.6276 9.25106 20.9156 9.33497 21.1541C9.56895 21.8194 12.1091 23.4047 13.1744 23.5503C13.9334 23.6541 13.9899 22.6792 13.2381 22.454C12.4101 22.206 11.4191 21.6308 10.5904 20.9176C10.0301 20.4353 9.89316 20.374 9.65019 20.4962ZM15.223 22.879C14.8348 23.0666 14.8688 23.6832 15.2767 23.8522C15.9026 24.1114 16.3356 23.1555 15.7194 22.8748C15.5116 22.7801 15.426 22.7808 15.223 22.879ZM26.8488 25.272C27.4002 25.8223 27.8513 26.3041 27.8513 26.3426C27.8513 26.4345 26.434 27.8558 26.3423 27.8558C26.2573 27.8558 24.2669 25.8798 24.2669 25.7954C24.2669 25.7138 25.6913 24.2798 25.777 24.2751C25.8153 24.273 26.2975 24.7217 26.8488 25.272ZM33.315 30.1232C36.617 33.4252 36.8475 33.6715 36.8475 33.8989C36.8475 34.2705 34.266 36.8519 33.8944 36.8519C33.5173 36.8519 26.5862 29.9195 26.5862 29.5424C26.5862 29.1672 29.1616 26.5907 29.5366 26.5907C29.7675 26.5907 29.9981 26.8063 33.315 30.1232ZM28.7172 29.6261C28.2388 29.8574 28.3563 30.3109 29.0753 31.0081C29.7514 31.6637 30.052 31.7236 30.354 31.2625C30.5265 30.9993 30.427 30.7709 29.9029 30.2274C29.2718 29.5728 29.0549 29.4628 28.7172 29.6261ZM30.9663 31.8752C30.7381 31.9854 30.6255 32.3057 30.728 32.553C30.8337 32.808 33.6663 35.6249 33.8832 35.6907C34.2613 35.8053 34.6764 35.3903 34.5617 35.0122C34.5028 34.8182 31.7662 32.0363 31.4919 31.8917C31.2723 31.7759 31.1778 31.7729 30.9663 31.8752Z" fill="#08294F"/>
</svg>
