<svg width="40" height="40" viewBox="0 0 40 40" fill="none" xmlns="http://www.w3.org/2000/svg">
<mask id="path-1-inside-1_1248_9771" fill="white">
<path fill-rule="evenodd" clip-rule="evenodd" d="M18.8216 0.090697C15.7156 0.576244 13.2297 3.10148 12.759 6.24929C12.5449 7.68179 12.6404 21.6749 12.8704 22.5499C13.9732 26.7459 18.3556 29.1133 22.4094 27.7029C24.6853 26.911 26.4895 24.9359 27.1165 22.5499C27.3465 21.6749 27.4421 7.68179 27.2279 6.24929C26.6233 2.20593 22.872 -0.542428 18.8216 0.090697ZM21.1485 1.65859C23.4321 2.13023 25.1788 3.87687 25.6504 6.16046C25.7533 6.65843 25.7747 7.3682 25.7747 10.281V13.7999H19.9935H14.2122V10.281C14.2122 7.3682 14.2336 6.65843 14.3365 6.16046C14.9835 3.02812 18.0304 1.01453 21.1485 1.65859ZM0.501281 4.26148C0.000264943 4.47601 0.0349525 3.97976 0.00917121 11.2886C-0.0177819 18.9266 -0.0388756 18.7218 0.774718 18.7218C1.58831 18.7218 1.56722 18.9273 1.54026 11.2821L1.51691 4.66281L1.32159 4.46765C1.10464 4.25077 0.740109 4.15913 0.501281 4.26148ZM38.9388 4.26148C38.4378 4.47601 38.4725 3.97976 38.4467 11.2886C38.4197 18.9266 38.3986 18.7218 39.2122 18.7218C40.0258 18.7218 40.0047 18.9273 39.9778 11.2821L39.9544 4.66281L39.7591 4.46765C39.5421 4.25077 39.1776 4.15913 38.9388 4.26148ZM17.7578 5.87671C17.1853 6.15913 17.222 7.0221 17.8153 7.22898C17.9711 7.28328 18.7826 7.31554 19.9935 7.31554C21.2043 7.31554 22.0158 7.28328 22.1717 7.22898C22.7718 7.01976 22.8008 6.15109 22.2169 5.87398C21.8432 5.69663 18.1182 5.6989 17.7578 5.87671ZM6.60722 6.62281C6.24839 6.8314 6.24347 6.91093 6.24347 12.5358C6.24347 16.1159 6.27073 17.9173 6.32745 18.08C6.55261 18.7259 7.49683 18.7259 7.72198 18.08C7.86159 17.6796 7.83675 7.30609 7.69542 6.96773C7.52628 6.56304 6.99808 6.39562 6.60722 6.62281ZM32.456 6.72085C32.179 6.99788 32.1717 7.12148 32.1969 11.1224L32.22 14.8121L32.4349 15.0269C32.5976 15.1896 32.7255 15.2417 32.9622 15.2417C33.1989 15.2417 33.3268 15.1896 33.4896 15.0269L33.7044 14.8121L33.7275 11.1224C33.7561 6.56492 33.751 6.53429 32.9622 6.53429C32.7295 6.53429 32.5919 6.58499 32.456 6.72085ZM3.39355 7.5021C3.11581 7.77984 3.10941 7.89351 3.13441 12.099L3.15753 15.984L3.37237 16.1987C3.67222 16.4985 4.12722 16.4985 4.42706 16.1987L4.64191 15.984L4.66503 12.099C4.69339 7.32156 4.69245 7.31554 3.89972 7.31554C3.66698 7.31554 3.52941 7.36624 3.39355 7.5021ZM35.581 7.5021C35.3033 7.77984 35.2969 7.89351 35.3219 12.099L35.345 15.984L35.5599 16.1987C35.8597 16.4985 36.3147 16.4985 36.6146 16.1987L36.8294 15.984L36.8525 12.099C36.8809 7.32156 36.88 7.31554 36.0872 7.31554C35.8545 7.31554 35.7169 7.36624 35.581 7.5021ZM17.9455 8.69648C17.3817 8.78992 17.1521 9.56429 17.5656 9.97781L17.7939 10.2062H19.9935H22.193L22.4214 9.97781C22.7331 9.66609 22.7332 9.28656 22.4218 8.93788L22.194 8.68273L20.1757 8.67203C19.0657 8.66617 18.0621 8.67718 17.9455 8.69648ZM9.64355 9.45523C9.378 9.72078 9.35659 9.93835 9.38347 12.0991L9.40753 14.031L9.62237 14.2457C9.92222 14.5453 10.3772 14.5453 10.6771 14.2457L10.8919 14.031L10.916 12.0991C10.9481 9.51562 10.8813 9.26867 10.1497 9.26867C9.91698 9.26867 9.77941 9.31937 9.64355 9.45523ZM29.331 9.45523C29.0655 9.72078 29.0441 9.93835 29.071 12.0991L29.095 14.031L29.3099 14.2457C29.6097 14.5453 30.0647 14.5453 30.3646 14.2457L30.5794 14.031L30.6035 12.0991C30.6356 9.51562 30.5688 9.26867 29.8372 9.26867C29.6045 9.26867 29.4669 9.31937 29.331 9.45523ZM25.7572 18.6241C25.7312 21.7871 25.725 21.9024 25.5496 22.4327C23.7257 27.9472 16.2613 27.9472 14.4374 22.4327C14.262 21.9024 14.2557 21.7871 14.2297 18.6241L14.2028 15.3624H19.9935H25.7841L25.7572 18.6241ZM32.517 17.2196C31.9518 17.6638 32.2501 18.5655 32.9622 18.5655C33.48 18.5655 33.8267 18.0779 33.6625 17.5805C33.5097 17.1174 32.8939 16.9234 32.517 17.2196ZM23.0013 17.3865C22.2428 17.7112 22.4549 18.8355 23.2747 18.8355C24.1832 18.8355 24.2885 17.5076 23.3919 17.3585C23.263 17.337 23.0872 17.3496 23.0013 17.3865ZM9.50222 20.2367C8.82144 20.8676 9.48933 24.1559 10.7202 26.2329C12.1885 28.7109 14.6848 30.5973 17.3177 31.2187L17.7278 31.3155V33.2891V35.2628L17.2786 35.3143C15.35 35.5352 13.7435 37.2185 13.7435 39.0184C13.7435 40.011 13.4864 39.9718 19.9935 39.9718C26.5006 39.9718 26.2435 40.011 26.2435 39.0184C26.2435 37.2185 24.637 35.5352 22.7083 35.3143L22.2591 35.2628V33.2891V31.3155L22.6692 31.2187C26.9275 30.2137 30.2207 26.3603 30.7004 21.8212C30.8382 20.5174 30.6516 20.0499 29.9935 20.0499C29.4143 20.0499 29.2635 20.3312 29.1765 21.5734C28.898 25.5526 25.8364 28.9948 21.8372 29.8249C16.4896 30.935 11.188 26.9678 10.8104 21.5734C10.7235 20.3312 10.5726 20.0499 9.99347 20.0499C9.79628 20.0499 9.63941 20.1095 9.50222 20.2367ZM22.8295 20.1884C22.629 20.3459 22.4935 20.6691 22.4935 20.9896C22.4935 22.0399 21.473 23.0766 20.252 23.2666C18.9092 23.4757 18.838 24.8155 20.1696 24.8155C21.953 24.8155 23.6673 23.2975 23.9804 21.4409C24.1642 20.3512 23.5177 19.6476 22.8295 20.1884ZM20.7747 33.4093V35.2843H19.9935H19.2122V33.4093V31.5343H19.9935H20.7747V33.4093ZM23.0928 36.9636C23.6598 37.1319 24.5247 37.9519 24.5247 38.3209C24.5247 38.3857 23.3144 38.4093 19.9935 38.4093C16.6725 38.4093 15.4622 38.3857 15.4622 38.3209C15.4622 37.9669 16.3242 37.1337 16.8614 36.9682C17.4001 36.8022 22.5367 36.7984 23.0928 36.9636Z"/>
</mask>
<path fill-rule="evenodd" clip-rule="evenodd" d="M18.8216 0.090697C15.7156 0.576244 13.2297 3.10148 12.759 6.24929C12.5449 7.68179 12.6404 21.6749 12.8704 22.5499C13.9732 26.7459 18.3556 29.1133 22.4094 27.7029C24.6853 26.911 26.4895 24.9359 27.1165 22.5499C27.3465 21.6749 27.4421 7.68179 27.2279 6.24929C26.6233 2.20593 22.872 -0.542428 18.8216 0.090697ZM21.1485 1.65859C23.4321 2.13023 25.1788 3.87687 25.6504 6.16046C25.7533 6.65843 25.7747 7.3682 25.7747 10.281V13.7999H19.9935H14.2122V10.281C14.2122 7.3682 14.2336 6.65843 14.3365 6.16046C14.9835 3.02812 18.0304 1.01453 21.1485 1.65859ZM0.501281 4.26148C0.000264943 4.47601 0.0349525 3.97976 0.00917121 11.2886C-0.0177819 18.9266 -0.0388756 18.7218 0.774718 18.7218C1.58831 18.7218 1.56722 18.9273 1.54026 11.2821L1.51691 4.66281L1.32159 4.46765C1.10464 4.25077 0.740109 4.15913 0.501281 4.26148ZM38.9388 4.26148C38.4378 4.47601 38.4725 3.97976 38.4467 11.2886C38.4197 18.9266 38.3986 18.7218 39.2122 18.7218C40.0258 18.7218 40.0047 18.9273 39.9778 11.2821L39.9544 4.66281L39.7591 4.46765C39.5421 4.25077 39.1776 4.15913 38.9388 4.26148ZM17.7578 5.87671C17.1853 6.15913 17.222 7.0221 17.8153 7.22898C17.9711 7.28328 18.7826 7.31554 19.9935 7.31554C21.2043 7.31554 22.0158 7.28328 22.1717 7.22898C22.7718 7.01976 22.8008 6.15109 22.2169 5.87398C21.8432 5.69663 18.1182 5.6989 17.7578 5.87671ZM6.60722 6.62281C6.24839 6.8314 6.24347 6.91093 6.24347 12.5358C6.24347 16.1159 6.27073 17.9173 6.32745 18.08C6.55261 18.7259 7.49683 18.7259 7.72198 18.08C7.86159 17.6796 7.83675 7.30609 7.69542 6.96773C7.52628 6.56304 6.99808 6.39562 6.60722 6.62281ZM32.456 6.72085C32.179 6.99788 32.1717 7.12148 32.1969 11.1224L32.22 14.8121L32.4349 15.0269C32.5976 15.1896 32.7255 15.2417 32.9622 15.2417C33.1989 15.2417 33.3268 15.1896 33.4896 15.0269L33.7044 14.8121L33.7275 11.1224C33.7561 6.56492 33.751 6.53429 32.9622 6.53429C32.7295 6.53429 32.5919 6.58499 32.456 6.72085ZM3.39355 7.5021C3.11581 7.77984 3.10941 7.89351 3.13441 12.099L3.15753 15.984L3.37237 16.1987C3.67222 16.4985 4.12722 16.4985 4.42706 16.1987L4.64191 15.984L4.66503 12.099C4.69339 7.32156 4.69245 7.31554 3.89972 7.31554C3.66698 7.31554 3.52941 7.36624 3.39355 7.5021ZM35.581 7.5021C35.3033 7.77984 35.2969 7.89351 35.3219 12.099L35.345 15.984L35.5599 16.1987C35.8597 16.4985 36.3147 16.4985 36.6146 16.1987L36.8294 15.984L36.8525 12.099C36.8809 7.32156 36.88 7.31554 36.0872 7.31554C35.8545 7.31554 35.7169 7.36624 35.581 7.5021ZM17.9455 8.69648C17.3817 8.78992 17.1521 9.56429 17.5656 9.97781L17.7939 10.2062H19.9935H22.193L22.4214 9.97781C22.7331 9.66609 22.7332 9.28656 22.4218 8.93788L22.194 8.68273L20.1757 8.67203C19.0657 8.66617 18.0621 8.67718 17.9455 8.69648ZM9.64355 9.45523C9.378 9.72078 9.35659 9.93835 9.38347 12.0991L9.40753 14.031L9.62237 14.2457C9.92222 14.5453 10.3772 14.5453 10.6771 14.2457L10.8919 14.031L10.916 12.0991C10.9481 9.51562 10.8813 9.26867 10.1497 9.26867C9.91698 9.26867 9.77941 9.31937 9.64355 9.45523ZM29.331 9.45523C29.0655 9.72078 29.0441 9.93835 29.071 12.0991L29.095 14.031L29.3099 14.2457C29.6097 14.5453 30.0647 14.5453 30.3646 14.2457L30.5794 14.031L30.6035 12.0991C30.6356 9.51562 30.5688 9.26867 29.8372 9.26867C29.6045 9.26867 29.4669 9.31937 29.331 9.45523ZM25.7572 18.6241C25.7312 21.7871 25.725 21.9024 25.5496 22.4327C23.7257 27.9472 16.2613 27.9472 14.4374 22.4327C14.262 21.9024 14.2557 21.7871 14.2297 18.6241L14.2028 15.3624H19.9935H25.7841L25.7572 18.6241ZM32.517 17.2196C31.9518 17.6638 32.2501 18.5655 32.9622 18.5655C33.48 18.5655 33.8267 18.0779 33.6625 17.5805C33.5097 17.1174 32.8939 16.9234 32.517 17.2196ZM23.0013 17.3865C22.2428 17.7112 22.4549 18.8355 23.2747 18.8355C24.1832 18.8355 24.2885 17.5076 23.3919 17.3585C23.263 17.337 23.0872 17.3496 23.0013 17.3865ZM9.50222 20.2367C8.82144 20.8676 9.48933 24.1559 10.7202 26.2329C12.1885 28.7109 14.6848 30.5973 17.3177 31.2187L17.7278 31.3155V33.2891V35.2628L17.2786 35.3143C15.35 35.5352 13.7435 37.2185 13.7435 39.0184C13.7435 40.011 13.4864 39.9718 19.9935 39.9718C26.5006 39.9718 26.2435 40.011 26.2435 39.0184C26.2435 37.2185 24.637 35.5352 22.7083 35.3143L22.2591 35.2628V33.2891V31.3155L22.6692 31.2187C26.9275 30.2137 30.2207 26.3603 30.7004 21.8212C30.8382 20.5174 30.6516 20.0499 29.9935 20.0499C29.4143 20.0499 29.2635 20.3312 29.1765 21.5734C28.898 25.5526 25.8364 28.9948 21.8372 29.8249C16.4896 30.935 11.188 26.9678 10.8104 21.5734C10.7235 20.3312 10.5726 20.0499 9.99347 20.0499C9.79628 20.0499 9.63941 20.1095 9.50222 20.2367ZM22.8295 20.1884C22.629 20.3459 22.4935 20.6691 22.4935 20.9896C22.4935 22.0399 21.473 23.0766 20.252 23.2666C18.9092 23.4757 18.838 24.8155 20.1696 24.8155C21.953 24.8155 23.6673 23.2975 23.9804 21.4409C24.1642 20.3512 23.5177 19.6476 22.8295 20.1884ZM20.7747 33.4093V35.2843H19.9935H19.2122V33.4093V31.5343H19.9935H20.7747V33.4093ZM23.0928 36.9636C23.6598 37.1319 24.5247 37.9519 24.5247 38.3209C24.5247 38.3857 23.3144 38.4093 19.9935 38.4093C16.6725 38.4093 15.4622 38.3857 15.4622 38.3209C15.4622 37.9669 16.3242 37.1337 16.8614 36.9682C17.4001 36.8022 22.5367 36.7984 23.0928 36.9636Z" fill="#08294F" stroke="white" stroke-width="0.4" mask="url(#path-1-inside-1_1248_9771)"/>
</svg>
