<svg width="35" height="35" viewBox="0 0 35 35" fill="none" xmlns="http://www.w3.org/2000/svg">
<path fill-rule="evenodd" clip-rule="evenodd" d="M15.973 0.0653981C1.40447 1.32054 -5.2756 19.0691 4.86462 29.5798C13.9801 39.0285 29.7446 35.5406 34.0157 23.1303C34.4085 21.9887 35.0093 19.1932 34.8842 19.0889C34.8788 19.0844 34.6545 19.0598 34.3857 19.0342L33.897 18.9877L33.8517 19.35C33.516 22.0356 32.6332 24.4404 31.1839 26.6167C30.6095 27.4791 29.6161 28.7016 29.4896 28.7016C29.4425 28.7016 28.9318 28.2287 28.3547 27.6507L27.3053 26.5996L27.7297 26.0955C31.8856 21.1587 31.8856 13.8227 27.7297 8.88588L27.3053 8.38173L28.3547 7.3307C28.9318 6.75265 29.4425 6.27974 29.4896 6.27974C29.6161 6.27974 30.6095 7.50221 31.1839 8.3647C32.6332 10.541 33.516 12.9458 33.8517 15.6314L33.897 15.9937L34.3857 15.9471C34.6545 15.9216 34.8788 15.897 34.8842 15.8924C34.9303 15.854 34.6565 14.1982 34.4873 13.4917C32.4543 5.00505 24.616 -0.679172 15.973 0.0653981ZM19.059 1.08573C22.3569 1.4101 25.4586 2.70892 28.0214 4.83859C28.388 5.1432 28.6879 5.43099 28.6879 5.47802C28.6879 5.52512 28.215 6.03584 27.6369 6.61293L26.5859 7.66231L26.0817 7.23753C21.1464 3.07957 13.8075 3.07957 8.87212 7.23753L8.36797 7.66231L7.31558 6.61211C6.10691 5.40611 6.13405 5.5053 6.84732 4.89847C10.1638 2.07701 14.7092 0.6578 19.059 1.08573ZM15.973 2.55416V3.06685H16.4515H16.93V2.55416V2.04146H16.4515H15.973V2.55416ZM18.0238 2.55416V3.06685H18.5023H18.9808V2.55416V2.04146H18.5023H18.0238V2.55416ZM19.0697 5.21983C23.1419 5.75365 26.6941 8.28821 28.5755 12.0026C28.8704 12.5846 28.7713 12.89 28.1858 13.203L27.9017 13.3549L19.6815 13.3734L11.4613 13.3918V13.905V14.4182L19.6815 14.3987C28.7838 14.377 28.1724 14.4077 28.9179 13.9349C29.1008 13.8188 29.2607 13.7341 29.2731 13.7465C29.4043 13.8777 29.9159 16.6272 29.8259 16.7172C29.8117 16.7314 29.5065 16.6668 29.1476 16.5736C27.7083 16.1996 26.3852 16.1972 25.221 16.5665C21.077 17.8808 20.9771 23.618 25.0511 26.3127C25.3594 26.5165 25.6116 26.7145 25.6114 26.7526C25.6107 26.9626 23.1485 28.6333 22.8398 28.6333C22.7972 28.6333 22.723 28.4564 22.675 28.2402C22.19 26.0586 20.3698 24.0242 18.4709 23.5415C15.912 22.8911 12.9897 25.1062 12.2722 28.2402C12.2227 28.4564 12.1502 28.6333 12.1112 28.6333C11.8371 28.6333 9.34216 26.9498 9.34216 26.7649C9.34216 26.72 9.59598 26.5159 9.90612 26.3112C14.0099 23.603 13.8638 17.8378 9.6586 16.5411C8.54495 16.1977 7.20948 16.2089 5.80627 16.5736C5.44738 16.6668 5.14216 16.7314 5.12794 16.7172C5.03825 16.6276 5.54534 13.8819 5.67564 13.7516C5.69088 13.7364 5.85303 13.8188 6.03596 13.9349C6.64668 14.3223 6.89052 14.3639 8.74401 14.3976L10.4359 14.4283V13.914V13.3996L8.74401 13.3773C6.95717 13.3537 6.84089 13.334 6.447 12.988C6.11819 12.6992 6.10664 12.5419 6.37502 12.0091C8.76473 7.26364 13.8627 4.53726 19.0697 5.21983ZM6.59917 7.3307L7.64856 8.38173L7.22377 8.88588C3.06581 13.8212 3.06581 21.1601 7.22377 26.0955L7.64856 26.5996L6.59917 27.6507C6.02208 28.2287 5.51185 28.7016 5.46536 28.7016C5.32693 28.7016 4.45904 27.6389 3.79069 26.6508C0.0733117 21.1557 0.0733117 13.8257 3.79069 8.33052C4.45904 7.34246 5.32693 6.27974 5.46536 6.27974C5.51185 6.27974 6.02208 6.75265 6.59917 7.3307ZM16.5271 16.095C14.8404 16.5485 13.9812 18.1099 14.6596 19.488C15.6977 21.5967 19.3464 21.5535 20.3327 19.4209C21.2414 17.4562 18.941 15.4458 16.5271 16.095ZM17.9237 17.0184C20.0627 17.4138 20.0452 19.6286 17.8999 20.0177C16.9433 20.1911 15.9284 19.7714 15.5566 19.0486C14.9783 17.9244 16.3696 16.7311 17.9237 17.0184ZM33.9515 17.4565V17.9692H34.4642H34.9769V17.4565V16.9438H34.4642H33.9515V17.4565ZM8.91778 17.3931C12.9085 18.2076 12.8971 23.474 8.89981 25.761L8.51269 25.9825L8.33851 25.8211C6.68407 24.2878 5.10388 20.5014 5.10388 18.0704C5.10388 17.5508 7.55634 17.1153 8.91778 17.3931ZM28.146 17.3955C28.5004 17.456 29.033 17.5817 29.3296 17.6748L29.8686 17.8443L29.8237 18.4024C29.6076 21.0882 28.4741 23.7732 26.7618 25.6557L26.4546 25.9934L26.1186 25.7996C24.1483 24.6632 23.0404 22.9194 23.0547 20.977C23.0738 18.3869 25.1979 16.8927 28.146 17.3955ZM17.9554 24.4669C19.6661 24.7396 21.7836 27.1885 21.7836 28.8941C21.7836 29.6125 17.6083 30.1021 15.2341 29.6621C13.112 29.2688 12.9993 29.1669 13.3998 28.0052C14.2098 25.6558 16.1178 24.1738 17.9554 24.4669ZM8.88128 27.7519C13.8094 31.9075 21.1294 31.9006 26.0899 27.7355L26.5859 27.319L27.6369 28.3684C28.215 28.9455 28.6879 29.4562 28.6879 29.5033C28.6879 29.5504 28.3879 29.8382 28.0214 30.1428C21.915 35.2172 13.1153 35.2389 6.98971 30.1946C6.09372 29.4567 6.06617 29.6211 7.2911 28.3943C7.87312 27.8114 8.35758 27.3344 8.36777 27.3344C8.37795 27.3344 8.609 27.5223 8.88128 27.7519Z" fill="white"/>
</svg>
