<svg width="35" height="36" viewBox="0 0 35 36" fill="none" xmlns="http://www.w3.org/2000/svg">
<path fill-rule="evenodd" clip-rule="evenodd" d="M25.8308 0.0617688C25.6368 0.173687 22.4884 4.44033 22.4309 4.66917C22.3848 4.85293 22.5313 5.26567 22.6757 5.35882C22.7267 5.3917 23.1073 5.43396 23.5217 5.4528L24.2752 5.48704L24.2928 9.68225L24.3104 13.8775L22.923 13.8779C21.0843 13.8783 20.714 14.0055 20.4368 14.7313C20.2755 15.1536 20.3134 16.6382 20.4925 16.9114C20.6087 17.0888 20.6087 17.1045 20.4925 17.2819C20.3123 17.5568 20.2756 19.0398 20.4384 19.4662C20.5455 19.7466 20.546 19.7946 20.4456 20.0894C20.3714 20.3072 20.3368 20.6553 20.3368 21.1842V21.9596H19.8573H19.3779V16.4117V10.8638H19.9978C20.9647 10.8638 21.3914 10.4772 21.0804 9.88321C20.9502 9.63451 18.2065 5.84608 17.9833 5.60691C17.7409 5.34704 17.3261 5.30081 17.0758 5.50567C16.9301 5.62499 13.9889 9.60519 13.841 9.88321C13.5216 10.4837 13.9566 10.8638 14.9633 10.8638H15.6108V16.4117V21.9596L14.4293 21.9601C12.5245 21.9607 12.0508 22.2707 12.0495 23.5179C12.0493 23.7156 12.0293 23.8775 12.0052 23.8775C11.981 23.8775 11.7575 23.819 11.5086 23.7475C11.2597 23.676 10.9712 23.5983 10.8676 23.5749L10.6793 23.5324V20.0748V16.6172L11.2786 16.617C12.2365 16.6169 12.7182 16.2236 12.441 15.668C12.3058 15.397 9.41783 11.4006 9.24262 11.242C8.7131 10.7628 8.4757 11.0113 5.49782 15.1618C4.78611 16.1538 5.06132 16.6172 6.362 16.6172H6.98063V17.6103C6.98063 18.7365 7.03659 18.8775 7.48372 18.8775C7.93748 18.8775 7.97378 18.7599 7.97378 17.2892V15.9894L7.75009 15.7896C7.54522 15.6066 7.48337 15.5898 7.01378 15.5898C6.73187 15.5898 6.50152 15.5666 6.50193 15.5384C6.50289 15.4745 8.75694 12.4108 8.81906 12.389C8.8705 12.3709 11.0442 15.3655 11.0781 15.5012C11.0947 15.5674 10.9781 15.5898 10.6169 15.5898C10.1796 15.5898 10.1121 15.6088 9.90981 15.7896L9.68611 15.9894L9.66673 19.7241L9.64741 23.4588L9.32426 23.4986C8.99351 23.5394 8.4344 23.6438 8.16577 23.7148L8.01529 23.7546L7.99454 22.1792C7.97118 20.4053 7.94666 20.3158 7.48372 20.3158C6.99262 20.3158 6.98063 20.3653 6.98063 22.3927V24.1957L6.51118 24.5165C3.66241 26.463 3.19906 30.5916 5.54303 33.1437C7.5055 35.2803 10.823 35.6359 13.1395 33.9579L13.4395 33.7405L21.6998 33.7403C30.9597 33.7403 30.2043 33.7827 30.6402 33.2378C30.903 32.9091 30.9958 31.3799 30.7862 30.8309C30.6876 30.5727 30.687 30.5194 30.7807 30.2952C30.9296 29.9389 30.927 28.4044 30.7771 28.1144C30.6791 27.9251 30.6791 27.8818 30.7771 27.637C30.9263 27.264 30.928 25.769 30.7796 25.3982C30.6852 25.1622 30.6851 25.1149 30.7791 24.9345C30.9269 24.6512 30.9274 23.0965 30.7799 22.7278C30.6858 22.4926 30.6858 22.4402 30.7799 22.2149C30.9296 21.8567 30.9276 20.3233 30.7771 20.0322C30.6791 19.8429 30.6791 19.7996 30.7771 19.5548C30.8548 19.3605 30.8847 19.0485 30.8847 18.4322C30.8847 17.816 30.8548 17.504 30.7771 17.3097C30.6784 17.0632 30.6789 17.0222 30.7821 16.8225C30.983 16.4339 30.9049 14.8051 30.6682 14.4479C30.3715 14.0001 30.1156 13.9153 28.9841 13.8895L28.008 13.8673V9.66006V5.4528H28.7179C29.5742 5.4528 29.7904 5.32273 29.7869 4.80992C29.7852 4.54992 27.1576 0.736358 26.5874 0.166084C26.4211 -0.000217516 26.0315 -0.0539846 25.8308 0.0617688ZM27.2715 2.77786C28.6112 4.63862 28.5546 4.49389 27.9423 4.49389C26.9147 4.49389 26.9806 4.15389 26.9806 9.45622V13.8775H26.1245H25.2683V9.38588V4.8943L25.0681 4.6941C24.8821 4.50807 24.8312 4.49389 24.3489 4.49389C24.0599 4.49389 23.83 4.46451 23.83 4.42759C23.83 4.34286 26.0885 1.27382 26.1483 1.27732C26.1728 1.27876 26.6783 1.95396 27.2715 2.77786ZM18.6587 8.20684C19.2615 9.04129 19.7649 9.7493 19.7774 9.78019C19.79 9.81108 19.5954 9.83636 19.3449 9.83636C18.8567 9.83636 18.6594 9.90396 18.4719 10.1355C18.3619 10.2713 18.3534 10.6916 18.352 16.1206L18.3505 21.9596H17.4943H16.6382V16.1752C16.6382 12.162 16.6154 10.3408 16.5639 10.2276C16.4419 9.95992 16.1538 9.83636 15.6516 9.83636C15.3953 9.83636 15.1998 9.80663 15.1998 9.76773C15.1998 9.65725 17.4092 6.68547 17.4897 6.68766C17.5299 6.68876 18.056 7.37239 18.6587 8.20684ZM29.8591 15.0805C29.988 15.4196 29.9425 16.3266 29.7889 16.4802C29.6311 16.6379 21.7847 16.7005 21.4967 16.5463C21.3369 16.4607 21.2943 15.1392 21.4464 14.987C21.5085 14.9249 22.5381 14.9049 25.6604 14.9049H29.7923L29.8591 15.0805ZM29.8284 17.7458C29.9778 17.9738 29.9471 19.1215 29.7889 19.2214C29.6264 19.324 21.5495 19.3094 21.4464 19.2062C21.3039 19.0637 21.336 17.7363 21.4841 17.6501C21.5617 17.6048 23.0328 17.5795 25.6606 17.5781L29.7172 17.5761L29.8284 17.7458ZM29.8549 20.4483C29.9447 20.616 29.9476 21.5511 29.8591 21.784C29.7928 21.9583 29.7865 21.9596 29.0121 21.9596C28.0939 21.9596 27.871 22.06 27.871 22.4733C27.871 22.8867 28.0939 22.987 29.0121 22.987C29.9349 22.987 29.9258 22.9781 29.9258 23.8819C29.9258 24.7749 30.2768 24.6994 26.1245 24.6994H22.5971V23.8432V22.987H24.3344C26.3111 22.987 26.4327 22.9573 26.4327 22.4733C26.4327 21.9709 26.3746 21.9596 23.8002 21.9596C22.1247 21.9596 21.507 21.9381 21.4464 21.8775C21.3586 21.7897 21.3263 20.4451 21.4099 20.3615C21.5421 20.2292 29.783 20.3139 29.8549 20.4483ZM21.5673 23.1195C21.7034 23.3739 21.656 24.4075 21.5012 24.5624C21.3065 24.7571 13.4156 24.7796 13.2018 24.586C13.0495 24.4483 13.0145 23.2134 13.1587 23.0692C13.321 22.907 21.4796 22.9557 21.5673 23.1195ZM11.2615 24.73C14.6572 25.8762 15.6618 30.0568 13.1484 32.5823C10.1386 35.6066 5.06488 33.5177 5.06488 29.2542C5.06488 26.0208 8.23296 23.7077 11.2615 24.73ZM9.48988 25.8003C9.33454 25.9225 9.3094 25.9939 9.3094 26.314C9.3094 26.5759 9.28276 26.6857 9.21913 26.6857C8.09022 26.6857 7.32974 28.122 7.9568 29.0696C8.29817 29.5853 8.65152 29.726 9.70865 29.7668C10.708 29.8054 10.8847 29.8844 10.8847 30.2922C10.8847 30.7221 10.6656 30.7953 9.37789 30.7953C8.22632 30.7953 8.20454 30.798 8.0392 30.9634C7.60543 31.3971 7.91241 31.7794 8.72118 31.8126L9.3094 31.8367V32.1944C9.3094 32.6069 9.49522 32.8501 9.81036 32.8501C10.1142 32.8501 10.2683 32.6325 10.2683 32.2035V31.8311L10.5815 31.7841C11.6293 31.627 12.2133 30.4023 11.6641 29.514C11.2893 28.9079 10.8852 28.7414 9.787 28.7409C8.8268 28.7403 8.52365 28.5131 8.79173 27.9948C8.9333 27.7209 8.97447 27.7131 10.2619 27.7131C11.5469 27.7131 11.7067 27.6551 11.7067 27.1885C11.7067 26.839 11.5044 26.7235 10.8434 26.6957L10.2683 26.6716V26.3019C10.2683 25.7123 9.90187 25.4762 9.48988 25.8003ZM21.5306 25.7659C21.6854 25.9207 21.6854 27.1081 21.5306 27.263C21.4415 27.3521 21.2293 27.3706 20.2977 27.3706C19.0253 27.3706 18.8984 27.4162 18.8984 27.8737C18.8984 28.3123 19.0347 28.361 20.3267 28.3842C21.686 28.4084 21.6382 28.3785 21.6382 29.2033C21.6382 30.1314 21.9712 30.0418 18.5193 30.0418H15.5423V29.2257V28.4094L16.3572 28.3866C17.2917 28.3604 17.4601 28.2821 17.4601 27.8737C17.4601 27.4298 17.3154 27.3706 16.2293 27.3706H15.2725L15.0375 26.862C14.9082 26.5824 14.707 26.2146 14.5902 26.0449C14.4734 25.8752 14.3779 25.7188 14.3779 25.6973C14.3779 25.5906 21.4228 25.6582 21.5306 25.7659ZM29.8284 25.828C29.9778 26.056 29.9471 27.2037 29.7889 27.3036C29.7276 27.3423 28.254 27.369 26.1416 27.3696L22.5971 27.3706V26.5144V25.6583H26.1571H29.7172L29.8284 25.828ZM29.8549 28.5305C29.9447 28.6982 29.9476 29.6333 29.8591 29.8662L29.7923 30.0418H26.1947H22.5971V29.2199V28.398H26.1906C29.6732 28.398 29.7863 28.4021 29.8549 28.5305ZM21.5673 31.2017C21.7034 31.4561 21.656 32.4897 21.5012 32.6446C21.3683 32.7775 14.4464 32.8746 14.4464 32.7435C14.4464 32.7227 14.5659 32.5075 14.7119 32.2653C14.858 32.0231 15.0465 31.655 15.1308 31.4471L15.2842 31.0692H18.3903C21.391 31.0692 21.4988 31.0738 21.5673 31.2017ZM29.8591 31.2449C29.8958 31.3416 29.9258 31.6652 29.9258 31.9641C29.9258 32.857 30.2768 32.7816 26.1245 32.7816H22.5971V31.9254V31.0692H26.1947H29.7923L29.8591 31.2449Z" fill="white"/>
</svg>
