<svg width="35" height="35" viewBox="0 0 35 35" fill="none" xmlns="http://www.w3.org/2000/svg">
<path d="M17.5994 3.59023L17.6187 3.5441C17.6654 3.56364 17.7093 3.58047 17.7512 3.59654L17.7604 3.60007C17.8047 3.61709 17.8472 3.63351 17.8869 3.65113C17.9668 3.68656 18.0385 3.7281 18.1 3.7942C18.2223 3.92566 18.2935 4.14314 18.3386 4.56466C18.4183 5.31157 18.4186 6.74184 18.419 9.59346C18.4191 9.97011 18.4191 10.3716 18.4194 10.7995C18.4208 13.23 18.4265 14.8168 18.4399 15.8063C18.4466 16.3012 18.4552 16.6461 18.4661 16.8723C18.4715 16.9855 18.4775 17.0681 18.484 17.1246C18.4873 17.153 18.4905 17.1737 18.4937 17.188C18.4952 17.1951 18.4966 17.1998 18.4976 17.2026L17.5994 3.59023ZM17.5994 3.59023L17.6187 3.5441C16.928 3.25555 16.1622 3.68443 16 4.44101C15.9929 4.47405 15.9871 4.5418 15.9818 4.63957C15.9764 4.73903 15.9715 4.87362 15.9669 5.04335C15.9578 5.38286 15.9502 5.86412 15.9442 6.48847C15.9321 7.73722 15.9261 9.55923 15.9261 11.9662C15.9261 16.1858 15.9259 18.2938 15.8327 19.442C15.7861 20.0161 15.7166 20.3447 15.615 20.5756C15.5142 20.8049 15.3806 20.9413 15.1937 21.1306C14.9402 21.3874 14.6818 21.5483 14.4156 21.6166C14.1501 21.6847 13.8726 21.6617 13.5784 21.5435C12.987 21.3059 12.3317 20.685 11.5887 19.6577C10.7089 18.441 9.78597 17.4142 8.97737 16.7144C8.57318 16.3646 8.19619 16.0953 7.86628 15.925C7.53837 15.7558 7.24837 15.6799 7.02226 15.7307C6.55242 15.8362 6.26433 16.0201 6.20652 16.3096C6.17804 16.4523 6.20792 16.6122 6.28824 16.7876C6.36861 16.9631 6.5011 17.1578 6.68353 17.3725C7.92235 18.8301 9.78235 22.0708 11.0421 24.9699C11.8318 26.7873 12.4698 27.717 14.2479 29.646C14.908 30.3621 15.327 30.8892 15.5815 31.3649C15.8349 31.8385 15.926 32.2626 15.9265 32.7744C15.9266 32.8453 15.9251 32.9115 15.9235 32.9738L15.923 32.9912C15.9216 33.0468 15.9202 33.0996 15.9202 33.1489C15.9201 33.2572 15.9261 33.3547 15.9539 33.4394C15.9825 33.5263 16.0336 33.5981 16.1192 33.6555C16.2032 33.7118 16.3185 33.7531 16.4741 33.7842C16.7848 33.8465 17.2735 33.8717 18.0379 33.8818C18.5945 33.8891 19.2997 33.8884 20.1924 33.8874C20.5277 33.887 20.8895 33.8867 21.2799 33.8867H26.143H26.1637L26.1784 33.872L26.352 33.6984C26.3944 33.656 26.4315 33.618 26.46 33.5662C26.4888 33.514 26.5072 33.4513 26.5203 33.3602C26.5462 33.1803 26.5532 32.8727 26.5656 32.2798C26.5805 31.5675 26.5991 31.1859 26.6913 30.893C26.7825 30.6034 26.9466 30.3977 27.2677 30.0407C27.968 29.2622 28.3404 28.5426 28.6863 27.3055C28.6988 27.261 28.7098 27.1792 28.7202 27.0692C28.7308 26.9577 28.7409 26.8133 28.7507 26.6409C28.7702 26.2962 28.7882 25.8381 28.8042 25.3055C28.8364 24.2401 28.861 22.8748 28.8748 21.5169C28.8886 20.1591 28.8917 18.8082 28.881 17.7717C28.8756 17.2534 28.8668 16.8134 28.8541 16.4902C28.8477 16.3286 28.8404 16.1957 28.832 16.0967C28.8278 16.0472 28.8233 16.0055 28.8184 15.9727C28.8137 15.9414 28.8081 15.9136 28.8003 15.8948C28.4904 15.1465 27.5038 14.9024 26.9032 15.4298C26.716 15.5941 26.6006 15.7377 26.5346 15.9592C26.4698 16.1765 26.4535 16.4659 26.4535 16.9186C26.4535 17.1435 26.4466 17.3244 26.4299 17.4696C26.413 17.6151 26.3865 17.7214 26.349 17.7986C26.3121 17.8743 26.2648 17.9218 26.2041 17.9515C26.1418 17.9819 26.0614 17.9956 25.9552 17.9956C25.8069 17.9956 25.7092 17.9871 25.6378 17.9437C25.5698 17.9024 25.516 17.8227 25.4771 17.6513C25.4382 17.4798 25.4165 17.2266 25.4048 16.8518C25.3931 16.4778 25.3914 15.9863 25.3914 15.3397C25.3914 14.1915 25.3887 13.591 25.3417 13.233C25.318 13.0527 25.2827 12.9299 25.2287 12.8279C25.1749 12.7263 25.1042 12.6487 25.0167 12.558C24.6096 12.1359 23.9514 12.0879 23.4811 12.4448C23.4745 12.4499 23.4679 12.4548 23.4614 12.4598C23.3566 12.5392 23.2707 12.6043 23.2049 12.6872C23.1333 12.7774 23.0871 12.8859 23.0556 13.052C22.9954 13.3697 22.9864 13.9167 22.9687 14.9941L22.9671 15.0911L22.9333 17.1458L22.7586 17.296L22.7911 17.3339M17.5994 3.59023L22.7911 17.3339M22.7911 17.3339L22.7585 17.296C22.6359 17.4014 22.525 17.4458 22.4208 17.4408C22.3163 17.4359 22.2075 17.3809 22.0902 17.2636L21.905 17.0784L21.9035 14.274C21.9027 12.6967 21.9007 11.8898 21.8385 11.4355C21.8072 11.2073 21.7601 11.0618 21.6863 10.9508C21.6127 10.8402 21.5152 10.7684 21.3965 10.6837L21.3674 10.7244L21.3965 10.6837C21.2278 10.5635 20.9543 10.5037 20.6919 10.4991C20.4302 10.4945 20.1619 10.5446 20.0057 10.6612C19.9848 10.6768 19.9645 10.6917 19.9448 10.706C19.8529 10.7732 19.7751 10.8301 19.7151 10.9074C19.6401 11.0041 19.5941 11.1295 19.5635 11.3401C19.5084 11.72 19.5008 12.4019 19.4856 13.7544C19.4841 13.8896 19.4825 14.0316 19.4808 14.1806C19.4649 15.5613 19.4542 16.3028 19.4328 16.7156C19.4111 17.1334 19.378 17.1994 19.3328 17.2492C19.1095 17.4958 18.7094 17.476 18.4978 17.2032L22.7911 17.3339ZM11.8136 0.324816L11.8136 0.324811C11.9831 0.147548 12.1136 0.0640835 12.2295 0.051654C12.3416 0.039625 12.4556 0.0930647 12.5964 0.233939C12.6647 0.302249 12.7106 0.358987 12.737 0.414364C12.7626 0.468003 12.771 0.522348 12.7602 0.588464C12.7491 0.656333 12.7177 0.737673 12.6607 0.84348C12.6039 0.948998 12.5235 1.07585 12.4169 1.23443C10.821 3.60816 10.9404 6.3679 12.7339 8.51714C12.9191 8.73904 13.0123 8.89959 13.032 9.03211C13.0508 9.15809 13.0041 9.26801 12.8779 9.39427C12.774 9.49813 12.6669 9.54896 12.5554 9.55369C12.443 9.55846 12.3185 9.51673 12.1798 9.42013C11.901 9.2258 11.5812 8.82056 11.2171 8.19227C10.4965 6.94905 10.2028 5.44409 10.3114 4.0177C10.42 2.59103 10.9308 1.24762 11.8136 0.324816ZM14.9393 8.69937L14.9395 8.6719L14.9164 8.65706L14.575 8.43804C12.8595 7.33718 12.3308 5.40054 12.7449 3.66444C13.1591 1.92827 14.5148 0.39987 16.562 0.116382C21.2715 -0.535841 23.7279 5.73859 19.8187 8.42819L19.5025 8.64578L19.4808 8.66068V8.68697V9.16952C19.4808 9.27766 19.4816 9.36257 19.4845 9.42814C19.4873 9.49278 19.4923 9.54251 19.5022 9.57831C19.5118 9.61321 19.5305 9.65033 19.5723 9.66274C19.5909 9.66827 19.609 9.66704 19.6243 9.66401C19.6394 9.661 19.6548 9.65555 19.6693 9.64964C21.0981 9.06772 22.498 9.69444 22.8421 11.0511C22.8659 11.1452 22.8884 11.2325 22.9054 11.2974C22.9139 11.3299 22.921 11.3568 22.9263 11.3762L22.9329 11.3999L22.9331 11.4005C22.9342 11.4045 22.9363 11.4117 22.9386 11.4166C22.9473 11.4359 22.9639 11.4425 22.97 11.4444C22.977 11.4466 22.983 11.4468 22.9859 11.4469C22.9895 11.4469 22.9929 11.4467 22.9959 11.4463C22.998 11.4461 22.9999 11.4458 23.0014 11.4455C23.0095 11.4442 23.0192 11.4418 23.0295 11.4389C23.0506 11.4331 23.0797 11.4238 23.1143 11.4121C23.1839 11.3885 23.2783 11.354 23.3811 11.3143L23.363 11.2677L23.3811 11.3143C24.1557 11.0146 24.9001 11.1294 25.4603 11.5395C26.0211 11.95 26.4021 12.66 26.4402 13.5587C26.4478 13.7378 26.4538 13.8743 26.4609 13.9773C26.4678 14.0793 26.476 14.1521 26.4886 14.2017C26.5006 14.249 26.5211 14.2937 26.5679 14.3096C26.5892 14.3168 26.6103 14.3157 26.6279 14.3128C26.6455 14.3099 26.6639 14.3043 26.6814 14.2987L26.6663 14.2511L26.6815 14.2987C27.3375 14.09 27.5336 14.0577 27.8857 14.0913C28.6432 14.1636 29.4211 14.7273 29.7587 15.4514L29.9057 15.7668L29.9258 20.9511C29.9369 23.7699 29.9399 25.2242 29.8934 26.1308C29.8471 27.0341 29.7519 27.3906 29.5651 28.0146C29.2496 29.0687 28.6018 30.2323 28.0424 30.7582C27.8481 30.9409 27.7365 31.0666 27.6782 31.3056C27.6217 31.5373 27.6153 31.8762 27.6149 32.4831C27.6144 33.2235 27.5617 33.7032 27.4122 34.0444C27.2646 34.3812 27.0201 34.5881 26.619 34.7755C26.5455 34.8099 26.4892 34.8347 26.3681 34.8538C26.2442 34.8734 26.0534 34.8869 25.712 34.896C25.0299 34.9142 23.7567 34.9146 21.2398 34.9146H16.1602L15.7976 34.7089C15.3562 34.4585 15.021 34.0039 14.9741 33.6068C14.8644 32.6794 14.8009 32.1881 14.6051 31.7648C14.4091 31.3412 14.0818 30.9882 13.4584 30.331C11.6026 28.3744 10.9318 27.3802 10.0043 25.2139C8.91469 22.6687 7.01408 19.3697 5.87987 18.0584C5.39942 17.5029 5.14816 17.0123 5.11292 16.565C5.0779 16.1206 5.25551 15.7093 5.6554 15.3089C6.03555 14.9282 6.45985 14.7212 6.92704 14.6828C7.39518 14.6443 7.91156 14.7746 8.47545 15.0782C9.60456 15.6859 10.9121 16.9817 12.3807 18.9641C12.9446 19.7252 13.3311 20.186 13.6359 20.4091C13.7893 20.5214 13.9272 20.5776 14.0606 20.5773C14.1947 20.577 14.3153 20.5197 14.4335 20.4239C14.5414 20.3366 14.6265 20.2447 14.6908 20.0637C14.7537 19.8866 14.7966 19.6249 14.8271 19.1988C14.8884 18.3457 14.9015 16.8143 14.9149 13.9366L14.9393 8.69937ZM23.5847 7.32114L23.6309 7.34036L23.5847 7.32115C23.45 7.64488 23.351 7.83486 23.2472 7.94486C23.1965 7.99864 23.1452 8.03256 23.0882 8.0535C23.0306 8.07466 22.9644 8.08353 22.8827 8.08353C22.7557 8.08353 22.6571 8.05914 22.5842 8.0158C22.5122 7.973 22.4621 7.90993 22.4342 7.82569C22.377 7.6535 22.4116 7.38976 22.5595 7.04012C23.4183 5.00913 23.1877 3.00825 21.8812 1.13799C21.7087 0.891146 21.6306 0.664595 21.6365 0.486416C21.6423 0.312303 21.7278 0.181463 21.8953 0.113984C22.0598 0.0476868 22.1822 0.0425472 22.3075 0.106062C22.4384 0.172407 22.5787 0.316433 22.7673 0.569254C24.1768 2.45847 24.4997 5.12336 23.5847 7.32114ZM22.8074 0.539355C22.4299 0.0333588 22.2225 -0.0717779 21.8766 0.0676069L22.8074 0.539355ZM26.7621 20.6411L26.7295 20.6032L26.7621 20.6411C26.8816 20.5383 27.0023 20.4917 27.116 20.494C27.2295 20.4963 27.3435 20.5473 27.45 20.6538C27.45 20.6538 27.45 20.6538 27.45 20.6538L27.6156 20.8194V22.7338V24.6503L27.4657 24.8246C27.2746 25.0467 26.9286 25.0613 26.7253 24.858L26.6899 24.8934L26.7253 24.858C26.6885 24.8212 26.6665 24.7975 26.6492 24.7535C26.6308 24.7068 26.6168 24.6346 26.6072 24.5002C26.5881 24.232 26.5876 23.7375 26.5876 22.7547V20.7912L26.7621 20.6411ZM19.8539 7.02263C21.6647 5.08236 20.4871 1.68028 17.8389 1.18113C14.6882 0.58731 12.4132 4.26421 14.3538 6.8144C14.3636 6.82726 14.3732 6.83991 14.3827 6.85233C14.4919 6.99609 14.5785 7.10995 14.6453 7.17492C14.6639 7.19298 14.6823 7.20861 14.7004 7.22045C14.7183 7.2321 14.7386 7.24191 14.7608 7.2448C14.7846 7.2479 14.8082 7.24258 14.8286 7.22791C14.8475 7.21427 14.8605 7.19484 14.8701 7.17471C14.8887 7.13514 14.9005 7.07801 14.9088 7.00642C14.9172 6.93352 14.9226 6.84045 14.9261 6.72581C14.9325 6.51378 14.9324 6.22389 14.9324 5.8438C14.9324 5.81288 14.9324 5.78135 14.9324 5.74923C14.9324 4.60907 15.0538 3.8399 15.348 3.32944C15.6392 2.82408 16.1042 2.56519 16.815 2.45781C17.7361 2.31863 18.3956 2.52596 18.8285 3.09109C19.2655 3.6616 19.48 4.60656 19.4804 5.96314C19.4805 6.28381 19.4812 6.5276 19.4866 6.70788C19.492 6.88635 19.5019 7.00823 19.5224 7.08149C19.5323 7.11698 19.5475 7.15203 19.5759 7.17278C19.6097 7.19758 19.6473 7.19242 19.6768 7.1791C19.7044 7.16659 19.7324 7.1441 19.7598 7.11866C19.788 7.09254 19.8194 7.05958 19.8539 7.02263ZM26.5857 26.8336C26.6308 26.6784 26.6657 26.5878 26.7086 26.5264C26.7494 26.4679 26.7997 26.4329 26.8855 26.3958C27.1182 26.2952 27.2815 26.3228 27.3882 26.4144C27.4987 26.5093 27.563 26.6845 27.5684 26.9084C27.5791 27.3549 27.3538 27.9559 26.8825 28.3524C26.7253 28.4847 26.5754 28.5346 26.4491 28.5305C26.3231 28.5264 26.2155 28.4687 26.1408 28.3756C25.9919 28.1898 25.9694 27.8527 26.2324 27.5219C26.366 27.3538 26.524 27.0459 26.5857 26.8336Z" fill="white" stroke="white" stroke-width="0.1"/>
</svg>
