<svg width="35" height="35" viewBox="0 0 35 35" fill="none" xmlns="http://www.w3.org/2000/svg">
<mask id="path-1-inside-1_1248_6322" fill="white">
<path fill-rule="evenodd" clip-rule="evenodd" d="M14.2438 0.0803372C13.1375 0.265591 12.0631 0.606568 11.1865 1.05084C10.849 1.2218 10.7932 1.22802 9.49865 1.23787C7.72766 1.2514 7.33623 1.44835 7.1518 2.41857L7.07517 2.82196L6.52378 3.03476C6.22047 3.15179 5.88004 3.28584 5.76725 3.33267C5.58008 3.4104 5.53155 3.39877 5.21087 3.1991C4.38659 2.68572 3.99531 2.80753 2.84031 3.93731C1.57169 5.17803 1.36996 5.86518 2.05903 6.59861C2.18597 6.73375 2.19568 6.78167 2.12834 6.94136C2.08528 7.04349 1.93379 7.41154 1.79181 7.75935L1.53355 8.39167L1.25779 8.39277C0.891243 8.39427 0.490179 8.63039 0.233011 8.99604L0.0250618 9.29169L0.00263988 10.5842C-0.0287371 12.3964 0.210384 12.8766 1.21636 13.0213C1.54804 13.0691 1.59261 13.0956 1.65037 13.2795C1.68572 13.3922 1.82148 13.7375 1.95198 14.0468L2.18925 14.6091L1.96729 14.9182C1.43415 15.6605 1.59022 16.2065 2.64664 17.2944C3.89953 18.5846 4.61874 18.8075 5.32989 18.1262L5.52334 17.9409L6.05545 18.1818C6.3481 18.3143 6.69885 18.4585 6.83495 18.5024C7.05951 18.5746 7.08617 18.61 7.12418 18.8874C7.23807 19.7185 7.69526 20.1027 8.61353 20.1391L9.21427 20.1629L9.52606 20.6947C9.94619 21.4114 10.2883 22.2174 10.4691 22.9167L10.6186 23.4954L10.3325 23.7878C9.57774 24.5588 9.5197 25.7362 10.191 26.66C10.2623 26.7582 10.256 26.8117 10.1544 26.9676C9.34928 28.204 9.70694 29.6674 10.9604 30.2656L11.3947 30.4729L11.4191 31.5148C11.4539 32.9982 11.8339 33.6801 12.9108 34.1914L13.3551 34.4024L15.8622 34.4219C18.6867 34.4438 18.7832 34.4305 19.4764 33.9216C20.231 33.3677 20.5021 32.729 20.5503 31.3917L20.585 30.4318L20.88 30.3098C22.1113 29.8005 22.5804 28.1977 21.8242 27.0835C21.6452 26.8197 21.6444 26.8134 21.7651 26.6103C22.1282 25.9986 22.1708 25.8625 22.1721 25.3106C22.1736 24.6611 21.9773 24.162 21.5537 23.7383L21.292 23.4767L21.4418 22.9112C21.7305 21.8216 22.3203 20.6794 23.2776 19.3565C24.3449 17.8818 25.005 16.9101 25.2838 16.4037L25.5915 15.845L26.2855 15.8439L26.9794 15.8428L27.163 16.6461C27.694 18.9689 27.5524 18.8085 29.0999 18.8391L30.2471 18.8617L30.4067 19.1979C31.4384 21.3712 34.7539 20.5581 34.7499 18.1329C34.7459 15.6927 31.2881 14.9242 30.3733 17.1603L30.2399 17.4866L29.4886 17.468L28.7373 17.4493L28.4839 16.3555C28.0355 14.4199 28.0828 14.4763 26.9074 14.4759C26.5032 14.4758 26.1725 14.4673 26.1725 14.457C26.1725 14.4467 26.2478 14.1417 26.3397 13.7791C26.4317 13.4166 26.5436 12.7944 26.5884 12.3964L26.6698 11.6729H28.5607H30.4517L30.5378 11.9111C31.1896 13.7135 33.9345 13.6974 34.7747 11.8862C36.0092 9.22477 31.8667 7.29717 30.5771 9.93297L30.3947 10.3057H28.5347H26.6746L26.5882 9.54866C26.5149 8.90711 26.3403 8.00941 26.2001 7.55427C26.1665 7.4451 26.2327 7.43464 26.9593 7.43464C28.032 7.43464 28.0527 7.41482 28.3572 6.09911C28.4788 5.57411 28.6155 4.9908 28.6612 4.80281L28.7443 4.46101L29.4727 4.44167L30.2011 4.42225L30.3767 4.76876C31.5045 6.99441 34.7516 6.25859 34.7516 3.77742C34.7516 1.36078 31.5578 0.576148 30.4189 2.71299L30.1977 3.128H29.0776C27.5442 3.128 27.6977 2.96469 27.1982 5.12751L26.9811 6.06746L26.3205 6.06732L25.6598 6.06711L25.4551 5.67425C24.3449 3.54404 23.1566 2.55782 22.7192 3.40376C22.5297 3.7701 22.5855 3.96137 23.0402 4.50394C23.4863 5.03612 24.0534 5.87024 24.0534 5.99397C24.0534 6.04333 23.6931 6.06746 22.9562 6.06746C21.5514 6.06746 21.175 6.25633 21.298 6.89946C21.3865 7.36246 21.5102 7.39691 23.2188 7.43464L24.766 7.46882L24.9164 7.99396C25.0937 8.61309 25.2838 9.67437 25.2838 10.0443V10.3057H23.0674H20.851L20.6407 10.4827C20.3601 10.7188 20.3396 11.1782 20.5982 11.4367L20.7659 11.6046L22.3584 11.6049C23.2342 11.6051 24.2507 11.6251 24.6173 11.6494L25.2838 11.6936V11.9136C25.2838 12.2718 25.087 13.3059 24.9034 13.9117L24.7326 14.4757H23.2958C21.6924 14.4757 21.5183 14.5144 21.354 14.9075C21.0603 15.6103 21.4354 15.8428 22.8624 15.8428C23.5928 15.8428 23.985 15.8677 23.985 15.9138C23.985 16.0034 23.2897 17.0442 22.6641 17.8912C21.1606 19.9266 20.3578 21.4586 20.0568 22.8668L20.0093 23.0889H15.9542H11.899L11.8144 22.7301C11.6797 22.159 11.3452 21.2536 11.0572 20.6808C10.7592 20.0879 10.7572 20.0811 10.8809 20.0811C11.2102 20.0811 11.7125 19.431 11.7838 18.9122C11.8256 18.6086 11.8478 18.5778 12.0793 18.5033C12.2171 18.459 12.5674 18.3152 12.8577 18.1837L13.3857 17.9446L13.6172 18.1479C14.3572 18.7976 15.0163 18.5848 16.2748 17.2899C17.3426 16.1912 17.5038 15.5203 16.8635 14.8388C16.7028 14.6676 16.7027 14.668 17.0318 13.8604C17.162 13.5408 17.2868 13.2256 17.3092 13.1597C17.3353 13.0829 17.4203 13.0401 17.5469 13.0401C18.5425 13.0401 18.8837 12.4947 18.9152 10.8533C18.9504 9.0227 18.6892 8.50795 17.6678 8.39468L17.3321 8.3575L17.1824 7.91316C17.1001 7.66877 16.9666 7.33928 16.8858 7.18103C16.7093 6.83506 16.703 6.72911 16.8523 6.60558C17.5711 6.01079 17.3223 5.16333 16.0672 3.93095C14.9236 2.80822 14.53 2.68613 13.7064 3.1991C13.3858 3.39877 13.3372 3.4104 13.1501 3.33267C13.0373 3.28584 12.6944 3.15145 12.3881 3.03394C11.8189 2.81567 11.5457 2.4129 11.8385 2.22381C12.7523 1.63374 15.2639 1.18407 16.7503 1.34451C18.3425 1.51629 18.3274 1.51623 18.5308 1.35497C18.8455 1.10559 18.8311 0.48564 18.5059 0.284663C18.1079 0.0387064 15.2974 -0.0960983 14.2438 0.0803372ZM20.5746 1.30595C19.9219 1.68125 20.3008 2.71053 21.0324 2.54982C21.5327 2.43997 21.735 1.80402 21.3822 1.45108C21.1739 1.24286 20.8008 1.1758 20.5746 1.30595ZM10.4499 3.02888C10.4499 3.77995 10.5256 3.85842 11.533 4.15182C11.8092 4.23221 12.3249 4.45007 12.6791 4.63587C13.5131 5.07344 13.6353 5.07201 14.1147 4.61872L14.49 4.26373L15.1856 4.95928L15.8812 5.65484L15.6003 5.9466C15.0629 6.50475 15.0572 6.5943 15.504 7.45358C15.6895 7.81035 15.938 8.41341 16.0561 8.79363C16.3173 9.63438 16.3802 9.6905 17.0618 9.6905H17.5592V10.6817V11.6729H17.1811C16.4466 11.6729 16.2734 11.8226 16.0454 12.6546C15.9719 12.923 15.7441 13.4752 15.5392 13.8817C15.0851 14.7826 15.0811 14.9605 15.5061 15.3649C15.5262 15.384 15.618 15.4849 15.7102 15.5891L15.8778 15.7785L15.233 16.4259C14.4821 17.18 14.5601 17.1552 14.1361 16.774C13.6449 16.3324 13.5597 16.334 12.6032 16.803C12.152 17.0242 11.5531 17.2678 11.2723 17.3442C10.5782 17.533 10.4924 17.6315 10.4499 18.2883L10.4157 18.8165H9.45866H8.50162L8.46396 18.2851C8.4172 17.6257 8.33572 17.5321 7.64501 17.3442C7.36419 17.2678 6.76297 17.0227 6.30893 16.7997C5.34841 16.3278 5.20287 16.3277 4.74268 16.7991C4.39288 17.1573 4.43205 17.1707 3.70068 16.4424C2.957 15.7018 2.97743 15.78 3.40885 15.3237C3.83411 14.8741 3.83917 14.7548 3.4619 14.0739C3.30317 13.7873 3.04901 13.1837 2.89718 12.7325C2.57664 11.7796 2.46153 11.6732 1.75114 11.6731L1.35807 11.6729V10.6817V9.6905H1.83898C2.52825 9.6905 2.60385 9.62324 2.86368 8.77921C2.9814 8.39687 3.22913 7.79873 3.41418 7.45002C3.86166 6.60681 3.85517 6.5055 3.31704 5.9466L3.03616 5.65484L3.73171 4.95928L4.42727 4.26373L4.80263 4.61872C5.28115 5.07126 5.39585 5.07208 6.25827 4.62877C6.62735 4.43907 7.14469 4.22127 7.40787 4.14471C8.38822 3.85965 8.46744 3.77619 8.46744 3.02888V2.58113H9.45866H10.4499V3.02888ZM32.9848 2.95772C33.6528 3.39542 33.5126 4.45493 32.7535 4.70546C31.777 5.02771 31.0625 3.7349 31.832 3.03845C32.1223 2.77568 32.6505 2.7387 32.9848 2.95772ZM7.34785 7.24666C7.12548 7.44763 5.11784 12.5691 5.11784 12.9354C5.11784 13.8557 6.1543 13.7685 6.51291 12.8179L6.71273 12.2882L7.77811 12.2897L8.84342 12.2912L9.0485 12.8194C9.41238 13.7568 10.4499 13.855 10.4499 12.9521C10.4499 12.755 8.59466 7.85751 8.34098 7.38495C8.16543 7.05798 7.6379 6.9845 7.34785 7.24666ZM11.7273 7.2846L11.5436 7.47627V10.3113C11.5436 13.4146 11.5348 13.3451 11.9497 13.5169C12.2058 13.623 12.4619 13.5636 12.6774 13.3481L12.8424 13.1831V10.3483V7.51346L12.6655 7.30319C12.4202 7.0117 11.9968 7.0033 11.7273 7.2846ZM8.0402 10.2566C8.16236 10.5676 8.26237 10.8444 8.26237 10.8715C8.26237 10.8988 8.04703 10.921 7.78385 10.921C7.22918 10.921 7.2421 10.9545 7.52108 10.2418C7.78542 9.5665 7.76895 9.56602 8.0402 10.2566ZM33.0794 10.1178C33.9492 10.5563 33.7227 11.7952 32.7488 11.9259C31.6427 12.0742 31.2974 10.3553 32.3688 10.0342C32.6719 9.94337 32.7524 9.9528 33.0794 10.1178ZM33.0266 17.3623C33.6199 17.7765 33.5331 18.6796 32.867 19.024C32.0869 19.4274 31.193 18.4894 31.6026 17.6973C31.865 17.1898 32.549 17.0289 33.0266 17.3623ZM20.4326 24.5598C20.6702 24.6827 20.8405 24.9819 20.8405 25.2764C20.8405 26.1115 20.9285 26.0968 15.9528 26.0968C11.2578 26.0968 11.3854 26.1076 11.1688 25.6889C10.9612 25.2874 11.0897 24.8051 11.4666 24.5712C11.7298 24.4079 20.1181 24.3972 20.4326 24.5598ZM20.6065 27.7534C21.0439 28.2308 20.8525 28.9315 20.238 29.1022C19.8599 29.2072 11.9235 29.1901 11.6144 29.0836C10.9677 28.8609 10.885 28.0135 11.4714 27.6183L11.7049 27.461L16.0387 27.4795L20.3725 27.4981L20.6065 27.7534ZM19.1882 31.3548C19.1454 33.0345 19.0176 33.1036 15.9528 33.1036C13.2515 33.1036 13.0852 33.0555 12.7858 32.1876C12.7014 31.9425 12.6735 30.5952 12.7513 30.5173C12.7763 30.4923 14.24 30.4718 16.0038 30.4718H19.2107L19.1882 31.3548Z"/>
</mask>
<path fill-rule="evenodd" clip-rule="evenodd" d="M14.2438 0.0803372C13.1375 0.265591 12.0631 0.606568 11.1865 1.05084C10.849 1.2218 10.7932 1.22802 9.49865 1.23787C7.72766 1.2514 7.33623 1.44835 7.1518 2.41857L7.07517 2.82196L6.52378 3.03476C6.22047 3.15179 5.88004 3.28584 5.76725 3.33267C5.58008 3.4104 5.53155 3.39877 5.21087 3.1991C4.38659 2.68572 3.99531 2.80753 2.84031 3.93731C1.57169 5.17803 1.36996 5.86518 2.05903 6.59861C2.18597 6.73375 2.19568 6.78167 2.12834 6.94136C2.08528 7.04349 1.93379 7.41154 1.79181 7.75935L1.53355 8.39167L1.25779 8.39277C0.891243 8.39427 0.490179 8.63039 0.233011 8.99604L0.0250618 9.29169L0.00263988 10.5842C-0.0287371 12.3964 0.210384 12.8766 1.21636 13.0213C1.54804 13.0691 1.59261 13.0956 1.65037 13.2795C1.68572 13.3922 1.82148 13.7375 1.95198 14.0468L2.18925 14.6091L1.96729 14.9182C1.43415 15.6605 1.59022 16.2065 2.64664 17.2944C3.89953 18.5846 4.61874 18.8075 5.32989 18.1262L5.52334 17.9409L6.05545 18.1818C6.3481 18.3143 6.69885 18.4585 6.83495 18.5024C7.05951 18.5746 7.08617 18.61 7.12418 18.8874C7.23807 19.7185 7.69526 20.1027 8.61353 20.1391L9.21427 20.1629L9.52606 20.6947C9.94619 21.4114 10.2883 22.2174 10.4691 22.9167L10.6186 23.4954L10.3325 23.7878C9.57774 24.5588 9.5197 25.7362 10.191 26.66C10.2623 26.7582 10.256 26.8117 10.1544 26.9676C9.34928 28.204 9.70694 29.6674 10.9604 30.2656L11.3947 30.4729L11.4191 31.5148C11.4539 32.9982 11.8339 33.6801 12.9108 34.1914L13.3551 34.4024L15.8622 34.4219C18.6867 34.4438 18.7832 34.4305 19.4764 33.9216C20.231 33.3677 20.5021 32.729 20.5503 31.3917L20.585 30.4318L20.88 30.3098C22.1113 29.8005 22.5804 28.1977 21.8242 27.0835C21.6452 26.8197 21.6444 26.8134 21.7651 26.6103C22.1282 25.9986 22.1708 25.8625 22.1721 25.3106C22.1736 24.6611 21.9773 24.162 21.5537 23.7383L21.292 23.4767L21.4418 22.9112C21.7305 21.8216 22.3203 20.6794 23.2776 19.3565C24.3449 17.8818 25.005 16.9101 25.2838 16.4037L25.5915 15.845L26.2855 15.8439L26.9794 15.8428L27.163 16.6461C27.694 18.9689 27.5524 18.8085 29.0999 18.8391L30.2471 18.8617L30.4067 19.1979C31.4384 21.3712 34.7539 20.5581 34.7499 18.1329C34.7459 15.6927 31.2881 14.9242 30.3733 17.1603L30.2399 17.4866L29.4886 17.468L28.7373 17.4493L28.4839 16.3555C28.0355 14.4199 28.0828 14.4763 26.9074 14.4759C26.5032 14.4758 26.1725 14.4673 26.1725 14.457C26.1725 14.4467 26.2478 14.1417 26.3397 13.7791C26.4317 13.4166 26.5436 12.7944 26.5884 12.3964L26.6698 11.6729H28.5607H30.4517L30.5378 11.9111C31.1896 13.7135 33.9345 13.6974 34.7747 11.8862C36.0092 9.22477 31.8667 7.29717 30.5771 9.93297L30.3947 10.3057H28.5347H26.6746L26.5882 9.54866C26.5149 8.90711 26.3403 8.00941 26.2001 7.55427C26.1665 7.4451 26.2327 7.43464 26.9593 7.43464C28.032 7.43464 28.0527 7.41482 28.3572 6.09911C28.4788 5.57411 28.6155 4.9908 28.6612 4.80281L28.7443 4.46101L29.4727 4.44167L30.2011 4.42225L30.3767 4.76876C31.5045 6.99441 34.7516 6.25859 34.7516 3.77742C34.7516 1.36078 31.5578 0.576148 30.4189 2.71299L30.1977 3.128H29.0776C27.5442 3.128 27.6977 2.96469 27.1982 5.12751L26.9811 6.06746L26.3205 6.06732L25.6598 6.06711L25.4551 5.67425C24.3449 3.54404 23.1566 2.55782 22.7192 3.40376C22.5297 3.7701 22.5855 3.96137 23.0402 4.50394C23.4863 5.03612 24.0534 5.87024 24.0534 5.99397C24.0534 6.04333 23.6931 6.06746 22.9562 6.06746C21.5514 6.06746 21.175 6.25633 21.298 6.89946C21.3865 7.36246 21.5102 7.39691 23.2188 7.43464L24.766 7.46882L24.9164 7.99396C25.0937 8.61309 25.2838 9.67437 25.2838 10.0443V10.3057H23.0674H20.851L20.6407 10.4827C20.3601 10.7188 20.3396 11.1782 20.5982 11.4367L20.7659 11.6046L22.3584 11.6049C23.2342 11.6051 24.2507 11.6251 24.6173 11.6494L25.2838 11.6936V11.9136C25.2838 12.2718 25.087 13.3059 24.9034 13.9117L24.7326 14.4757H23.2958C21.6924 14.4757 21.5183 14.5144 21.354 14.9075C21.0603 15.6103 21.4354 15.8428 22.8624 15.8428C23.5928 15.8428 23.985 15.8677 23.985 15.9138C23.985 16.0034 23.2897 17.0442 22.6641 17.8912C21.1606 19.9266 20.3578 21.4586 20.0568 22.8668L20.0093 23.0889H15.9542H11.899L11.8144 22.7301C11.6797 22.159 11.3452 21.2536 11.0572 20.6808C10.7592 20.0879 10.7572 20.0811 10.8809 20.0811C11.2102 20.0811 11.7125 19.431 11.7838 18.9122C11.8256 18.6086 11.8478 18.5778 12.0793 18.5033C12.2171 18.459 12.5674 18.3152 12.8577 18.1837L13.3857 17.9446L13.6172 18.1479C14.3572 18.7976 15.0163 18.5848 16.2748 17.2899C17.3426 16.1912 17.5038 15.5203 16.8635 14.8388C16.7028 14.6676 16.7027 14.668 17.0318 13.8604C17.162 13.5408 17.2868 13.2256 17.3092 13.1597C17.3353 13.0829 17.4203 13.0401 17.5469 13.0401C18.5425 13.0401 18.8837 12.4947 18.9152 10.8533C18.9504 9.0227 18.6892 8.50795 17.6678 8.39468L17.3321 8.3575L17.1824 7.91316C17.1001 7.66877 16.9666 7.33928 16.8858 7.18103C16.7093 6.83506 16.703 6.72911 16.8523 6.60558C17.5711 6.01079 17.3223 5.16333 16.0672 3.93095C14.9236 2.80822 14.53 2.68613 13.7064 3.1991C13.3858 3.39877 13.3372 3.4104 13.1501 3.33267C13.0373 3.28584 12.6944 3.15145 12.3881 3.03394C11.8189 2.81567 11.5457 2.4129 11.8385 2.22381C12.7523 1.63374 15.2639 1.18407 16.7503 1.34451C18.3425 1.51629 18.3274 1.51623 18.5308 1.35497C18.8455 1.10559 18.8311 0.48564 18.5059 0.284663C18.1079 0.0387064 15.2974 -0.0960983 14.2438 0.0803372ZM20.5746 1.30595C19.9219 1.68125 20.3008 2.71053 21.0324 2.54982C21.5327 2.43997 21.735 1.80402 21.3822 1.45108C21.1739 1.24286 20.8008 1.1758 20.5746 1.30595ZM10.4499 3.02888C10.4499 3.77995 10.5256 3.85842 11.533 4.15182C11.8092 4.23221 12.3249 4.45007 12.6791 4.63587C13.5131 5.07344 13.6353 5.07201 14.1147 4.61872L14.49 4.26373L15.1856 4.95928L15.8812 5.65484L15.6003 5.9466C15.0629 6.50475 15.0572 6.5943 15.504 7.45358C15.6895 7.81035 15.938 8.41341 16.0561 8.79363C16.3173 9.63438 16.3802 9.6905 17.0618 9.6905H17.5592V10.6817V11.6729H17.1811C16.4466 11.6729 16.2734 11.8226 16.0454 12.6546C15.9719 12.923 15.7441 13.4752 15.5392 13.8817C15.0851 14.7826 15.0811 14.9605 15.5061 15.3649C15.5262 15.384 15.618 15.4849 15.7102 15.5891L15.8778 15.7785L15.233 16.4259C14.4821 17.18 14.5601 17.1552 14.1361 16.774C13.6449 16.3324 13.5597 16.334 12.6032 16.803C12.152 17.0242 11.5531 17.2678 11.2723 17.3442C10.5782 17.533 10.4924 17.6315 10.4499 18.2883L10.4157 18.8165H9.45866H8.50162L8.46396 18.2851C8.4172 17.6257 8.33572 17.5321 7.64501 17.3442C7.36419 17.2678 6.76297 17.0227 6.30893 16.7997C5.34841 16.3278 5.20287 16.3277 4.74268 16.7991C4.39288 17.1573 4.43205 17.1707 3.70068 16.4424C2.957 15.7018 2.97743 15.78 3.40885 15.3237C3.83411 14.8741 3.83917 14.7548 3.4619 14.0739C3.30317 13.7873 3.04901 13.1837 2.89718 12.7325C2.57664 11.7796 2.46153 11.6732 1.75114 11.6731L1.35807 11.6729V10.6817V9.6905H1.83898C2.52825 9.6905 2.60385 9.62324 2.86368 8.77921C2.9814 8.39687 3.22913 7.79873 3.41418 7.45002C3.86166 6.60681 3.85517 6.5055 3.31704 5.9466L3.03616 5.65484L3.73171 4.95928L4.42727 4.26373L4.80263 4.61872C5.28115 5.07126 5.39585 5.07208 6.25827 4.62877C6.62735 4.43907 7.14469 4.22127 7.40787 4.14471C8.38822 3.85965 8.46744 3.77619 8.46744 3.02888V2.58113H9.45866H10.4499V3.02888ZM32.9848 2.95772C33.6528 3.39542 33.5126 4.45493 32.7535 4.70546C31.777 5.02771 31.0625 3.7349 31.832 3.03845C32.1223 2.77568 32.6505 2.7387 32.9848 2.95772ZM7.34785 7.24666C7.12548 7.44763 5.11784 12.5691 5.11784 12.9354C5.11784 13.8557 6.1543 13.7685 6.51291 12.8179L6.71273 12.2882L7.77811 12.2897L8.84342 12.2912L9.0485 12.8194C9.41238 13.7568 10.4499 13.855 10.4499 12.9521C10.4499 12.755 8.59466 7.85751 8.34098 7.38495C8.16543 7.05798 7.6379 6.9845 7.34785 7.24666ZM11.7273 7.2846L11.5436 7.47627V10.3113C11.5436 13.4146 11.5348 13.3451 11.9497 13.5169C12.2058 13.623 12.4619 13.5636 12.6774 13.3481L12.8424 13.1831V10.3483V7.51346L12.6655 7.30319C12.4202 7.0117 11.9968 7.0033 11.7273 7.2846ZM8.0402 10.2566C8.16236 10.5676 8.26237 10.8444 8.26237 10.8715C8.26237 10.8988 8.04703 10.921 7.78385 10.921C7.22918 10.921 7.2421 10.9545 7.52108 10.2418C7.78542 9.5665 7.76895 9.56602 8.0402 10.2566ZM33.0794 10.1178C33.9492 10.5563 33.7227 11.7952 32.7488 11.9259C31.6427 12.0742 31.2974 10.3553 32.3688 10.0342C32.6719 9.94337 32.7524 9.9528 33.0794 10.1178ZM33.0266 17.3623C33.6199 17.7765 33.5331 18.6796 32.867 19.024C32.0869 19.4274 31.193 18.4894 31.6026 17.6973C31.865 17.1898 32.549 17.0289 33.0266 17.3623ZM20.4326 24.5598C20.6702 24.6827 20.8405 24.9819 20.8405 25.2764C20.8405 26.1115 20.9285 26.0968 15.9528 26.0968C11.2578 26.0968 11.3854 26.1076 11.1688 25.6889C10.9612 25.2874 11.0897 24.8051 11.4666 24.5712C11.7298 24.4079 20.1181 24.3972 20.4326 24.5598ZM20.6065 27.7534C21.0439 28.2308 20.8525 28.9315 20.238 29.1022C19.8599 29.2072 11.9235 29.1901 11.6144 29.0836C10.9677 28.8609 10.885 28.0135 11.4714 27.6183L11.7049 27.461L16.0387 27.4795L20.3725 27.4981L20.6065 27.7534ZM19.1882 31.3548C19.1454 33.0345 19.0176 33.1036 15.9528 33.1036C13.2515 33.1036 13.0852 33.0555 12.7858 32.1876C12.7014 31.9425 12.6735 30.5952 12.7513 30.5173C12.7763 30.4923 14.24 30.4718 16.0038 30.4718H19.2107L19.1882 31.3548Z" fill="white" stroke="white" stroke-width="0.4" mask="url(#path-1-inside-1_1248_6322)"/>
</svg>
