<svg width="36" height="35" viewBox="0 0 36 35" fill="none" xmlns="http://www.w3.org/2000/svg">
<mask id="path-1-inside-1_1248_6316" fill="white">
<path fill-rule="evenodd" clip-rule="evenodd" d="M0.230865 2.01352C-0.0769551 2.32134 -0.0769551 2.76423 0.230865 3.07205L0.449466 3.29065H3.2553C4.79851 3.29065 6.07713 3.31652 6.09665 3.34808C6.11617 3.37964 6.52383 5.40733 7.00261 7.85396C7.48139 10.3006 7.89033 12.3613 7.91142 12.4333C7.94746 12.5566 7.74651 12.5642 4.42391 12.5642H0.898183L0.679583 12.7828C0.371763 13.0906 0.371763 13.5335 0.679583 13.8413L0.898183 14.0599H5.91836C11.367 14.0599 11.2496 14.0686 11.44 13.6506C11.7598 12.9488 11.3534 12.5682 10.2817 12.5658C9.62215 12.5644 9.51491 12.5467 9.48088 12.4333C9.45919 12.3613 9.00217 10.0644 8.46513 7.32911C7.35067 1.65238 7.46464 2.14313 7.21463 1.94644C7.02782 1.79948 6.92289 1.79492 3.73572 1.79492H0.449466L0.230865 2.01352ZM11.0001 7.99643C10.8287 8.16791 10.7815 8.28204 10.7815 8.52569C10.7815 8.76935 10.8287 8.88347 11.0001 9.05495L11.2187 9.27355H22.218C32.644 9.27355 33.2174 9.28036 33.2167 9.40443C33.2164 9.47645 32.4305 12.6315 31.4705 16.4156L29.725 23.296H20.6471H11.5693L11.1422 21.1272C10.9073 19.9343 10.7131 18.9332 10.7109 18.9023C10.7086 18.8714 11.5002 18.8462 12.4699 18.8462H14.2332L14.4518 18.6276C14.7596 18.3198 14.7596 17.8769 14.4518 17.5691L14.2332 17.3505H9.17441C5.84784 17.3505 4.06643 17.3769 3.97182 17.4275C3.6489 17.6003 3.52169 18.1 3.70858 18.4614C3.89951 18.8307 4.01924 18.8462 6.67034 18.8462H9.13335L9.17276 19.0145C9.23992 19.3011 10.0336 23.4872 10.0336 23.5546C10.0336 23.5896 9.85466 23.7193 9.63584 23.8428C7.55723 25.0159 7.16692 27.9077 8.85043 29.6609C9.68041 30.5253 10.4742 30.812 12.0369 30.812H13.0366L13.2552 30.5934C13.542 30.3066 13.5582 29.8715 13.2935 29.5635C13.1154 29.3563 13.0997 29.3532 12.0408 29.31C10.8304 29.2606 10.4565 29.1409 9.95884 28.6432C9.00756 27.6919 9.14113 26.0205 10.2283 25.2725C10.8975 24.8121 10.4848 24.8291 20.9889 24.8291C31.3358 24.8291 30.7622 24.8505 30.9727 24.4572C31.0982 24.2226 35.0122 8.72283 35.0122 8.46018C35.0122 8.28892 34.9464 8.14914 34.7936 7.99643L34.575 7.77783H22.8969H11.2187L11.0001 7.99643ZM0.230865 21.1588C-0.0769551 21.4666 -0.0769551 21.9095 0.230865 22.2173L0.449466 22.4359H4.34987H8.25027L8.46887 22.2173C8.77669 21.9095 8.77669 21.4666 8.46887 21.1588L8.25027 20.9402H4.34987H0.449466L0.230865 21.1588ZM17.773 27.0534C15.0435 28.0283 14.7843 31.6202 17.3521 32.8891C19.0742 33.7403 21.0809 32.8473 21.726 30.9429C21.7665 30.8233 21.9193 30.812 23.4952 30.812C25.0734 30.812 25.2232 30.8232 25.2583 30.9429C26.2711 34.3993 31.3851 33.6658 31.3851 30.0642C31.3851 26.4625 26.2711 25.729 25.2583 29.1854C25.2232 29.3051 25.0734 29.3163 23.4952 29.3163C21.9188 29.3163 21.7667 29.305 21.7273 29.1854C21.17 27.4937 19.3253 26.4989 17.773 27.0534ZM19.2136 28.5324C19.986 28.7618 20.473 29.6308 20.28 30.4352C19.9904 31.6422 18.5276 32.0853 17.6136 31.2428C16.3392 30.068 17.5392 28.0351 19.2136 28.5324ZM28.7819 28.5311C29.9426 28.8758 30.2811 30.4091 29.38 31.2397C27.8712 32.6305 25.7384 30.5273 27.0948 28.9863C27.545 28.4748 28.0938 28.3268 28.7819 28.5311Z"/>
</mask>
<path fill-rule="evenodd" clip-rule="evenodd" d="M0.230865 2.01352C-0.0769551 2.32134 -0.0769551 2.76423 0.230865 3.07205L0.449466 3.29065H3.2553C4.79851 3.29065 6.07713 3.31652 6.09665 3.34808C6.11617 3.37964 6.52383 5.40733 7.00261 7.85396C7.48139 10.3006 7.89033 12.3613 7.91142 12.4333C7.94746 12.5566 7.74651 12.5642 4.42391 12.5642H0.898183L0.679583 12.7828C0.371763 13.0906 0.371763 13.5335 0.679583 13.8413L0.898183 14.0599H5.91836C11.367 14.0599 11.2496 14.0686 11.44 13.6506C11.7598 12.9488 11.3534 12.5682 10.2817 12.5658C9.62215 12.5644 9.51491 12.5467 9.48088 12.4333C9.45919 12.3613 9.00217 10.0644 8.46513 7.32911C7.35067 1.65238 7.46464 2.14313 7.21463 1.94644C7.02782 1.79948 6.92289 1.79492 3.73572 1.79492H0.449466L0.230865 2.01352ZM11.0001 7.99643C10.8287 8.16791 10.7815 8.28204 10.7815 8.52569C10.7815 8.76935 10.8287 8.88347 11.0001 9.05495L11.2187 9.27355H22.218C32.644 9.27355 33.2174 9.28036 33.2167 9.40443C33.2164 9.47645 32.4305 12.6315 31.4705 16.4156L29.725 23.296H20.6471H11.5693L11.1422 21.1272C10.9073 19.9343 10.7131 18.9332 10.7109 18.9023C10.7086 18.8714 11.5002 18.8462 12.4699 18.8462H14.2332L14.4518 18.6276C14.7596 18.3198 14.7596 17.8769 14.4518 17.5691L14.2332 17.3505H9.17441C5.84784 17.3505 4.06643 17.3769 3.97182 17.4275C3.6489 17.6003 3.52169 18.1 3.70858 18.4614C3.89951 18.8307 4.01924 18.8462 6.67034 18.8462H9.13335L9.17276 19.0145C9.23992 19.3011 10.0336 23.4872 10.0336 23.5546C10.0336 23.5896 9.85466 23.7193 9.63584 23.8428C7.55723 25.0159 7.16692 27.9077 8.85043 29.6609C9.68041 30.5253 10.4742 30.812 12.0369 30.812H13.0366L13.2552 30.5934C13.542 30.3066 13.5582 29.8715 13.2935 29.5635C13.1154 29.3563 13.0997 29.3532 12.0408 29.31C10.8304 29.2606 10.4565 29.1409 9.95884 28.6432C9.00756 27.6919 9.14113 26.0205 10.2283 25.2725C10.8975 24.8121 10.4848 24.8291 20.9889 24.8291C31.3358 24.8291 30.7622 24.8505 30.9727 24.4572C31.0982 24.2226 35.0122 8.72283 35.0122 8.46018C35.0122 8.28892 34.9464 8.14914 34.7936 7.99643L34.575 7.77783H22.8969H11.2187L11.0001 7.99643ZM0.230865 21.1588C-0.0769551 21.4666 -0.0769551 21.9095 0.230865 22.2173L0.449466 22.4359H4.34987H8.25027L8.46887 22.2173C8.77669 21.9095 8.77669 21.4666 8.46887 21.1588L8.25027 20.9402H4.34987H0.449466L0.230865 21.1588ZM17.773 27.0534C15.0435 28.0283 14.7843 31.6202 17.3521 32.8891C19.0742 33.7403 21.0809 32.8473 21.726 30.9429C21.7665 30.8233 21.9193 30.812 23.4952 30.812C25.0734 30.812 25.2232 30.8232 25.2583 30.9429C26.2711 34.3993 31.3851 33.6658 31.3851 30.0642C31.3851 26.4625 26.2711 25.729 25.2583 29.1854C25.2232 29.3051 25.0734 29.3163 23.4952 29.3163C21.9188 29.3163 21.7667 29.305 21.7273 29.1854C21.17 27.4937 19.3253 26.4989 17.773 27.0534ZM19.2136 28.5324C19.986 28.7618 20.473 29.6308 20.28 30.4352C19.9904 31.6422 18.5276 32.0853 17.6136 31.2428C16.3392 30.068 17.5392 28.0351 19.2136 28.5324ZM28.7819 28.5311C29.9426 28.8758 30.2811 30.4091 29.38 31.2397C27.8712 32.6305 25.7384 30.5273 27.0948 28.9863C27.545 28.4748 28.0938 28.3268 28.7819 28.5311Z" fill="white" stroke="white" stroke-width="0.4" mask="url(#path-1-inside-1_1248_6316)"/>
</svg>
