<svg width="41" height="40" viewBox="0 0 41 40" fill="none" xmlns="http://www.w3.org/2000/svg">
<mask id="path-1-inside-1_1248_9711" fill="white">
<path fill-rule="evenodd" clip-rule="evenodd" d="M2.21574 0.355177C1.16434 0.683771 0.345195 1.58393 0.116679 2.66182C-0.0150393 3.28299 -0.0470705 21.8271 0.0822263 22.6164C0.237226 23.5628 0.952383 24.4969 1.83363 24.9042L2.31059 25.1246L6.69785 25.1467L11.0852 25.1686L11.3072 24.9776C11.6269 24.7027 11.6284 24.1416 11.3101 23.8678L11.0909 23.6793H7.15379C2.29863 23.6793 2.14488 23.6517 1.7141 22.7035C1.49301 22.2167 1.49301 3.18877 1.7141 2.70205C1.9177 2.25401 2.33777 1.91471 2.81605 1.81213C3.38363 1.69041 36.2383 1.69057 36.8059 1.81229C37.3119 1.9208 37.8389 2.39627 37.9661 2.85901C38.087 3.29932 38.087 22.1062 37.9661 22.5465C37.7261 23.4203 37.0759 23.6793 35.1236 23.6793C33.5821 23.6793 33.4043 23.756 33.4043 24.4215C33.4043 25.1121 33.545 25.1638 35.4204 25.1628C38.1368 25.1614 39.2604 24.4319 39.5416 22.4873C39.6337 21.8506 39.6337 3.55494 39.5416 2.91822C39.3661 1.70455 38.6412 0.701374 37.5 0.355202C36.9581 0.190827 2.74121 0.190959 2.21574 0.355177ZM9.45902 7.48104C9.04871 7.64487 9.0684 7.409 9.0684 12.1624C9.0684 16.9415 9.04988 16.7378 9.49488 16.8496C10.1304 17.0091 13.4068 16.8414 13.8108 16.6288C15.3183 15.8352 15.6225 12.9307 14.2875 12.0778C13.8374 11.7902 13.8388 11.8201 14.255 11.4038C15.3391 10.3198 14.9343 8.13322 13.5554 7.62393C13.1657 7.48002 9.7591 7.36119 9.45902 7.48104ZM16.6706 7.50822C16.2386 7.68221 16.2389 7.67799 16.2743 11.3521C16.3102 15.0784 16.3305 15.2424 16.8385 15.9084C18.1307 17.6025 21.5186 17.2117 22.2775 15.2809C22.4589 14.8196 22.6266 8.46776 22.4736 7.85807C22.3718 7.4526 21.3844 7.29619 21.0183 7.62752C20.8713 7.76057 20.8653 7.88666 20.8648 10.8203C20.8643 14.0181 20.8192 14.6333 20.558 15C20.0221 15.7526 18.5303 15.6371 18.1309 14.8121C17.9821 14.5049 17.9746 14.3297 17.9746 11.1603C17.9746 8.16643 17.9616 7.81807 17.8454 7.70182C17.5864 7.44283 17.0516 7.35471 16.6706 7.50822ZM24.0527 7.53299C23.1332 7.8244 23.1307 7.81307 24.7325 10.5835L26.0996 12.9481L26.1007 14.6223C26.1021 16.7698 26.1446 16.8824 26.9554 16.8824C27.7791 16.8824 27.816 16.7868 27.8173 14.6442L27.8184 12.9921L29.1851 10.6208C30.806 7.80885 30.8155 7.75791 29.7656 7.50604C29.1925 7.36854 29.1468 7.42158 28.0403 9.50635C27.4962 10.5313 27.0173 11.3813 26.9759 11.395C26.9345 11.4088 26.4537 10.5662 25.9075 9.52236C24.7254 7.26369 24.7657 7.30697 24.0527 7.53299ZM12.7455 9.09072C13.2721 9.44565 13.3483 10.3083 12.8976 10.8131L12.6754 11.0621L11.6921 11.0881L10.709 11.1139V10.0138V8.91369H11.5959C12.3881 8.91369 12.5108 8.9326 12.7455 9.09072ZM12.9497 12.6317C13.3738 12.946 13.5535 13.7541 13.3697 14.5202C13.194 15.2525 12.7507 15.4708 11.4317 15.4743L10.709 15.4762V13.9466V12.4169L11.7193 12.4427C12.5972 12.465 12.7582 12.4897 12.9497 12.6317ZM24.3114 16.1282C23.9451 16.3388 23.9179 16.4917 23.9149 18.3512C23.9118 20.3538 23.9431 20.4871 24.4536 20.64C25.2963 20.8925 25.4932 20.406 25.46 18.1536L25.4356 16.495L25.2361 16.2957C24.9965 16.0563 24.5706 15.9792 24.3114 16.1282ZM29.0514 18.5842C27.6263 20.0093 27.5354 20.169 27.8639 20.6703C28.2786 21.3033 28.737 21.1001 30.1779 19.6444C31.5803 18.2274 31.7607 17.8049 31.1375 17.3967C30.6362 17.0682 30.4765 17.1591 29.0514 18.5842ZM19.2711 18.7201C18.9483 18.8891 18.8393 19.0642 18.8365 19.4189C18.8328 19.8844 21.2833 22.3512 21.7495 22.3512C22.3537 22.3512 22.7141 21.8286 22.4679 21.3096C22.3154 20.9884 19.9964 18.6793 19.8263 18.6793C19.7602 18.6793 19.6593 18.6617 19.6021 18.6403C19.5449 18.6188 19.396 18.6548 19.2711 18.7201ZM24.6298 22.7834C23.5599 23.0773 22.8992 23.9421 22.9007 25.0465C22.9015 25.6106 27.6258 38.6612 28.0307 39.2175C28.4241 39.7582 29.3669 39.9335 29.9727 39.5785C30.3979 39.3292 30.4871 39.1776 31.2589 37.3903C31.6115 36.5738 31.9142 35.8903 31.9315 35.8713C31.9489 35.8523 32.6917 36.5596 33.5821 37.4429C35.4259 39.2721 35.553 39.3532 36.4711 39.2875C37.1867 39.2364 37.4146 39.1009 38.3443 38.1744C40.105 36.4196 40.0061 35.7729 37.6077 33.3553C36.7627 32.5035 36.0865 31.7949 36.105 31.7806C36.1236 31.7663 36.8026 31.4603 37.614 31.1006C39.8396 30.1138 40.2097 29.7263 39.9274 28.678C39.7111 27.8747 40.1393 28.0723 32.3496 25.1816C25.5434 22.6558 25.3325 22.5903 24.6298 22.7834ZM13.4039 23.8679C12.8976 24.3742 13.2072 25.1637 13.9121 25.1637C14.253 25.1637 14.4846 25.0104 14.6133 24.6995C14.8189 24.2035 14.4586 23.6793 13.9121 23.6793C13.6785 23.6793 13.5418 23.73 13.4039 23.8679ZM16.5496 23.8628C16.1757 24.2092 16.225 24.86 16.6422 25.0832C16.961 25.2538 20.4258 25.1855 20.6565 25.0041C21.0311 24.7094 21.0053 24.1442 20.6022 23.8178C20.3031 23.5755 16.8179 23.6141 16.5496 23.8628ZM31.8714 26.6528C35.3994 27.9607 38.2863 29.0501 38.2866 29.0736C38.2869 29.097 37.6982 29.3759 36.9786 29.6931C34.2016 30.9173 34.097 30.9731 33.9938 31.2859C33.8448 31.7374 33.9107 31.8249 35.9429 33.8746C38.3187 36.271 38.2388 36.0806 37.2823 37.064C36.2922 38.0819 36.5216 38.1763 34.0621 35.7384C32.06 33.7538 32.0019 33.7083 31.5293 33.7548C31.1746 33.7897 31.0463 34.0029 30.171 36.0123C29.6818 37.1354 29.258 38.0543 29.2294 38.0543C29.1789 38.0543 24.7048 26.0589 24.4939 25.358C24.3123 24.7546 24.7073 24.175 25.2509 24.2473C25.3641 24.2623 28.3433 25.3448 31.8714 26.6528ZM20.6719 27.1287C20.4204 27.196 18.201 29.3473 18.0084 29.7106C17.7291 30.2373 18.0755 30.7887 18.6856 30.7887C19.2346 30.7887 21.6465 28.3467 21.6465 27.7907C21.6465 27.3491 21.1385 27.0039 20.6719 27.1287Z"/>
</mask>
<path fill-rule="evenodd" clip-rule="evenodd" d="M2.21574 0.355177C1.16434 0.683771 0.345195 1.58393 0.116679 2.66182C-0.0150393 3.28299 -0.0470705 21.8271 0.0822263 22.6164C0.237226 23.5628 0.952383 24.4969 1.83363 24.9042L2.31059 25.1246L6.69785 25.1467L11.0852 25.1686L11.3072 24.9776C11.6269 24.7027 11.6284 24.1416 11.3101 23.8678L11.0909 23.6793H7.15379C2.29863 23.6793 2.14488 23.6517 1.7141 22.7035C1.49301 22.2167 1.49301 3.18877 1.7141 2.70205C1.9177 2.25401 2.33777 1.91471 2.81605 1.81213C3.38363 1.69041 36.2383 1.69057 36.8059 1.81229C37.3119 1.9208 37.8389 2.39627 37.9661 2.85901C38.087 3.29932 38.087 22.1062 37.9661 22.5465C37.7261 23.4203 37.0759 23.6793 35.1236 23.6793C33.5821 23.6793 33.4043 23.756 33.4043 24.4215C33.4043 25.1121 33.545 25.1638 35.4204 25.1628C38.1368 25.1614 39.2604 24.4319 39.5416 22.4873C39.6337 21.8506 39.6337 3.55494 39.5416 2.91822C39.3661 1.70455 38.6412 0.701374 37.5 0.355202C36.9581 0.190827 2.74121 0.190959 2.21574 0.355177ZM9.45902 7.48104C9.04871 7.64487 9.0684 7.409 9.0684 12.1624C9.0684 16.9415 9.04988 16.7378 9.49488 16.8496C10.1304 17.0091 13.4068 16.8414 13.8108 16.6288C15.3183 15.8352 15.6225 12.9307 14.2875 12.0778C13.8374 11.7902 13.8388 11.8201 14.255 11.4038C15.3391 10.3198 14.9343 8.13322 13.5554 7.62393C13.1657 7.48002 9.7591 7.36119 9.45902 7.48104ZM16.6706 7.50822C16.2386 7.68221 16.2389 7.67799 16.2743 11.3521C16.3102 15.0784 16.3305 15.2424 16.8385 15.9084C18.1307 17.6025 21.5186 17.2117 22.2775 15.2809C22.4589 14.8196 22.6266 8.46776 22.4736 7.85807C22.3718 7.4526 21.3844 7.29619 21.0183 7.62752C20.8713 7.76057 20.8653 7.88666 20.8648 10.8203C20.8643 14.0181 20.8192 14.6333 20.558 15C20.0221 15.7526 18.5303 15.6371 18.1309 14.8121C17.9821 14.5049 17.9746 14.3297 17.9746 11.1603C17.9746 8.16643 17.9616 7.81807 17.8454 7.70182C17.5864 7.44283 17.0516 7.35471 16.6706 7.50822ZM24.0527 7.53299C23.1332 7.8244 23.1307 7.81307 24.7325 10.5835L26.0996 12.9481L26.1007 14.6223C26.1021 16.7698 26.1446 16.8824 26.9554 16.8824C27.7791 16.8824 27.816 16.7868 27.8173 14.6442L27.8184 12.9921L29.1851 10.6208C30.806 7.80885 30.8155 7.75791 29.7656 7.50604C29.1925 7.36854 29.1468 7.42158 28.0403 9.50635C27.4962 10.5313 27.0173 11.3813 26.9759 11.395C26.9345 11.4088 26.4537 10.5662 25.9075 9.52236C24.7254 7.26369 24.7657 7.30697 24.0527 7.53299ZM12.7455 9.09072C13.2721 9.44565 13.3483 10.3083 12.8976 10.8131L12.6754 11.0621L11.6921 11.0881L10.709 11.1139V10.0138V8.91369H11.5959C12.3881 8.91369 12.5108 8.9326 12.7455 9.09072ZM12.9497 12.6317C13.3738 12.946 13.5535 13.7541 13.3697 14.5202C13.194 15.2525 12.7507 15.4708 11.4317 15.4743L10.709 15.4762V13.9466V12.4169L11.7193 12.4427C12.5972 12.465 12.7582 12.4897 12.9497 12.6317ZM24.3114 16.1282C23.9451 16.3388 23.9179 16.4917 23.9149 18.3512C23.9118 20.3538 23.9431 20.4871 24.4536 20.64C25.2963 20.8925 25.4932 20.406 25.46 18.1536L25.4356 16.495L25.2361 16.2957C24.9965 16.0563 24.5706 15.9792 24.3114 16.1282ZM29.0514 18.5842C27.6263 20.0093 27.5354 20.169 27.8639 20.6703C28.2786 21.3033 28.737 21.1001 30.1779 19.6444C31.5803 18.2274 31.7607 17.8049 31.1375 17.3967C30.6362 17.0682 30.4765 17.1591 29.0514 18.5842ZM19.2711 18.7201C18.9483 18.8891 18.8393 19.0642 18.8365 19.4189C18.8328 19.8844 21.2833 22.3512 21.7495 22.3512C22.3537 22.3512 22.7141 21.8286 22.4679 21.3096C22.3154 20.9884 19.9964 18.6793 19.8263 18.6793C19.7602 18.6793 19.6593 18.6617 19.6021 18.6403C19.5449 18.6188 19.396 18.6548 19.2711 18.7201ZM24.6298 22.7834C23.5599 23.0773 22.8992 23.9421 22.9007 25.0465C22.9015 25.6106 27.6258 38.6612 28.0307 39.2175C28.4241 39.7582 29.3669 39.9335 29.9727 39.5785C30.3979 39.3292 30.4871 39.1776 31.2589 37.3903C31.6115 36.5738 31.9142 35.8903 31.9315 35.8713C31.9489 35.8523 32.6917 36.5596 33.5821 37.4429C35.4259 39.2721 35.553 39.3532 36.4711 39.2875C37.1867 39.2364 37.4146 39.1009 38.3443 38.1744C40.105 36.4196 40.0061 35.7729 37.6077 33.3553C36.7627 32.5035 36.0865 31.7949 36.105 31.7806C36.1236 31.7663 36.8026 31.4603 37.614 31.1006C39.8396 30.1138 40.2097 29.7263 39.9274 28.678C39.7111 27.8747 40.1393 28.0723 32.3496 25.1816C25.5434 22.6558 25.3325 22.5903 24.6298 22.7834ZM13.4039 23.8679C12.8976 24.3742 13.2072 25.1637 13.9121 25.1637C14.253 25.1637 14.4846 25.0104 14.6133 24.6995C14.8189 24.2035 14.4586 23.6793 13.9121 23.6793C13.6785 23.6793 13.5418 23.73 13.4039 23.8679ZM16.5496 23.8628C16.1757 24.2092 16.225 24.86 16.6422 25.0832C16.961 25.2538 20.4258 25.1855 20.6565 25.0041C21.0311 24.7094 21.0053 24.1442 20.6022 23.8178C20.3031 23.5755 16.8179 23.6141 16.5496 23.8628ZM31.8714 26.6528C35.3994 27.9607 38.2863 29.0501 38.2866 29.0736C38.2869 29.097 37.6982 29.3759 36.9786 29.6931C34.2016 30.9173 34.097 30.9731 33.9938 31.2859C33.8448 31.7374 33.9107 31.8249 35.9429 33.8746C38.3187 36.271 38.2388 36.0806 37.2823 37.064C36.2922 38.0819 36.5216 38.1763 34.0621 35.7384C32.06 33.7538 32.0019 33.7083 31.5293 33.7548C31.1746 33.7897 31.0463 34.0029 30.171 36.0123C29.6818 37.1354 29.258 38.0543 29.2294 38.0543C29.1789 38.0543 24.7048 26.0589 24.4939 25.358C24.3123 24.7546 24.7073 24.175 25.2509 24.2473C25.3641 24.2623 28.3433 25.3448 31.8714 26.6528ZM20.6719 27.1287C20.4204 27.196 18.201 29.3473 18.0084 29.7106C17.7291 30.2373 18.0755 30.7887 18.6856 30.7887C19.2346 30.7887 21.6465 28.3467 21.6465 27.7907C21.6465 27.3491 21.1385 27.0039 20.6719 27.1287Z" fill="#08294F" stroke="white" stroke-width="0.4" mask="url(#path-1-inside-1_1248_9711)"/>
</svg>
