<svg width="41" height="40" viewBox="0 0 41 40" fill="none" xmlns="http://www.w3.org/2000/svg">
<mask id="path-1-inside-1_1248_9773" fill="white">
<path fill-rule="evenodd" clip-rule="evenodd" d="M26.7122 0.454324C24.9572 0.642191 22.2414 1.55428 21.9794 2.04376C21.775 2.42567 21.975 2.9827 22.3763 3.14888C22.6527 3.2634 22.6132 3.27413 23.9333 2.72665C30.6708 -0.0672416 38.2132 4.88172 38.4697 12.2647C38.7287 19.7198 31.4275 25.1021 24.3698 22.6589C18.5521 20.645 15.6023 13.992 18.0713 8.45331C18.5119 7.46505 18.5385 7.2101 18.2331 6.90473C17.7457 6.41738 17.243 6.59037 16.8441 7.38246C15.4218 10.2067 15.2896 13.9921 16.506 17.0613C16.6301 17.3746 16.7317 17.6459 16.7317 17.6645C16.7317 17.683 14.6447 17.7094 12.0938 17.7231L7.4558 17.7481L6.69048 17.9574C1.71898 19.3173 -1.11382 24.4327 0.414553 29.2902C1.36117 32.2985 4.01213 34.746 6.97126 35.3438L7.4558 35.4416L7.51772 37.2387C7.58418 39.1667 7.63154 39.4114 7.97174 39.5874C8.39553 39.8066 8.49956 39.7522 11.7154 37.6301L14.8539 35.5591L20.5482 35.5344L26.2425 35.5097L27.0165 35.298C31.7919 33.9919 34.6819 29.1069 33.4577 24.4103C33.336 23.9436 33.248 23.5533 33.262 23.5431C33.276 23.5328 33.5341 23.3916 33.8355 23.2292C38.371 20.7847 40.8556 15.2841 39.7781 10.073C38.5484 4.12587 32.6917 -0.185676 26.7122 0.454324ZM19.2754 3.96055C18.9139 4.32211 18.94 4.83421 19.335 5.12916C19.9353 5.5773 20.7746 4.93057 20.4886 4.24016C20.2956 3.77425 19.6179 3.618 19.2754 3.96055ZM27.0644 4.04642C26.3294 4.29002 25.6167 5.01785 25.42 5.72579C25.2618 6.29573 25.3225 11.389 25.493 11.8377C26.2994 13.96 29.2048 14.0121 30.185 11.9219L30.3912 11.482L30.4157 8.91961C30.4422 6.13652 30.3994 5.73534 30.0112 5.12023C29.4136 4.17362 28.1119 3.69926 27.0644 4.04642ZM28.4253 5.65714C28.8553 5.99546 28.8648 6.0616 28.8648 8.72673C28.8648 11.6679 28.7881 11.9081 27.8472 11.9111C26.9316 11.9139 26.8296 11.5923 26.8296 8.70309C26.8296 6.08869 26.8544 5.93252 27.3141 5.65229C27.6585 5.44227 28.1549 5.44446 28.4253 5.65714ZM22.5047 10.2749C22.091 10.5159 22.0455 11.2786 22.3743 12.4652C22.9097 14.3969 24.5076 15.9522 26.468 16.4497L27.0253 16.5912L27.047 17.6569L27.0688 18.7227H25.7712C24.3296 18.7227 24.1044 18.7793 23.937 19.1835C23.8117 19.4859 23.8907 19.8295 24.1393 20.0631L24.3371 20.2491L27.6773 20.273C31.7029 20.302 31.8394 20.2755 31.8394 19.465C31.8394 18.8411 31.5338 18.7227 29.9232 18.7227H28.6256L28.6474 17.6569L28.6691 16.5912L29.2474 16.4444C31.7306 15.8142 33.5615 13.52 33.5615 11.0385C33.5615 10.5318 33.2625 10.1904 32.8187 10.1904C32.2718 10.1904 31.9959 10.5391 31.9959 11.2304C31.9959 11.4177 31.9391 11.7623 31.8697 11.9961C30.5296 16.5101 24.2317 15.8921 23.7061 11.195C23.6071 10.3098 23.105 9.92532 22.5047 10.2749ZM18.0564 19.8555C20.9648 23.8586 26.3126 25.7022 31.1202 24.3588C31.8049 24.1674 31.7844 24.158 31.9477 24.74C32.8722 28.0348 31.2032 31.6777 28.0429 33.2632C26.5547 34.0097 25.9653 34.0651 19.512 34.0651H14.3245L12.6123 35.1849C11.6705 35.8008 10.5226 36.5581 10.0611 36.8679C9.59976 37.1776 9.19138 37.4311 9.15373 37.4311C9.116 37.4311 9.06144 36.7761 9.03256 35.9757C8.96453 34.0921 8.98074 34.1193 7.80806 33.931C1.19373 32.8695 -0.715623 24.2286 4.8335 20.4694C6.5398 19.3134 7.17807 19.2152 13.0631 19.2022L17.5746 19.1923L18.0564 19.8555ZM6.4713 22.0043C6.04367 22.4319 6.20469 23.1014 6.77314 23.2593C7.14716 23.3631 8.69995 23.3642 9.07201 23.2609C9.63303 23.105 9.79968 22.4243 9.37964 22.0043L9.15083 21.7755H7.92547H6.70011L6.4713 22.0043ZM12.2639 22.0043C11.7778 22.4903 12.0423 23.1966 12.7493 23.3007C13.6329 23.4308 16.7879 23.3102 17.0191 23.1374C17.3062 22.9228 17.4111 22.5625 17.2792 22.2441C17.0951 21.7995 16.9586 21.7755 14.6161 21.7755H12.4927L12.2639 22.0043ZM6.66183 25.9236C6.08602 26.1559 6.10434 27.0817 6.68946 27.3237C6.8508 27.3904 9.0306 27.4085 15.0274 27.3932L23.147 27.3724L23.3623 27.1571C23.6825 26.8368 23.6662 26.3789 23.3236 26.0728L23.0697 25.8459L14.9497 25.8509C10.4836 25.8536 6.75412 25.8863 6.66183 25.9236ZM6.65964 30.0294C6.17698 30.2414 6.08132 30.8632 6.4713 31.2531L6.70011 31.482H10.9295C13.9255 31.482 15.2159 31.456 15.3544 31.3928C15.8071 31.1865 15.8913 30.5015 15.5081 30.1415L15.3102 29.9555L11.109 29.938C7.66035 29.9236 6.8634 29.94 6.65964 30.0294ZM19.4236 29.9919C18.8251 30.2379 18.7795 31.1277 19.3519 31.3884C19.6818 31.5388 26.8417 31.5202 27.1356 31.3682C27.5789 31.1389 27.6378 30.5061 27.2498 30.1415L27.0519 29.9555L23.3204 29.9398C21.2681 29.9311 19.5145 29.9546 19.4236 29.9919Z"/>
</mask>
<path fill-rule="evenodd" clip-rule="evenodd" d="M26.7122 0.454324C24.9572 0.642191 22.2414 1.55428 21.9794 2.04376C21.775 2.42567 21.975 2.9827 22.3763 3.14888C22.6527 3.2634 22.6132 3.27413 23.9333 2.72665C30.6708 -0.0672416 38.2132 4.88172 38.4697 12.2647C38.7287 19.7198 31.4275 25.1021 24.3698 22.6589C18.5521 20.645 15.6023 13.992 18.0713 8.45331C18.5119 7.46505 18.5385 7.2101 18.2331 6.90473C17.7457 6.41738 17.243 6.59037 16.8441 7.38246C15.4218 10.2067 15.2896 13.9921 16.506 17.0613C16.6301 17.3746 16.7317 17.6459 16.7317 17.6645C16.7317 17.683 14.6447 17.7094 12.0938 17.7231L7.4558 17.7481L6.69048 17.9574C1.71898 19.3173 -1.11382 24.4327 0.414553 29.2902C1.36117 32.2985 4.01213 34.746 6.97126 35.3438L7.4558 35.4416L7.51772 37.2387C7.58418 39.1667 7.63154 39.4114 7.97174 39.5874C8.39553 39.8066 8.49956 39.7522 11.7154 37.6301L14.8539 35.5591L20.5482 35.5344L26.2425 35.5097L27.0165 35.298C31.7919 33.9919 34.6819 29.1069 33.4577 24.4103C33.336 23.9436 33.248 23.5533 33.262 23.5431C33.276 23.5328 33.5341 23.3916 33.8355 23.2292C38.371 20.7847 40.8556 15.2841 39.7781 10.073C38.5484 4.12587 32.6917 -0.185676 26.7122 0.454324ZM19.2754 3.96055C18.9139 4.32211 18.94 4.83421 19.335 5.12916C19.9353 5.5773 20.7746 4.93057 20.4886 4.24016C20.2956 3.77425 19.6179 3.618 19.2754 3.96055ZM27.0644 4.04642C26.3294 4.29002 25.6167 5.01785 25.42 5.72579C25.2618 6.29573 25.3225 11.389 25.493 11.8377C26.2994 13.96 29.2048 14.0121 30.185 11.9219L30.3912 11.482L30.4157 8.91961C30.4422 6.13652 30.3994 5.73534 30.0112 5.12023C29.4136 4.17362 28.1119 3.69926 27.0644 4.04642ZM28.4253 5.65714C28.8553 5.99546 28.8648 6.0616 28.8648 8.72673C28.8648 11.6679 28.7881 11.9081 27.8472 11.9111C26.9316 11.9139 26.8296 11.5923 26.8296 8.70309C26.8296 6.08869 26.8544 5.93252 27.3141 5.65229C27.6585 5.44227 28.1549 5.44446 28.4253 5.65714ZM22.5047 10.2749C22.091 10.5159 22.0455 11.2786 22.3743 12.4652C22.9097 14.3969 24.5076 15.9522 26.468 16.4497L27.0253 16.5912L27.047 17.6569L27.0688 18.7227H25.7712C24.3296 18.7227 24.1044 18.7793 23.937 19.1835C23.8117 19.4859 23.8907 19.8295 24.1393 20.0631L24.3371 20.2491L27.6773 20.273C31.7029 20.302 31.8394 20.2755 31.8394 19.465C31.8394 18.8411 31.5338 18.7227 29.9232 18.7227H28.6256L28.6474 17.6569L28.6691 16.5912L29.2474 16.4444C31.7306 15.8142 33.5615 13.52 33.5615 11.0385C33.5615 10.5318 33.2625 10.1904 32.8187 10.1904C32.2718 10.1904 31.9959 10.5391 31.9959 11.2304C31.9959 11.4177 31.9391 11.7623 31.8697 11.9961C30.5296 16.5101 24.2317 15.8921 23.7061 11.195C23.6071 10.3098 23.105 9.92532 22.5047 10.2749ZM18.0564 19.8555C20.9648 23.8586 26.3126 25.7022 31.1202 24.3588C31.8049 24.1674 31.7844 24.158 31.9477 24.74C32.8722 28.0348 31.2032 31.6777 28.0429 33.2632C26.5547 34.0097 25.9653 34.0651 19.512 34.0651H14.3245L12.6123 35.1849C11.6705 35.8008 10.5226 36.5581 10.0611 36.8679C9.59976 37.1776 9.19138 37.4311 9.15373 37.4311C9.116 37.4311 9.06144 36.7761 9.03256 35.9757C8.96453 34.0921 8.98074 34.1193 7.80806 33.931C1.19373 32.8695 -0.715623 24.2286 4.8335 20.4694C6.5398 19.3134 7.17807 19.2152 13.0631 19.2022L17.5746 19.1923L18.0564 19.8555ZM6.4713 22.0043C6.04367 22.4319 6.20469 23.1014 6.77314 23.2593C7.14716 23.3631 8.69995 23.3642 9.07201 23.2609C9.63303 23.105 9.79968 22.4243 9.37964 22.0043L9.15083 21.7755H7.92547H6.70011L6.4713 22.0043ZM12.2639 22.0043C11.7778 22.4903 12.0423 23.1966 12.7493 23.3007C13.6329 23.4308 16.7879 23.3102 17.0191 23.1374C17.3062 22.9228 17.4111 22.5625 17.2792 22.2441C17.0951 21.7995 16.9586 21.7755 14.6161 21.7755H12.4927L12.2639 22.0043ZM6.66183 25.9236C6.08602 26.1559 6.10434 27.0817 6.68946 27.3237C6.8508 27.3904 9.0306 27.4085 15.0274 27.3932L23.147 27.3724L23.3623 27.1571C23.6825 26.8368 23.6662 26.3789 23.3236 26.0728L23.0697 25.8459L14.9497 25.8509C10.4836 25.8536 6.75412 25.8863 6.66183 25.9236ZM6.65964 30.0294C6.17698 30.2414 6.08132 30.8632 6.4713 31.2531L6.70011 31.482H10.9295C13.9255 31.482 15.2159 31.456 15.3544 31.3928C15.8071 31.1865 15.8913 30.5015 15.5081 30.1415L15.3102 29.9555L11.109 29.938C7.66035 29.9236 6.8634 29.94 6.65964 30.0294ZM19.4236 29.9919C18.8251 30.2379 18.7795 31.1277 19.3519 31.3884C19.6818 31.5388 26.8417 31.5202 27.1356 31.3682C27.5789 31.1389 27.6378 30.5061 27.2498 30.1415L27.0519 29.9555L23.3204 29.9398C21.2681 29.9311 19.5145 29.9546 19.4236 29.9919Z" fill="#08294F" stroke="white" stroke-width="0.4" mask="url(#path-1-inside-1_1248_9773)"/>
</svg>
