<svg width="50" height="50" viewBox="0 0 50 50" fill="none" xmlns="http://www.w3.org/2000/svg">
<path fill-rule="evenodd" clip-rule="evenodd" d="M11.568 2.58917C8.8346 3.10825 6.47227 4.94269 5.26591 7.48281C4.83744 8.38506 4.79859 8.84112 5.12736 9.10737C5.64536 9.52684 6.10427 9.26588 6.49556 8.32929C8.85123 2.69161 16.9961 2.46148 19.6676 7.95707C20.5532 9.77899 20.5744 10.5245 19.7588 11.1537C18.1942 12.3608 16.868 14.815 16.6336 16.9371C16.5591 17.6125 16.4326 17.7394 15.5168 18.0579C11.1693 19.5698 6.42609 16.5787 5.95828 12.0302C5.85495 11.0257 5.4938 10.6269 4.8937 10.8551C3.89262 11.2357 4.77364 14.7045 6.36973 16.666C6.92345 17.3465 6.94487 17.504 6.48431 17.5082C6.39165 17.5089 5.95388 17.6417 5.51141 17.8032C2.96464 18.7327 1.12462 20.7147 0.270021 23.4492L0.00103884 24.31L6.03699e-05 31.4529C-0.000918104 38.2601 0.00788817 38.6186 0.186655 39.0822C0.433133 39.7214 1.10397 40.4261 1.7394 40.7133L2.24957 40.9441L7.15701 40.9743L12.0645 41.0044L12.0993 43.1759C12.1441 45.98 12.4636 46.7553 13.8358 47.39L14.2848 47.5977H24.9991H35.7134L36.1661 47.3746C37.566 46.6849 37.854 45.9872 37.8989 43.1759L37.9336 41.0044L42.8412 40.9743L47.7486 40.9441L48.2588 40.7133C48.8942 40.4261 49.565 39.7214 49.8115 39.0822C49.9903 38.6186 49.9991 38.2601 49.9981 31.4529L49.9971 24.31L49.7281 23.4492C48.8778 20.7283 46.9739 18.6755 44.4868 17.7976C43.5657 17.4724 43.5728 17.5112 44.2747 16.6343C47.06 13.1551 46.7465 7.79954 43.5907 4.94836C42.4676 3.93369 41.7292 5.04964 42.7672 6.19289C47.0669 10.9287 43.8233 18.4262 37.4746 18.4262C35.2674 18.4262 34.001 17.8427 34.001 16.8258C34.001 15.2948 32.7306 12.8827 31.1449 11.4032C30.1739 10.4971 30.1567 10.4473 30.4368 9.35345C31.4075 5.56108 35.6329 3.07332 39.2848 4.14425C40.6048 4.53134 41.0786 4.41568 41.0786 3.70649C41.0786 2.64993 37.4202 2.07478 35.1324 2.77165C32.0981 3.69582 29.9257 5.87126 29.0625 8.85022C28.7531 9.91774 28.8494 9.84602 28.0598 9.59621C26.2486 9.02292 24.3584 9.02341 22.5797 9.59748C21.8491 9.8332 21.8154 9.81764 21.6788 9.18056C20.7374 4.79103 16.0532 1.73731 11.568 2.58917ZM27.0708 10.8575C32.1447 12.0807 34.2523 18.1183 31.0707 22.316C28.621 25.5481 23.8162 26.0853 20.7061 23.4749C14.8018 18.5194 19.5779 9.0511 27.0708 10.8575ZM9.34311 19.0261C11.1079 19.9203 13.6666 20.1612 15.4976 19.6054C16.4816 19.3068 16.6705 19.3974 16.9296 20.2918C17.1761 21.1426 17.5848 22.0043 18.1445 22.8533C18.8803 23.9692 18.849 24.0458 17.4315 24.595C16.356 25.0118 15.9971 25.2943 15.9971 25.7241C15.9971 26.453 16.5841 26.5794 17.6712 26.0847C19.1465 25.4132 20.5503 25.2601 21.379 25.68C23.7942 26.9038 26.3028 26.9317 29.0773 25.7657C31.513 24.7419 35.2234 27.2533 36.173 30.5682L36.3983 31.355V38.2705C36.3983 46.0472 36.4582 45.4192 35.6654 45.9587L35.3419 46.1789H24.9991H14.6562L14.3327 45.9587C13.54 45.4192 13.5999 46.0471 13.5999 38.2705C13.5999 30.2008 13.5772 30.3842 14.8144 28.4699C15.2703 27.7644 15.2942 27.6179 15.0115 27.2586C14.4456 26.5391 13.5773 27.2494 12.8183 29.053C12.1726 30.5869 12.1525 30.7639 12.107 35.3466L12.0654 39.5339L7.24761 39.5051L2.42981 39.4763L2.06024 39.1944C1.3938 38.6858 1.41787 38.9671 1.41787 31.6965C1.41787 23.7854 1.43959 23.6057 2.60437 21.8642C4.15544 19.545 7.54781 18.1163 9.34311 19.0261ZM43.3334 18.9742C45.6377 19.5636 47.5529 21.3975 48.2791 23.7101L48.529 24.5057L48.5584 31.3737C48.5911 39.0025 48.6169 38.6764 47.9379 39.1944L47.5684 39.4763L42.7506 39.5051L37.9327 39.5339L37.8912 35.3466C37.8439 30.5911 37.8202 30.4151 37.0005 28.7131C35.9743 26.5829 33.8061 24.7615 31.7621 24.3126C31.3743 24.2274 31.3559 24.2818 32.0529 23.4531C32.7817 22.5866 33.5453 21.0729 33.7795 20.0309C33.9626 19.2166 33.9994 19.1858 34.5274 19.4064C36.4146 20.1949 39.5898 19.9985 41.4374 18.9788C41.878 18.7357 42.396 18.7345 43.3334 18.9742Z" fill="#08294F"/>
</svg>
