<svg width="40" height="40" viewBox="0 0 40 40" fill="none" xmlns="http://www.w3.org/2000/svg">
<mask id="path-1-inside-1_1248_9777" fill="white">
<path fill-rule="evenodd" clip-rule="evenodd" d="M1.32971 0.0905201C0.114034 0.439838 -0.00432904 0.833834 0.000115406 4.51547C0.00424796 7.99087 0.0684975 8.24927 1.04019 8.70175L1.43918 8.88748H5.1039H8.76861L9.1676 8.70175C9.59902 8.50081 9.93337 8.12764 10.0998 7.66112C10.237 7.27688 10.257 1.88873 10.1232 1.35765C9.99271 0.839136 9.44947 0.26861 8.94327 0.118278C8.47286 -0.0213707 1.80378 -0.0457762 1.32971 0.0905201ZM32.8622 0.0725084C32.5533 0.204282 32.3522 0.510403 32.3033 0.923737L32.2556 1.32569H31.4204C29.9968 1.32569 29.7549 1.59765 29.7181 3.23921C29.6903 4.4761 29.7936 4.75648 30.2769 4.75648C30.737 4.75648 30.8313 4.55149 30.8739 3.45762L30.9129 2.45629L31.5839 2.43391L32.255 2.41153L32.3008 2.79836C32.4058 3.68483 32.56 3.74284 34.8115 3.74284C37.0532 3.74284 37.3456 3.6219 37.3456 2.69489V2.41122L38.0279 2.43376L38.7101 2.45629L38.7303 7.03719L38.7504 11.6181H34.8121H30.8739L30.8728 9.25941C30.8716 6.61465 30.8665 6.572 30.5366 6.43329C29.768 6.11009 29.6913 6.39298 29.7197 9.44756L29.7433 11.9814L29.968 12.2759C30.3727 12.8062 30.2508 12.794 34.9249 12.7701C39.6034 12.7463 39.293 12.7825 39.7189 12.2118C39.9734 11.871 39.9712 2.24031 39.7166 1.89668C39.3615 1.41746 39.118 1.32569 38.2017 1.32569H37.3654L37.3273 0.928571C37.2973 0.6159 37.2368 0.479136 37.0431 0.285296L36.7971 0.0391361L34.9076 0.0226059C33.8684 0.0134831 32.948 0.0359392 32.8622 0.0725084ZM7.9453 1.22822C7.93789 1.32319 5.48152 3.37863 5.29134 3.44896C5.19559 3.48436 5.03458 3.48584 4.93345 3.45208C4.74179 3.38822 2.27045 1.33052 2.26249 1.22822C2.25992 1.1961 3.53859 1.16974 5.1039 1.16974C6.6692 1.16974 7.94787 1.1961 7.9453 1.22822ZM36.176 1.87149V2.57325H34.8115H33.447V1.87149V1.16974H34.8115H36.176V1.87149ZM2.65353 3.11797C5.01501 5.14877 5.19474 5.14884 7.56004 3.12046C8.31052 2.47687 8.95092 1.95009 8.98304 1.94986C9.07902 1.94923 9.05407 7.23836 8.95731 7.41925C8.76612 7.77637 8.55193 7.79742 5.1039 7.79742C1.65587 7.79742 1.44167 7.77637 1.25049 7.41925C1.14998 7.23142 1.13072 1.94947 1.23052 1.94947C1.26592 1.94947 1.90624 2.47532 2.65353 3.11797ZM16.176 4.01107C14.4864 4.38744 13.0216 5.52771 12.2767 7.04631C11.7539 8.1122 11.6821 8.46838 11.6356 10.2287L11.595 11.7633L11.3798 11.8524C10.5452 12.198 10.3709 12.694 10.3688 14.7279C10.3661 17.2914 10.765 17.9309 12.3678 17.9331L12.926 17.9339L13.0211 18.4973C13.276 20.0082 14.2432 21.7938 15.2357 22.5857L15.5133 22.8072V23.5103V24.2135L14.714 25.0022L13.9148 25.7909L12.6209 25.838C9.70319 25.9443 7.83115 27.1316 6.88401 29.4766C6.49399 30.4421 6.47123 30.7265 6.46975 34.65C6.46826 38.6474 6.47388 38.7047 6.91817 39.2237C7.71357 40.1529 10.1331 40.2384 10.1331 39.3374C10.1331 38.8951 9.84089 38.7526 8.93407 38.7526C8.16971 38.7526 8.10257 38.7398 7.87793 38.5507L7.63801 38.3488V34.6438C7.63801 30.5123 7.64526 30.4409 8.16978 29.4348C9.02164 27.8007 10.5646 26.9831 12.8026 26.98L13.7956 26.9787L14.9079 29.1814L16.0201 31.3842L16.3973 31.5711C16.7839 31.7628 16.8944 31.7602 17.5819 31.5421C17.7253 31.4966 17.7565 31.5568 17.9113 32.1788L18.0823 32.8656L17.7936 35.8091L17.5051 38.7526H14.7902H12.0754L11.884 38.944C11.6397 39.1882 11.6401 39.4869 11.8851 39.7319L12.0777 39.9245L22.08 39.9039L32.0825 39.8832L32.4055 39.7104C32.8278 39.4846 33.2494 38.9848 33.3646 38.5736C33.5579 37.8828 33.4368 30.6285 33.221 29.9807C32.3213 27.2792 30.4225 25.952 27.2945 25.838L26.0006 25.7909L25.2014 25.0022L24.4021 24.2135V23.5103V22.8072L24.6797 22.5857C25.6711 21.7946 26.6437 19.9893 26.9023 18.4602L26.9912 17.9339L27.5486 17.9331C29.1503 17.9309 29.5493 17.2909 29.5466 14.7279C29.5445 12.694 29.3702 12.198 28.5356 11.8524L28.3204 11.7633L28.2798 10.2287C28.1947 7.00966 26.9645 5.1196 24.3445 4.18222L23.6614 3.93777L20.1526 3.92225C17.4624 3.9104 16.5347 3.93114 16.176 4.01107ZM23.9169 5.26245C26.0814 5.94627 27.1312 7.63181 27.1312 10.4239V11.6181L25.9031 11.6164C23.9585 11.6136 23.0441 10.9602 23.1853 9.67415C23.3719 7.97364 23.3334 7.79742 22.775 7.79742C22.3619 7.79742 22.2468 7.9607 22.1459 8.69005C21.999 9.75227 21.4736 10.5814 20.5933 11.1402C19.8668 11.6013 19.7089 11.6181 16.0839 11.6181H12.7842V10.4239C12.7842 7.6435 13.7827 6.01707 15.9395 5.28444L16.5659 5.07173L19.9342 5.07001L23.3025 5.06838L23.9169 5.26245ZM32.6913 5.2251C32.2724 5.39383 32.1842 5.95329 32.5376 6.20077C32.7416 6.34378 36.7817 6.37286 37.0426 6.23321C37.4421 6.01941 37.3749 5.38214 36.9367 5.22939C36.6473 5.12849 32.9405 5.12467 32.6913 5.2251ZM32.4346 8.00849C32.2525 8.23992 32.2729 8.51118 32.4905 8.75259C32.6021 8.87641 32.8173 8.88904 34.8179 8.88904H37.0224L37.184 8.68358C37.2729 8.5706 37.3456 8.41746 37.3456 8.34323C37.3456 8.269 37.2729 8.11586 37.184 8.00288L37.0224 7.79742H34.8115H32.6006L32.4346 8.00849ZM22.5359 11.4326C22.937 12.1823 24.1577 12.7848 25.2793 12.7867L25.8057 12.7877V15.5042C25.8057 18.5636 25.765 18.8741 25.2195 19.9772C23.0788 24.3066 16.8366 24.3066 14.6959 19.9772C14.1504 18.8741 14.1097 18.5636 14.1097 15.5042V12.7877L16.7023 12.7863C20.1136 12.7846 20.7273 12.648 21.8077 11.6508C22.3258 11.1725 22.3869 11.1542 22.5359 11.4326ZM12.9402 14.776V16.7643H12.4377C12.0191 16.7643 11.8987 16.7329 11.7165 16.5762L11.4977 16.3882L11.4715 14.998C11.434 13.0133 11.5338 12.7975 12.4918 12.7908L12.9402 12.7877V14.776ZM28.0677 12.9051C28.4152 13.0848 28.4739 13.4109 28.4439 14.998L28.4177 16.3882L28.1989 16.5762C28.0167 16.7329 27.8963 16.7643 27.4777 16.7643H26.9752V14.776V12.7877H27.408C27.646 12.7877 27.9429 12.8405 28.0677 12.9051ZM1.18975 13.694C1.00971 13.7587 0.719959 13.9541 0.545846 14.1283C-0.0146994 14.6887 -0.0111127 14.6502 0.0137606 19.814C0.044014 26.1008 -0.255011 25.6785 4.19279 25.7161C7.86725 25.7472 8.20051 25.6718 8.68495 24.6996L8.88557 24.297V19.7015C8.88557 13.1362 9.22429 13.6144 4.55809 13.5913C2.0154 13.5787 1.46351 13.5955 1.18975 13.694ZM7.53618 14.9251L7.75497 15.1133L7.77696 19.483C7.80097 24.2588 7.79598 24.3198 7.36378 24.484C7.24269 24.5301 6.03653 24.5616 4.39107 24.5616H1.6221L1.39419 24.3336L1.16628 24.1057V19.6127V15.1198L1.3577 14.9284L1.54904 14.737H4.43325H7.31739L7.53618 14.9251ZM31.6706 15.6464C31.1776 15.8894 31.0719 16.1463 31.0428 17.1736L31.0168 18.0898L30.0681 18.0901C28.4728 18.0906 28.439 18.1374 28.4718 20.3021L28.4957 21.8844L28.7296 22.2595C29.0665 22.7998 29.5594 23.0578 30.3866 23.1269L31.0298 23.1805V23.7387C31.0298 24.7481 31.5729 25.4664 32.4782 25.6544C32.7477 25.7103 33.8739 25.7318 35.7226 25.7161C38.8596 25.6896 38.8696 25.6879 39.3835 25.134C39.9009 24.5763 39.8797 24.7803 39.8797 20.3373C39.8797 15.8161 39.9173 16.1152 39.2957 15.6922L39.0379 15.5167L35.4822 15.5185C32.3666 15.5201 31.8949 15.5359 31.6706 15.6464ZM2.9067 16.5426C2.53166 16.7294 2.51068 17.3455 2.87279 17.5393C3.22086 17.7255 5.95286 17.6439 6.14296 17.4416C6.35216 17.2189 6.36019 16.9186 6.16355 16.6755C5.99411 16.466 3.28261 16.3554 2.9067 16.5426ZM38.7491 20.396V24.1057L38.5212 24.3336L38.2933 24.5616H35.5243C33.8789 24.5616 32.6727 24.5301 32.5516 24.484C32.1355 24.3258 32.1214 24.1884 32.1214 20.2756V16.6863H35.4353H38.7491V20.396ZM3.05867 19.0803C2.62452 19.1642 2.45322 19.6957 2.76121 20.0037C3.05251 20.295 5.87099 20.3041 6.14296 20.0147C6.44425 19.6939 6.33314 19.2582 5.91263 19.1117C5.67778 19.0298 3.44706 19.0053 3.05867 19.0803ZM31.0298 20.6239V21.9885H30.5971C29.6878 21.9885 29.5483 21.765 29.5483 20.3084V19.2594H30.2891H31.0298V20.6239ZM3.40058 21.8192C3.20752 22.0325 3.2324 22.498 3.44487 22.6468C4.01805 23.0483 5.68869 22.7323 5.68869 22.2224C5.68869 21.7007 3.80768 21.3693 3.40058 21.8192ZM17.0701 23.7805C17.2369 23.8656 17.6828 24.0296 18.0612 24.1451C19.4517 24.5694 21.6234 24.4038 22.8453 23.7805C23.2419 23.5782 23.2326 23.5739 23.2326 23.958C23.2326 24.2863 23.214 24.3086 21.5951 25.9261L19.9577 27.5621L18.3203 25.9261C16.7014 24.3086 16.6828 24.2863 16.6828 23.958C16.6828 23.5739 16.6735 23.5782 17.0701 23.7805ZM17.6184 26.8616L19.1372 28.3819L18.0475 29.4737C17.4482 30.0741 16.9393 30.5655 16.9166 30.5655C16.8939 30.5655 16.4205 29.6534 15.8644 28.5386L14.8534 26.5119L15.4348 25.9265C15.7546 25.6047 16.035 25.3413 16.0579 25.3413C16.0808 25.3413 16.783 26.0254 17.6184 26.8616ZM24.4806 25.9265L25.062 26.5119L24.051 28.5386C23.4949 29.6534 23.0215 30.5655 22.9988 30.5655C22.9761 30.5655 22.4672 30.0741 21.8679 29.4737L20.7782 28.3819L22.297 26.8616C23.1324 26.0254 23.8346 25.3413 23.8575 25.3413C23.8804 25.3413 24.1608 25.6047 24.4806 25.9265ZM29.0805 27.2083C30.6006 27.7279 31.7675 28.9625 32.1538 30.4597C32.2581 30.8642 32.2774 31.5155 32.2774 34.6438V38.3488L32.0375 38.5507L31.7976 38.7526H27.104H22.4103L22.1218 35.8091L21.8331 32.8656L22.0041 32.1788C22.1589 31.5568 22.1901 31.4966 22.3334 31.5421C23.021 31.7602 23.1315 31.7628 23.5181 31.5711L23.8953 31.3842L25.0126 29.1713L26.1299 26.9585L27.3518 26.9968C28.3401 27.0278 28.6706 27.0682 29.0805 27.2083ZM20.5993 29.8424C21.3191 30.558 21.2987 30.4048 20.8857 31.9885L20.8094 32.2809H19.9577H19.106L19.0297 31.9885C18.6176 30.408 18.5967 30.566 19.3126 29.8459C20.0358 29.1184 19.8715 29.1189 20.5993 29.8424ZM20.7374 33.5032C20.7374 33.6064 21.2023 38.2501 21.2375 38.4992L21.2734 38.7526H19.9577H18.642L18.6779 38.4992C18.7131 38.2501 19.178 33.6064 19.178 33.5032C19.178 33.4742 19.5288 33.4504 19.9577 33.4504C20.3865 33.4504 20.7374 33.4742 20.7374 33.5032Z"/>
</mask>
<path fill-rule="evenodd" clip-rule="evenodd" d="M1.32971 0.0905201C0.114034 0.439838 -0.00432904 0.833834 0.000115406 4.51547C0.00424796 7.99087 0.0684975 8.24927 1.04019 8.70175L1.43918 8.88748H5.1039H8.76861L9.1676 8.70175C9.59902 8.50081 9.93337 8.12764 10.0998 7.66112C10.237 7.27688 10.257 1.88873 10.1232 1.35765C9.99271 0.839136 9.44947 0.26861 8.94327 0.118278C8.47286 -0.0213707 1.80378 -0.0457762 1.32971 0.0905201ZM32.8622 0.0725084C32.5533 0.204282 32.3522 0.510403 32.3033 0.923737L32.2556 1.32569H31.4204C29.9968 1.32569 29.7549 1.59765 29.7181 3.23921C29.6903 4.4761 29.7936 4.75648 30.2769 4.75648C30.737 4.75648 30.8313 4.55149 30.8739 3.45762L30.9129 2.45629L31.5839 2.43391L32.255 2.41153L32.3008 2.79836C32.4058 3.68483 32.56 3.74284 34.8115 3.74284C37.0532 3.74284 37.3456 3.6219 37.3456 2.69489V2.41122L38.0279 2.43376L38.7101 2.45629L38.7303 7.03719L38.7504 11.6181H34.8121H30.8739L30.8728 9.25941C30.8716 6.61465 30.8665 6.572 30.5366 6.43329C29.768 6.11009 29.6913 6.39298 29.7197 9.44756L29.7433 11.9814L29.968 12.2759C30.3727 12.8062 30.2508 12.794 34.9249 12.7701C39.6034 12.7463 39.293 12.7825 39.7189 12.2118C39.9734 11.871 39.9712 2.24031 39.7166 1.89668C39.3615 1.41746 39.118 1.32569 38.2017 1.32569H37.3654L37.3273 0.928571C37.2973 0.6159 37.2368 0.479136 37.0431 0.285296L36.7971 0.0391361L34.9076 0.0226059C33.8684 0.0134831 32.948 0.0359392 32.8622 0.0725084ZM7.9453 1.22822C7.93789 1.32319 5.48152 3.37863 5.29134 3.44896C5.19559 3.48436 5.03458 3.48584 4.93345 3.45208C4.74179 3.38822 2.27045 1.33052 2.26249 1.22822C2.25992 1.1961 3.53859 1.16974 5.1039 1.16974C6.6692 1.16974 7.94787 1.1961 7.9453 1.22822ZM36.176 1.87149V2.57325H34.8115H33.447V1.87149V1.16974H34.8115H36.176V1.87149ZM2.65353 3.11797C5.01501 5.14877 5.19474 5.14884 7.56004 3.12046C8.31052 2.47687 8.95092 1.95009 8.98304 1.94986C9.07902 1.94923 9.05407 7.23836 8.95731 7.41925C8.76612 7.77637 8.55193 7.79742 5.1039 7.79742C1.65587 7.79742 1.44167 7.77637 1.25049 7.41925C1.14998 7.23142 1.13072 1.94947 1.23052 1.94947C1.26592 1.94947 1.90624 2.47532 2.65353 3.11797ZM16.176 4.01107C14.4864 4.38744 13.0216 5.52771 12.2767 7.04631C11.7539 8.1122 11.6821 8.46838 11.6356 10.2287L11.595 11.7633L11.3798 11.8524C10.5452 12.198 10.3709 12.694 10.3688 14.7279C10.3661 17.2914 10.765 17.9309 12.3678 17.9331L12.926 17.9339L13.0211 18.4973C13.276 20.0082 14.2432 21.7938 15.2357 22.5857L15.5133 22.8072V23.5103V24.2135L14.714 25.0022L13.9148 25.7909L12.6209 25.838C9.70319 25.9443 7.83115 27.1316 6.88401 29.4766C6.49399 30.4421 6.47123 30.7265 6.46975 34.65C6.46826 38.6474 6.47388 38.7047 6.91817 39.2237C7.71357 40.1529 10.1331 40.2384 10.1331 39.3374C10.1331 38.8951 9.84089 38.7526 8.93407 38.7526C8.16971 38.7526 8.10257 38.7398 7.87793 38.5507L7.63801 38.3488V34.6438C7.63801 30.5123 7.64526 30.4409 8.16978 29.4348C9.02164 27.8007 10.5646 26.9831 12.8026 26.98L13.7956 26.9787L14.9079 29.1814L16.0201 31.3842L16.3973 31.5711C16.7839 31.7628 16.8944 31.7602 17.5819 31.5421C17.7253 31.4966 17.7565 31.5568 17.9113 32.1788L18.0823 32.8656L17.7936 35.8091L17.5051 38.7526H14.7902H12.0754L11.884 38.944C11.6397 39.1882 11.6401 39.4869 11.8851 39.7319L12.0777 39.9245L22.08 39.9039L32.0825 39.8832L32.4055 39.7104C32.8278 39.4846 33.2494 38.9848 33.3646 38.5736C33.5579 37.8828 33.4368 30.6285 33.221 29.9807C32.3213 27.2792 30.4225 25.952 27.2945 25.838L26.0006 25.7909L25.2014 25.0022L24.4021 24.2135V23.5103V22.8072L24.6797 22.5857C25.6711 21.7946 26.6437 19.9893 26.9023 18.4602L26.9912 17.9339L27.5486 17.9331C29.1503 17.9309 29.5493 17.2909 29.5466 14.7279C29.5445 12.694 29.3702 12.198 28.5356 11.8524L28.3204 11.7633L28.2798 10.2287C28.1947 7.00966 26.9645 5.1196 24.3445 4.18222L23.6614 3.93777L20.1526 3.92225C17.4624 3.9104 16.5347 3.93114 16.176 4.01107ZM23.9169 5.26245C26.0814 5.94627 27.1312 7.63181 27.1312 10.4239V11.6181L25.9031 11.6164C23.9585 11.6136 23.0441 10.9602 23.1853 9.67415C23.3719 7.97364 23.3334 7.79742 22.775 7.79742C22.3619 7.79742 22.2468 7.9607 22.1459 8.69005C21.999 9.75227 21.4736 10.5814 20.5933 11.1402C19.8668 11.6013 19.7089 11.6181 16.0839 11.6181H12.7842V10.4239C12.7842 7.6435 13.7827 6.01707 15.9395 5.28444L16.5659 5.07173L19.9342 5.07001L23.3025 5.06838L23.9169 5.26245ZM32.6913 5.2251C32.2724 5.39383 32.1842 5.95329 32.5376 6.20077C32.7416 6.34378 36.7817 6.37286 37.0426 6.23321C37.4421 6.01941 37.3749 5.38214 36.9367 5.22939C36.6473 5.12849 32.9405 5.12467 32.6913 5.2251ZM32.4346 8.00849C32.2525 8.23992 32.2729 8.51118 32.4905 8.75259C32.6021 8.87641 32.8173 8.88904 34.8179 8.88904H37.0224L37.184 8.68358C37.2729 8.5706 37.3456 8.41746 37.3456 8.34323C37.3456 8.269 37.2729 8.11586 37.184 8.00288L37.0224 7.79742H34.8115H32.6006L32.4346 8.00849ZM22.5359 11.4326C22.937 12.1823 24.1577 12.7848 25.2793 12.7867L25.8057 12.7877V15.5042C25.8057 18.5636 25.765 18.8741 25.2195 19.9772C23.0788 24.3066 16.8366 24.3066 14.6959 19.9772C14.1504 18.8741 14.1097 18.5636 14.1097 15.5042V12.7877L16.7023 12.7863C20.1136 12.7846 20.7273 12.648 21.8077 11.6508C22.3258 11.1725 22.3869 11.1542 22.5359 11.4326ZM12.9402 14.776V16.7643H12.4377C12.0191 16.7643 11.8987 16.7329 11.7165 16.5762L11.4977 16.3882L11.4715 14.998C11.434 13.0133 11.5338 12.7975 12.4918 12.7908L12.9402 12.7877V14.776ZM28.0677 12.9051C28.4152 13.0848 28.4739 13.4109 28.4439 14.998L28.4177 16.3882L28.1989 16.5762C28.0167 16.7329 27.8963 16.7643 27.4777 16.7643H26.9752V14.776V12.7877H27.408C27.646 12.7877 27.9429 12.8405 28.0677 12.9051ZM1.18975 13.694C1.00971 13.7587 0.719959 13.9541 0.545846 14.1283C-0.0146994 14.6887 -0.0111127 14.6502 0.0137606 19.814C0.044014 26.1008 -0.255011 25.6785 4.19279 25.7161C7.86725 25.7472 8.20051 25.6718 8.68495 24.6996L8.88557 24.297V19.7015C8.88557 13.1362 9.22429 13.6144 4.55809 13.5913C2.0154 13.5787 1.46351 13.5955 1.18975 13.694ZM7.53618 14.9251L7.75497 15.1133L7.77696 19.483C7.80097 24.2588 7.79598 24.3198 7.36378 24.484C7.24269 24.5301 6.03653 24.5616 4.39107 24.5616H1.6221L1.39419 24.3336L1.16628 24.1057V19.6127V15.1198L1.3577 14.9284L1.54904 14.737H4.43325H7.31739L7.53618 14.9251ZM31.6706 15.6464C31.1776 15.8894 31.0719 16.1463 31.0428 17.1736L31.0168 18.0898L30.0681 18.0901C28.4728 18.0906 28.439 18.1374 28.4718 20.3021L28.4957 21.8844L28.7296 22.2595C29.0665 22.7998 29.5594 23.0578 30.3866 23.1269L31.0298 23.1805V23.7387C31.0298 24.7481 31.5729 25.4664 32.4782 25.6544C32.7477 25.7103 33.8739 25.7318 35.7226 25.7161C38.8596 25.6896 38.8696 25.6879 39.3835 25.134C39.9009 24.5763 39.8797 24.7803 39.8797 20.3373C39.8797 15.8161 39.9173 16.1152 39.2957 15.6922L39.0379 15.5167L35.4822 15.5185C32.3666 15.5201 31.8949 15.5359 31.6706 15.6464ZM2.9067 16.5426C2.53166 16.7294 2.51068 17.3455 2.87279 17.5393C3.22086 17.7255 5.95286 17.6439 6.14296 17.4416C6.35216 17.2189 6.36019 16.9186 6.16355 16.6755C5.99411 16.466 3.28261 16.3554 2.9067 16.5426ZM38.7491 20.396V24.1057L38.5212 24.3336L38.2933 24.5616H35.5243C33.8789 24.5616 32.6727 24.5301 32.5516 24.484C32.1355 24.3258 32.1214 24.1884 32.1214 20.2756V16.6863H35.4353H38.7491V20.396ZM3.05867 19.0803C2.62452 19.1642 2.45322 19.6957 2.76121 20.0037C3.05251 20.295 5.87099 20.3041 6.14296 20.0147C6.44425 19.6939 6.33314 19.2582 5.91263 19.1117C5.67778 19.0298 3.44706 19.0053 3.05867 19.0803ZM31.0298 20.6239V21.9885H30.5971C29.6878 21.9885 29.5483 21.765 29.5483 20.3084V19.2594H30.2891H31.0298V20.6239ZM3.40058 21.8192C3.20752 22.0325 3.2324 22.498 3.44487 22.6468C4.01805 23.0483 5.68869 22.7323 5.68869 22.2224C5.68869 21.7007 3.80768 21.3693 3.40058 21.8192ZM17.0701 23.7805C17.2369 23.8656 17.6828 24.0296 18.0612 24.1451C19.4517 24.5694 21.6234 24.4038 22.8453 23.7805C23.2419 23.5782 23.2326 23.5739 23.2326 23.958C23.2326 24.2863 23.214 24.3086 21.5951 25.9261L19.9577 27.5621L18.3203 25.9261C16.7014 24.3086 16.6828 24.2863 16.6828 23.958C16.6828 23.5739 16.6735 23.5782 17.0701 23.7805ZM17.6184 26.8616L19.1372 28.3819L18.0475 29.4737C17.4482 30.0741 16.9393 30.5655 16.9166 30.5655C16.8939 30.5655 16.4205 29.6534 15.8644 28.5386L14.8534 26.5119L15.4348 25.9265C15.7546 25.6047 16.035 25.3413 16.0579 25.3413C16.0808 25.3413 16.783 26.0254 17.6184 26.8616ZM24.4806 25.9265L25.062 26.5119L24.051 28.5386C23.4949 29.6534 23.0215 30.5655 22.9988 30.5655C22.9761 30.5655 22.4672 30.0741 21.8679 29.4737L20.7782 28.3819L22.297 26.8616C23.1324 26.0254 23.8346 25.3413 23.8575 25.3413C23.8804 25.3413 24.1608 25.6047 24.4806 25.9265ZM29.0805 27.2083C30.6006 27.7279 31.7675 28.9625 32.1538 30.4597C32.2581 30.8642 32.2774 31.5155 32.2774 34.6438V38.3488L32.0375 38.5507L31.7976 38.7526H27.104H22.4103L22.1218 35.8091L21.8331 32.8656L22.0041 32.1788C22.1589 31.5568 22.1901 31.4966 22.3334 31.5421C23.021 31.7602 23.1315 31.7628 23.5181 31.5711L23.8953 31.3842L25.0126 29.1713L26.1299 26.9585L27.3518 26.9968C28.3401 27.0278 28.6706 27.0682 29.0805 27.2083ZM20.5993 29.8424C21.3191 30.558 21.2987 30.4048 20.8857 31.9885L20.8094 32.2809H19.9577H19.106L19.0297 31.9885C18.6176 30.408 18.5967 30.566 19.3126 29.8459C20.0358 29.1184 19.8715 29.1189 20.5993 29.8424ZM20.7374 33.5032C20.7374 33.6064 21.2023 38.2501 21.2375 38.4992L21.2734 38.7526H19.9577H18.642L18.6779 38.4992C18.7131 38.2501 19.178 33.6064 19.178 33.5032C19.178 33.4742 19.5288 33.4504 19.9577 33.4504C20.3865 33.4504 20.7374 33.4742 20.7374 33.5032Z" fill="#08294F" stroke="white" stroke-width="0.2" mask="url(#path-1-inside-1_1248_9777)"/>
</svg>
