<svg width="50" height="50" viewBox="0 0 50 50" fill="none" xmlns="http://www.w3.org/2000/svg">
<path fill-rule="evenodd" clip-rule="evenodd" d="M5.87578 1.7771C2.99896 2.25971 0.658104 4.5903 0.143729 7.48407C-0.0243125 8.42966 -0.0565342 32.4814 0.108871 33.5112C0.614459 36.6584 3.0348 39.0137 6.20053 39.4393C8.214 39.7098 9.28142 39.4808 9.28142 38.778C9.28142 38.2156 8.91809 38.054 7.65031 38.0521C4.69793 38.0476 2.72654 36.7931 1.76702 34.308L1.51891 33.6655V20.6488V7.63198L1.74466 6.97227C2.3059 5.33157 3.63754 3.98877 5.26747 3.41968L5.91278 3.19445H25.0017H44.0906L44.7439 3.42244C46.3531 3.98394 47.6275 5.26086 48.2643 6.94959L48.4845 7.53337L48.5111 20.2982C48.5429 35.5823 48.6421 34.6042 46.8794 36.3829C45.3356 37.9407 45.1109 37.9902 39.3062 38.0521L34.5218 38.1031L34.0336 38.3674C33.6893 38.5538 32.4514 39.7416 29.835 42.3958C25.7467 46.5433 25.5368 46.7316 25.0017 46.7316C24.4666 46.7316 24.2567 46.5433 20.1684 42.3958C15.6017 37.7629 16.1443 38.1135 13.4749 38.0715C11.6492 38.0427 11.4492 38.0561 11.2577 38.2194C10.8925 38.5309 10.878 38.8925 11.2168 39.2346L11.5121 39.5329H13.2821C15.5514 39.5329 14.9653 39.1353 19.6802 43.8741C25.4518 49.6751 24.5516 49.6751 30.3232 43.8741C32.525 41.6612 34.461 39.7822 34.6255 39.6987C34.8785 39.5703 35.6297 39.5411 39.5076 39.509C44.6789 39.4661 44.5723 39.4792 46.1805 38.6823C48.1342 37.7142 49.532 35.768 49.8945 33.5112C50.0355 32.6335 50.035 8.56318 49.894 7.68129C49.406 4.63044 47.0626 2.26375 44.0418 1.77099C43.2459 1.64111 6.65125 1.64703 5.87578 1.7771ZM18.6477 10.4347C15.6162 10.8613 13.007 13.0837 12.1257 15.99C10.6156 20.9699 14.1116 26.8142 21.7121 32.0147C24.8946 34.1923 24.8723 34.1867 26.4546 33.2161C35.8386 27.4597 40.0252 20.5268 37.4822 14.9547C37.077 14.0671 36.59 13.8266 36.1328 14.2883C35.8594 14.5644 35.8889 14.9501 36.2417 15.7114C38.348 20.2572 34.1435 26.8303 25.9209 31.8463C24.9309 32.4502 25.0569 32.4601 23.8342 31.6833C15.3979 26.3238 11.5647 20.0863 13.871 15.4709C15.8924 11.4258 20.9066 10.6181 24.2448 13.8001C24.9065 14.4308 25.0969 14.4308 25.7586 13.8001C27.9818 11.6809 30.6512 11.2641 33.4005 12.6069C34.2494 13.0214 34.4642 13.026 34.7682 12.6357C35.1731 12.1159 34.9114 11.7197 33.8219 11.2035C31.0726 9.90095 27.7656 10.2418 25.5614 12.0551L25.0017 12.5155L24.442 12.0551C22.9981 10.8673 20.5127 10.1723 18.6477 10.4347Z" fill="#08294F"/>
</svg>
