<svg width="35" height="35" viewBox="0 0 35 35" fill="none" xmlns="http://www.w3.org/2000/svg">
<path fill-rule="evenodd" clip-rule="evenodd" d="M2.63677 1.09578C2.28008 1.27159 2.25713 1.9185 2.60155 2.08917C2.6686 2.1224 3.69941 2.16615 4.89221 2.18637L7.06096 2.22314L9.35478 12.9217C11.959 25.0677 11.7486 23.8723 11.3565 24.2976C9.49772 26.3142 10.9054 29.0893 13.8632 29.2391L14.7088 29.282L14.3043 29.4741C13.1196 30.0369 12.4482 31.7704 13.2813 32.1155C13.7196 32.297 14.0061 32.0339 14.121 31.3444C14.1843 30.9646 14.6117 30.527 14.9881 30.4564C16.0996 30.2478 16.875 31.4933 16.1615 32.3413C15.7882 32.7848 15.9118 32.7746 10.9278 32.7746C7.69706 32.7746 6.31699 32.7988 6.1878 32.8577C5.76978 33.0481 5.78221 33.6978 6.20721 33.8739C6.34897 33.9326 7.75816 33.9503 11.109 33.9353L15.8117 33.9143L16.2161 33.7222C16.4385 33.6165 16.7491 33.4014 16.9063 33.2442C18.0504 32.1003 17.6985 30.1783 16.2161 29.4741L15.8117 29.282L18.4771 29.2627C19.9432 29.252 22.3421 29.252 23.808 29.2627L26.4735 29.282L26.069 29.4741C24.244 30.3411 24.244 32.8643 26.069 33.7196C26.9128 34.115 27.9987 33.9167 28.671 33.2442C29.8151 32.1003 29.4632 30.1783 27.9808 29.4741L27.5764 29.282L29.1573 29.245C30.8729 29.2048 30.9388 29.192 31.0713 28.8723C31.1745 28.6231 31.0687 28.2693 30.8601 28.1659C30.793 28.1327 26.7345 28.0889 21.8411 28.0687C11.9695 28.0279 12.7744 28.0716 12.2512 27.5484C11.2534 26.5506 11.7986 24.7788 13.2073 24.4412C13.3116 24.4162 17.1002 24.1807 21.6264 23.9179C26.1526 23.6552 29.9882 23.4217 30.1499 23.3992C30.8514 23.3017 31.5698 22.7585 31.8791 22.0917C32.1007 21.6141 34.9661 10.9909 34.9661 10.647C34.9661 9.57498 34.3589 9.24622 32.3777 9.24564C30.7268 9.24512 30.3621 9.41233 30.6257 10.0487C30.7565 10.3646 30.8288 10.3801 32.3558 10.421L33.7529 10.4584L33.7715 10.679C33.7973 10.9839 30.8927 21.5773 30.72 21.8087C30.3817 22.2618 30.7622 22.2219 21.871 22.7362C17.3656 22.9969 13.4808 23.2401 13.2382 23.2768C12.9955 23.3134 12.7876 23.3357 12.7763 23.3263C12.7649 23.3169 11.7021 18.3878 10.4146 12.373C8.22905 2.16336 8.06059 1.42387 7.87853 1.24174L7.68353 1.04667L5.24022 1.03174C3.61846 1.02189 2.74309 1.04343 2.63677 1.09578ZM20.0764 3.44571C12.667 4.37123 10.3249 14.2617 16.5365 18.3948C22.8688 22.6081 31.0491 16.767 29.0732 9.44306C28.8549 8.63424 28.3389 8.3799 27.9574 8.89314L27.8092 9.09255L27.9869 9.84902C29.0194 14.2442 25.9394 18.4225 21.5102 18.6349C15.6539 18.9158 12.0232 12.4071 15.3452 7.58306C17.4039 4.59365 21.4406 3.66917 24.6349 5.45556C25.1806 5.76064 25.4638 5.7849 25.6886 5.54564C26.6537 4.51828 22.8584 3.09821 20.0764 3.44571ZM27.3368 5.84446C26.9347 6.27917 25.2745 8.10733 23.6474 9.90696C22.0204 11.7066 20.6484 13.1886 20.5985 13.2002C20.5487 13.2118 19.9764 12.5831 19.3267 11.8031C17.7265 9.88167 17.6692 9.83961 17.2388 10.27C16.8678 10.641 16.9213 10.7374 18.655 12.8194C20.2459 14.73 20.3826 14.8537 20.749 14.7153C20.8885 14.6626 24.3302 10.9144 28.2863 6.50689C28.9228 5.79762 29.0193 5.50431 28.7161 5.20108C28.3807 4.86564 28.137 4.97931 27.3368 5.84446ZM2.63677 16.3914C2.24809 16.5793 2.26177 17.2167 2.65838 17.3974C2.77824 17.452 3.4675 17.4805 4.67199 17.4805C6.65316 17.4805 6.80985 17.4546 6.95537 17.1033C7.06765 16.8323 6.94441 16.505 6.68559 16.3871C6.44574 16.2778 2.8639 16.2817 2.63677 16.3914ZM0.283825 21.0973C-0.104851 21.2852 -0.0911748 21.9226 0.305443 22.1033C0.434119 22.162 1.71875 22.1864 4.67199 22.1864C9.15758 22.1864 9.15184 22.1868 9.30831 21.8092C9.42059 21.5381 9.29735 21.2109 9.03853 21.093C8.79243 20.9809 0.516252 20.9849 0.283825 21.0973ZM1.4603 24.6267C1.07162 24.8146 1.0853 25.452 1.48191 25.6327C1.60559 25.6891 2.44213 25.7158 4.08375 25.7158C5.72537 25.7158 6.56191 25.6891 6.68559 25.6327C7.09397 25.4467 7.09397 24.8084 6.68559 24.6224C6.44309 24.5119 1.68971 24.5158 1.4603 24.6267ZM27.4903 30.522C28.2457 30.8376 28.4299 31.8281 27.8424 32.4156C27.0163 33.2417 25.6626 32.5018 25.8799 31.3429C26.0099 30.6507 26.8154 30.24 27.4903 30.522ZM3.81324 32.862C3.40713 33.0584 3.44272 33.7034 3.86949 33.8802C4.52427 34.1514 4.97728 33.1514 4.33265 32.8577C4.11522 32.7586 4.02566 32.7593 3.81324 32.862Z" fill="white"/>
</svg>
