<svg width="35" height="35" viewBox="0 0 35 35" fill="none" xmlns="http://www.w3.org/2000/svg">
<path fill-rule="evenodd" clip-rule="evenodd" d="M16.0302 0.937969C12.9935 1.19882 10.0246 2.34231 7.51705 4.21695C6.27413 5.14612 6.0999 5.39333 6.44478 5.7382C6.69205 5.98548 6.91528 5.91185 7.60055 5.35719C12.9315 1.04273 20.4406 0.666523 26.1079 4.43004C34.5194 10.016 35.5762 21.8375 28.2884 28.8209C21.7493 35.0871 11.2847 34.4861 5.45693 27.5099C0.672942 21.7831 0.627647 13.4423 5.34893 7.60882C5.90358 6.92355 5.97721 6.70032 5.72994 6.45305C5.40631 6.12942 5.16983 6.27356 4.39721 7.26537C-2.09441 15.5981 0.7055 27.7728 10.1815 32.4169C20.0657 37.2612 31.8379 31.336 33.8374 20.5103C35.8286 9.72898 26.9751 -0.00218004 16.0302 0.937969ZM16.5501 3.04975C5.44458 3.96962 -0.623718 16.0608 5.34802 25.3702C6.40169 27.0128 7.10744 27.5412 7.36004 26.8767C7.45843 26.6179 7.43666 26.567 6.98644 26.0035C0.675541 18.1045 4.89403 6.2952 14.7481 4.27525C25.7248 2.02518 34.5642 13.4256 29.6129 23.4468C25.7537 31.2577 15.7469 33.4421 8.93347 27.9611C8.43198 27.5576 8.37479 27.5346 8.11628 27.6329C6.67814 28.1797 11.0345 30.9139 14.5355 31.6619C24.8946 33.875 34.0604 24.3621 31.5336 14.0201C29.8919 7.30072 23.32 2.48905 16.5501 3.04975ZM15.2632 5.33406C15.0677 5.55014 15.0974 11.2053 15.2951 11.3894C15.4765 11.5585 15.6748 11.5577 15.8914 11.3872L16.0627 11.2526V9.27518C16.0627 8.18765 16.0846 7.29864 16.1114 7.29955C16.1382 7.30053 16.7743 8.19525 17.5248 9.28779C19.1351 11.6318 19.2399 11.7299 19.6723 11.2974L19.8318 11.1379V8.31281V5.48768L19.6606 5.35303C19.4446 5.1831 19.3093 5.1831 19.0933 5.35303L18.922 5.48768V7.49756C18.922 8.60297 18.9001 9.50588 18.8733 9.50413C18.8465 9.50231 18.1663 8.54455 17.3619 7.37585L15.8992 5.25081L15.6364 5.23145C15.4445 5.21734 15.3439 5.24496 15.2632 5.33406ZM22.5612 11.3549C20.4687 12.2469 15.1449 14.735 14.9468 14.9136C14.7113 15.126 11.3162 22.4355 11.2127 22.9533C11.126 23.3869 11.6061 23.867 12.0397 23.7803C12.5553 23.6771 19.867 20.2818 20.0809 20.0462C20.2989 19.806 23.69 12.4581 23.7719 12.0482C23.8983 11.4165 23.266 11.0544 22.5612 11.3549ZM22.5319 12.5455C22.3059 13.1403 19.655 18.8653 19.6056 18.8653C19.5197 18.8653 16.1277 15.4742 16.1277 15.3883C16.1277 15.33 22.3773 12.4421 22.5195 12.4347C22.5501 12.433 22.5557 12.4829 22.5319 12.5455ZM6.23416 16.0303C4.95277 16.504 4.80837 18.2004 5.99293 18.8653C6.40709 19.0978 8.07462 19.1127 8.49183 18.8876C9.64728 18.2641 9.62921 16.7116 8.45934 16.0961C8.15767 15.9373 6.60945 15.8916 6.23416 16.0303ZM26.7849 15.9987C25.4014 16.4453 25.2238 18.2027 26.4929 18.8876C26.9101 19.1127 28.5776 19.0978 28.9918 18.8653C29.8205 18.4001 30.0559 17.3154 29.4894 16.5718C29.0803 16.0347 27.6273 15.7268 26.7849 15.9987ZM17.1507 17.8413C18.0892 18.7793 18.8571 19.5765 18.8571 19.613C18.8571 19.6846 12.4942 22.597 12.4451 22.5479C12.3964 22.4991 15.3081 16.1359 15.3791 16.1359C15.415 16.1359 16.2123 16.9033 17.1507 17.8413ZM8.2044 17.1057C8.74411 17.6454 8.32254 18.0855 7.26575 18.0855C6.35367 18.0855 6.15527 17.981 6.15527 17.5006C6.15527 17.0202 6.35367 16.9158 7.26575 16.9158C8.00658 16.9158 8.0164 16.9178 8.2044 17.1057ZM28.6486 17.0713C28.7931 17.1956 28.8294 17.2818 28.8294 17.5006C28.8294 17.981 28.631 18.0855 27.719 18.0855C26.8601 18.0855 26.5904 17.9458 26.5904 17.5006C26.5904 16.935 28.1193 16.6161 28.6486 17.0713ZM17.1021 25.6808C16.6433 25.8309 16.3127 26.1086 16.0863 26.5336C15.8913 26.8998 15.9077 28.668 16.1095 29.0455C16.693 30.1367 18.2492 30.1478 18.8571 29.065C19.0766 28.6739 19.1052 26.9221 18.8984 26.5336C18.5438 25.8679 17.7221 25.4778 17.1021 25.6808ZM17.8873 26.7886C18.3887 27.29 18.0859 28.9381 17.4924 28.9381C17.0403 28.9381 16.9075 28.6725 16.9075 27.7684C16.9075 26.8643 17.0403 26.5986 17.4924 26.5986C17.6322 26.5986 17.7576 26.6589 17.8873 26.7886Z" fill="white"/>
</svg>
