<svg width="50" height="50" viewBox="0 0 50 50" fill="none" xmlns="http://www.w3.org/2000/svg">
<path fill-rule="evenodd" clip-rule="evenodd" d="M26.4065 0.202059C25.933 0.421199 25.5389 0.825399 25.3444 1.29102C25.1872 1.66739 24.6972 4.10489 24.6981 4.50606C24.7021 6.34239 27.1927 7.36993 28.5392 6.09083C29.34 5.33028 30.2009 2.32276 29.8485 1.51739C29.3131 0.293856 27.6121 -0.356144 26.4065 0.202059ZM13.8088 1.35909C12.426 1.85548 12.4663 1.80128 8.92258 7.93848L5.96877 13.054L4.65764 13.107C1.84367 13.2209 1.21115 13.9997 1.21115 17.3509C1.21115 20.2776 1.97854 21.4965 3.82346 21.5003C4.34172 21.5014 4.33889 21.4966 4.14367 22.0384C3.93889 22.6066 3.93684 26.0012 4.14084 26.5794C4.22141 26.8077 4.28733 27.0062 4.28733 27.0203C4.28733 27.0345 3.81487 27.064 3.23752 27.0858C1.66477 27.1453 0.861057 27.5915 0.311741 28.7101C-0.076345 29.5003 -0.11199 33.0596 0.260667 33.8157C0.623655 34.5524 1.58303 35.3685 2.08615 35.3685C2.27199 35.3685 2.27229 35.4172 2.09006 36.1166C1.85949 37.0019 1.89074 39.839 2.13889 40.5442C2.38323 41.2389 2.39211 41.1941 1.96799 41.4126C0.776682 42.0266 0.527073 42.6981 0.529612 45.2806C0.531956 47.62 0.561936 47.7435 1.32483 48.5591C2.20744 49.5026 1.08908 49.431 14.9319 49.431C28.868 49.431 27.663 49.514 28.5991 48.4897L29.0932 47.9491L29.8983 48.2938C40.7433 52.9368 52.2961 43.1262 49.5533 31.6028C48.8859 28.7983 46.5562 24.9192 45.5393 24.9192C44.7613 24.9192 44.5811 25.6455 45.1935 26.313C50.4439 32.0355 49.2895 41.4681 42.8127 45.7664C34.061 51.5746 22.5865 45.4501 22.6001 34.9778C22.6132 24.8508 33.5954 18.6714 42.278 23.9057C43.2579 24.4965 43.452 24.533 43.7937 24.1912C44.4257 23.5593 43.6666 22.8149 41.3616 21.8062C38.6395 20.6148 34.3164 20.2166 32.235 20.9655C32.1643 20.991 31.9446 20.882 31.7467 20.7233C31.31 20.3731 30.6639 20.1341 30.1539 20.1341C29.7169 20.1341 29.7305 20.1731 29.9295 19.4882C30.209 18.5268 30.0946 15.3442 29.7574 14.7054C29.0906 13.4415 28.4285 13.1647 25.9663 13.1202L24.0613 13.0858L21.0631 7.89415C17.804 2.25069 17.6389 2.01768 16.5432 1.51622C15.7749 1.16456 14.5472 1.09405 13.8088 1.35909ZM28.0703 1.62354C28.6578 1.86895 28.6743 2.1172 28.1969 3.52618C27.7055 4.97638 27.4292 5.34659 26.919 5.23868C26.1195 5.06954 26.0518 4.7835 26.3946 3.0213C26.6967 1.46905 27.0318 1.18956 28.0703 1.62354ZM15.9572 2.83634C16.6311 3.14415 16.8575 3.48682 20.0971 9.1003C23.7977 15.5126 23.713 15.3268 23.4069 16.363C23.0742 17.4889 22.1116 17.9857 20.2628 17.9857C19.0783 17.9857 19.0141 17.9961 18.7849 18.2254L18.5451 18.465V24.3385C18.5451 30.7765 18.5557 30.6549 17.967 31.0026C17.5116 31.2716 12.4799 31.2514 12.0328 30.9788C11.4469 30.6216 11.4693 30.8639 11.4162 24.301C11.3587 17.1883 11.5636 17.9857 9.79367 17.9857C9.13664 17.9857 8.37883 17.9348 8.10959 17.8727C7.53537 17.7401 7.1883 17.8931 7.07951 18.3266C6.90618 19.0171 7.48078 19.3372 9.04807 19.4234L10.049 19.4785V19.8064V20.1341H6.93938C2.5761 20.1341 2.62707 20.167 2.62737 17.3524C2.62756 14.98 2.8343 14.6452 4.3384 14.5822L5.15647 14.5481L5.09944 15.2293C4.99846 16.4333 5.24123 17.0091 5.84983 17.0091C6.36877 17.0091 6.52981 16.7323 6.51858 15.8601C6.51067 15.2466 6.55207 15.0116 6.72971 14.6634C7.31262 13.5208 13.1273 3.54825 13.3465 3.31505C13.9538 2.66915 15.1222 2.45489 15.9572 2.83634ZM34.7467 4.54347C33.6499 4.84434 31.6384 7.2755 31.6332 8.30636C31.6249 9.97061 33.3021 11.1491 34.7925 10.5264C35.3036 10.3129 37.3665 8.45753 37.6103 7.9922C38.4988 6.29581 36.6176 4.03009 34.7467 4.54347ZM35.9897 6.30284C36.6827 6.996 36.62 7.16846 35.2374 8.37257C34.156 9.31446 33.8176 9.43712 33.3825 9.04522C32.8271 8.54483 32.9121 8.25782 33.9781 7.03585C35.1886 5.64835 35.2959 5.60919 35.9897 6.30284ZM38.174 12.8109C36.1199 13.5272 35.6802 13.9675 35.6876 15.3001C35.695 16.6306 36.5935 17.595 37.8255 17.595C38.617 17.595 40.9924 17.0454 41.3842 16.7715C42.6551 15.8834 42.5301 13.5145 41.1679 12.6724C40.3934 12.1935 39.8761 12.2174 38.174 12.8109ZM40.4184 13.8831C40.8341 14.1056 40.997 15.2681 40.6527 15.5539C40.4779 15.699 38.4586 16.1207 37.9126 16.1261C37.2259 16.1329 36.7834 15.1755 37.2707 14.7372C37.7483 14.3077 40.0466 13.6842 40.4184 13.8831ZM27.8205 14.7388C28.5272 15.0938 28.6037 15.3483 28.6033 17.3409C28.6028 20.2382 28.7948 20.129 23.6965 20.1319L20.01 20.1341V19.8064V19.4785L21.011 19.4256C23.7197 19.2822 25.661 16.8784 24.8257 14.7017C24.7405 14.4798 27.3699 14.5123 27.8205 14.7388ZM10.0262 24.3148L10.0521 27.0793L8.17073 27.0491C5.45666 27.0055 5.41037 26.96 5.41037 24.3333C5.41037 21.6486 5.57717 21.4916 8.38889 21.5288L10.0002 21.5501L10.0262 24.3148ZM30.0685 21.5745C30.0684 21.6148 29.7347 21.7978 29.3269 21.9812C27.5421 22.7836 25.2666 24.6387 24.0607 26.2745L23.4768 27.0665L21.7434 27.0671L20.01 27.0677V24.2845V21.5013H25.0393C27.8054 21.5013 30.0686 21.5343 30.0685 21.5745ZM34.1296 25.118C25.8884 26.4191 22.6613 36.4422 28.6367 42.1778C34.9638 48.251 45.4983 43.7832 45.4983 35.0267C45.4983 28.9977 39.9862 24.1935 34.1296 25.118ZM37.7834 26.7707C45.3445 28.9401 46.302 39.1366 39.2773 42.6784C33.3707 45.6565 26.3139 40.7148 27.0497 34.1158C27.6308 28.905 32.8276 25.3487 37.7834 26.7707ZM35.0184 28.145C34.8171 28.3034 34.7601 28.4429 34.7366 28.8345L34.7072 29.3254L34.0589 29.5431C31.2049 30.5015 31.1973 33.5631 34.0459 34.778L34.7072 35.0601L34.7336 37.1186L34.76 39.1771L34.4895 39.1765C34.1189 39.1758 33.5444 39.0119 32.8801 38.7175C32.0002 38.3274 31.3284 38.7395 31.6356 39.4809C31.8277 39.9445 33.5492 40.6326 34.5364 40.6402C34.735 40.6417 34.7561 40.6893 34.7561 41.1346C34.7561 42.4365 36.0904 42.4107 36.1985 41.1067C36.2431 40.5686 36.2482 40.5608 36.5985 40.4952C40.3321 39.795 40.3982 35.1326 36.6879 34.1817L36.2209 34.062V32.4125V30.7631L36.5383 30.8328C36.7129 30.8711 37.0856 31.0151 37.3666 31.1529C37.9599 31.4439 38.3161 31.3865 38.5546 30.9616C38.8841 30.3747 38.0862 29.6871 36.755 29.4108C36.2626 29.3086 36.2209 29.2787 36.2209 29.0284C36.2209 28.1191 35.6162 27.6748 35.0184 28.145ZM10.049 29.4917C10.049 31.0113 10.4539 31.8195 11.4769 32.3419L11.9533 32.5853H15.0295C18.5186 32.5853 18.5155 32.5858 19.2693 31.7515C19.8112 31.1518 19.9362 30.7746 19.9888 29.5823L20.0351 28.5325H21.292C21.9834 28.5325 22.549 28.5637 22.549 28.6018C22.549 28.6399 22.3917 29.0372 22.1994 29.4849C21.7787 30.4646 21.3095 32.2684 21.2074 33.2991L21.133 34.0501H11.8069H2.48069L2.12483 33.8288C1.52776 33.4575 1.4552 33.1783 1.45569 31.2522C1.45627 28.4145 1.24592 28.5334 6.26487 28.5329L10.049 28.5325V29.4917ZM34.7561 32.1458C34.7561 33.5916 34.7489 33.6014 34.0096 33.1682C33.1404 32.6588 33.1829 31.6278 34.096 31.0711C34.7307 30.6841 34.7561 30.7253 34.7561 32.1458ZM21.085 35.5882C21.092 36.6556 21.598 39.0356 22.0718 40.2294C22.2269 40.6202 22.3537 40.9608 22.3537 40.9862C22.3537 41.147 4.51604 41.0244 4.19162 40.8614C3.49006 40.509 3.40842 40.2444 3.40842 38.3229C3.40842 36.1893 3.5424 35.8418 4.47424 35.5595C4.93332 35.4203 21.0841 35.4482 21.085 35.5882ZM36.9045 35.767C38.4188 36.4524 38.4209 38.0668 36.9087 38.8331C36.1886 39.1981 36.2209 39.2691 36.2209 37.3216C36.2209 35.3678 36.188 35.4427 36.9045 35.767ZM23.7689 43.3569C24.6178 44.5894 26.6053 46.5173 27.6021 47.0751C27.8272 47.2011 27.6652 47.5359 27.2559 47.7903L26.8947 48.0149H14.9319C1.65334 48.0149 2.68957 48.0652 2.18772 47.3964C1.88352 46.9909 1.84192 43.6774 2.13508 43.2045C2.60832 42.4412 1.73078 42.4976 13.0764 42.5027L23.1838 42.5074L23.7689 43.3569Z" fill="#08294F"/>
</svg>
