<svg width="35" height="35" viewBox="0 0 35 35" fill="none" xmlns="http://www.w3.org/2000/svg">
<path fill-rule="evenodd" clip-rule="evenodd" d="M16.1568 2.01478C11.9124 2.78642 9.08243 6.94662 9.94072 11.1529C10.5952 14.3603 13.2185 16.8416 16.4309 17.2919L17.027 17.3755L17.0087 18.983L16.9904 20.5906L15.7961 21.215C14.6967 21.7897 14.5959 21.8294 14.5289 21.7137C10.8066 15.286 1.63497 16.7245 0.0988708 23.9769C-0.131472 25.0644 0.066953 27.3402 0.423186 27.6972C0.734898 28.0094 1.32736 27.7389 1.25284 27.3184C1.23483 27.2168 1.16647 26.8403 1.10099 26.4818C0.406542 22.6801 3.20414 19.0249 7.08264 18.6663C13.2756 18.0938 16.8164 25.5512 12.4797 30.0332C11.851 30.683 11.7848 30.707 11.723 30.3077C11.6063 29.5525 11.1089 28.9431 10.1127 28.3347C9.3449 27.8658 9.28038 27.6626 9.78819 27.3125C12.7265 25.2869 11.3033 20.6545 7.74106 20.6493C4.20668 20.644 2.7149 25.2189 5.5888 27.2496C6.1999 27.6814 6.16634 27.8153 5.3123 28.3512C4.30565 28.9828 3.98435 29.3638 3.76332 30.1876C3.6975 30.433 3.63565 30.6448 3.62579 30.6584C3.58086 30.7202 2.87038 30.0443 2.52182 29.608C1.93853 28.8781 1.80668 28.8148 1.45168 29.0946C0.690789 29.6943 2.98072 31.8666 5.20127 32.6515C10.7821 34.6243 16.5269 29.5455 15.2464 23.771C15.1627 23.3935 15.0803 23.0075 15.0632 22.9131C15.0341 22.7525 15.1116 22.7005 16.2798 22.097L17.5275 21.4523L18.782 22.097C19.7251 22.5816 20.0266 22.7671 19.9972 22.8445C19.0372 25.3723 19.754 28.6013 21.7369 30.6807C26.5207 35.6977 34.9633 32.3245 34.9944 25.3837C35.0255 18.3994 26.5423 14.9785 21.7235 20.0321C21.2502 20.5285 20.5178 21.5335 20.5178 21.6866C20.5178 21.8277 20.2135 21.7105 19.1822 21.1721L18.0863 20.6L18.0679 18.9888L18.0496 17.3777L18.7186 17.267C24.5815 16.2965 27.223 9.35592 23.4848 4.74402C23.2102 4.40534 22.8845 4.34571 22.6411 4.58961C22.4113 4.81985 22.4711 5.05648 22.9163 5.67928C24.8863 8.43481 24.6048 11.9718 22.2237 14.3801C21.6488 14.9616 21.5767 14.9847 21.5259 14.605C21.4267 13.864 20.9102 13.2299 19.9083 12.619C19.1559 12.1602 19.0793 11.95 19.5507 11.6374C22.5378 9.65686 21.1196 4.93885 17.5356 4.93357C14.0018 4.92835 12.5143 9.55666 15.4081 11.5536C15.9786 11.9472 15.9554 12.1101 15.2679 12.5352C14.1499 13.2267 13.702 13.7564 13.5282 14.5921C13.4319 15.0551 13.4517 15.0619 12.7344 14.3176C10.4824 11.9809 10.152 8.58448 11.9185 5.93134C13.8093 3.09175 17.4765 2.11195 20.5057 3.63713C21.2309 4.0023 21.4741 4.04313 21.6822 3.83471C22.6441 2.87083 18.6623 1.5593 16.1568 2.01478ZM17.9913 5.96312C20.0848 6.358 20.897 8.98396 19.3818 10.4594C18.3121 11.5011 16.5446 11.4633 15.5915 10.3783C13.9182 8.47351 15.5346 5.49975 17.9913 5.96312ZM18.2575 12.3818C18.2575 12.7094 18.4141 12.8684 19.2685 13.4089C20.3367 14.0845 20.5201 14.3247 20.5707 15.1148L20.603 15.6189L20.098 15.8289C18.434 16.521 16.4535 16.516 14.8735 15.816L14.4904 15.6462V15.2409C14.4904 14.4138 14.7041 14.1022 15.7043 13.4716C16.6837 12.8541 16.7507 12.7902 16.7507 12.4746V12.2169L17.5041 12.2182C18.25 12.2196 18.2575 12.2212 18.2575 12.3818ZM28.1786 18.6939C33.6136 19.2103 35.943 26.2457 31.9744 30.1581C31.3489 30.7748 31.3967 30.772 31.2498 30.2005C31.0394 29.3822 30.7063 28.9858 29.6959 28.3514C28.8418 27.8152 28.8083 27.6814 29.4193 27.2496C30.6075 26.4101 31.1975 24.7944 30.8274 23.3935C30.6152 22.5905 29.6241 22.5787 29.8049 23.3814C30.5534 26.7057 26.3327 28.4201 24.8757 25.3837C23.7813 23.103 26.1704 20.8954 28.5826 21.9583L28.942 22.1167L29.1306 21.9762C29.8723 21.4234 28.8033 20.6472 27.3033 20.6493C23.6996 20.6543 22.2622 25.2694 25.2267 27.3168C25.727 27.6623 25.6602 27.8676 24.8954 28.3347C23.8993 28.9431 23.4019 29.5525 23.2851 30.3077C23.2234 30.707 23.1572 30.683 22.5285 30.0332C18.6192 25.9931 21.068 19.2086 26.6327 18.6622C27.185 18.608 27.2989 18.6103 28.1786 18.6939ZM8.70853 21.8232C10.0578 22.329 10.7568 24.0742 10.1346 25.3837C8.9025 27.9767 5.14106 27.1496 5.14106 24.2857C5.14106 22.3577 6.89846 21.1446 8.70853 21.8232ZM8.46298 28.0944C8.46298 28.4241 8.6164 28.587 9.36709 29.0545C10.5167 29.7705 10.7917 30.1428 10.7917 30.9827V31.3415L10.2952 31.5481C8.64538 32.2341 6.64743 32.2266 5.07168 31.5284L4.68127 31.3554L4.70572 30.818C4.72606 30.369 4.76154 30.2329 4.92113 29.9914C5.12065 29.6893 5.20812 29.6204 6.2712 28.9293C6.90928 28.5144 6.9223 28.5007 6.94284 28.217L6.9638 27.9277L7.71339 27.9284C8.45949 27.9291 8.46298 27.9299 8.46298 28.0944ZM28.0653 28.217C28.0859 28.5007 28.0989 28.5144 28.737 28.9293C29.8 29.6204 29.8875 29.6893 30.087 29.9914C30.2466 30.2329 30.2821 30.369 30.3024 30.818L30.3269 31.3554L29.9365 31.5284C28.3607 32.2266 26.3628 32.2341 24.713 31.5481L24.2164 31.3415V30.9827C24.2164 30.1428 24.4915 29.7705 25.6411 29.0545C26.3917 28.587 26.5452 28.4241 26.5452 28.0944C26.5452 27.9299 26.5487 27.9291 27.2948 27.9284L28.0443 27.9277L28.0653 28.217Z" fill="white"/>
</svg>
