<svg width="35" height="36" viewBox="0 0 35 36" fill="none" xmlns="http://www.w3.org/2000/svg">
<mask id="path-1-inside-1_1248_6324" fill="white">
<path fill-rule="evenodd" clip-rule="evenodd" d="M24.166 0.0347978C16.5225 0.749451 13.3625 10.5638 19.2276 15.3726C19.7363 15.7897 19.7301 15.7136 19.302 16.2793C17.0145 19.3014 17.6719 23.6943 20.7633 26.0439C20.9472 26.1838 20.9895 26.2525 20.9369 26.3267C18.6972 29.4884 19.6227 33.2666 22.9661 34.611C27.8182 36.562 32.2397 30.7775 29.0876 26.6025C28.9318 26.3962 28.831 26.205 28.8637 26.1776C28.8963 26.1502 29.1261 25.9662 29.3744 25.7687C32.1806 23.5358 32.6945 19.3062 30.5263 16.2865L30.1354 15.7421L30.3278 15.599C33.1002 13.5388 34.3091 9.483 33.1896 5.99758C31.9827 2.24008 28.0901 -0.332147 24.166 0.0347978ZM7.78848 0.972646C7.50855 1.05327 7.61577 0.943757 4.26556 4.57188C1.28952 7.79473 1.39417 7.66487 1.3907 8.13987C1.38424 9.02578 1.7916 9.30987 3.12973 9.35258L4.0966 9.38341V18.4405C4.0966 26.2536 4.11056 27.5245 4.1982 27.694C4.37021 28.0266 4.73702 28.0763 5.04757 27.8092L5.24244 27.6416V18.0809V8.52029L5.04757 8.35265C4.85862 8.19015 4.81813 8.18508 3.70501 8.18508C3.07369 8.18508 2.56764 8.15758 2.58042 8.12404C2.62737 8.00022 8.14278 2.06862 8.19271 2.08834C8.28174 2.12341 13.7494 8.06494 13.7494 8.12661C13.7494 8.15876 13.2324 8.18508 12.6004 8.18508C11.4731 8.18508 11.4482 8.18828 11.281 8.35557L11.1105 8.52598V18.0809V27.6359L11.281 27.8063C11.5065 28.0318 11.8256 28.0318 12.0511 27.8063L12.2216 27.6359V18.5086V9.3814L13.1765 9.35272C14.4438 9.3146 14.8594 9.08515 14.9676 8.36355C15.0531 7.79355 15.0215 7.75265 11.8717 4.34404C8.50091 0.696396 8.5648 0.749104 7.78848 0.972646ZM26.7547 1.40633C32.436 2.86647 34.4053 9.94536 30.2831 14.0896C25.5097 18.8884 17.3608 15.5152 17.3542 8.73772C17.3506 5.09084 20.0233 1.88313 23.541 1.31258C23.8275 1.26612 24.1088 1.21674 24.166 1.20278C24.5145 1.11806 26.1263 1.2448 26.7547 1.40633ZM21.42 4.91147C20.6573 5.2723 20.238 5.98404 20.292 6.82598C20.4594 9.43487 24.2657 9.33994 24.2694 6.72675C24.2715 5.19675 22.7994 4.2589 21.42 4.91147ZM26.9434 4.77369C24.7683 5.48626 25.2529 8.74064 27.5341 8.74064C29.6329 8.74064 30.3068 5.87661 28.4369 4.90383C28.1348 4.74661 27.2588 4.67029 26.9434 4.77369ZM22.7148 5.98112C23.2454 6.33452 23.3074 6.98814 22.847 7.3755C22.044 8.05112 20.9126 6.92786 21.6313 6.16855C21.9922 5.78723 22.3347 5.728 22.7148 5.98112ZM27.882 5.92397C28.5006 6.18237 28.5751 7.08598 28.0085 7.45716C27.7617 7.6189 27.3065 7.6189 27.0597 7.45716C26.1755 6.87786 26.9058 5.51605 27.882 5.92397ZM20.5897 10.0014C19.322 10.6947 22.1051 12.6544 24.581 12.8118C26.997 12.9654 30.4162 11.0032 29.3422 10.0794C29.0744 9.84904 28.8305 9.9048 28.3954 10.296C26.4382 12.0557 23.4744 12.1272 21.6313 10.4591C21.0317 9.9164 20.8727 9.84654 20.5897 10.0014ZM21.2664 16.6861C23.6006 17.7499 26.4665 17.7354 28.6258 16.6489C29.1543 16.383 29.1565 16.3836 29.5384 16.8822C32.5529 20.8186 29.6024 26.4253 24.622 26.2247C19.9656 26.037 17.4142 20.4904 20.309 16.8483C20.6835 16.3772 20.6142 16.3889 21.2664 16.6861ZM21.8347 18.281C20.9759 18.6809 20.6034 19.7578 21.0328 20.5994C21.6888 21.8853 23.4849 21.8868 24.1251 20.6021C24.8491 19.1492 23.3131 17.5926 21.8347 18.281ZM26.5997 18.2252C25.4766 18.7124 25.1528 20.0858 25.9523 20.9708C27.0374 22.172 28.9588 21.4338 28.9555 19.817C28.9531 18.6193 27.6777 17.7575 26.5997 18.2252ZM22.804 19.2932C23.0229 19.3764 23.2172 19.7359 23.1547 19.942C23.0147 20.4042 22.5056 20.5588 22.1838 20.2368C21.7327 19.7859 22.206 19.0659 22.804 19.2932ZM27.6904 19.4736C28.1719 20.0208 27.3527 20.7531 26.8365 20.2368C26.5826 19.983 26.6034 19.639 26.887 19.4004C27.1551 19.1747 27.4511 19.2018 27.6904 19.4736ZM6.77021 20.4875C6.44876 20.6634 6.45771 20.5146 6.45771 25.6668V30.5525L6.6282 30.7229C6.73563 30.8304 6.87799 30.8934 7.01327 30.8934C7.14855 30.8934 7.29091 30.8304 7.39834 30.7229L7.56883 30.5525L7.5666 25.6709C7.56431 20.5127 7.57369 20.664 7.24355 20.4881C7.05758 20.389 6.95042 20.3889 6.77021 20.4875ZM22.7486 22.9821C22.5418 23.2279 22.5295 23.3243 22.6704 23.5968C22.817 23.8803 22.8107 23.8795 24.9653 23.8795H26.9338L27.0776 23.6965C27.2725 23.4489 27.262 23.1497 27.0511 22.9389L26.8807 22.7684H24.9045H22.9284L22.7486 22.9821ZM9.04306 23.9954C8.75605 24.1109 8.74938 24.2231 8.74938 28.9161V33.4041L8.95237 33.6071C9.21577 33.8705 9.46355 33.8705 9.72695 33.6071L9.92994 33.4041V28.9161C9.92994 24.1688 9.92626 24.1118 9.61431 23.9921C9.48396 23.9421 9.17112 23.9439 9.04306 23.9954ZM28.1733 27.3172C30.1858 29.9772 28.2636 33.8101 24.9172 33.8101C21.5027 33.8101 19.5412 29.6875 21.7576 27.1695C22.0732 26.811 22.0306 26.8133 22.9776 27.1043C24.303 27.5116 25.7229 27.4909 27.0133 27.0455C27.8258 26.7651 27.7406 26.7451 28.1733 27.3172ZM22.3853 28.0463C21.6854 28.3257 21.924 28.9138 22.9372 29.407C23.9489 29.8994 24.6311 29.6187 24.2326 28.8742C24.086 28.6002 22.631 27.9482 22.3853 28.0463ZM27.0763 28.0483C25.8467 28.3861 25.1056 29.2915 25.7682 29.6461C26.0433 29.7933 27.3981 29.2874 27.6985 28.9253C28.0272 28.5293 27.5865 27.9081 27.0763 28.0483ZM24.26 30.4467C23.1626 30.8518 22.757 32.6295 23.7619 32.6295C24.0005 32.6295 24.3049 32.3568 24.3049 32.1432C24.3049 31.9438 24.4839 31.614 24.6206 31.5616C24.9931 31.4186 25.4855 31.671 25.4855 32.0048C25.4855 32.7247 26.4628 32.8743 26.6368 32.1811C26.909 31.0965 25.4278 30.0156 24.26 30.4467Z"/>
</mask>
<path fill-rule="evenodd" clip-rule="evenodd" d="M24.166 0.0347978C16.5225 0.749451 13.3625 10.5638 19.2276 15.3726C19.7363 15.7897 19.7301 15.7136 19.302 16.2793C17.0145 19.3014 17.6719 23.6943 20.7633 26.0439C20.9472 26.1838 20.9895 26.2525 20.9369 26.3267C18.6972 29.4884 19.6227 33.2666 22.9661 34.611C27.8182 36.562 32.2397 30.7775 29.0876 26.6025C28.9318 26.3962 28.831 26.205 28.8637 26.1776C28.8963 26.1502 29.1261 25.9662 29.3744 25.7687C32.1806 23.5358 32.6945 19.3062 30.5263 16.2865L30.1354 15.7421L30.3278 15.599C33.1002 13.5388 34.3091 9.483 33.1896 5.99758C31.9827 2.24008 28.0901 -0.332147 24.166 0.0347978ZM7.78848 0.972646C7.50855 1.05327 7.61577 0.943757 4.26556 4.57188C1.28952 7.79473 1.39417 7.66487 1.3907 8.13987C1.38424 9.02578 1.7916 9.30987 3.12973 9.35258L4.0966 9.38341V18.4405C4.0966 26.2536 4.11056 27.5245 4.1982 27.694C4.37021 28.0266 4.73702 28.0763 5.04757 27.8092L5.24244 27.6416V18.0809V8.52029L5.04757 8.35265C4.85862 8.19015 4.81813 8.18508 3.70501 8.18508C3.07369 8.18508 2.56764 8.15758 2.58042 8.12404C2.62737 8.00022 8.14278 2.06862 8.19271 2.08834C8.28174 2.12341 13.7494 8.06494 13.7494 8.12661C13.7494 8.15876 13.2324 8.18508 12.6004 8.18508C11.4731 8.18508 11.4482 8.18828 11.281 8.35557L11.1105 8.52598V18.0809V27.6359L11.281 27.8063C11.5065 28.0318 11.8256 28.0318 12.0511 27.8063L12.2216 27.6359V18.5086V9.3814L13.1765 9.35272C14.4438 9.3146 14.8594 9.08515 14.9676 8.36355C15.0531 7.79355 15.0215 7.75265 11.8717 4.34404C8.50091 0.696396 8.5648 0.749104 7.78848 0.972646ZM26.7547 1.40633C32.436 2.86647 34.4053 9.94536 30.2831 14.0896C25.5097 18.8884 17.3608 15.5152 17.3542 8.73772C17.3506 5.09084 20.0233 1.88313 23.541 1.31258C23.8275 1.26612 24.1088 1.21674 24.166 1.20278C24.5145 1.11806 26.1263 1.2448 26.7547 1.40633ZM21.42 4.91147C20.6573 5.2723 20.238 5.98404 20.292 6.82598C20.4594 9.43487 24.2657 9.33994 24.2694 6.72675C24.2715 5.19675 22.7994 4.2589 21.42 4.91147ZM26.9434 4.77369C24.7683 5.48626 25.2529 8.74064 27.5341 8.74064C29.6329 8.74064 30.3068 5.87661 28.4369 4.90383C28.1348 4.74661 27.2588 4.67029 26.9434 4.77369ZM22.7148 5.98112C23.2454 6.33452 23.3074 6.98814 22.847 7.3755C22.044 8.05112 20.9126 6.92786 21.6313 6.16855C21.9922 5.78723 22.3347 5.728 22.7148 5.98112ZM27.882 5.92397C28.5006 6.18237 28.5751 7.08598 28.0085 7.45716C27.7617 7.6189 27.3065 7.6189 27.0597 7.45716C26.1755 6.87786 26.9058 5.51605 27.882 5.92397ZM20.5897 10.0014C19.322 10.6947 22.1051 12.6544 24.581 12.8118C26.997 12.9654 30.4162 11.0032 29.3422 10.0794C29.0744 9.84904 28.8305 9.9048 28.3954 10.296C26.4382 12.0557 23.4744 12.1272 21.6313 10.4591C21.0317 9.9164 20.8727 9.84654 20.5897 10.0014ZM21.2664 16.6861C23.6006 17.7499 26.4665 17.7354 28.6258 16.6489C29.1543 16.383 29.1565 16.3836 29.5384 16.8822C32.5529 20.8186 29.6024 26.4253 24.622 26.2247C19.9656 26.037 17.4142 20.4904 20.309 16.8483C20.6835 16.3772 20.6142 16.3889 21.2664 16.6861ZM21.8347 18.281C20.9759 18.6809 20.6034 19.7578 21.0328 20.5994C21.6888 21.8853 23.4849 21.8868 24.1251 20.6021C24.8491 19.1492 23.3131 17.5926 21.8347 18.281ZM26.5997 18.2252C25.4766 18.7124 25.1528 20.0858 25.9523 20.9708C27.0374 22.172 28.9588 21.4338 28.9555 19.817C28.9531 18.6193 27.6777 17.7575 26.5997 18.2252ZM22.804 19.2932C23.0229 19.3764 23.2172 19.7359 23.1547 19.942C23.0147 20.4042 22.5056 20.5588 22.1838 20.2368C21.7327 19.7859 22.206 19.0659 22.804 19.2932ZM27.6904 19.4736C28.1719 20.0208 27.3527 20.7531 26.8365 20.2368C26.5826 19.983 26.6034 19.639 26.887 19.4004C27.1551 19.1747 27.4511 19.2018 27.6904 19.4736ZM6.77021 20.4875C6.44876 20.6634 6.45771 20.5146 6.45771 25.6668V30.5525L6.6282 30.7229C6.73563 30.8304 6.87799 30.8934 7.01327 30.8934C7.14855 30.8934 7.29091 30.8304 7.39834 30.7229L7.56883 30.5525L7.5666 25.6709C7.56431 20.5127 7.57369 20.664 7.24355 20.4881C7.05758 20.389 6.95042 20.3889 6.77021 20.4875ZM22.7486 22.9821C22.5418 23.2279 22.5295 23.3243 22.6704 23.5968C22.817 23.8803 22.8107 23.8795 24.9653 23.8795H26.9338L27.0776 23.6965C27.2725 23.4489 27.262 23.1497 27.0511 22.9389L26.8807 22.7684H24.9045H22.9284L22.7486 22.9821ZM9.04306 23.9954C8.75605 24.1109 8.74938 24.2231 8.74938 28.9161V33.4041L8.95237 33.6071C9.21577 33.8705 9.46355 33.8705 9.72695 33.6071L9.92994 33.4041V28.9161C9.92994 24.1688 9.92626 24.1118 9.61431 23.9921C9.48396 23.9421 9.17112 23.9439 9.04306 23.9954ZM28.1733 27.3172C30.1858 29.9772 28.2636 33.8101 24.9172 33.8101C21.5027 33.8101 19.5412 29.6875 21.7576 27.1695C22.0732 26.811 22.0306 26.8133 22.9776 27.1043C24.303 27.5116 25.7229 27.4909 27.0133 27.0455C27.8258 26.7651 27.7406 26.7451 28.1733 27.3172ZM22.3853 28.0463C21.6854 28.3257 21.924 28.9138 22.9372 29.407C23.9489 29.8994 24.6311 29.6187 24.2326 28.8742C24.086 28.6002 22.631 27.9482 22.3853 28.0463ZM27.0763 28.0483C25.8467 28.3861 25.1056 29.2915 25.7682 29.6461C26.0433 29.7933 27.3981 29.2874 27.6985 28.9253C28.0272 28.5293 27.5865 27.9081 27.0763 28.0483ZM24.26 30.4467C23.1626 30.8518 22.757 32.6295 23.7619 32.6295C24.0005 32.6295 24.3049 32.3568 24.3049 32.1432C24.3049 31.9438 24.4839 31.614 24.6206 31.5616C24.9931 31.4186 25.4855 31.671 25.4855 32.0048C25.4855 32.7247 26.4628 32.8743 26.6368 32.1811C26.909 31.0965 25.4278 30.0156 24.26 30.4467Z" fill="white" stroke="white" stroke-width="0.2" mask="url(#path-1-inside-1_1248_6324)"/>
</svg>
