<svg width="36" height="35" viewBox="0 0 36 35" fill="none" xmlns="http://www.w3.org/2000/svg">
<path fill-rule="evenodd" clip-rule="evenodd" d="M23.6908 2.69933C23.2354 2.79202 23.0116 2.91117 21.6052 3.81024L20.2651 4.66691L16.2731 5.49112C14.0776 5.94441 10.8507 6.60955 9.10243 6.96912C4.35562 7.94543 4.38741 7.93798 4.07802 8.15283C3.52191 8.53899 3.22455 9.16578 3.22394 9.95328L3.22353 10.4061L2.24927 10.4354C0.85255 10.4775 0.279151 10.823 0.0774227 11.7443C-0.0750871 12.4406 0.0158992 16.283 0.192608 16.6098C0.59545 17.355 0.992686 17.5327 2.25528 17.5327H3.20555L3.23795 18.0381C3.27965 18.6872 3.53142 19.1634 4.03304 19.5418L4.38564 19.8078V25.2547C4.38564 31.2945 4.36882 31.0575 4.83544 31.6026C5.53134 32.4156 8.04915 32.5995 8.96182 31.904C9.76046 31.2955 9.78603 31.18 9.78603 28.1758V25.699L10.4644 25.0232C11.4502 24.0412 11.5814 23.7356 11.6198 22.333C11.6452 21.4085 11.6613 21.2923 11.7597 21.3209C11.8209 21.3387 13.0092 21.5872 14.4003 21.8732C15.7914 22.1592 17.6802 22.549 18.5977 22.7396L20.2658 23.086L21.7052 24.002C23.8312 25.3548 24.5769 25.4313 25.6166 24.4034C26.2368 23.7903 26.2722 23.6519 26.3119 21.6855L26.3446 20.062H29.9133C34.0011 20.062 33.971 20.0654 34.4925 19.5439C35.0245 19.0119 35.0106 19.1602 35.0106 14.0122C35.0106 8.57447 35.0125 8.58527 34.0243 8.12515L33.6776 7.96375L29.0029 7.96307C23.7267 7.96232 23.9525 7.94167 23.4214 8.47275C22.8902 9.00398 22.9108 8.77777 22.9125 14.0543C22.914 18.6094 22.9176 18.7368 23.0533 19.0366C23.3632 19.7212 23.8258 20.0039 24.7099 20.0487L25.3126 20.0792L25.291 21.6652C25.267 23.4288 25.2419 23.5275 24.7287 23.8743C24.145 24.2688 23.8821 24.1938 22.2848 23.1775L20.9628 22.3365V13.8755V5.41442L22.2895 4.57032C23.8916 3.55108 24.1422 3.483 24.7582 3.89985C25.1866 4.18983 25.2611 4.3986 25.3017 5.42167C25.3417 6.43359 25.3854 6.52684 25.8188 6.52684C26.3095 6.52684 26.5051 5.15644 26.1603 4.13426C25.8436 3.19514 24.6532 2.50355 23.6908 2.69933ZM19.9716 13.8755C19.9716 18.3308 19.9514 21.9761 19.9268 21.9761C19.7533 21.9761 4.86272 18.8737 4.72996 18.8099C4.6374 18.7654 4.49125 18.6245 4.40525 18.4967L4.24892 18.2644V13.8755V9.48652L4.40525 9.25424C4.49125 9.12647 4.6374 8.98552 4.72996 8.94108C4.8824 8.8678 19.5697 5.7999 19.8519 5.78233C19.9652 5.77529 19.9716 6.20336 19.9716 13.8755ZM33.7854 9.18759L33.9852 9.3874V14.0122V18.637L33.7854 18.8368L33.5856 19.0366H28.9753C24.4284 19.0366 24.3626 19.0347 24.1865 18.8962C23.8659 18.644 23.8592 18.5333 23.8814 13.8286L23.9022 9.40682L24.103 9.1973L24.3038 8.98777H28.9447H33.5856L33.7854 9.18759ZM29.6786 10.7166C29.5023 10.8044 27.5051 16.4177 27.4951 16.8533C27.4859 17.2543 28.0705 17.4949 28.3374 17.2C28.5343 16.9824 30.4331 11.1908 30.3656 11.0135C30.2531 10.7175 29.9445 10.5841 29.6786 10.7166ZM25.6373 11.3662C24.2347 12.0989 24.6533 14.2073 26.2211 14.3071C26.7887 14.3433 27.1027 14.2333 27.4641 13.8719C28.7298 12.6062 27.2221 10.5383 25.6373 11.3662ZM3.22353 14.0122V16.5757H2.44758C0.98626 16.5757 1.03603 16.6673 1.03603 13.9769C1.03603 11.346 0.977169 11.456 2.38612 11.4514L3.22353 11.4487V14.0122ZM26.6335 12.2431C26.9351 12.3588 27.0186 12.8586 26.7822 13.1334C26.4438 13.5267 25.7821 13.2668 25.7821 12.7406C25.7821 12.3534 26.2336 12.0897 26.6335 12.2431ZM7.35776 12.3969C6.29197 12.881 5.98784 14.2929 6.76386 15.1537C7.46919 15.9362 9.30102 16.0328 9.32214 15.2887C9.33335 14.8951 9.14775 14.7859 8.38384 14.7365C7.45559 14.6766 7.09964 14.2705 7.42462 13.642C7.63701 13.2313 7.68377 13.2261 11.1145 13.2261C14.7959 13.2261 14.913 13.2488 14.913 13.9635C14.913 14.665 14.7499 14.7267 12.8895 14.7285C11.9169 14.7293 11.2271 14.7589 11.0936 14.8055C10.7181 14.9364 10.6223 15.3446 10.9047 15.61C11.1287 15.8203 14.4941 15.8106 14.9204 15.5984C16.2339 14.9443 16.2619 13.0908 14.968 12.4461L14.6127 12.269L11.1227 12.2705C7.89056 12.2719 7.6124 12.2813 7.35776 12.3969ZM31.1625 13.711C30.0979 13.9616 29.6251 15.2223 30.2489 16.1473C30.8099 16.9793 32.0786 17.0516 32.7224 16.2881C33.7152 15.1107 32.6552 13.3596 31.1625 13.711ZM31.9101 14.8236C32.3035 15.162 32.0436 15.8237 31.5174 15.8237C31.2345 15.8237 30.9774 15.5548 30.9774 15.2589C30.9774 14.7435 31.5217 14.4895 31.9101 14.8236ZM7.93629 20.5397C9.21892 20.8024 10.3444 21.0365 10.4374 21.0598L10.6063 21.1022V22.061C10.6063 23.3906 10.5914 23.4276 9.67843 24.3686C8.66849 25.4095 8.76063 25.0419 8.76063 28.0304C8.76063 31.3874 8.82004 31.273 7.07551 31.2728C6.02947 31.2727 5.78577 31.205 5.51842 30.8407C5.3022 30.546 5.25688 20.062 5.4718 20.062C5.54467 20.062 6.65366 20.277 7.93629 20.5397Z" fill="white"/>
</svg>
