<svg width="40" height="40" viewBox="0 0 40 40" fill="none" xmlns="http://www.w3.org/2000/svg">
<path d="M12.9366 6.70885L12.9688 6.69834L12.971 6.66461L13.0154 5.98937C13.0634 5.26073 13.2634 4.6634 13.6101 4.19797C13.9566 3.73279 14.4521 3.3958 15.0972 3.192C16.9718 2.59968 18.758 3.92407 18.8889 6.02095L18.933 6.72794L18.9351 6.76152L18.967 6.77223L19.6122 6.98879L19.6281 6.94139L19.6122 6.98879C19.965 7.10715 20.5476 7.34592 20.9053 7.51891L20.9271 7.47389L20.9053 7.51891L21.559 7.83485L21.594 7.85174L21.619 7.82205L21.9034 7.48454C26.264 2.31037 35.0732 3.23014 37.9903 9.15755C39.5516 12.3301 38.9453 15.5944 36.994 17.957C35.0423 20.3202 31.7435 21.7823 27.9189 21.3415L27.5401 21.2978L27.4843 21.2914V21.3475V24.9631V28.5787V28.6092L27.5114 28.6231L27.6738 28.7068C28.4227 29.0931 29.1096 29.9656 29.5068 30.8401C29.7051 31.2766 29.8295 31.71 29.8543 32.0791C29.8791 32.4498 29.8031 32.7455 29.6139 32.9209L29.4421 33.0801H24.5035H19.5453H19.4993L19.4954 33.1259L19.4512 33.6491C19.0787 38.0503 12.8253 38.0503 12.4528 33.6491L12.4085 33.1259L12.4047 33.0801H12.3587H7.40044H2.46185L2.29005 32.9209C2.12863 32.7713 2.05016 32.5236 2.05 32.2094C2.04985 31.8962 2.12771 31.5247 2.2694 31.1387C2.55292 30.3664 3.08786 29.5468 3.74207 29.0328L4.17859 28.6899L4.19762 28.6749L4.19771 28.6507L4.2187 22.5375L4.23961 16.4297L4.40771 15.6817C5.34264 11.5228 8.28662 8.22915 12.215 6.94482L12.1994 6.8973L12.215 6.94482L12.9366 6.70885ZM14.2624 6.27788L14.2542 6.33499H14.3119H15.9438C16.0811 6.33499 16.2076 6.33527 16.3238 6.33554C16.5927 6.33615 16.807 6.33663 16.9763 6.33315C17.2162 6.32821 17.3747 6.31542 17.4725 6.27956C17.5231 6.26099 17.5628 6.23444 17.5882 6.19493C17.6133 6.15571 17.6199 6.11057 17.6181 6.06387C17.6164 6.01762 17.6063 5.96476 17.5934 5.90665C17.588 5.88245 17.5822 5.85771 17.5761 5.83173C17.567 5.79287 17.5572 5.75123 17.5472 5.7044C17.4425 5.21632 17.1235 4.78604 16.7194 4.59674L16.6982 4.64202L16.7194 4.59674C16.1569 4.33335 15.5995 4.35107 15.1589 4.59618C14.7185 4.8412 14.4014 5.30975 14.3116 5.9351L14.2624 6.27788ZM20.5667 8.80724L20.5437 8.85165L20.5667 8.80724C19.663 8.3399 18.4012 7.95059 17.2581 7.78559C12.0565 7.03487 7.0536 10.4523 5.79744 15.6126C5.50388 16.8185 5.46574 17.7865 5.48882 23.2799L5.51032 28.4035L5.51053 28.4529L5.55983 28.4533L9.26453 28.4894L12.9466 28.5253L13.1059 28.7106C13.2233 28.8471 13.2765 28.9975 13.2707 29.1436C13.2648 29.2897 13.1997 29.4362 13.0717 29.5643L12.8754 29.7605H8.9747H5.05322H5.03795L5.02529 29.7691L4.64557 30.0248C4.37835 30.2048 4.10145 30.5012 3.8909 30.8021C3.78542 30.9528 3.69573 31.1059 3.6319 31.2476C3.5685 31.3883 3.52878 31.5218 3.5274 31.6321C3.52713 31.6534 3.53516 31.6745 3.5539 31.6912C3.56966 31.7052 3.59067 31.714 3.61327 31.7205C3.65907 31.7338 3.73444 31.7441 3.85585 31.7528C4.10056 31.7704 4.54841 31.7825 5.36136 31.7908C6.98811 31.8074 10.0825 31.809 15.952 31.809H28.3282H28.3782V31.759V31.6123C28.3782 31.4809 28.3255 31.3235 28.241 31.1593C28.1559 30.9939 28.036 30.817 27.8956 30.6453C27.6156 30.3026 27.2496 29.9754 26.9078 29.8022C26.7009 29.6973 26.4585 29.5366 26.3699 29.4479L26.2132 29.2912V25.2314C26.2132 24.1091 26.2093 23.0888 26.2031 22.3491C26.2 21.9792 26.1962 21.6793 26.1921 21.4718C26.1901 21.3681 26.1879 21.2872 26.1856 21.2321C26.1845 21.2046 26.1833 21.1829 26.1821 21.1679C26.1815 21.1606 26.1808 21.1536 26.1798 21.148C26.1794 21.1456 26.1786 21.1411 26.1771 21.1365C26.1764 21.1345 26.1746 21.1293 26.1709 21.1236C26.1688 21.1204 26.1556 21.1008 26.1287 21.1008C26.1217 21.1008 26.115 21.1024 26.1144 21.1026L26.105 21.1049C26.0982 21.1066 26.0891 21.1091 26.078 21.1123C26.0556 21.1187 26.0241 21.128 25.9845 21.14C25.9053 21.1638 25.7932 21.1983 25.6564 21.2409C25.3828 21.3259 25.0102 21.4432 24.6047 21.5722C23.7581 21.8416 23.3025 21.9786 23.0211 22.0125C22.8819 22.0293 22.7907 22.02 22.7181 21.9922C22.6454 21.9644 22.5858 21.9159 22.5126 21.8427L22.3164 21.6464V20.1043V18.5415V18.523L22.3043 18.5089L21.9531 18.0997C19.9925 15.815 19.4236 12.6747 20.4772 9.96436L20.4779 9.96275C20.5708 9.7238 20.6409 9.54339 20.6896 9.40567C20.738 9.26859 20.7668 9.16937 20.7745 9.09444C20.7826 9.0166 20.7684 8.95829 20.7254 8.91082C20.6885 8.87018 20.6326 8.84132 20.5731 8.81056L20.5667 8.80724ZM25.4725 12.1941L25.46 12.1457L25.4725 12.1941C25.8595 12.0939 26.1606 12.3066 26.2765 12.5871C26.3346 12.7275 26.3451 12.8827 26.2978 13.0221C26.2507 13.1606 26.1454 13.2871 25.9641 13.3697L25.9848 13.4152L25.9641 13.3697C25.6529 13.5115 25.3613 13.4128 25.1927 13.2076C25.0238 13.0022 24.9768 12.6879 25.1652 12.3937C25.1882 12.358 25.2338 12.3156 25.2919 12.2775C25.3494 12.2398 25.4145 12.2092 25.4725 12.1941ZM32.9751 12.1634L32.9672 12.1141L32.9751 12.1634C33.3078 12.1101 33.5708 12.2685 33.6935 12.496C33.816 12.7232 33.8 13.0214 33.5663 13.2551C33.422 13.3995 33.2624 13.4538 33.1128 13.4477C32.9622 13.4416 32.8179 13.3741 32.7068 13.268C32.485 13.0562 32.4021 12.6989 32.6626 12.3892L32.6244 12.357L32.6626 12.3892C32.71 12.333 32.7705 12.2786 32.8294 12.2368C32.89 12.1938 32.9428 12.1686 32.9751 12.1634ZM13.8231 33.0801H13.7731V33.1301V33.4882C13.7731 34.3043 14.2918 35.0997 15.0526 35.4539C16.4516 36.1053 18.1308 35.0329 18.1308 33.4882V33.1301V33.0801H18.0808H15.952H13.8231ZM36.8181 9.76303C35.6349 7.33827 33.2052 5.75233 30.2145 5.44541C29.8067 5.40355 29.5867 5.38229 29.3646 5.38278C29.1425 5.38327 28.9191 5.40551 28.5043 5.44917C25.3064 5.78574 22.9495 7.63418 21.8983 9.97281C20.847 12.312 21.1037 15.1388 23.127 17.4246L23.5875 17.9448V19.1414C23.5875 19.2756 23.5861 19.3972 23.5848 19.5067C23.5827 19.6893 23.581 19.8382 23.5868 19.9555C23.5915 20.0498 23.6012 20.1285 23.6211 20.1909C23.6414 20.2542 23.6736 20.3049 23.7256 20.3368C23.7766 20.3681 23.8392 20.3766 23.9108 20.3719C23.9824 20.3672 24.0686 20.3489 24.1714 20.3208C24.2992 20.2858 24.4581 20.2341 24.6535 20.1704C24.7711 20.1321 24.9018 20.0895 25.047 20.0437C25.6949 19.839 26.0285 19.7375 26.2962 19.7101C26.5602 19.6831 26.7606 19.7283 27.1449 19.827C30.4687 20.6813 33.5848 19.5989 35.5214 17.5862C37.4584 15.5731 38.216 12.6276 36.8181 9.76303ZM28.8409 13.0697C28.7487 12.8754 28.7417 12.6958 28.8045 12.5463C28.8675 12.3964 29.004 12.2688 29.214 12.1858C29.4623 12.0877 29.7126 12.1799 29.8732 12.3642C30.0338 12.5487 30.0991 12.8195 29.9801 13.0703C29.741 13.574 29.0801 13.5738 28.8409 13.0697ZM15.6994 29.7605C15.0919 29.7605 14.8321 28.9893 15.319 28.6066C15.478 28.4817 15.6894 28.4587 15.8798 28.5187C16.0703 28.5786 16.234 28.7199 16.2988 28.9163C16.44 29.3443 16.1427 29.7605 15.6994 29.7605Z" fill="#08294F" stroke="white" stroke-width="0.1"/>
</svg>
