<svg width="41" height="41" viewBox="0 0 41 41" fill="none" xmlns="http://www.w3.org/2000/svg">
<mask id="path-1-inside-1_1248_9767" fill="white">
<path fill-rule="evenodd" clip-rule="evenodd" d="M2.10236 1.10688C1.30056 1.32313 0.617362 1.91203 0.243456 2.70946L0.0375966 3.14852L0.0160342 10.8829C0.00204979 15.8848 0.0222841 18.7478 0.0733779 18.9867C0.262909 19.8727 0.811659 20.578 1.62049 20.9752L2.06885 21.1954L5.79931 21.2178C7.85111 21.2301 9.52978 21.2641 9.52978 21.2932C9.52978 21.3223 8.4454 22.4373 7.12001 23.7708C4.53353 26.3732 4.43431 26.501 4.27439 27.4344C4.16908 28.0494 4.33017 28.806 4.68298 29.3527C5.10697 30.0098 15.6836 40.4814 16.1271 40.6832C16.9834 41.0728 17.8265 41.0703 18.6663 40.6757C19.0498 40.4955 27.0122 32.6476 27.2307 32.2345C27.5043 31.717 27.1497 31.1208 26.5682 31.1208C26.2482 31.1208 26.2311 31.1366 22.1657 35.197C18.125 39.2326 17.8938 39.4376 17.3813 39.4376C16.8638 39.4376 16.6259 39.2211 11.3462 33.9461C5.43431 28.0395 5.5529 28.1821 5.86165 27.3528C5.90806 27.228 10.3451 22.7295 16.1152 16.9571L26.2868 6.78133H31.529C37.9529 6.78133 37.5006 6.66336 36.1663 7.99117L35.2719 8.88117L34.8032 8.75782C32.3128 8.1025 30.7796 11.4978 32.9233 12.9211C34.8116 14.1749 37.2489 12.1994 36.3701 10.1273C36.3097 9.98508 37.9506 8.26571 38.1467 8.26571C38.4325 8.26571 38.436 8.33094 38.436 13.6905V18.9277L34.6079 22.7587C30.8984 26.471 30.7798 26.5989 30.7798 26.8869C30.7798 27.3202 31.1169 27.6407 31.5727 27.6407H31.909L35.8419 23.7149C38.005 21.5558 39.8251 19.6942 39.8867 19.5782C40.0326 19.303 40.0558 8.13305 39.9112 7.85039C39.8631 7.75657 39.7005 7.55071 39.5498 7.39297L39.2757 7.10617L39.6158 6.70282C40.4558 5.70657 39.4953 4.68485 38.5713 5.59172C38.1691 5.98633 38.1393 5.99 37.8451 5.68063C37.5043 5.32203 37.2485 5.21883 36.701 5.21883H36.2083L34.2167 3.22149C33.1213 2.12289 32.1301 1.17367 32.0141 1.11211C31.7231 0.957581 2.67486 0.952581 2.10236 1.10688ZM32.6361 3.83297C33.3339 4.53172 33.9048 5.12938 33.9048 5.1611C33.9048 5.19282 32.0925 5.21883 29.8774 5.21883C26.5284 5.21883 25.8146 5.23774 25.6391 5.33094C25.5231 5.39266 23.4068 7.46688 20.9363 9.94032C18.4657 12.4138 16.4179 14.4376 16.3855 14.4376C16.3531 14.4376 16.3263 14.2706 16.3259 14.0665C16.3227 12.4939 14.4577 11.4395 12.9829 12.1765C10.8944 13.2201 11.5984 16.547 13.9077 16.547C14.3459 16.547 14.3745 16.5086 12.6704 18.211L11.1236 19.7564L6.7915 19.7337C1.88595 19.708 2.11541 19.7386 1.73385 19.0597L1.56103 18.7523V11.1703C1.56103 3.28235 1.559 3.33219 1.8983 2.96281C2.27986 2.54727 1.45775 2.56891 16.9525 2.56563L31.3675 2.56258L32.6361 3.83297ZM6.91259 5.75571C4.26283 6.44844 4.69205 10.3113 7.42087 10.3299C9.45118 10.3438 10.4974 7.98867 9.14509 6.44844C8.66126 5.89742 7.61376 5.57235 6.91259 5.75571ZM12.6868 6.03321C12.3185 6.19352 7.23915 15.1695 7.23072 15.6748C7.22025 16.305 8.02392 16.6582 8.4597 16.2149C8.75267 15.9168 13.7485 6.98571 13.7485 6.76C13.7485 6.15922 13.2232 5.79961 12.6868 6.03321ZM7.97329 7.47844C8.61228 8.11742 7.89626 9.09727 7.06665 8.71922C6.83619 8.61422 6.63775 8.28555 6.64189 8.01571C6.65228 7.34289 7.49689 7.00211 7.97329 7.47844ZM34.5966 10.3302C35.2812 10.6841 34.9944 11.7813 34.2173 11.7813C33.9601 11.7813 33.663 11.603 33.5473 11.3794C33.1806 10.6702 33.8874 9.96344 34.5966 10.3302ZM25.807 13.593C24.3413 15.042 24.237 14.7456 27.278 17.7722C29.6499 20.1328 29.7934 20.2446 30.2242 20.0662C30.6567 19.887 32.2641 18.1671 32.2641 17.8835C32.2641 16.8669 31.4452 16.7719 30.5415 17.6837C29.9333 18.2973 29.985 18.2968 29.3908 17.6972C28.7945 17.0955 28.7912 17.1633 29.4486 16.5109C30.179 15.7861 30.2589 15.2416 29.6789 14.9417C29.2214 14.7052 28.998 14.7959 28.2603 15.5184L27.733 16.0348L27.2252 15.5314C26.6055 14.9173 26.6054 14.9736 27.2277 14.3572C27.9129 13.6786 28.0152 13.2569 27.5963 12.8379C27.1621 12.4038 26.8966 12.5159 25.807 13.593ZM14.3761 13.5405C15.1247 13.9276 14.8606 14.9845 14.0152 14.9845C13.2092 14.9845 12.9606 13.8558 13.6961 13.5359C14.016 13.3966 14.0991 13.3973 14.3761 13.5405ZM21.3283 18.1966C20.859 18.3839 20.6669 18.8412 20.8849 19.2523C21.0639 19.5899 25.472 23.9487 25.7324 24.0456C26.1263 24.1923 26.3869 24.0281 27.4467 22.9659C28.5792 21.8309 28.7055 21.5756 28.3551 21.1309C27.9287 20.59 27.5316 20.6886 26.6779 21.5473C26.3363 21.8909 26.0206 22.172 25.9763 22.172C25.932 22.172 25.0347 21.3071 23.9823 20.25C22.3993 18.66 21.7289 18.0729 21.544 18.1144C21.5319 18.1171 21.4348 18.1541 21.3283 18.1966ZM17.6007 21.8566C17.3317 21.9706 17.1654 22.287 17.1993 22.6202C17.2554 23.172 20.2743 28.9538 20.5833 29.1012C21.3416 29.4628 21.8563 28.7217 21.4764 27.8151L21.3695 27.5598L22.1568 26.7724L22.9441 25.9851L23.2651 26.1488C23.9153 26.4805 24.535 26.1895 24.527 25.556C24.5209 25.069 24.4316 25.0097 21.2748 23.398C18.2542 21.8559 17.9266 21.7184 17.6007 21.8566ZM21.4048 25.2591C21.4048 25.3539 20.6416 26.1257 20.5994 26.0735C20.512 25.9652 19.7641 24.4991 19.7641 24.4361C19.7641 24.3945 20.1333 24.544 20.5845 24.7684C21.0356 24.9927 21.4048 25.2136 21.4048 25.2591ZM13.1835 26.2149C12.1695 27.2083 11.993 27.5355 11.9927 28.422C11.9923 30.4072 14.3568 31.508 15.7798 30.1852C16.2966 29.7047 16.8912 29.7242 17.1528 30.2302C17.3989 30.706 17.3223 30.8847 16.5232 31.698C15.6053 32.6323 15.4753 33.1698 16.088 33.4977C16.9439 33.9559 18.7909 31.9757 18.7815 30.6099C18.7674 28.554 16.5809 27.617 14.8643 28.9314C14.2197 29.4251 13.5141 29.1526 13.5141 28.41C13.5141 28.117 13.5676 28.0391 14.2563 27.3282C15.0594 26.4994 15.1523 26.2809 14.9087 25.7938C14.6107 25.198 14.0924 25.3245 13.1835 26.2149ZM28.5698 28.8135C28.0351 29.2341 28.3707 30.1407 29.061 30.1407C29.334 30.1407 29.6583 29.9274 29.7605 29.6808C29.9712 29.1722 29.6189 28.6563 29.061 28.6563C28.8873 28.6563 28.6889 28.7198 28.5698 28.8135Z"/>
</mask>
<path fill-rule="evenodd" clip-rule="evenodd" d="M2.10236 1.10688C1.30056 1.32313 0.617362 1.91203 0.243456 2.70946L0.0375966 3.14852L0.0160342 10.8829C0.00204979 15.8848 0.0222841 18.7478 0.0733779 18.9867C0.262909 19.8727 0.811659 20.578 1.62049 20.9752L2.06885 21.1954L5.79931 21.2178C7.85111 21.2301 9.52978 21.2641 9.52978 21.2932C9.52978 21.3223 8.4454 22.4373 7.12001 23.7708C4.53353 26.3732 4.43431 26.501 4.27439 27.4344C4.16908 28.0494 4.33017 28.806 4.68298 29.3527C5.10697 30.0098 15.6836 40.4814 16.1271 40.6832C16.9834 41.0728 17.8265 41.0703 18.6663 40.6757C19.0498 40.4955 27.0122 32.6476 27.2307 32.2345C27.5043 31.717 27.1497 31.1208 26.5682 31.1208C26.2482 31.1208 26.2311 31.1366 22.1657 35.197C18.125 39.2326 17.8938 39.4376 17.3813 39.4376C16.8638 39.4376 16.6259 39.2211 11.3462 33.9461C5.43431 28.0395 5.5529 28.1821 5.86165 27.3528C5.90806 27.228 10.3451 22.7295 16.1152 16.9571L26.2868 6.78133H31.529C37.9529 6.78133 37.5006 6.66336 36.1663 7.99117L35.2719 8.88117L34.8032 8.75782C32.3128 8.1025 30.7796 11.4978 32.9233 12.9211C34.8116 14.1749 37.2489 12.1994 36.3701 10.1273C36.3097 9.98508 37.9506 8.26571 38.1467 8.26571C38.4325 8.26571 38.436 8.33094 38.436 13.6905V18.9277L34.6079 22.7587C30.8984 26.471 30.7798 26.5989 30.7798 26.8869C30.7798 27.3202 31.1169 27.6407 31.5727 27.6407H31.909L35.8419 23.7149C38.005 21.5558 39.8251 19.6942 39.8867 19.5782C40.0326 19.303 40.0558 8.13305 39.9112 7.85039C39.8631 7.75657 39.7005 7.55071 39.5498 7.39297L39.2757 7.10617L39.6158 6.70282C40.4558 5.70657 39.4953 4.68485 38.5713 5.59172C38.1691 5.98633 38.1393 5.99 37.8451 5.68063C37.5043 5.32203 37.2485 5.21883 36.701 5.21883H36.2083L34.2167 3.22149C33.1213 2.12289 32.1301 1.17367 32.0141 1.11211C31.7231 0.957581 2.67486 0.952581 2.10236 1.10688ZM32.6361 3.83297C33.3339 4.53172 33.9048 5.12938 33.9048 5.1611C33.9048 5.19282 32.0925 5.21883 29.8774 5.21883C26.5284 5.21883 25.8146 5.23774 25.6391 5.33094C25.5231 5.39266 23.4068 7.46688 20.9363 9.94032C18.4657 12.4138 16.4179 14.4376 16.3855 14.4376C16.3531 14.4376 16.3263 14.2706 16.3259 14.0665C16.3227 12.4939 14.4577 11.4395 12.9829 12.1765C10.8944 13.2201 11.5984 16.547 13.9077 16.547C14.3459 16.547 14.3745 16.5086 12.6704 18.211L11.1236 19.7564L6.7915 19.7337C1.88595 19.708 2.11541 19.7386 1.73385 19.0597L1.56103 18.7523V11.1703C1.56103 3.28235 1.559 3.33219 1.8983 2.96281C2.27986 2.54727 1.45775 2.56891 16.9525 2.56563L31.3675 2.56258L32.6361 3.83297ZM6.91259 5.75571C4.26283 6.44844 4.69205 10.3113 7.42087 10.3299C9.45118 10.3438 10.4974 7.98867 9.14509 6.44844C8.66126 5.89742 7.61376 5.57235 6.91259 5.75571ZM12.6868 6.03321C12.3185 6.19352 7.23915 15.1695 7.23072 15.6748C7.22025 16.305 8.02392 16.6582 8.4597 16.2149C8.75267 15.9168 13.7485 6.98571 13.7485 6.76C13.7485 6.15922 13.2232 5.79961 12.6868 6.03321ZM7.97329 7.47844C8.61228 8.11742 7.89626 9.09727 7.06665 8.71922C6.83619 8.61422 6.63775 8.28555 6.64189 8.01571C6.65228 7.34289 7.49689 7.00211 7.97329 7.47844ZM34.5966 10.3302C35.2812 10.6841 34.9944 11.7813 34.2173 11.7813C33.9601 11.7813 33.663 11.603 33.5473 11.3794C33.1806 10.6702 33.8874 9.96344 34.5966 10.3302ZM25.807 13.593C24.3413 15.042 24.237 14.7456 27.278 17.7722C29.6499 20.1328 29.7934 20.2446 30.2242 20.0662C30.6567 19.887 32.2641 18.1671 32.2641 17.8835C32.2641 16.8669 31.4452 16.7719 30.5415 17.6837C29.9333 18.2973 29.985 18.2968 29.3908 17.6972C28.7945 17.0955 28.7912 17.1633 29.4486 16.5109C30.179 15.7861 30.2589 15.2416 29.6789 14.9417C29.2214 14.7052 28.998 14.7959 28.2603 15.5184L27.733 16.0348L27.2252 15.5314C26.6055 14.9173 26.6054 14.9736 27.2277 14.3572C27.9129 13.6786 28.0152 13.2569 27.5963 12.8379C27.1621 12.4038 26.8966 12.5159 25.807 13.593ZM14.3761 13.5405C15.1247 13.9276 14.8606 14.9845 14.0152 14.9845C13.2092 14.9845 12.9606 13.8558 13.6961 13.5359C14.016 13.3966 14.0991 13.3973 14.3761 13.5405ZM21.3283 18.1966C20.859 18.3839 20.6669 18.8412 20.8849 19.2523C21.0639 19.5899 25.472 23.9487 25.7324 24.0456C26.1263 24.1923 26.3869 24.0281 27.4467 22.9659C28.5792 21.8309 28.7055 21.5756 28.3551 21.1309C27.9287 20.59 27.5316 20.6886 26.6779 21.5473C26.3363 21.8909 26.0206 22.172 25.9763 22.172C25.932 22.172 25.0347 21.3071 23.9823 20.25C22.3993 18.66 21.7289 18.0729 21.544 18.1144C21.5319 18.1171 21.4348 18.1541 21.3283 18.1966ZM17.6007 21.8566C17.3317 21.9706 17.1654 22.287 17.1993 22.6202C17.2554 23.172 20.2743 28.9538 20.5833 29.1012C21.3416 29.4628 21.8563 28.7217 21.4764 27.8151L21.3695 27.5598L22.1568 26.7724L22.9441 25.9851L23.2651 26.1488C23.9153 26.4805 24.535 26.1895 24.527 25.556C24.5209 25.069 24.4316 25.0097 21.2748 23.398C18.2542 21.8559 17.9266 21.7184 17.6007 21.8566ZM21.4048 25.2591C21.4048 25.3539 20.6416 26.1257 20.5994 26.0735C20.512 25.9652 19.7641 24.4991 19.7641 24.4361C19.7641 24.3945 20.1333 24.544 20.5845 24.7684C21.0356 24.9927 21.4048 25.2136 21.4048 25.2591ZM13.1835 26.2149C12.1695 27.2083 11.993 27.5355 11.9927 28.422C11.9923 30.4072 14.3568 31.508 15.7798 30.1852C16.2966 29.7047 16.8912 29.7242 17.1528 30.2302C17.3989 30.706 17.3223 30.8847 16.5232 31.698C15.6053 32.6323 15.4753 33.1698 16.088 33.4977C16.9439 33.9559 18.7909 31.9757 18.7815 30.6099C18.7674 28.554 16.5809 27.617 14.8643 28.9314C14.2197 29.4251 13.5141 29.1526 13.5141 28.41C13.5141 28.117 13.5676 28.0391 14.2563 27.3282C15.0594 26.4994 15.1523 26.2809 14.9087 25.7938C14.6107 25.198 14.0924 25.3245 13.1835 26.2149ZM28.5698 28.8135C28.0351 29.2341 28.3707 30.1407 29.061 30.1407C29.334 30.1407 29.6583 29.9274 29.7605 29.6808C29.9712 29.1722 29.6189 28.6563 29.061 28.6563C28.8873 28.6563 28.6889 28.7198 28.5698 28.8135Z" fill="#08294F" stroke="white" stroke-width="0.4" mask="url(#path-1-inside-1_1248_9767)"/>
</svg>
