<svg width="40" height="40" viewBox="0 0 40 40" fill="none" xmlns="http://www.w3.org/2000/svg">
<mask id="path-1-inside-1_1248_9775" fill="white">
<path fill-rule="evenodd" clip-rule="evenodd" d="M36.4209 0.80575C36.1552 0.92536 35.1724 1.85981 32.3964 4.63216C30.3762 6.64958 28.6887 8.29989 28.6464 8.29942C28.6041 8.29903 28.1827 7.59044 27.71 6.72481C26.435 4.38966 26.0891 4.0277 25.0534 3.9445C23.317 3.80513 22.6359 5.21388 23.3786 7.40833C23.6647 8.25364 24.5459 13.072 24.5459 13.7911C24.5459 13.9141 24.0671 14.444 22.9241 15.5861L21.3024 17.2065L1.30375 17.2079L0.897187 17.4411C0.200703 17.8405 0.0594531 18.1796 0.026875 19.5307L0 20.644H1.18656V19.7129C1.18656 18.6438 1.20477 18.5696 1.50469 18.4145C1.83836 18.2419 27.4879 18.2419 27.8216 18.4145C28.1486 18.5836 28.1397 18.4546 28.1397 23.0268C28.1397 27.599 28.1486 27.47 27.8216 27.639C27.4879 27.8116 1.83836 27.8116 1.50469 27.639C1.18281 27.4726 1.18656 27.5085 1.18656 24.5829V21.894H0.0075L0.05375 27.6361L0.272188 28.0077C0.423672 28.2654 0.615078 28.4507 0.897187 28.6124L1.30375 28.8456L6.65531 28.8471L6.65703 33.476C6.65891 38.6026 6.64406 38.4447 7.17281 38.9406C7.68945 39.425 6.77594 39.394 20.4809 39.394H32.9834V38.3016L8.14398 38.2611L7.78813 37.9052V29.2421L8.14398 28.8861L23.1614 28.8646C38.84 28.8421 38.4416 28.8365 38.6885 29.0834C38.8431 29.238 38.9424 37.559 38.7943 37.9451C38.6928 38.2096 38.3373 38.3002 37.4014 38.3002H36.4991V39.394L37.6123 39.3932C38.9505 39.3923 39.3586 39.2328 39.7572 38.5546L39.9756 38.183V28.9643L39.7572 28.5927C39.6057 28.335 39.4143 28.1497 39.1322 27.988L38.7256 27.7548L29.2725 27.7534L29.3187 22.7924L31.4601 20.6446L34.9756 19.6186L37.2562 17.3433C39.6131 14.992 39.8943 14.6459 39.985 13.9844C40.096 13.1743 39.4795 12.1428 38.738 11.898C38.464 11.8076 38.4504 11.7877 38.4962 11.5436C38.6391 10.7814 38.1696 9.90567 37.4093 9.51684C36.9594 9.28677 36.9591 9.28638 37.0088 8.99161C37.129 8.28036 36.5088 7.192 35.843 6.94552C35.7956 6.92802 36.4815 6.17973 37.367 5.2827C38.8099 3.82122 38.9916 3.60802 39.1152 3.23091C39.653 1.59013 37.9943 0.0971566 36.4209 0.80575ZM27.4552 1.64309C27.078 1.73731 26.9745 1.79341 27.0028 1.88825C27.023 1.95583 27.1517 2.46817 27.2889 3.02677C27.426 3.58536 27.5454 4.05192 27.5541 4.06364C27.6013 4.12622 28.6866 3.80294 28.6612 3.73372C28.6448 3.68864 28.5132 3.16841 28.3689 2.57755C28.2245 1.98677 28.07 1.50723 28.0254 1.51208C27.9809 1.51692 27.7242 1.57583 27.4552 1.64309ZM30.2178 2.64192C30.0598 3.27286 29.9408 3.79895 29.9531 3.81114C30.0315 3.88786 30.9841 4.0795 31.0302 4.02778C31.0917 3.95856 31.5772 2.04325 31.5772 1.86934C31.5772 1.80309 31.4068 1.72442 31.128 1.66208C30.8809 1.60677 30.6396 1.54653 30.5919 1.52817C30.5376 1.50739 30.397 1.92606 30.2178 2.64192ZM37.546 1.84661C37.8913 1.99091 38.0616 2.25013 38.0616 2.63169C38.0616 2.93872 38.0085 2.99723 34.9758 6.03341L31.8901 9.1227L32.7054 9.93809L33.6909 8.96286C34.8056 7.86005 35.1089 7.73411 35.5861 8.17638C36.1219 8.67294 35.9911 8.98888 34.7177 10.2742L33.652 11.3497L34.4673 12.165L35.2684 11.3694C36.2911 10.3536 36.7011 10.2115 37.157 10.7154C37.5838 11.1869 37.4073 11.5847 36.2707 12.7124L35.4064 13.5699L36.2215 14.3951L36.9477 13.6719C37.8177 12.8056 38.1705 12.7065 38.6148 13.2038C39.1404 13.7919 39.0595 13.9162 36.4847 16.4789L34.3506 18.6029L30.8383 19.628L30.132 20.3313C29.7436 20.7181 29.403 21.0346 29.3752 21.0346C29.3475 21.0346 29.313 20.4457 29.2986 19.726C29.2673 18.1568 29.1529 17.8562 28.4291 17.4411L28.0225 17.2079L25.542 17.2072C24.1778 17.2068 23.0616 17.1804 23.0616 17.1486C23.0616 17.1168 23.682 16.4697 24.4402 15.7106L25.8188 14.3304L25.3361 11.2958C24.924 8.70544 24.8022 8.10286 24.5043 7.17997C23.9927 5.59505 24.1027 5.09708 24.9645 5.09708C25.4195 5.09708 25.6476 5.37958 26.6242 7.15247C27.1259 8.06302 27.5916 8.9045 27.6593 9.02247C27.78 9.23294 27.7762 9.24325 27.4534 9.57216L27.1244 9.90739L27.9471 10.7199L32.3207 6.33833C37.0287 1.62192 37.0219 1.62763 37.546 1.84661ZM30.5996 12.3637L30.2139 12.7554L31.0303 13.5718L31.8467 12.7554L31.461 12.3637C31.2488 12.1483 31.055 11.9721 31.0303 11.9721C31.0056 11.9721 30.8118 12.1483 30.5996 12.3637ZM32.2402 14.0043L31.8545 14.396L32.6709 15.2124L33.4873 14.396L33.1016 14.0043C32.8895 13.789 32.6956 13.6127 32.6709 13.6127C32.6462 13.6127 32.4524 13.789 32.2402 14.0043ZM20.5741 20.4547C20.0806 20.787 20.0494 20.6586 20.9661 22.063L21.6874 23.1681L21.6424 25.7221H22.8272V23.1975L23.6084 21.9997C24.5312 20.585 24.4809 20.8047 23.9612 20.4597C23.408 20.0925 23.4952 20.0467 22.8662 21.0346C22.5655 21.507 22.2992 21.8936 22.2745 21.8937C22.2499 21.8939 21.9791 21.5072 21.6727 21.0346C21.0341 20.0492 21.1138 20.0913 20.5741 20.4547ZM5.17094 25.7221H8.06156V24.5502H6.26469V23.6127H7.90531V22.4408H6.26469V21.5033H8.06156V20.3315H5.17094V25.7221ZM10.2569 22.8688C9.72422 24.2678 9.30242 25.4246 9.31953 25.4395C9.36977 25.4832 10.2488 25.8002 10.3197 25.8002C10.3552 25.8002 10.4809 25.5354 10.599 25.2118L10.8135 24.6235L12.6159 24.6674L12.8184 25.2338C13.0478 25.8756 13.009 25.8562 13.6199 25.6335C14.1868 25.4268 14.2375 25.7256 13.1444 22.8315L12.2148 20.3705L11.2254 20.3252L10.2569 22.8688ZM16.4209 20.456C15.6059 20.809 15.2407 21.7104 15.6031 22.474C15.7888 22.8654 15.983 22.9983 16.9212 23.3753C17.868 23.7558 18.052 23.908 17.9187 24.2005C17.6684 24.7497 16.7001 24.6409 16.1119 23.9975L15.8203 23.6785L14.9818 24.4495L15.2016 24.7147C16.4922 26.2718 19.0772 25.8645 19.0772 24.104C19.0772 23.2536 18.7131 22.86 17.4603 22.3565C16.5923 22.0076 16.5421 21.9712 16.6149 21.7418C16.7471 21.3254 17.5566 21.3843 18.1484 21.8536C18.5331 22.1587 18.4452 22.1925 18.958 21.5422L19.1902 21.2475L18.8538 20.9489C18.2227 20.3889 17.1008 20.1615 16.4209 20.456ZM11.9205 22.851C12.0005 23.0765 12.0829 23.3051 12.1034 23.3588C12.1304 23.4293 12.0269 23.4565 11.732 23.4565C11.2721 23.4565 11.2555 23.3958 11.5341 22.7338C11.6966 22.3476 11.7473 22.363 11.9205 22.851ZM10.4053 32.0502H11.5772V36.269H12.7491V32.0502H13.9209V30.8783H10.4053V32.0502ZM16.6017 31.0187C14.0758 31.9211 14.1614 35.4163 16.7278 36.1645C18.8117 36.7721 20.7288 34.6386 19.9438 32.5856C19.4518 31.2989 17.8801 30.562 16.6017 31.0187ZM22.5155 32.8119C22.5162 34.6793 22.5225 34.759 22.7007 35.1417C23.2587 36.34 24.9009 36.6429 25.9537 35.7418C26.5445 35.236 26.5735 35.1014 26.5755 32.851L26.5772 30.8783H25.4834V34.5658L25.2178 34.8315C24.8485 35.2008 24.2637 35.2175 23.9149 34.8687L23.6866 34.6404V30.8783H22.5147L22.5155 32.8119ZM29.4084 30.9826C28.7748 31.2124 28.3741 31.7573 28.3741 32.389C28.3741 33.164 28.6565 33.4868 29.689 33.8918C30.8868 34.3616 31.0884 34.5692 30.6844 34.9167C30.263 35.2792 29.3984 35.0808 28.9498 34.5186L28.7373 34.2523L28.3213 34.6115C27.8286 35.0368 27.8377 34.9899 28.1728 35.3815C29.3085 36.7083 31.6383 36.4508 31.9555 34.9634C32.156 34.0232 31.7062 33.4632 30.2977 32.8994C29.4936 32.5775 29.3628 32.452 29.5809 32.2111C29.8704 31.8911 30.6287 32.0362 31.1327 32.5079L31.3523 32.7136L31.6973 32.3233C32.108 31.8587 32.1062 31.7823 31.677 31.455C31.0131 30.9486 30.0532 30.7487 29.4084 30.9826ZM33.2959 36.269H36.1866V35.0971H34.4678V34.1651L36.0694 34.1205L36.1153 32.9877H34.4678V32.0502H36.1866V30.8783H33.2959V36.269ZM18.133 32.203C19.5811 32.9418 19.0625 35.0971 17.4366 35.0971C15.8354 35.0971 15.3069 32.9554 16.7234 32.2069C17.1038 32.0059 17.7431 32.0041 18.133 32.203ZM34.1553 39.394H35.3272V38.3002H34.1553V39.394Z"/>
</mask>
<path fill-rule="evenodd" clip-rule="evenodd" d="M36.4209 0.80575C36.1552 0.92536 35.1724 1.85981 32.3964 4.63216C30.3762 6.64958 28.6887 8.29989 28.6464 8.29942C28.6041 8.29903 28.1827 7.59044 27.71 6.72481C26.435 4.38966 26.0891 4.0277 25.0534 3.9445C23.317 3.80513 22.6359 5.21388 23.3786 7.40833C23.6647 8.25364 24.5459 13.072 24.5459 13.7911C24.5459 13.9141 24.0671 14.444 22.9241 15.5861L21.3024 17.2065L1.30375 17.2079L0.897187 17.4411C0.200703 17.8405 0.0594531 18.1796 0.026875 19.5307L0 20.644H1.18656V19.7129C1.18656 18.6438 1.20477 18.5696 1.50469 18.4145C1.83836 18.2419 27.4879 18.2419 27.8216 18.4145C28.1486 18.5836 28.1397 18.4546 28.1397 23.0268C28.1397 27.599 28.1486 27.47 27.8216 27.639C27.4879 27.8116 1.83836 27.8116 1.50469 27.639C1.18281 27.4726 1.18656 27.5085 1.18656 24.5829V21.894H0.0075L0.05375 27.6361L0.272188 28.0077C0.423672 28.2654 0.615078 28.4507 0.897187 28.6124L1.30375 28.8456L6.65531 28.8471L6.65703 33.476C6.65891 38.6026 6.64406 38.4447 7.17281 38.9406C7.68945 39.425 6.77594 39.394 20.4809 39.394H32.9834V38.3016L8.14398 38.2611L7.78813 37.9052V29.2421L8.14398 28.8861L23.1614 28.8646C38.84 28.8421 38.4416 28.8365 38.6885 29.0834C38.8431 29.238 38.9424 37.559 38.7943 37.9451C38.6928 38.2096 38.3373 38.3002 37.4014 38.3002H36.4991V39.394L37.6123 39.3932C38.9505 39.3923 39.3586 39.2328 39.7572 38.5546L39.9756 38.183V28.9643L39.7572 28.5927C39.6057 28.335 39.4143 28.1497 39.1322 27.988L38.7256 27.7548L29.2725 27.7534L29.3187 22.7924L31.4601 20.6446L34.9756 19.6186L37.2562 17.3433C39.6131 14.992 39.8943 14.6459 39.985 13.9844C40.096 13.1743 39.4795 12.1428 38.738 11.898C38.464 11.8076 38.4504 11.7877 38.4962 11.5436C38.6391 10.7814 38.1696 9.90567 37.4093 9.51684C36.9594 9.28677 36.9591 9.28638 37.0088 8.99161C37.129 8.28036 36.5088 7.192 35.843 6.94552C35.7956 6.92802 36.4815 6.17973 37.367 5.2827C38.8099 3.82122 38.9916 3.60802 39.1152 3.23091C39.653 1.59013 37.9943 0.0971566 36.4209 0.80575ZM27.4552 1.64309C27.078 1.73731 26.9745 1.79341 27.0028 1.88825C27.023 1.95583 27.1517 2.46817 27.2889 3.02677C27.426 3.58536 27.5454 4.05192 27.5541 4.06364C27.6013 4.12622 28.6866 3.80294 28.6612 3.73372C28.6448 3.68864 28.5132 3.16841 28.3689 2.57755C28.2245 1.98677 28.07 1.50723 28.0254 1.51208C27.9809 1.51692 27.7242 1.57583 27.4552 1.64309ZM30.2178 2.64192C30.0598 3.27286 29.9408 3.79895 29.9531 3.81114C30.0315 3.88786 30.9841 4.0795 31.0302 4.02778C31.0917 3.95856 31.5772 2.04325 31.5772 1.86934C31.5772 1.80309 31.4068 1.72442 31.128 1.66208C30.8809 1.60677 30.6396 1.54653 30.5919 1.52817C30.5376 1.50739 30.397 1.92606 30.2178 2.64192ZM37.546 1.84661C37.8913 1.99091 38.0616 2.25013 38.0616 2.63169C38.0616 2.93872 38.0085 2.99723 34.9758 6.03341L31.8901 9.1227L32.7054 9.93809L33.6909 8.96286C34.8056 7.86005 35.1089 7.73411 35.5861 8.17638C36.1219 8.67294 35.9911 8.98888 34.7177 10.2742L33.652 11.3497L34.4673 12.165L35.2684 11.3694C36.2911 10.3536 36.7011 10.2115 37.157 10.7154C37.5838 11.1869 37.4073 11.5847 36.2707 12.7124L35.4064 13.5699L36.2215 14.3951L36.9477 13.6719C37.8177 12.8056 38.1705 12.7065 38.6148 13.2038C39.1404 13.7919 39.0595 13.9162 36.4847 16.4789L34.3506 18.6029L30.8383 19.628L30.132 20.3313C29.7436 20.7181 29.403 21.0346 29.3752 21.0346C29.3475 21.0346 29.313 20.4457 29.2986 19.726C29.2673 18.1568 29.1529 17.8562 28.4291 17.4411L28.0225 17.2079L25.542 17.2072C24.1778 17.2068 23.0616 17.1804 23.0616 17.1486C23.0616 17.1168 23.682 16.4697 24.4402 15.7106L25.8188 14.3304L25.3361 11.2958C24.924 8.70544 24.8022 8.10286 24.5043 7.17997C23.9927 5.59505 24.1027 5.09708 24.9645 5.09708C25.4195 5.09708 25.6476 5.37958 26.6242 7.15247C27.1259 8.06302 27.5916 8.9045 27.6593 9.02247C27.78 9.23294 27.7762 9.24325 27.4534 9.57216L27.1244 9.90739L27.9471 10.7199L32.3207 6.33833C37.0287 1.62192 37.0219 1.62763 37.546 1.84661ZM30.5996 12.3637L30.2139 12.7554L31.0303 13.5718L31.8467 12.7554L31.461 12.3637C31.2488 12.1483 31.055 11.9721 31.0303 11.9721C31.0056 11.9721 30.8118 12.1483 30.5996 12.3637ZM32.2402 14.0043L31.8545 14.396L32.6709 15.2124L33.4873 14.396L33.1016 14.0043C32.8895 13.789 32.6956 13.6127 32.6709 13.6127C32.6462 13.6127 32.4524 13.789 32.2402 14.0043ZM20.5741 20.4547C20.0806 20.787 20.0494 20.6586 20.9661 22.063L21.6874 23.1681L21.6424 25.7221H22.8272V23.1975L23.6084 21.9997C24.5312 20.585 24.4809 20.8047 23.9612 20.4597C23.408 20.0925 23.4952 20.0467 22.8662 21.0346C22.5655 21.507 22.2992 21.8936 22.2745 21.8937C22.2499 21.8939 21.9791 21.5072 21.6727 21.0346C21.0341 20.0492 21.1138 20.0913 20.5741 20.4547ZM5.17094 25.7221H8.06156V24.5502H6.26469V23.6127H7.90531V22.4408H6.26469V21.5033H8.06156V20.3315H5.17094V25.7221ZM10.2569 22.8688C9.72422 24.2678 9.30242 25.4246 9.31953 25.4395C9.36977 25.4832 10.2488 25.8002 10.3197 25.8002C10.3552 25.8002 10.4809 25.5354 10.599 25.2118L10.8135 24.6235L12.6159 24.6674L12.8184 25.2338C13.0478 25.8756 13.009 25.8562 13.6199 25.6335C14.1868 25.4268 14.2375 25.7256 13.1444 22.8315L12.2148 20.3705L11.2254 20.3252L10.2569 22.8688ZM16.4209 20.456C15.6059 20.809 15.2407 21.7104 15.6031 22.474C15.7888 22.8654 15.983 22.9983 16.9212 23.3753C17.868 23.7558 18.052 23.908 17.9187 24.2005C17.6684 24.7497 16.7001 24.6409 16.1119 23.9975L15.8203 23.6785L14.9818 24.4495L15.2016 24.7147C16.4922 26.2718 19.0772 25.8645 19.0772 24.104C19.0772 23.2536 18.7131 22.86 17.4603 22.3565C16.5923 22.0076 16.5421 21.9712 16.6149 21.7418C16.7471 21.3254 17.5566 21.3843 18.1484 21.8536C18.5331 22.1587 18.4452 22.1925 18.958 21.5422L19.1902 21.2475L18.8538 20.9489C18.2227 20.3889 17.1008 20.1615 16.4209 20.456ZM11.9205 22.851C12.0005 23.0765 12.0829 23.3051 12.1034 23.3588C12.1304 23.4293 12.0269 23.4565 11.732 23.4565C11.2721 23.4565 11.2555 23.3958 11.5341 22.7338C11.6966 22.3476 11.7473 22.363 11.9205 22.851ZM10.4053 32.0502H11.5772V36.269H12.7491V32.0502H13.9209V30.8783H10.4053V32.0502ZM16.6017 31.0187C14.0758 31.9211 14.1614 35.4163 16.7278 36.1645C18.8117 36.7721 20.7288 34.6386 19.9438 32.5856C19.4518 31.2989 17.8801 30.562 16.6017 31.0187ZM22.5155 32.8119C22.5162 34.6793 22.5225 34.759 22.7007 35.1417C23.2587 36.34 24.9009 36.6429 25.9537 35.7418C26.5445 35.236 26.5735 35.1014 26.5755 32.851L26.5772 30.8783H25.4834V34.5658L25.2178 34.8315C24.8485 35.2008 24.2637 35.2175 23.9149 34.8687L23.6866 34.6404V30.8783H22.5147L22.5155 32.8119ZM29.4084 30.9826C28.7748 31.2124 28.3741 31.7573 28.3741 32.389C28.3741 33.164 28.6565 33.4868 29.689 33.8918C30.8868 34.3616 31.0884 34.5692 30.6844 34.9167C30.263 35.2792 29.3984 35.0808 28.9498 34.5186L28.7373 34.2523L28.3213 34.6115C27.8286 35.0368 27.8377 34.9899 28.1728 35.3815C29.3085 36.7083 31.6383 36.4508 31.9555 34.9634C32.156 34.0232 31.7062 33.4632 30.2977 32.8994C29.4936 32.5775 29.3628 32.452 29.5809 32.2111C29.8704 31.8911 30.6287 32.0362 31.1327 32.5079L31.3523 32.7136L31.6973 32.3233C32.108 31.8587 32.1062 31.7823 31.677 31.455C31.0131 30.9486 30.0532 30.7487 29.4084 30.9826ZM33.2959 36.269H36.1866V35.0971H34.4678V34.1651L36.0694 34.1205L36.1153 32.9877H34.4678V32.0502H36.1866V30.8783H33.2959V36.269ZM18.133 32.203C19.5811 32.9418 19.0625 35.0971 17.4366 35.0971C15.8354 35.0971 15.3069 32.9554 16.7234 32.2069C17.1038 32.0059 17.7431 32.0041 18.133 32.203ZM34.1553 39.394H35.3272V38.3002H34.1553V39.394Z" fill="#08294F" stroke="white" stroke-width="0.2" mask="url(#path-1-inside-1_1248_9775)"/>
</svg>
