<svg width="35" height="35" viewBox="0 0 35 35" fill="none" xmlns="http://www.w3.org/2000/svg">
<path fill-rule="evenodd" clip-rule="evenodd" d="M3.73453 1.83193C0.694228 2.5865 1.35048 7.07521 4.48522 6.96686L5.00352 6.94896L5.70573 8.42321C6.53432 10.1627 6.4846 9.92342 6.07422 10.1959C2.58016 12.5159 2.40843 17.8947 5.74954 20.3667C5.91025 20.4856 6.04179 20.6125 6.04179 20.6488C6.04179 20.8329 5.14467 22.3531 5.05736 22.3169C4.81144 22.2154 3.95695 22.2213 3.63405 22.327C1.13858 23.1434 1.11637 26.5755 3.60157 27.3513C6.01915 28.106 7.94618 25.2771 6.4032 23.2386C6.23825 23.0207 6.10332 22.8334 6.10332 22.8225C6.10332 22.8006 6.96944 21.2341 7.00426 21.193C7.01614 21.179 7.29584 21.2542 7.62593 21.3601C9.44744 21.9443 11.3271 21.7362 12.8469 20.782C13.1383 20.599 13.4001 20.4494 13.4287 20.4494C13.4955 20.4494 15.4554 22.5934 15.4554 22.6665C15.4554 22.6968 15.3766 22.8125 15.2801 22.9237C14.2822 24.0738 13.713 25.7917 13.8223 27.3229C13.8621 27.8797 13.8603 27.8906 13.7209 27.9229C13.6428 27.9411 13.113 28.0666 12.5435 28.2019C11.9741 28.3372 11.5004 28.4479 11.4909 28.4479C11.4814 28.4479 11.3748 28.2992 11.2542 28.1174C9.39373 25.3153 5.07268 28.1195 6.86816 30.9637C8.19616 33.0675 11.7023 32.1748 11.7023 29.7329C11.7023 29.5662 11.7322 29.4933 11.81 29.4705C12.7374 29.1985 14.1634 28.9182 14.1634 29.008C14.1634 29.5842 15.4426 31.3227 16.3755 32.0144C21.5001 35.8133 28.5248 30.1647 25.8608 24.3871C25.6708 23.9749 25.68 23.9589 26.3615 23.5172C26.7082 23.2925 27.3847 22.8538 27.865 22.5424L28.7382 21.9761L28.9725 22.1634C31.504 24.188 34.75 20.5666 32.4581 18.2747C30.5285 16.3451 27.4294 18.2422 28.1004 20.9422C28.1364 21.0871 28.0492 21.1549 26.7013 22.0314C24.9141 23.1934 25.1366 23.1267 24.6792 22.6377C24.2444 22.1728 23.6452 21.7059 23.1309 21.4311C22.69 21.1954 22.5797 21.6589 24.0308 17.6499L25.2779 14.2044L25.4888 14.2104C25.6048 14.2138 25.9882 14.2529 26.3407 14.2973C31.3777 14.9311 35.0139 9.10659 32.2995 4.75244C29.7272 0.626124 23.5269 0.831009 21.3683 5.11373C21.2958 5.25751 21.2301 5.37478 21.2224 5.37429C21.2146 5.3738 20.8483 5.23949 20.4084 5.07589L19.6085 4.77834L19.5691 4.26158C19.3451 1.32649 15.4202 0.801415 14.4647 3.57862C13.5814 6.14578 16.93 8.13144 18.8439 6.1755C19.0428 5.97221 19.2326 5.80591 19.2657 5.80591C19.3208 5.80591 20.8197 6.3506 20.8512 6.38204C20.8587 6.38955 20.8198 6.5745 20.7648 6.79298C20.6083 7.41422 20.6249 8.76468 20.7975 9.46061C20.8723 9.76179 20.9261 10.0137 20.917 10.0204C20.9006 10.0327 15.3559 12.3836 15.2401 12.4274C15.2063 12.4402 15.0591 12.2569 14.9131 12.02C13.4731 9.68322 10.3016 8.51224 7.77089 9.38291C7.35595 9.52565 7.47033 9.67171 6.66211 7.96704C5.86158 6.27849 5.91788 6.53143 6.26114 6.16442C8.02869 4.27474 6.24126 1.20977 3.73453 1.83193ZM5.01681 2.96618C5.98796 3.40044 6.21475 4.70032 5.45243 5.46265C4.36906 6.54601 2.52934 5.56047 2.84011 4.06327C3.04641 3.06949 4.08129 2.54792 5.01681 2.96618ZM17.419 2.88749C18.0956 3.08844 18.5813 3.80061 18.5123 4.49058C18.3153 6.46012 15.4161 6.33738 15.4271 4.36002C15.433 3.28822 16.3889 2.58158 17.419 2.88749ZM28.2261 2.97621C31.4314 3.79311 33.0928 7.37158 31.6379 10.3248C31.2726 11.0665 30.8372 11.6103 30.8372 11.3251C30.8372 10.9666 29.8618 9.89678 29.2259 9.55783C28.8124 9.33744 28.824 9.36291 29.0197 9.10628C30.0083 7.81021 29.5482 5.8694 28.0887 5.17864C25.6665 4.03239 23.2662 6.80092 24.7774 8.99781C25.0398 9.37928 25.0409 9.3471 24.7598 9.49052C24.1073 9.82338 23.4433 10.4898 23.1379 11.1185C22.9662 11.4719 22.9598 11.4718 22.6961 11.1125C19.8331 7.21235 23.5264 1.7784 28.2261 2.97621ZM27.55 6.08333C28.2607 6.37036 28.6606 7.25696 28.4142 7.99904C27.9864 9.28698 26.2306 9.4576 25.5863 8.27382C24.8784 6.97307 26.1741 5.52768 27.55 6.08333ZM11.1935 10.412C14.5598 11.5299 15.9022 15.4344 13.9226 18.3496C13.6149 18.8026 13.5602 18.8098 13.3713 18.4216C13.0848 17.8328 12.4223 17.1674 11.8365 16.8802C11.6781 16.8026 11.5394 16.7318 11.5283 16.7231C11.5172 16.7143 11.6054 16.5658 11.7243 16.393C12.9115 14.6669 11.789 12.3597 9.72105 12.2759C7.5636 12.1885 6.21998 14.5652 7.43126 16.3261C7.69946 16.716 7.70678 16.6905 7.25622 16.9365C6.76683 17.2037 6.13076 17.8484 5.86896 18.3424C5.61892 18.8143 5.61375 18.8144 5.29812 18.3496C3.28839 15.3902 4.73102 11.3775 8.16719 10.3691C9.07262 10.1034 10.3174 10.121 11.1935 10.412ZM28.5129 10.4011C29.0714 10.6656 29.4943 11.074 29.7604 11.6061C30.0601 12.205 30.0497 12.2742 29.6221 12.5328C28.0779 13.4664 26.2302 13.5213 24.5614 12.683L23.9154 12.3585L23.9287 12.1298C23.9692 11.4338 24.7405 10.5999 25.6374 10.2825C26.2158 10.0778 27.9844 10.1507 28.5129 10.4011ZM21.602 11.382C22.0748 12.1726 22.9936 13.0487 23.8547 13.5303C24.0742 13.6531 24.2542 13.7857 24.2547 13.8251C24.2552 13.8645 23.6945 15.456 23.0088 17.3617L21.762 20.8268L21.5466 20.7988C21.4282 20.7834 21.0682 20.7371 20.7468 20.6959C19.3841 20.5211 17.797 20.9093 16.6337 21.7017C16.4526 21.8251 16.2963 21.926 16.2862 21.926C16.2474 21.926 14.3332 19.8058 14.3045 19.731C14.2877 19.6872 14.4327 19.4407 14.6266 19.183C15.7564 17.6819 16.1636 15.7366 15.7318 13.9032C15.671 13.6449 15.6324 13.4249 15.646 13.4143C15.726 13.3523 21.2248 11.044 21.3015 11.0403C21.3528 11.0377 21.488 11.1916 21.602 11.382ZM10.0549 13.3766C11.1415 13.6783 11.5125 15.1537 10.7049 15.9613C9.9319 16.7344 8.61959 16.496 8.19057 15.5045C7.65891 14.2758 8.76141 13.0173 10.0549 13.3766ZM10.6787 17.5877C11.6143 17.7859 12.3818 18.5316 12.6551 19.5077C12.7338 19.789 11.3716 20.4215 10.3487 20.5786C8.90551 20.8001 6.52786 20.0943 6.58169 19.4602C6.6994 18.0751 8.68838 17.166 10.6787 17.5877ZM31.2366 18.6916C31.7801 18.9187 32.1501 19.49 32.1533 20.1071C32.1606 21.5037 30.5049 22.1992 29.5192 21.2136C28.3169 20.0113 29.6632 18.0342 31.2366 18.6916ZM21.1159 21.814C24.829 22.5068 26.6553 27.2203 24.312 30.063C24.073 30.3528 24.0521 30.3512 23.9094 30.0322C23.6686 29.4941 23.0432 28.8381 22.4234 28.4733C21.9782 28.2114 21.9965 28.249 22.1902 27.9951C23.4884 26.2932 22.2498 23.816 20.1007 23.816C17.956 23.816 16.7157 26.2966 18.0113 27.9951C18.2058 28.2501 18.2168 28.2232 17.8255 28.4471C17.1763 28.8186 16.5434 29.4731 16.2921 30.033C16.1515 30.3462 16.1205 30.3513 15.9259 30.0937C14.735 28.5176 14.5607 26.279 15.4917 24.5175C16.5814 22.4556 18.811 21.3838 21.1159 21.814ZM5.02063 23.4334C5.97178 23.8899 6.20767 25.1962 5.47187 25.932C4.32217 27.0817 2.41428 25.9515 2.87659 24.3946C3.14141 23.503 4.18804 23.0338 5.02063 23.4334ZM20.7963 25.0387C21.7034 25.4907 21.9393 26.6382 21.2878 27.4287C20.7132 28.1257 19.4883 28.1257 18.9137 27.4287C18.0611 26.3943 18.7665 24.8793 20.1007 24.8793C20.3817 24.8793 20.5572 24.9195 20.7963 25.0387ZM9.6036 28.1071C10.3933 28.3857 10.8254 29.2606 10.5632 30.05C10.0096 31.7169 7.56139 31.3398 7.55161 29.5861C7.54545 28.4867 8.57542 27.7443 9.6036 28.1071ZM21.2908 29.1521C22.157 29.3827 23.146 30.4059 23.1463 31.0718C23.1464 31.458 21.5458 32.098 20.3776 32.1789C19.185 32.2614 17.055 31.554 17.0552 31.0754C17.0553 30.6168 17.782 29.6598 18.3518 29.3678C18.949 29.0617 20.5184 28.9466 21.2908 29.1521Z" fill="#08294F"/>
</svg>
