<svg width="35" height="35" viewBox="0 0 35 35" fill="none" xmlns="http://www.w3.org/2000/svg">
<path fill-rule="evenodd" clip-rule="evenodd" d="M5.75988 1.84543C5.19626 2.04027 4.96806 2.32424 3.45593 4.71299C1.65461 7.55846 1.7508 7.37198 1.75093 8.01985C1.75117 9.14191 2.56238 9.9277 3.72038 9.9277H4.09974L4.14134 10.9946C4.26849 14.2525 5.50786 16.6438 7.89993 18.2469C9.59195 19.3807 10.8956 19.7131 13.6505 19.7131H15.2581V20.752V21.791L13.4888 21.8223C10.6759 21.8722 9.35119 22.243 7.67505 23.4498C5.27405 25.1786 3.78014 28.5186 4.17728 31.2702C4.46568 33.268 7.01937 33.9682 8.17066 32.3651C8.71058 31.6132 8.06253 31.1592 7.39786 31.8236C6.79295 32.4282 6.15289 32.4904 5.56054 32.0021C5.18112 31.6894 5.10635 31.4395 5.10481 30.4787C5.09896 26.8514 7.31878 23.9425 10.8225 22.9861L11.4117 22.8253L17.1968 22.7898C24.0176 22.7478 23.9318 22.7585 25.2219 21.7859C25.6644 21.4523 25.6272 21.4396 25.9076 22.021C26.1529 22.5297 26.2674 23.03 26.2879 23.6827L26.3052 24.2366L25.7513 24.5249C25.1776 24.8236 24.539 25.0584 23.8261 25.2328C23.4637 25.3216 22.699 25.3388 17.6276 25.3727C11.1214 25.4161 11.5597 25.3838 10.4885 25.8992C9.05104 26.5909 7.9248 28.111 7.77057 29.5675C7.67868 30.4353 8.55623 30.4125 8.72406 29.5428C8.99301 28.1492 10.0622 26.9661 11.4732 26.5008C11.9534 26.3425 12.0059 26.3384 13.5965 26.3338L15.2274 26.3291L15.2581 28.9754L15.2889 31.6218L15.4478 31.9604C16.2436 33.6568 18.7038 33.6568 19.4997 31.9604L19.6585 31.6218L19.6893 28.9754L19.7201 26.3291L21.5971 26.294C23.873 26.2515 24.7239 26.0946 25.9017 25.5C26.1048 25.3975 26.2848 25.3136 26.3018 25.3136C26.3188 25.3136 26.3404 26.733 26.3498 28.4677L26.3668 31.6218L26.539 31.9725C27.3606 33.6456 29.7981 33.6547 30.5613 31.9876C30.8224 31.4171 30.8415 31.019 30.8105 26.7906C30.7791 22.5086 30.7709 22.3917 30.4261 21.266L30.2701 20.7572L30.4272 20.2601C30.7781 19.1491 30.7802 19.1173 30.8108 14.3435L30.8391 9.9277H31.2227C32.673 9.9277 33.6878 8.42364 33.0498 7.21978C32.5686 6.31158 30.0535 2.45939 29.7832 2.21635C29.0819 1.58584 27.9884 1.59753 27.2881 2.243C26.9548 2.55022 24.1359 6.99564 23.9761 7.46596C23.5707 8.65947 24.4537 9.84702 25.7975 9.91533L26.336 9.94278V13.0739C26.336 15.1783 26.3153 16.2051 26.2727 16.2051C26.2379 16.2051 26.0509 16.1257 25.8572 16.0285C24.6802 15.4381 23.7963 15.2771 21.5202 15.2383L19.6893 15.2072V12.5749V9.94278L20.2278 9.91545C21.0362 9.87453 21.6034 9.52773 21.9409 8.8681C22.3597 8.0497 21.5486 7.61926 21.1123 8.42838C20.7953 9.01612 20.8672 9.00473 17.4761 9.00319C14.1985 9.00165 14.1718 8.99839 13.9057 8.56192C13.5626 7.99954 13.561 8.00342 15.3044 5.25039C16.8719 2.7751 16.9639 2.66556 17.4737 2.66556C17.9693 2.66556 18.1008 2.81505 19.3676 4.81817C20.7004 6.92579 20.7993 7.0293 21.1888 6.72294C21.4987 6.47923 21.4484 6.3599 20.2066 4.38878C18.6661 1.94371 18.4896 1.7749 17.4737 1.7749C16.4345 1.7749 16.3117 1.8986 14.4949 4.77595C12.7334 7.56572 12.8293 7.3806 12.8291 7.98908C12.8288 9.11748 13.5537 9.85606 14.7196 9.91533L15.2581 9.94278V12.586V15.2291L13.5503 15.2089C11.3296 15.1825 10.8208 15.0208 9.81215 14.0203C8.99165 13.2066 8.68929 12.4091 8.63089 10.905L8.59359 9.94358L9.14102 9.91576C10.4699 9.84825 11.3398 8.72255 10.9909 7.52221C10.8797 7.13959 8.13054 2.7303 7.75807 2.33716C7.2656 1.81724 6.43366 1.61248 5.75988 1.84543ZM6.82901 2.80403C7.09851 2.93992 9.63004 6.75556 10.0371 7.63933C10.2554 8.1134 10.0508 8.66969 9.57946 8.88367C9.17788 9.06597 3.61385 9.06597 3.21228 8.88367C2.77157 8.68366 2.54595 8.15463 2.7163 7.72087C2.85724 7.36213 5.53592 3.15003 5.76215 2.93143C6.06723 2.63663 6.41482 2.59515 6.82901 2.80403ZM29.1306 2.87493C29.3305 3.02989 32.0706 7.31222 32.2308 7.71989C32.4015 8.15463 32.1764 8.68341 31.7351 8.88367C31.3336 9.06597 25.7695 9.06597 25.368 8.88367C24.8966 8.66969 24.692 8.1134 24.9103 7.63933C25.3169 6.75667 27.849 2.93986 28.1208 2.80009C28.4608 2.62518 28.8453 2.65374 29.1306 2.87493ZM7.70441 10.9586C7.78288 13.497 8.94125 15.1593 11.1762 15.9404C11.6471 16.105 11.6978 16.1094 13.4426 16.1416L15.2274 16.1744L15.244 17.4894L15.2606 18.8044L13.4285 18.7723C11.075 18.7311 10.271 18.5557 8.94174 17.7937C6.43864 16.3588 5.10345 13.973 5.10345 10.9351V9.9277H6.38799H7.67253L7.70441 10.9586ZM18.7661 15.8667V21.8056H17.4737H16.1813V15.8667V9.9277H17.4737H18.7661V15.8667ZM29.844 14.2025C29.844 18.2093 29.803 19.4054 29.6661 19.4054C29.6442 19.4054 29.4468 19.1501 29.2274 18.8381C28.8195 18.258 27.8914 17.2811 27.4861 17.0052L27.26 16.8514L27.2596 13.3895L27.2591 9.9277H28.5516H29.844V14.2025ZM23.6281 16.2892C26.7727 16.8715 29.1992 19.3361 29.7491 22.506C29.8282 22.9616 29.844 23.7409 29.844 27.1857V31.3188L29.7055 31.5898C29.2301 32.5204 27.9468 32.5519 27.413 31.6461C27.294 31.4442 27.2887 31.2941 27.2559 27.1907C27.2184 22.4877 27.2326 22.6574 26.7962 21.7025C26.2946 20.6047 25.4741 19.7801 24.3611 19.2552C23.5229 18.8598 23.3484 18.833 21.4279 18.8052L19.6893 18.7799V17.5028C19.6893 16.8004 19.71 16.2041 19.7354 16.1777C19.819 16.0909 23.0585 16.1837 23.6281 16.2892ZM23.0517 19.8051C23.7855 19.9455 24.9205 20.5405 24.9205 20.7849C24.9205 20.8803 24.504 21.1817 24.0684 21.4015C23.3883 21.7446 22.9627 21.8056 21.2488 21.8056H19.6893V20.7594V19.7131H21.1301C22.1529 19.7131 22.7105 19.7398 23.0517 19.8051ZM18.7661 28.8085C18.7661 31.2904 18.7646 31.3218 18.6277 31.5898C18.1375 32.5492 16.8099 32.5492 16.3198 31.5898C16.1828 31.3218 16.1813 31.2904 16.1813 28.8085V26.2983H17.4737H18.7661V28.8085Z" fill="#08294F"/>
</svg>
