<svg width="35" height="35" viewBox="0 0 35 35" fill="none" xmlns="http://www.w3.org/2000/svg">
<path fill-rule="evenodd" clip-rule="evenodd" d="M3.49797 0.193052C0.788276 0.644566 -0.760611 3.52195 0.377573 5.98993C1.83636 9.15305 6.26222 9.22996 7.82868 6.1194C9.32301 3.15212 6.76309 -0.35102 3.49797 0.193052ZM16.8745 0.186763C13.5324 0.706499 12.1964 4.80143 14.5884 7.19353C17.1818 9.78695 21.6166 7.953 21.6166 4.28716C21.6166 1.76846 19.3434 -0.197144 16.8745 0.186763ZM30.0781 0.217319C25.9823 0.9919 25.554 6.80539 29.4907 8.18905C30.8464 8.66551 33.0123 8.26192 33.0123 7.53287C33.0123 7.06638 32.629 6.87443 32.1343 7.09325C28.9973 8.48088 26.294 4.44617 28.7569 2.0525C31.3301 -0.448364 35.3139 2.91177 33.4217 5.98699C33.1803 6.37917 33.1683 6.53045 33.3591 6.77305C33.8003 7.33394 34.5152 6.6187 34.8597 5.27181C35.5996 2.37891 33.027 -0.340425 30.0781 0.217319ZM4.86926 1.31298C7.22247 1.92589 7.9872 4.77552 6.25846 6.48916C4.35964 8.37129 1.07771 6.97635 1.07771 4.28716C1.07771 2.28054 2.94884 0.812798 4.86926 1.31298ZM18.2783 1.31572C20.4817 1.88966 21.2908 4.63682 19.7605 6.34861C18.0716 8.23786 14.9072 7.29901 14.4754 4.78051C14.103 2.60894 16.1351 0.757495 18.2783 1.31572ZM7.57452 7.43217C7.3775 7.54729 7.28467 7.87166 7.39077 8.07421C7.46507 8.21598 10.7031 11.3832 12.7618 13.3277C13.335 13.8691 13.8717 13.807 13.8717 13.1991C13.8717 12.9147 14.0035 13.0549 11.2741 10.4341C10.1649 9.36914 8.99222 8.24251 8.66813 7.93058C8.06452 7.34966 7.8686 7.26032 7.57452 7.43217ZM26.5164 7.54893C26.3156 7.68811 21.1831 12.3344 20.8615 12.668C20.572 12.9682 20.5553 13.303 20.8194 13.5107C21.2059 13.8147 20.947 14.0112 24.8776 10.4292C27.548 7.99545 27.5564 7.9852 27.175 7.60376C26.9742 7.40292 26.7533 7.38453 26.5164 7.54893ZM17.1667 9.21095C16.8624 9.49444 16.8436 11.7071 17.1435 11.9496C17.7286 12.4229 18.0027 12.0499 18.0295 10.7435C18.058 9.35075 17.969 9.07232 17.4948 9.07232C17.3961 9.07232 17.2485 9.13466 17.1667 9.21095ZM16.6403 12.7393C14.0246 13.2921 12.5957 16.2503 13.7959 18.6279C14.123 19.2758 14.4152 19.4085 14.7587 19.065C15.0161 18.8076 15.0158 18.7384 14.7548 18.1973C13.7509 16.1156 15.2133 13.7208 17.4885 13.7208C20.1967 13.7208 21.5557 16.9176 19.6998 18.9222C19.255 19.4026 19.2062 19.6621 19.5111 19.9244C19.8147 20.1856 20.0063 20.1298 20.4696 19.6455C23.2601 16.7287 20.5857 11.9054 16.6403 12.7393ZM16.3528 16.048C15.3594 16.4415 15.1705 16.9618 15.1705 19.3042C15.1705 20.2939 15.1628 21.1031 15.1535 21.1025C15.1441 21.102 15.0133 21.0572 14.8629 21.003C14.2595 20.7856 13.5337 20.9367 13.0233 21.3859L12.7019 21.6689L12.3126 21.4717C11.3038 20.9605 9.92068 21.5213 9.62188 22.5627C9.5771 22.7189 9.53541 22.8547 9.52925 22.8646C9.5231 22.8744 9.38631 22.8359 9.22533 22.7791C8.53859 22.5368 7.80974 22.7133 7.27059 23.2524C6.7123 23.8107 6.69398 23.9101 6.69398 26.3766C6.69398 29.3017 6.79597 29.8536 7.33642 29.8536C7.81022 29.8536 7.8889 29.6469 7.79764 28.6418C7.68266 27.3753 7.69291 24.5804 7.81364 24.2916C8.25688 23.2306 9.49671 23.6949 9.49671 24.9217C9.49671 25.6596 9.75245 25.9961 10.1876 25.8306C10.5342 25.6988 10.554 25.6184 10.5905 24.1865C10.6317 22.5708 10.7409 22.334 11.445 22.334C12.11 22.334 12.2571 22.6009 12.2994 23.8839C12.3378 25.0467 12.4295 25.2735 12.8614 25.2735C13.3208 25.2735 13.3932 25.0731 13.3932 23.8001C13.3932 22.3059 13.5575 21.9736 14.2965 21.9736C15.0135 21.9736 15.1703 22.3468 15.1704 24.0525C15.1705 25.5998 15.2049 25.711 15.6832 25.711C16.219 25.711 16.1959 25.8967 16.1959 21.5723C16.1959 17.4282 16.1942 17.448 16.5705 17.152C16.8522 16.9305 17.1715 16.8948 17.4764 17.0506C17.9987 17.3176 17.9731 17.0188 17.9731 22.8342C17.9733 26.6431 17.9943 28.0564 18.0528 28.1662C18.2404 28.5182 18.5429 28.5779 18.841 28.3214L19.0328 28.1564V22.8013V17.4463L18.8563 17.07C18.399 16.0953 17.3324 15.6598 16.3528 16.048ZM19.8532 22.7154C19.0713 22.9964 19.2087 23.8438 20.0185 23.7351C21.3018 23.5631 21.8867 24.2197 21.4367 25.3272C21.1884 25.9383 21.0599 26.658 20.9826 27.8712C20.7638 31.3001 19.6741 33.2757 17.7242 33.7785C17.0306 33.9573 12.3115 33.9367 11.5882 33.7518C10.2254 33.4031 9.17037 32.4593 8.4342 30.9299C8.14286 30.3246 7.90893 30.1609 7.59038 30.3395C7.21556 30.5496 7.19717 30.7552 7.49741 31.3796C8.37411 33.2026 9.63459 34.3162 11.3937 34.8218C11.8777 34.9609 16.2462 35.036 17.2605 34.9227C20.1161 34.6037 21.8261 32.1304 22.0415 28.0079C22.0981 26.9238 22.1944 26.3575 22.4309 25.7178C23.1241 23.8429 21.6131 22.0828 19.8532 22.7154Z" fill="#08294F"/>
</svg>
