<svg width="35" height="35" viewBox="0 0 35 35" fill="none" xmlns="http://www.w3.org/2000/svg">
<mask id="path-1-inside-1_1242_1709" fill="white">
<path fill-rule="evenodd" clip-rule="evenodd" d="M26.0146 3.93346C25.4293 4.19927 25.3141 4.52487 25.3136 5.91345C25.3133 6.92643 25.3118 6.93775 25.1756 6.96437C25.0998 6.97918 24.79 7.02472 24.487 7.06548C21.6079 7.4529 18.9923 8.89925 16.1468 11.6773L15.2122 12.5898L14.9839 12.3965C12.8058 10.5514 12.2608 10.2515 11.8438 10.6685C11.4532 11.0591 11.5808 11.3145 12.5092 12.0001C13.2473 12.5451 14.2967 13.414 14.2967 13.4801C14.2967 13.5669 12.6678 15.141 12.578 15.141C12.5239 15.141 12.4288 15.0849 12.3667 15.0163C12.3046 14.9477 11.9905 14.6898 11.6687 14.4432C9.21858 12.5662 6.95614 11.7748 4.03968 11.7748C2.90625 11.7748 2.97407 11.8534 2.97407 10.5401C2.97407 9.19664 2.84995 9.29652 4.45819 9.34579C5.18124 9.36795 6.02585 9.43386 6.48548 9.50388C7.48689 9.65652 7.80913 9.52971 7.80913 8.9828C7.80913 8.48399 7.51774 8.35864 5.97303 8.19272C2.36589 7.80524 1.75392 8.14823 1.75135 10.5591L1.75 11.8221L1.92094 12.1493C2.26815 12.8139 2.68427 12.998 3.83973 12.9985C6.68856 12.9998 8.88698 13.7803 11.1294 15.5867C11.7758 16.1074 11.7731 16.0245 11.16 16.5183C8.86923 18.3632 6.72277 19.1192 3.77522 19.1192C2.06361 19.1192 1.72907 19.539 1.76096 21.6472C1.79407 23.8333 2.05455 24.0564 4.50415 23.9962C8.43946 23.8995 11.5214 22.7001 14.5564 20.0841C14.8011 19.8732 15.0502 19.6622 15.1099 19.6151C15.2083 19.5376 15.2996 19.6091 16.0887 20.383C18.9975 23.2353 21.6175 24.6917 24.4984 25.0575C25.4198 25.1746 25.3132 25.0247 25.3136 26.2047C25.3141 27.5933 25.4293 27.9189 26.0146 28.1847C26.7096 28.5003 26.7023 28.5045 29.8785 25.9442C33.188 23.2763 33.0861 23.3765 33.0861 22.7914C33.0861 22.2067 33.1848 22.3038 29.9035 19.6614C26.6154 17.0134 26.7716 17.1069 26.0801 17.371C25.46 17.6078 25.3141 17.9729 25.3136 19.2887L25.3133 20.2232L25.145 20.1849C22.9451 19.6841 21.504 18.8268 19.3766 16.7529L18.6727 16.0668L19.0399 15.6891C21.175 13.4931 22.8681 12.4515 25.145 11.9332L25.3133 11.8949L25.3136 12.8294C25.3138 13.3434 25.3424 13.8664 25.3772 13.9916C25.5701 14.6865 26.4389 15.0473 27.0616 14.6912C27.3139 14.5469 32.245 10.5967 32.6801 10.1903C33.2441 9.66356 33.2327 8.96853 32.6514 8.43882C31.9964 7.84203 27.1235 3.96425 26.9473 3.89955C26.6577 3.79324 26.2941 3.80646 26.0146 3.93346ZM29.2442 7.24578C30.6462 8.37345 31.7933 9.30987 31.7933 9.3267C31.7932 9.37474 26.703 13.4555 26.6155 13.4777C26.554 13.4933 26.5373 13.2285 26.5373 12.2336V10.9698L26.3496 10.782L26.1618 10.5942L25.6304 10.6334C22.8535 10.8379 20.9226 12.0377 17.0202 15.984C11.7465 21.317 9.31767 22.6266 4.42765 22.774C2.85386 22.8214 2.97407 22.9212 2.97407 21.5674C2.97407 20.2566 2.85025 20.3658 4.38174 20.3262C8.41871 20.2218 10.4922 19.0854 15.1229 14.4397C19.9056 9.6414 21.8815 8.45222 25.5096 8.1885C26.5399 8.11359 26.5373 8.11787 26.5373 6.44965C26.5373 5.42425 26.5537 5.15997 26.6162 5.1757C26.6596 5.1866 27.8423 6.11811 29.2442 7.24578ZM9.6033 9.23269C8.98056 9.50351 9.18614 10.3794 9.87242 10.3794C10.5292 10.3794 10.6575 9.4379 10.0332 9.20056C9.84518 9.12907 9.84071 9.12938 9.6033 9.23269ZM18.5711 17.704C20.2514 19.2804 21.1573 19.9509 22.4673 20.5878C24.0686 21.3663 25.9557 21.73 26.3496 21.3361L26.5373 21.1484V19.8824C26.5373 18.7742 26.549 18.621 26.6305 18.6522C26.7392 18.694 31.7932 22.746 31.7933 22.7914C31.7934 22.8398 26.7041 26.9204 26.6162 26.9424C26.5537 26.9581 26.5373 26.6939 26.5373 25.6685C26.5373 24.0988 26.476 23.9543 25.8091 23.9543C22.9576 23.9543 20.045 22.4893 16.899 19.4727L16.1046 18.7109L16.9296 17.8441C17.3834 17.3673 17.764 16.9772 17.7755 16.9771C17.7869 16.9771 18.1449 17.3042 18.5711 17.704Z"/>
</mask>
<path fill-rule="evenodd" clip-rule="evenodd" d="M26.0146 3.93346C25.4293 4.19927 25.3141 4.52487 25.3136 5.91345C25.3133 6.92643 25.3118 6.93775 25.1756 6.96437C25.0998 6.97918 24.79 7.02472 24.487 7.06548C21.6079 7.4529 18.9923 8.89925 16.1468 11.6773L15.2122 12.5898L14.9839 12.3965C12.8058 10.5514 12.2608 10.2515 11.8438 10.6685C11.4532 11.0591 11.5808 11.3145 12.5092 12.0001C13.2473 12.5451 14.2967 13.414 14.2967 13.4801C14.2967 13.5669 12.6678 15.141 12.578 15.141C12.5239 15.141 12.4288 15.0849 12.3667 15.0163C12.3046 14.9477 11.9905 14.6898 11.6687 14.4432C9.21858 12.5662 6.95614 11.7748 4.03968 11.7748C2.90625 11.7748 2.97407 11.8534 2.97407 10.5401C2.97407 9.19664 2.84995 9.29652 4.45819 9.34579C5.18124 9.36795 6.02585 9.43386 6.48548 9.50388C7.48689 9.65652 7.80913 9.52971 7.80913 8.9828C7.80913 8.48399 7.51774 8.35864 5.97303 8.19272C2.36589 7.80524 1.75392 8.14823 1.75135 10.5591L1.75 11.8221L1.92094 12.1493C2.26815 12.8139 2.68427 12.998 3.83973 12.9985C6.68856 12.9998 8.88698 13.7803 11.1294 15.5867C11.7758 16.1074 11.7731 16.0245 11.16 16.5183C8.86923 18.3632 6.72277 19.1192 3.77522 19.1192C2.06361 19.1192 1.72907 19.539 1.76096 21.6472C1.79407 23.8333 2.05455 24.0564 4.50415 23.9962C8.43946 23.8995 11.5214 22.7001 14.5564 20.0841C14.8011 19.8732 15.0502 19.6622 15.1099 19.6151C15.2083 19.5376 15.2996 19.6091 16.0887 20.383C18.9975 23.2353 21.6175 24.6917 24.4984 25.0575C25.4198 25.1746 25.3132 25.0247 25.3136 26.2047C25.3141 27.5933 25.4293 27.9189 26.0146 28.1847C26.7096 28.5003 26.7023 28.5045 29.8785 25.9442C33.188 23.2763 33.0861 23.3765 33.0861 22.7914C33.0861 22.2067 33.1848 22.3038 29.9035 19.6614C26.6154 17.0134 26.7716 17.1069 26.0801 17.371C25.46 17.6078 25.3141 17.9729 25.3136 19.2887L25.3133 20.2232L25.145 20.1849C22.9451 19.6841 21.504 18.8268 19.3766 16.7529L18.6727 16.0668L19.0399 15.6891C21.175 13.4931 22.8681 12.4515 25.145 11.9332L25.3133 11.8949L25.3136 12.8294C25.3138 13.3434 25.3424 13.8664 25.3772 13.9916C25.5701 14.6865 26.4389 15.0473 27.0616 14.6912C27.3139 14.5469 32.245 10.5967 32.6801 10.1903C33.2441 9.66356 33.2327 8.96853 32.6514 8.43882C31.9964 7.84203 27.1235 3.96425 26.9473 3.89955C26.6577 3.79324 26.2941 3.80646 26.0146 3.93346ZM29.2442 7.24578C30.6462 8.37345 31.7933 9.30987 31.7933 9.3267C31.7932 9.37474 26.703 13.4555 26.6155 13.4777C26.554 13.4933 26.5373 13.2285 26.5373 12.2336V10.9698L26.3496 10.782L26.1618 10.5942L25.6304 10.6334C22.8535 10.8379 20.9226 12.0377 17.0202 15.984C11.7465 21.317 9.31767 22.6266 4.42765 22.774C2.85386 22.8214 2.97407 22.9212 2.97407 21.5674C2.97407 20.2566 2.85025 20.3658 4.38174 20.3262C8.41871 20.2218 10.4922 19.0854 15.1229 14.4397C19.9056 9.6414 21.8815 8.45222 25.5096 8.1885C26.5399 8.11359 26.5373 8.11787 26.5373 6.44965C26.5373 5.42425 26.5537 5.15997 26.6162 5.1757C26.6596 5.1866 27.8423 6.11811 29.2442 7.24578ZM9.6033 9.23269C8.98056 9.50351 9.18614 10.3794 9.87242 10.3794C10.5292 10.3794 10.6575 9.4379 10.0332 9.20056C9.84518 9.12907 9.84071 9.12938 9.6033 9.23269ZM18.5711 17.704C20.2514 19.2804 21.1573 19.9509 22.4673 20.5878C24.0686 21.3663 25.9557 21.73 26.3496 21.3361L26.5373 21.1484V19.8824C26.5373 18.7742 26.549 18.621 26.6305 18.6522C26.7392 18.694 31.7932 22.746 31.7933 22.7914C31.7934 22.8398 26.7041 26.9204 26.6162 26.9424C26.5537 26.9581 26.5373 26.6939 26.5373 25.6685C26.5373 24.0988 26.476 23.9543 25.8091 23.9543C22.9576 23.9543 20.045 22.4893 16.899 19.4727L16.1046 18.7109L16.9296 17.8441C17.3834 17.3673 17.764 16.9772 17.7755 16.9771C17.7869 16.9771 18.1449 17.3042 18.5711 17.704Z" fill="#08294F" stroke="white" stroke-width="0.4" mask="url(#path-1-inside-1_1242_1709)"/>
</svg>
