<svg width="35" height="35" viewBox="0 0 35 35" fill="none" xmlns="http://www.w3.org/2000/svg">
<path fill-rule="evenodd" clip-rule="evenodd" d="M21.1305 4.13645C20.7241 4.23345 16.063 7.65614 15.8334 8.02624C15.621 8.36837 15.6196 8.9333 15.8303 9.2727C15.9879 9.52645 20.56 12.9536 20.9281 13.0939C21.8757 13.4549 22.7398 12.7282 22.7398 11.5704V11.2324L23.712 11.268C29.6829 11.4867 32.0445 19.0845 27.2427 22.6268C25.8844 23.6288 24.7538 23.8959 21.8699 23.896C19.9393 23.8961 20.1472 23.5874 20.1472 26.4546V28.7397L20.3348 28.8883C20.5763 29.0796 24.4218 29.0559 25.4688 28.8566C27.5563 28.4595 30.3129 27.1322 30.3129 26.5241C30.3129 25.9144 29.845 25.8195 29.153 26.2891C27.4558 27.4409 25.6867 27.9185 22.8933 27.979L21.1706 28.0162V26.4688V24.9215L22.5181 24.9193C24.5686 24.9161 25.4472 24.7587 26.6628 24.1768C31.902 21.6684 32.2916 14.3973 27.3534 11.2909C26.1035 10.5047 25.0048 10.2156 23.2083 10.2003C21.6818 10.1873 21.7193 10.1646 21.7096 11.1064C21.7013 11.9129 21.6556 12.0972 21.4572 12.126C21.3201 12.1458 16.8285 8.92578 16.698 8.71407C16.6273 8.59963 16.7424 8.50666 19.0611 6.80424C21.7957 4.79646 21.6953 4.8195 21.7096 6.19749C21.7195 7.14672 21.6381 7.10352 23.5145 7.1565C25.5579 7.21419 26.6501 7.46316 28.1329 8.20923C34.1577 11.2406 35.7936 19.0752 31.4765 24.2227C30.8651 24.9517 30.8938 25.4683 31.5457 25.4683C31.9538 25.4683 33.0319 24.0749 33.7621 22.6037C37.4867 15.0986 32.2268 6.4483 23.712 6.07553L22.7398 6.03301V5.71425C22.7398 4.66118 21.9943 3.93028 21.1305 4.13645ZM10.1521 6.13309C7.9176 6.3826 4.45519 7.96013 4.45519 8.7287C4.45519 9.32506 4.91503 9.38652 5.65999 8.88982C7.57244 7.61478 9.21539 7.15862 12.1136 7.09798L13.8704 7.06121V8.60852V10.1558L12.4888 10.158C10.3548 10.1612 9.5072 10.3175 8.24174 10.9413C1.59945 14.2153 3.44708 24.1361 10.8337 24.8588C12.9406 25.0649 13.253 24.9508 13.2632 23.9709C13.2715 23.167 13.3174 22.9801 13.5134 22.9516C13.6431 22.9327 17.4665 25.6559 18.1607 26.2616C18.3958 26.4666 18.5227 26.3529 15.8831 28.3006C13.2015 30.2793 13.2778 30.2615 13.2632 28.911C13.2525 27.9315 13.3282 27.9734 11.4716 27.9211C9.78399 27.8735 9.10876 27.7634 7.96726 27.3494C1.28568 24.926 -1.07079 16.7998 3.26635 11.1381C3.80581 10.4339 3.85521 10.2791 3.63149 9.99416C3.27372 9.53834 2.85249 9.84391 1.92714 11.2304C-3.16117 18.8546 2.42341 29.023 11.699 29.023H12.233L12.2334 29.3819C12.2345 30.4714 12.9564 31.1466 13.867 30.9099C14.3028 30.7967 18.9058 27.4274 19.1398 27.0504C19.352 26.7084 19.3529 26.1437 19.1417 25.8036C18.9864 25.5532 14.3991 22.1185 14.0348 21.9797C13.1006 21.6238 12.233 22.355 12.233 23.4984V23.8277H11.4796C5.41568 23.8277 2.85181 16.0481 7.73004 12.4505C9.09184 11.4461 10.2172 11.1814 13.1251 11.1813C15.099 11.1812 14.8938 11.4775 14.8938 8.62732V6.38985L14.7263 6.22209L14.5589 6.05427L12.6283 6.06323C11.5666 6.06815 10.4523 6.09959 10.1521 6.13309ZM15.2468 14.689C15.0369 14.9129 15.0508 15.2353 15.2782 15.4145C15.4519 15.5514 15.5348 15.5562 17.7225 15.5562H19.9869L20.1353 15.398C20.3324 15.1878 20.3281 14.87 20.1258 14.6794C19.9701 14.533 19.935 14.5308 17.6815 14.5308H15.3952L15.2468 14.689ZM12.0531 16.9344C11.7578 17.0789 11.6858 17.4315 11.8968 17.7003L12.0382 17.8804H17.6911H23.3439L23.4853 17.7003C23.6616 17.4758 23.6653 17.2597 23.4963 17.0506L23.3659 16.8892L17.7824 16.8761C14.0175 16.8673 12.1514 16.8863 12.0531 16.9344ZM11.8968 19.4278C11.7351 19.6338 11.7245 19.7203 11.8325 19.9575C11.978 20.2777 11.9538 20.2764 17.8165 20.2572L23.3659 20.2388L23.4963 20.0774C23.6653 19.8684 23.6616 19.6523 23.4853 19.4278L23.3439 19.2476H17.6911H12.0382L11.8968 19.4278Z" fill="#08294F"/>
</svg>
