<svg width="35" height="35" viewBox="0 0 35 35" fill="none" xmlns="http://www.w3.org/2000/svg">
<mask id="path-1-inside-1_1242_1711" fill="white">
<path fill-rule="evenodd" clip-rule="evenodd" d="M16.1056 5.5513C8.79855 6.40053 3.8883 13.734 5.91337 20.7736C8.12706 28.4689 17.0564 31.9404 23.8319 27.7399C24.7875 27.1475 24.9666 26.7884 24.5429 26.3143C24.2426 25.9782 23.9545 26.0074 23.2972 26.4408C17.9876 29.9414 10.6444 27.8843 7.89053 22.1246C4.88778 15.8444 8.63804 8.37454 15.4543 7.05917C23.6908 5.46968 30.3456 13.4127 27.4278 21.3506C27.1604 22.0781 27.1624 22.2622 27.4409 22.5407C28.4032 23.503 29.4852 20.8406 29.4852 17.5104C29.4852 10.2801 23.2639 4.71937 16.1056 5.5513ZM16.9047 9.03585C16.3093 9.21967 15.6718 9.87783 15.5111 10.4747C15.3501 11.0726 15.4567 17.7091 15.6326 18.0382C16.4727 19.6104 18.5172 19.6104 19.3573 18.0382L19.5116 17.7496V14.0924V10.4352L19.3573 10.1466C18.8714 9.23731 17.8097 8.7564 16.9047 9.03585ZM17.9461 10.5651L18.1785 10.7975V14.0924V17.3873L17.9461 17.6197C17.7786 17.7872 17.6526 17.8522 17.495 17.8522C17.3373 17.8522 17.2113 17.7872 17.0438 17.6197L16.8114 17.3873V14.0924V10.7975L17.0438 10.5651C17.2113 10.3976 17.3373 10.3326 17.495 10.3326C17.6526 10.3326 17.7786 10.3976 17.9461 10.5651ZM1.53304 11.0669C0.648951 11.2696 -0.228579 16.007 0.0538824 19.0528C0.274546 21.433 0.900445 23.6991 1.39407 23.9055C2.20467 24.2441 2.47606 23.6335 2.08703 22.346C1.14818 19.2396 1.1503 15.8446 2.09277 12.8098C2.51714 11.4432 2.33709 10.8825 1.53304 11.0669ZM33.1003 11.0659C32.5662 11.1631 32.517 11.5857 32.8971 12.8098C33.8389 15.8421 33.8409 19.2421 32.9029 22.346C32.5681 23.4539 32.6331 23.8261 33.1854 23.9647C33.7138 24.0973 33.9523 23.7597 34.3468 22.3205C35.2695 18.955 35.1958 15.3838 34.1361 12.1059C33.8448 11.2046 33.6135 10.9725 33.1003 11.0659ZM3.87948 12.1464C3.19363 12.5188 2.53854 16.6773 2.79215 19.0484C3.12219 22.1345 3.84366 23.5843 4.64866 22.7793C4.89434 22.5336 4.90822 22.2501 4.70574 21.6119C3.91995 19.1352 3.9354 15.7814 4.74354 13.4139C5.09395 12.3876 4.64579 11.7302 3.87948 12.1464ZM30.4072 12.1442C30.0082 12.361 30.0022 12.6009 30.3649 13.8207C31.0564 16.1456 31.035 19.1136 30.3094 21.5193C30.0822 22.2723 30.0887 22.5267 30.3413 22.7793C31.8666 24.3046 32.8664 17.8347 31.7523 13.6481C31.3523 12.1447 31.0428 11.7987 30.4072 12.1442ZM13.0439 15.2203C12.6178 15.4519 12.5613 17.5209 12.9499 18.6657C13.4813 20.231 14.8878 21.5101 16.4344 21.8345L16.8114 21.9136V23.3008V24.6881H16.056C15.0777 24.6881 14.7606 24.8554 14.7606 25.3717C14.7606 26.0117 14.9345 26.0553 17.4883 26.0553C20.0431 26.0553 20.2293 26.0088 20.2293 25.3717C20.2293 24.8572 19.9072 24.6881 18.9273 24.6881H18.1785V23.2955V21.9029L18.4593 21.858C19.5978 21.6759 20.8695 20.7768 21.5629 19.6637C22.3734 18.3625 22.6056 15.5654 21.9321 15.2171C21.2257 14.8519 20.9133 15.2652 20.9119 16.567C20.9093 18.9378 19.7518 20.3975 17.745 20.5608C15.5738 20.7375 14.0808 19.1143 14.078 16.5736C14.0765 15.2695 13.747 14.8382 13.0439 15.2203ZM25.8295 24.2043C25.4953 24.5386 25.5888 25.0667 26.0183 25.2706C26.3222 25.4148 26.6027 25.3512 26.8242 25.088C27.3756 24.4326 26.436 23.5978 25.8295 24.2043Z"/>
</mask>
<path fill-rule="evenodd" clip-rule="evenodd" d="M16.1056 5.5513C8.79855 6.40053 3.8883 13.734 5.91337 20.7736C8.12706 28.4689 17.0564 31.9404 23.8319 27.7399C24.7875 27.1475 24.9666 26.7884 24.5429 26.3143C24.2426 25.9782 23.9545 26.0074 23.2972 26.4408C17.9876 29.9414 10.6444 27.8843 7.89053 22.1246C4.88778 15.8444 8.63804 8.37454 15.4543 7.05917C23.6908 5.46968 30.3456 13.4127 27.4278 21.3506C27.1604 22.0781 27.1624 22.2622 27.4409 22.5407C28.4032 23.503 29.4852 20.8406 29.4852 17.5104C29.4852 10.2801 23.2639 4.71937 16.1056 5.5513ZM16.9047 9.03585C16.3093 9.21967 15.6718 9.87783 15.5111 10.4747C15.3501 11.0726 15.4567 17.7091 15.6326 18.0382C16.4727 19.6104 18.5172 19.6104 19.3573 18.0382L19.5116 17.7496V14.0924V10.4352L19.3573 10.1466C18.8714 9.23731 17.8097 8.7564 16.9047 9.03585ZM17.9461 10.5651L18.1785 10.7975V14.0924V17.3873L17.9461 17.6197C17.7786 17.7872 17.6526 17.8522 17.495 17.8522C17.3373 17.8522 17.2113 17.7872 17.0438 17.6197L16.8114 17.3873V14.0924V10.7975L17.0438 10.5651C17.2113 10.3976 17.3373 10.3326 17.495 10.3326C17.6526 10.3326 17.7786 10.3976 17.9461 10.5651ZM1.53304 11.0669C0.648951 11.2696 -0.228579 16.007 0.0538824 19.0528C0.274546 21.433 0.900445 23.6991 1.39407 23.9055C2.20467 24.2441 2.47606 23.6335 2.08703 22.346C1.14818 19.2396 1.1503 15.8446 2.09277 12.8098C2.51714 11.4432 2.33709 10.8825 1.53304 11.0669ZM33.1003 11.0659C32.5662 11.1631 32.517 11.5857 32.8971 12.8098C33.8389 15.8421 33.8409 19.2421 32.9029 22.346C32.5681 23.4539 32.6331 23.8261 33.1854 23.9647C33.7138 24.0973 33.9523 23.7597 34.3468 22.3205C35.2695 18.955 35.1958 15.3838 34.1361 12.1059C33.8448 11.2046 33.6135 10.9725 33.1003 11.0659ZM3.87948 12.1464C3.19363 12.5188 2.53854 16.6773 2.79215 19.0484C3.12219 22.1345 3.84366 23.5843 4.64866 22.7793C4.89434 22.5336 4.90822 22.2501 4.70574 21.6119C3.91995 19.1352 3.9354 15.7814 4.74354 13.4139C5.09395 12.3876 4.64579 11.7302 3.87948 12.1464ZM30.4072 12.1442C30.0082 12.361 30.0022 12.6009 30.3649 13.8207C31.0564 16.1456 31.035 19.1136 30.3094 21.5193C30.0822 22.2723 30.0887 22.5267 30.3413 22.7793C31.8666 24.3046 32.8664 17.8347 31.7523 13.6481C31.3523 12.1447 31.0428 11.7987 30.4072 12.1442ZM13.0439 15.2203C12.6178 15.4519 12.5613 17.5209 12.9499 18.6657C13.4813 20.231 14.8878 21.5101 16.4344 21.8345L16.8114 21.9136V23.3008V24.6881H16.056C15.0777 24.6881 14.7606 24.8554 14.7606 25.3717C14.7606 26.0117 14.9345 26.0553 17.4883 26.0553C20.0431 26.0553 20.2293 26.0088 20.2293 25.3717C20.2293 24.8572 19.9072 24.6881 18.9273 24.6881H18.1785V23.2955V21.9029L18.4593 21.858C19.5978 21.6759 20.8695 20.7768 21.5629 19.6637C22.3734 18.3625 22.6056 15.5654 21.9321 15.2171C21.2257 14.8519 20.9133 15.2652 20.9119 16.567C20.9093 18.9378 19.7518 20.3975 17.745 20.5608C15.5738 20.7375 14.0808 19.1143 14.078 16.5736C14.0765 15.2695 13.747 14.8382 13.0439 15.2203ZM25.8295 24.2043C25.4953 24.5386 25.5888 25.0667 26.0183 25.2706C26.3222 25.4148 26.6027 25.3512 26.8242 25.088C27.3756 24.4326 26.436 23.5978 25.8295 24.2043Z" fill="#08294F" stroke="white" stroke-width="0.4" mask="url(#path-1-inside-1_1242_1711)"/>
</svg>
