<svg width="35" height="35" viewBox="0 0 35 35" fill="none" xmlns="http://www.w3.org/2000/svg">
<mask id="path-1-inside-1_1242_1713" fill="white">
<path fill-rule="evenodd" clip-rule="evenodd" d="M21.934 0.0928985C12.4008 1.51826 10.2241 14.2548 18.7493 18.7277C20.8089 19.8082 24.3261 20.2213 26.9243 19.6878L27.5737 19.5544L28.9478 20.9153C30.509 22.4615 30.6423 22.5335 31.0995 22.0764L31.2993 21.8766V19.784V17.6913L31.9711 17.0272C37.927 11.1396 34.553 1.14194 26.2469 0.0655548C25.4779 -0.0341132 22.6642 -0.0162714 21.934 0.0928985ZM25.9528 1.4309C32.594 2.15804 35.8974 9.87437 31.8252 15.1482C31.5493 15.5056 31.2305 15.8322 30.2568 16.7552L29.9321 17.0629V18.4391C29.9321 19.196 29.9084 19.8153 29.8796 19.8153C29.8507 19.8153 29.5046 19.4907 29.1106 19.094C28.0086 17.9849 28.0889 18.0115 26.7253 18.304C25.4051 18.587 22.6455 18.5579 21.353 18.2472C14.8631 16.6869 12.5719 8.59927 17.2846 3.8865C19.3403 1.8308 22.2017 1.02019 25.9528 1.4309ZM23.643 4.86965C22.3136 5.25854 21.4261 6.49127 21.5143 7.82598C21.5519 8.39289 22.8178 8.49208 22.8231 7.92852C22.8291 7.29463 23.1589 6.64179 23.6035 6.38374C25.0787 5.52754 26.6251 7.36647 25.5177 8.66017C25.3118 8.9008 25.141 8.99965 24.546 9.22257C23.8427 9.48602 23.7114 9.80041 23.7114 11.2206C23.7114 12.445 23.7437 12.5493 24.1742 12.7129C24.7924 12.9479 25.039 12.5856 25.0667 11.4018C25.0823 10.7313 25.1126 10.45 25.1692 10.45C25.6636 10.4496 26.6652 9.598 27.0026 8.89102C28.0275 6.74372 25.9081 4.20697 23.643 4.86965ZM3.78463 11.9859C1.88999 12.3992 0.385875 13.9614 0.0602792 15.854C0.00764247 16.1601 -0.00931065 18.1017 0.00470302 22.2078L0.024869 28.1209L0.217642 28.6678C0.749478 30.1766 1.79968 31.2266 3.30612 31.7555L3.85299 31.9476L6.34811 31.9687L8.84323 31.9899L10.2788 33.4148C11.9625 35.0861 12.0096 35.1183 12.4682 34.9094C12.7987 34.7588 12.8423 34.562 12.8423 33.2203V31.9897L16.6533 31.9694L20.4643 31.9491L21.0112 31.7563C22.5197 31.2245 23.5683 30.1759 24.0995 28.6678L24.2922 28.1209L24.3136 25.2569C24.3384 21.9242 24.3138 21.7977 23.643 21.7977C22.991 21.7977 22.9594 21.9419 22.9594 24.924C22.9594 28.2211 22.8625 28.6622 21.934 29.5907C20.9438 30.5809 20.7382 30.616 15.9344 30.616C11.1512 30.616 11.4751 30.5269 11.4751 31.8431C11.4751 32.6937 11.5343 32.7059 10.4869 31.6392C9.37418 30.506 9.75781 30.616 6.92096 30.616C3.76871 30.616 3.30352 30.5109 2.38327 29.5907C1.34872 28.5561 1.35788 28.6244 1.35788 21.9344C1.35788 15.2444 1.34872 15.3127 2.38327 14.2782C3.36477 13.2966 3.61121 13.2528 8.14371 13.2528C12.0797 13.2528 12.0847 13.2524 12.2663 12.9011C12.4493 12.5472 12.3224 12.1189 11.9897 11.9673C11.7225 11.8455 4.35133 11.8623 3.78463 11.9859ZM24.0939 14.1775C23.4632 14.5063 23.6586 15.4403 24.3579 15.4403C25.1093 15.4403 25.3212 14.4582 24.6319 14.1702C24.3447 14.0502 24.3376 14.0503 24.0939 14.1775ZM4.03141 17.4498C3.57327 17.7036 3.58831 18.4267 4.05616 18.6398C4.19001 18.7009 5.53156 18.7215 9.35592 18.7215C13.1803 18.7215 14.5218 18.7009 14.6557 18.6398C15.1325 18.4226 15.1325 17.6533 14.6557 17.436C14.3812 17.3109 4.25823 17.324 4.03141 17.4498ZM4.03141 21.2779C3.57327 21.5318 3.58831 22.2548 4.05616 22.4679C4.34511 22.5996 18.8657 22.5844 19.1214 22.4522C19.5763 22.2169 19.5763 21.5152 19.1214 21.2799C18.8507 21.1399 4.28386 21.1379 4.03141 21.2779ZM4.03141 25.106C3.57327 25.3599 3.58831 26.0829 4.05616 26.2961C4.19083 26.3575 5.73937 26.3778 10.2809 26.3778H16.3264L16.5419 26.1853C16.8514 25.9087 16.8514 25.4797 16.5419 25.2031L16.3264 25.0106L10.2606 25.013C5.35697 25.015 4.16348 25.0328 4.03141 25.106ZM18.4552 25.106C17.8626 25.4345 18.1106 26.3778 18.7895 26.3778C19.1359 26.3778 19.4731 26.0438 19.4731 25.7008C19.4731 25.1876 18.9059 24.8562 18.4552 25.106Z"/>
</mask>
<path fill-rule="evenodd" clip-rule="evenodd" d="M21.934 0.0928985C12.4008 1.51826 10.2241 14.2548 18.7493 18.7277C20.8089 19.8082 24.3261 20.2213 26.9243 19.6878L27.5737 19.5544L28.9478 20.9153C30.509 22.4615 30.6423 22.5335 31.0995 22.0764L31.2993 21.8766V19.784V17.6913L31.9711 17.0272C37.927 11.1396 34.553 1.14194 26.2469 0.0655548C25.4779 -0.0341132 22.6642 -0.0162714 21.934 0.0928985ZM25.9528 1.4309C32.594 2.15804 35.8974 9.87437 31.8252 15.1482C31.5493 15.5056 31.2305 15.8322 30.2568 16.7552L29.9321 17.0629V18.4391C29.9321 19.196 29.9084 19.8153 29.8796 19.8153C29.8507 19.8153 29.5046 19.4907 29.1106 19.094C28.0086 17.9849 28.0889 18.0115 26.7253 18.304C25.4051 18.587 22.6455 18.5579 21.353 18.2472C14.8631 16.6869 12.5719 8.59927 17.2846 3.8865C19.3403 1.8308 22.2017 1.02019 25.9528 1.4309ZM23.643 4.86965C22.3136 5.25854 21.4261 6.49127 21.5143 7.82598C21.5519 8.39289 22.8178 8.49208 22.8231 7.92852C22.8291 7.29463 23.1589 6.64179 23.6035 6.38374C25.0787 5.52754 26.6251 7.36647 25.5177 8.66017C25.3118 8.9008 25.141 8.99965 24.546 9.22257C23.8427 9.48602 23.7114 9.80041 23.7114 11.2206C23.7114 12.445 23.7437 12.5493 24.1742 12.7129C24.7924 12.9479 25.039 12.5856 25.0667 11.4018C25.0823 10.7313 25.1126 10.45 25.1692 10.45C25.6636 10.4496 26.6652 9.598 27.0026 8.89102C28.0275 6.74372 25.9081 4.20697 23.643 4.86965ZM3.78463 11.9859C1.88999 12.3992 0.385875 13.9614 0.0602792 15.854C0.00764247 16.1601 -0.00931065 18.1017 0.00470302 22.2078L0.024869 28.1209L0.217642 28.6678C0.749478 30.1766 1.79968 31.2266 3.30612 31.7555L3.85299 31.9476L6.34811 31.9687L8.84323 31.9899L10.2788 33.4148C11.9625 35.0861 12.0096 35.1183 12.4682 34.9094C12.7987 34.7588 12.8423 34.562 12.8423 33.2203V31.9897L16.6533 31.9694L20.4643 31.9491L21.0112 31.7563C22.5197 31.2245 23.5683 30.1759 24.0995 28.6678L24.2922 28.1209L24.3136 25.2569C24.3384 21.9242 24.3138 21.7977 23.643 21.7977C22.991 21.7977 22.9594 21.9419 22.9594 24.924C22.9594 28.2211 22.8625 28.6622 21.934 29.5907C20.9438 30.5809 20.7382 30.616 15.9344 30.616C11.1512 30.616 11.4751 30.5269 11.4751 31.8431C11.4751 32.6937 11.5343 32.7059 10.4869 31.6392C9.37418 30.506 9.75781 30.616 6.92096 30.616C3.76871 30.616 3.30352 30.5109 2.38327 29.5907C1.34872 28.5561 1.35788 28.6244 1.35788 21.9344C1.35788 15.2444 1.34872 15.3127 2.38327 14.2782C3.36477 13.2966 3.61121 13.2528 8.14371 13.2528C12.0797 13.2528 12.0847 13.2524 12.2663 12.9011C12.4493 12.5472 12.3224 12.1189 11.9897 11.9673C11.7225 11.8455 4.35133 11.8623 3.78463 11.9859ZM24.0939 14.1775C23.4632 14.5063 23.6586 15.4403 24.3579 15.4403C25.1093 15.4403 25.3212 14.4582 24.6319 14.1702C24.3447 14.0502 24.3376 14.0503 24.0939 14.1775ZM4.03141 17.4498C3.57327 17.7036 3.58831 18.4267 4.05616 18.6398C4.19001 18.7009 5.53156 18.7215 9.35592 18.7215C13.1803 18.7215 14.5218 18.7009 14.6557 18.6398C15.1325 18.4226 15.1325 17.6533 14.6557 17.436C14.3812 17.3109 4.25823 17.324 4.03141 17.4498ZM4.03141 21.2779C3.57327 21.5318 3.58831 22.2548 4.05616 22.4679C4.34511 22.5996 18.8657 22.5844 19.1214 22.4522C19.5763 22.2169 19.5763 21.5152 19.1214 21.2799C18.8507 21.1399 4.28386 21.1379 4.03141 21.2779ZM4.03141 25.106C3.57327 25.3599 3.58831 26.0829 4.05616 26.2961C4.19083 26.3575 5.73937 26.3778 10.2809 26.3778H16.3264L16.5419 26.1853C16.8514 25.9087 16.8514 25.4797 16.5419 25.2031L16.3264 25.0106L10.2606 25.013C5.35697 25.015 4.16348 25.0328 4.03141 25.106ZM18.4552 25.106C17.8626 25.4345 18.1106 26.3778 18.7895 26.3778C19.1359 26.3778 19.4731 26.0438 19.4731 25.7008C19.4731 25.1876 18.9059 24.8562 18.4552 25.106Z" fill="#08294F" stroke="white" stroke-width="0.4" mask="url(#path-1-inside-1_1242_1713)"/>
</svg>
