<svg width="35" height="35" viewBox="0 0 35 35" fill="none" xmlns="http://www.w3.org/2000/svg">
<path fill-rule="evenodd" clip-rule="evenodd" d="M8.07305 0.97155C6.59163 1.50018 6.66662 3.65359 8.18181 4.09411L8.5439 4.19935L8.54396 5.31472C8.54409 7.8123 8.89028 9.51142 9.78022 11.3817C10.3107 12.4967 10.5812 12.7368 10.966 12.4341C11.2531 12.2083 11.2387 12.117 10.7591 11.1274C9.84534 9.24178 9.52337 7.68044 9.51928 5.11533L9.51779 4.19014H17.244H24.9702L24.9692 5.01794C24.9639 9.63984 23.617 12.5846 20.2752 15.2811C18.6487 16.5935 18.6838 18.4345 20.361 19.7908C22.191 21.2707 23.3027 22.7395 24.1554 24.8042C24.4597 25.5412 24.6258 25.6935 24.9695 25.5512C26.0193 25.1163 23.6045 21.0913 21.1344 19.1591C19.6847 18.0249 19.6863 16.9642 21.1396 15.8418C24.2242 13.4594 25.825 10.0894 25.9255 5.76661L25.9621 4.1941L26.3152 4.09145C27.8404 3.64807 27.8644 1.36786 26.3483 0.946813C25.9507 0.836373 8.38515 0.860136 8.07305 0.97155ZM26.2615 2.019C26.6036 2.30682 26.574 2.88824 26.2074 3.08444C26.0336 3.17748 8.45437 3.17748 8.28062 3.08444C7.91398 2.88824 7.88444 2.30682 8.22647 2.019L8.42398 1.85279H17.244H26.064L26.2615 2.019ZM10.716 7.20628C10.4773 7.44488 10.5547 8.01935 11.0103 9.39209C12.3797 13.5181 15.7427 15.7985 18.8672 14.7197C21.1591 13.9284 23.1904 11.2331 23.8283 8.13713C23.9646 7.47559 23.9596 7.39385 23.772 7.20628L23.6127 7.04689H17.244H10.8753L10.716 7.20628ZM22.7929 8.23179C22.0956 11.4936 19.7158 13.9482 17.244 13.9552C14.7953 13.962 12.3553 11.4462 11.6935 8.23179L11.65 8.02078H17.244H22.838L22.7929 8.23179ZM11.6899 13.569C11.3291 13.9298 11.9216 14.7419 13.3484 15.8424C14.8034 16.9645 14.8034 18.0344 13.3484 19.1582C10.1658 21.6164 8.54676 25.1762 8.54448 29.7211L8.5439 30.8074L8.36535 30.8458C6.70727 31.2025 6.49924 33.4668 8.07305 34.0285C8.38515 34.1399 25.9507 34.1636 26.3483 34.0532C27.8703 33.6305 27.8399 31.3518 26.3062 30.9059L25.9441 30.8006L25.944 29.6853C25.9439 27.1961 25.751 26.5452 25.1114 26.876C24.8399 27.0164 24.8279 27.0915 24.9025 28.1884C24.9387 28.7196 24.9687 29.5268 24.9692 29.9821L24.9702 30.8099H17.244H9.51779L9.51877 30.0145C9.52467 25.36 10.865 22.4202 14.2129 19.7189C15.8025 18.4362 15.8025 16.5647 14.2129 15.2808C13.9338 15.0555 13.3658 14.5422 12.9505 14.1403C12.1234 13.3399 11.9827 13.2762 11.6899 13.569ZM16.9992 15.5307C16.5865 15.6968 16.6555 16.9768 17.0829 17.0841C17.5152 17.1926 17.7634 16.9063 17.7634 16.2989C17.7634 15.6541 17.4573 15.3464 16.9992 15.5307ZM16.9992 18.0628C16.5865 18.2289 16.6555 19.5089 17.0829 19.6162C17.5152 19.7247 17.7634 19.4384 17.7634 18.831C17.7634 18.1862 17.4573 17.8785 16.9992 18.0628ZM16.9992 20.595C16.5865 20.761 16.6555 22.0411 17.0829 22.1483C17.5152 22.2568 17.7634 21.9705 17.7634 21.3631C17.7634 20.7183 17.4573 20.4106 16.9992 20.595ZM16.1727 22.9603C13.6368 23.3223 11.1349 25.5375 10.5921 27.9014C10.3689 28.8734 10.384 29.5358 10.6346 29.7692C10.8029 29.9261 23.4224 29.9821 23.7616 29.8275C24.0148 29.7122 24.085 29.4541 24.034 28.8265C23.7375 25.1706 20.0364 22.4088 16.1727 22.9603ZM18.7048 24.0558C20.9373 24.6271 23.0131 26.868 23.0215 28.716L23.0224 28.927H17.244H11.4656V28.6929C11.4656 27.8593 12.0352 26.6972 12.8869 25.7935C14.4074 24.1803 16.6147 23.521 18.7048 24.0558ZM26.2074 31.9156C26.5557 32.1019 26.6032 32.6687 26.295 32.9583L26.1284 33.1147L17.2771 33.1317L8.42567 33.1486L8.22725 32.9816C7.8897 32.6976 7.91158 32.1264 8.26796 31.9188C8.42671 31.8264 26.0348 31.8232 26.2074 31.9156Z" fill="#08294F"/>
</svg>
