<svg width="35" height="36" viewBox="0 0 35 36" fill="none" xmlns="http://www.w3.org/2000/svg">
<path fill-rule="evenodd" clip-rule="evenodd" d="M18.4951 0.222278C18.0467 0.445676 18.5041 -0.190271 13.3413 7.38914L9.15059 13.5415L7.91185 13.5601L6.67311 13.5787L6.70537 13.355C6.73183 13.1708 7.28027 7.67283 7.28027 7.59115C7.28027 7.57727 7.48583 7.46461 7.73705 7.34081C8.17995 7.12254 8.88405 6.51435 9.16617 6.10645L9.29688 5.9175L11.3066 6.11793C13.4365 6.33039 13.5804 6.32506 13.7156 6.02838C13.9847 5.43769 13.7405 5.34253 11.341 5.103C8.74713 4.84399 8.98912 4.79039 8.06483 5.82863C7.85381 6.06564 7.57251 6.27454 7.21137 6.4624C6.27717 6.94843 6.33261 6.76618 5.96299 10.5679L5.67383 13.5415L5.3833 13.5625C5.01443 13.5892 4.99892 14.0847 5.53684 8.65379C5.78074 6.19114 5.98056 4.1364 5.9809 4.08773C5.98117 4.03899 6.05698 3.92366 6.14927 3.83138C6.37417 3.60641 6.2637 3.60128 10.7155 4.04309C14.917 4.46001 14.8029 4.46029 14.9099 4.03365C15.0529 3.46374 14.9662 3.43886 11.7236 3.12051C5.8154 2.54048 6.24606 2.55573 5.69187 2.90716C5.03303 3.32497 5.05716 3.21826 4.60865 7.68562C4.391 9.85363 4.21094 11.6351 4.20855 11.6445C4.20608 11.6539 3.88671 11.6616 3.49877 11.6616C2.03711 11.6616 1.26465 12.2569 1.26465 13.3832C1.26465 13.7671 1.25679 13.784 1.00543 13.9427C0.664522 14.1579 0.322383 14.5538 0.143965 14.9394L0 15.2505V24.3423V33.4341L0.181152 33.7759C0.411865 34.211 0.795293 34.5945 1.23047 34.8252L1.57227 35.0063H16.0986H30.625L30.9668 34.8252C31.429 34.5801 31.8037 34.1943 32.0186 33.7417L32.1973 33.3657L32.2174 30.76L32.2375 28.1545L32.6804 28.1189C33.2004 28.0772 33.5178 27.8935 33.7338 27.5092C33.9531 27.119 33.9201 21.3519 33.6969 21.0531C33.4295 20.6951 33.2165 20.5886 32.7108 20.56L32.2374 20.5332L32.2174 17.8919C32.1945 14.8836 32.2025 14.9297 31.5869 14.2715C31.2786 13.9419 31.2744 13.9312 31.2737 13.466C31.2723 12.4233 30.5284 11.6616 29.5116 11.6616C29.2141 11.6616 29.1968 11.7006 30.0421 10.4647C30.9552 9.12964 30.9622 9.11515 30.9619 8.58543C30.9615 7.64009 31.3112 7.93239 25.1904 3.76206C19.1008 -0.386941 19.4001 -0.228757 18.4951 0.222278ZM19.7909 1.31651C22.6508 3.22715 29.6453 8.03124 29.7876 8.18259C30.1232 8.53943 30.1068 8.57333 28.3497 11.1537L26.7237 13.5415L26.3672 13.5621C25.9167 13.5882 25.88 13.6934 26.7961 12.3346C27.8463 10.777 27.8432 10.79 27.4064 9.74754C27.2478 9.3689 27.2184 9.19574 27.2078 8.57675C27.1885 7.45757 27.5289 7.76553 22.705 4.50369L21.1423 3.44706L20.7567 3.47646C20.5446 3.49266 20.1711 3.59246 19.9268 3.69835C19.5359 3.86768 19.3903 3.89229 18.7161 3.90281C17.6006 3.92031 17.9402 3.53723 14.2916 8.89305L11.1249 13.5415L10.7661 13.5625C10.4709 13.5797 10.4141 13.5653 10.4463 13.4815C10.5206 13.2878 18.7056 1.30475 18.845 1.18553C19.0674 0.995286 19.3737 1.03767 19.7909 1.31651ZM23.539 6.29327L26.1934 8.10268L26.1963 8.70793C26.1992 9.3395 26.3261 9.90887 26.5707 10.3883L26.7078 10.6572L25.727 12.1142L24.7461 13.5712L23.8833 13.5734L23.0206 13.5757L22.9742 13.2266C22.6228 10.5772 19.5151 8.98199 17.0928 10.2074C15.8622 10.8299 15.1513 11.8315 14.8354 13.3877L14.7972 13.5757H13.5972C12.6491 13.5757 12.4018 13.5571 12.4193 13.4871C12.4315 13.4385 13.7484 11.4824 15.3457 9.14044L18.25 4.88227L18.5928 4.92445C19.0116 4.97599 19.9291 4.82362 20.3427 4.63385C20.5087 4.5577 20.6985 4.49282 20.7646 4.48961C20.8306 4.48647 22.0791 5.2981 23.539 6.29327ZM19.5303 10.8492C20.7549 11.1067 21.9775 12.3848 21.9775 13.4074V13.5757H18.896H15.8143L15.8622 13.3535C16.241 11.5975 17.8536 10.4965 19.5303 10.8492ZM4.11045 12.8408C4.08782 12.9254 4.06882 13.1253 4.06834 13.2851L4.06738 13.5757H3.17871H2.29004V13.3517C2.29004 12.8396 2.54577 12.6973 3.47724 12.6913C4.14422 12.6871 4.15126 12.6887 4.11045 12.8408ZM30.0841 12.913C30.1893 13.0354 30.249 13.19 30.249 13.3402V13.5757H29.1211C28.5007 13.5757 27.9932 13.5517 27.9932 13.5226C27.9932 13.4652 28.1208 13.2648 28.3879 12.903L28.5564 12.6747L29.2379 12.6979C29.8867 12.7201 29.9272 12.7303 30.0841 12.913ZM30.4883 14.7303C31.0826 15.0046 31.2061 15.2888 31.2061 16.3828V17.1987H16.0986H0.991211V16.3828C0.991211 15.2888 1.11467 15.0046 1.70898 14.7303C2.13603 14.5332 30.0612 14.5332 30.4883 14.7303ZM31.2061 19.3862V20.5483H28.5886C25.6748 20.5483 25.5356 20.5645 24.7052 21.0009C22.1579 22.3395 22.0495 26.0778 24.5157 27.5398C25.4283 28.0808 25.5072 28.0923 28.5229 28.1208L31.2061 28.1461V29.3032V30.4604H18.9064H6.60659L6.46495 30.6406C6.38702 30.7396 6.32324 30.8739 6.32324 30.9389C6.32324 31.004 6.38702 31.1383 6.46495 31.2373L6.60659 31.4175H18.9064H31.2061V32.2504C31.2061 33.2618 31.0935 33.5733 30.6295 33.8452L30.3395 34.0151L16.0926 34.014L1.8457 34.0129L1.57363 33.8588C1.09929 33.5901 0.993672 33.3048 0.992305 32.289L0.991211 31.4175H2.42676C4.02678 31.4175 4.13574 31.387 4.13574 30.9389C4.13574 30.4909 4.02678 30.4604 2.42676 30.4604H0.991211V24.3423V18.2241H16.0986H31.2061V19.3862ZM32.8467 24.3423V27.1108H29.5688C26.0285 27.1108 25.8221 27.094 25.1742 26.7526C23.0869 25.6524 23.2873 22.6546 25.5093 21.741L25.9082 21.5769L29.3774 21.5754L32.8467 21.5737V24.3423ZM25.7715 22.4882C24.2181 23.2208 24.1905 25.3804 25.7249 26.134C27.4428 26.9776 29.2733 25.116 28.392 23.4215C27.8859 22.4483 26.7294 22.0364 25.7715 22.4882ZM27.0372 23.4365C27.9588 23.9037 27.654 25.3338 26.6329 25.3333C25.4483 25.3329 25.2116 23.692 26.3467 23.348C26.6291 23.2625 26.7157 23.2735 27.0372 23.4365Z" fill="#08294F"/>
</svg>
