<svg width="35" height="35" viewBox="0 0 35 35" fill="none" xmlns="http://www.w3.org/2000/svg">
<path fill-rule="evenodd" clip-rule="evenodd" d="M20.3224 0.095166C18.9133 0.397588 17.7111 1.31559 16.9518 2.66896C16.596 3.303 16.5423 3.338 15.9217 3.33902C13.284 3.34354 10.9146 5.88493 10.711 8.92809C10.665 9.61448 10.66 9.63075 10.4858 9.665C7.42711 10.2672 6.21783 13.7237 8.29069 15.9396C8.63885 16.3117 8.71226 16.4351 8.77071 16.7459C9.11558 18.581 10.1391 19.6627 11.7412 19.8855L12.2424 19.9553L13.0417 20.7487L13.8411 21.5421L13.8175 22.1499C13.7895 22.8747 13.952 22.7437 12.2559 23.4093C11.5228 23.697 10.8523 23.9967 10.7659 24.0752C10.545 24.2761 10.5813 24.6365 10.8419 24.8303L11.0342 24.9733L11.6622 24.7441C12.5747 24.4109 12.5115 24.4091 13.2945 24.7901C16.0116 26.1124 19.0016 26.0991 21.6442 24.7529L22.385 24.3755L24.6862 25.281C27.2506 26.2902 27.4014 26.3636 27.8518 26.8206C28.7485 27.7306 29.6876 31.1034 29.6876 33.414V33.9635H27.7467C25.5834 33.9635 25.7227 33.9975 25.7227 33.4705C25.7227 32.3131 25.397 31.374 24.9935 31.3681C24.4919 31.3607 24.3994 31.6185 24.5635 32.5661C24.6347 32.9775 24.694 33.4602 24.6952 33.6388L24.6974 33.9635H17.5196H10.3419L10.344 33.6388C10.3452 33.4602 10.4045 32.9775 10.4757 32.5661C10.6398 31.6185 10.5473 31.3607 10.0458 31.3681C9.64222 31.374 9.31649 32.3131 9.31649 33.4705C9.31649 33.9975 9.45581 33.9635 7.29258 33.9635H5.35165V33.3518C5.35165 32.0958 5.65168 30.412 6.14154 28.9192C6.78214 26.9668 7.10657 26.5885 8.69914 25.9373C9.20028 25.7323 9.63676 25.5241 9.66909 25.4745C9.86822 25.1693 9.75037 24.7927 9.41582 24.6654C8.98782 24.5027 6.95509 25.5041 6.35222 26.1746C5.28698 27.3594 4.36461 30.5986 4.30924 33.3492C4.28941 34.3343 4.37466 34.5639 4.86199 34.8377L5.13098 34.9889H17.5146C31.4947 34.9889 30.2266 35.0401 30.5864 34.4613C30.9893 33.8134 30.6048 30.687 29.8499 28.4731C28.9725 25.8997 28.8471 25.797 24.4923 24.084C20.7859 22.626 21.2136 22.8869 21.212 22.0828L21.211 21.5154L21.8336 20.9229C22.5654 20.2266 22.9154 19.7863 23.368 18.9928C23.5503 18.6733 23.7044 18.4032 23.7104 18.3928C23.7164 18.3824 23.9948 18.465 24.329 18.5763C26.7247 19.3746 28.2362 19.0673 27.1322 18.0065C26.7457 17.6351 26.4867 17.1925 26.3406 16.6542L26.2533 16.3322L26.6418 15.9029C27.9536 14.4532 27.941 12.302 26.612 10.8367L26.2283 10.4137L26.2878 9.45671C26.5524 5.19813 26.0203 2.19387 24.8229 1.18632C24.191 0.654619 23.7034 1.34888 24.2212 2.04293C25.1495 3.28707 25.4442 5.22014 25.2675 8.90491L25.2225 9.84444L25.0454 9.80302C24.948 9.78025 24.7572 9.74334 24.6215 9.72106L24.3747 9.68052L24.3281 8.90218C24.134 5.65422 21.9445 3.50069 18.6305 3.2978C18.2075 3.27189 17.8614 3.23033 17.8614 3.20545C17.8614 3.07933 18.3332 2.44379 18.6744 2.11033C19.59 1.21544 20.7269 0.913769 22.4541 1.10736C23.2338 1.19479 23.6404 0.680186 23.1282 0.254102C22.8311 0.00691408 21.1714 -0.0870801 20.3224 0.095166ZM20.1072 4.59896C21.4666 5.07002 22.5471 6.13848 23.0253 7.48434C23.2131 8.01282 23.3812 10.7214 23.2263 10.7214C23.1999 10.7214 22.9587 10.6137 22.6903 10.482C22.0333 10.1599 21.2807 9.97932 20.254 9.89749C17.9128 9.71087 16.6871 9.31773 15.0806 8.23827C14.1513 7.61381 14.2721 7.56623 12.8658 9.11067L11.8116 10.2685L11.7925 9.35595C11.741 6.90499 13.0379 5.09723 15.2759 4.50018C16.1552 4.26557 19.3326 4.33058 20.1072 4.59896ZM14.8863 9.35328C16.4806 10.3291 17.7872 10.7562 19.502 10.8619C21.2077 10.967 21.7096 11.0974 22.7748 11.7118L23.3211 12.027L23.3769 12.4167C24.3657 19.326 18.7994 24.1548 14.1689 20.4047C13.6526 19.9866 13.6569 19.9497 14.2213 19.9507C14.6714 19.9515 14.6865 19.9573 14.8345 20.1859C15.2617 20.8456 17.0988 21.0923 17.8991 20.5975C18.9549 19.9447 18.8981 18.5136 17.7931 17.9242C17.5922 17.8171 17.4001 17.7966 16.5968 17.7966C15.4424 17.7966 15.1834 17.8971 14.7872 18.4993L14.55 18.8599L13.664 18.8409L12.778 18.8219L12.5919 18.505C11.8843 17.2999 11.6104 16.0438 11.6175 14.0368C11.6253 11.874 11.5152 12.1542 13.0079 10.4965C14.4399 8.90608 14.2974 8.99282 14.8863 9.35328ZM10.6554 13.3872L10.6495 16.053L10.4707 16.0532C10.1617 16.0535 9.34616 15.5951 9.03642 15.2469C7.75113 13.802 8.27258 11.5501 10.0535 10.8538C10.72 10.5933 10.6621 10.3496 10.6554 13.3872ZM25.0733 10.9736C27.0515 11.938 27.0221 14.905 25.0251 15.8497C24.3286 16.1792 24.3905 16.4167 24.3843 13.3887L24.3789 10.7246L24.5552 10.7658C24.6522 10.7884 24.8853 10.8819 25.0733 10.9736ZM25.4872 17.3864C25.5788 17.612 25.6539 17.8077 25.654 17.8212C25.6547 17.8705 25.1298 17.7473 24.6088 17.5758C23.9366 17.3546 23.9224 17.2267 24.5556 17.0985C24.7968 17.0497 25.0107 16.9933 25.0309 16.973C25.1553 16.8488 25.3349 17.0115 25.4872 17.3864ZM10.6716 17.1383C10.8929 17.1813 11.2448 17.8575 11.4147 18.5656C11.5274 19.0358 10.4645 18.2037 10.146 17.5725C9.83609 16.9583 9.81852 16.9728 10.6716 17.1383ZM17.4629 18.9693C17.6187 19.1102 17.625 19.4539 17.4748 19.6198C17.3148 19.7966 15.9233 19.8061 15.7306 19.6317C15.5748 19.4907 15.5685 19.1471 15.7187 18.9812C15.8787 18.8043 17.2702 18.7948 17.4629 18.9693ZM15.3845 22.3403C16.7137 22.8819 18.5315 22.8709 19.7483 22.3139C19.9603 22.2168 20.1454 22.1374 20.1597 22.1374C20.1739 22.1374 20.1863 22.2989 20.1871 22.4963C20.1895 23.0511 20.5257 23.6248 20.9521 23.8014C21.1011 23.863 20.8314 24.0275 20.2164 24.25C18.4312 24.8959 16.2987 24.8731 14.5249 24.189C13.9154 23.954 13.8692 23.8997 14.1529 23.7521C14.5878 23.5258 14.8536 23.0438 14.8536 22.4814C14.8536 22.2921 14.8613 22.1375 14.8707 22.1376C14.8801 22.1377 15.1113 22.2289 15.3845 22.3403Z" fill="#08294F"/>
</svg>
