<svg width="35" height="35" viewBox="0 0 35 35" fill="none" xmlns="http://www.w3.org/2000/svg">
<path fill-rule="evenodd" clip-rule="evenodd" d="M19.5924 3.61662C19.1996 3.87844 19.1717 3.97633 19.1347 5.22327L19.1006 6.37485L18.2852 6.64227C16.1535 7.34152 13.4382 9.09781 13.4382 9.77744C13.4382 10.4016 13.9636 10.4208 14.6813 9.8229C20.5528 4.93226 29.3319 6.76819 32.7359 13.5984C34.9333 18.0076 34.1053 23.2487 30.6277 26.9436C29.9657 27.6468 29.9104 27.7287 29.9275 27.9804C29.9903 28.9089 31.3035 28.0401 32.5898 26.2191C36.9694 20.0188 35.1683 11.5938 28.6397 7.74211C27.8901 7.29989 26.5087 6.70291 25.824 6.52531L25.3554 6.40377V5.31986C25.3554 4.15379 25.3238 4.01666 24.9806 3.69578L24.7977 3.52488L22.291 3.50684C19.9392 3.48995 19.7723 3.49672 19.5924 3.61662ZM24.3301 5.34058V6.16499L23.8345 6.10962C23.204 6.03907 21.2257 6.0377 20.6216 6.10736L20.1601 6.16055V5.33832V4.51609H22.2451H24.3301V5.34058ZM20.707 9.26235C10.7674 11.0428 9.72446 24.7623 19.2882 27.9254C26.6522 30.3608 33.8272 23.1713 31.391 15.7981C29.9183 11.341 25.2037 8.45687 20.707 9.26235ZM21.7324 11.0102C21.7324 11.9492 21.8042 12.104 22.2401 12.104C22.6579 12.104 22.7578 11.8847 22.7578 10.9681V10.1925L23.0825 10.2308C24.6613 10.4168 26.1034 10.97 27.2763 11.8397C27.9863 12.3661 27.9828 12.3102 27.3463 12.95C26.7267 13.5729 26.6617 13.7582 26.9588 14.0553C27.2503 14.3469 27.4287 14.2842 28.0589 13.6691C28.7081 13.0354 28.6511 13.0319 29.1744 13.7378C30.0592 14.9311 30.5395 16.1917 30.7855 17.9658L30.8258 18.2563H30.0262C29.1044 18.2563 28.9101 18.3477 28.9101 18.7809C28.9101 19.2091 29.0689 19.2817 30.0047 19.2817H30.8258L30.7855 19.5722C30.5188 21.4959 29.7047 23.4343 28.8139 24.2669L28.6365 24.4327L28.0639 23.8738C27.4284 23.2535 27.2508 23.1906 26.9588 23.4827C26.6611 23.7804 26.7263 23.9649 27.3515 24.5933L27.9122 25.1569L27.7506 25.3288C26.916 26.2172 24.8918 27.0846 23.1167 27.3145L22.7578 27.361V26.5776C22.7578 25.6681 22.6563 25.4341 22.2616 25.4341C21.8235 25.4341 21.7324 25.6251 21.7324 26.5446V27.358L21.3393 27.3116C19.8184 27.132 18.2914 26.5303 17.0987 25.6405C16.4942 25.1897 16.4911 25.253 17.1523 24.5755C17.76 23.953 17.8222 23.7735 17.5314 23.4827C17.2406 23.1919 17.0611 23.2541 16.4387 23.8618C15.7639 24.5204 15.8237 24.5155 15.3974 23.9472C14.4709 22.7122 13.8854 21.2406 13.6974 19.6748L13.6503 19.2817H14.4569C15.3833 19.2817 15.5801 19.1907 15.5801 18.7621C15.5801 18.3575 15.3526 18.2563 14.4429 18.2563C13.5422 18.2563 13.6091 18.3457 13.7744 17.3626C13.9903 16.0794 14.5757 14.7097 15.3571 13.6598C15.8381 13.0136 15.7749 13.0127 16.4345 13.6762C17.0429 14.2883 17.2329 14.3539 17.5314 14.0553C17.8222 13.7645 17.76 13.5851 17.1523 12.9626C16.4901 12.2841 16.4913 12.3609 17.1359 11.8811C18.3442 10.9817 20.2271 10.2733 21.6128 10.1966C21.7204 10.1906 21.7324 10.272 21.7324 11.0102ZM12.0888 11.0604C11.2537 12.0116 10.3009 13.9554 9.88511 15.5561C7.61469 24.2979 14.9668 32.5922 23.943 31.4155C26.285 31.1085 29.2519 29.8344 29.2519 29.1357C29.2519 28.5343 28.8494 28.4847 27.982 28.979C24.6808 30.86 20.5785 30.9807 17.1181 29.2987C10.7103 26.1838 8.55599 18.1354 12.5413 12.1997C13.0832 11.3927 13.1476 11.1754 12.914 10.9419C12.6845 10.7123 12.3526 10.76 12.0888 11.0604ZM3.83414 12.5356C3.62386 12.7595 3.63781 13.0819 3.86565 13.2611C4.09055 13.438 8.53159 13.482 8.75854 13.3096C9.03895 13.0966 9.00956 12.536 8.71192 12.4219C8.64828 12.3974 7.55822 12.3774 6.28954 12.3774H3.98282L3.83414 12.5356ZM22.0274 14.3603C21.7489 14.4725 21.7324 14.608 21.7324 16.7772V18.8617L21.9125 19.0033C22.2703 19.2847 22.3645 19.2297 23.5261 18.0622C24.7291 16.853 24.8275 16.6651 24.4234 16.3473C24.1118 16.1021 23.9524 16.1587 23.3773 16.7182C23.0876 17.0002 22.8296 17.2309 22.8041 17.2309C22.7786 17.2309 22.7578 16.6644 22.7578 15.9719C22.7578 14.568 22.7515 14.5322 22.4794 14.3915C22.2609 14.2785 22.235 14.2767 22.0274 14.3603ZM2.18661 15.5654C1.99862 15.8043 2.00764 16.0378 2.21272 16.2428L2.38048 16.4106H5.14295C8.2734 16.4106 8.2656 16.4119 8.2656 15.8929C8.2656 15.3719 8.34695 15.3852 5.16024 15.3852H2.32825L2.18661 15.5654ZM0.142731 18.5512C-0.0544174 18.7612 -0.0466928 19.042 0.16194 19.2506L0.329694 19.4184H3.77576C7.67594 19.4184 7.58201 19.4312 7.58201 18.9008C7.58201 18.3707 7.7484 18.393 3.79996 18.393H0.291413L0.142731 18.5512ZM2.21272 21.2952C1.99739 21.5105 1.99336 21.8071 2.20308 22.0042C2.44166 22.2283 7.90569 22.2393 8.12888 22.0161C8.33246 21.8125 8.3112 21.4467 8.08548 21.2691C7.91 21.131 7.83412 21.1274 5.14295 21.1274H2.38048L2.21272 21.2952ZM3.86565 24.2769C3.63993 24.4545 3.61867 24.8203 3.82224 25.0239C3.9537 25.1554 4.05008 25.1606 6.31736 25.1606C8.58464 25.1606 8.68102 25.1554 8.81248 25.0239C9.03465 24.8017 9.01824 24.5112 8.77098 24.289C8.51293 24.0572 4.15864 24.0464 3.86565 24.2769Z" fill="#08294F"/>
</svg>
