<svg width="25" height="25" viewBox="0 0 25 25" fill="none" xmlns="http://www.w3.org/2000/svg">
<g opacity="0.6">
<path fill-rule="evenodd" clip-rule="evenodd" d="M6.27164 2.11097C5.01353 2.74938 1.99912 6.41617 2 7.30707C2.00162 8.94263 3.32588 12.0487 5.01682 14.3831C8.37985 19.026 13.7714 22.7331 17.5469 22.9986C18.226 23.0464 19.9874 21.8612 21.6884 20.2119C23.7646 18.1988 23.5748 17.7106 19.8484 15.4796C17.243 13.9197 16.8534 13.9155 15.5487 15.4323C14.905 16.1808 14.99 16.1407 14.4774 15.9366C12.0155 14.9562 10.0589 12.9992 9.07807 10.5364C8.87806 10.0342 8.83924 10.1173 9.56921 9.48601C10.9656 8.27846 11.0197 8.00752 10.1937 6.35948C9.62911 5.23294 8.09572 2.83311 7.68738 2.43694C7.24495 2.0077 6.71538 1.88577 6.27164 2.11097ZM12.9291 2.74763C12.5073 2.93129 12.388 3.49596 12.6965 3.84743C12.8632 4.03728 12.9876 4.06935 13.7856 4.12841C17.5809 4.4093 20.5825 7.4004 20.885 11.2029C20.9561 12.0968 20.9575 12.1026 21.1411 12.2863C21.6584 12.8036 22.3312 12.4103 22.3279 11.5925C22.3131 7.90224 19.7395 4.39712 16.1461 3.17327C15.0174 2.78885 13.343 2.56733 12.9291 2.74763ZM12.9291 6.24964C12.5068 6.44325 12.388 7.00113 12.6946 7.35036C12.8536 7.5314 12.9914 7.57727 13.4838 7.61307C15.6443 7.77009 17.216 9.37108 17.4142 11.6165C17.471 12.26 17.6506 12.4783 18.1232 12.4783C18.6288 12.4783 18.8034 12.2426 18.7994 11.5655C18.7863 9.35807 17.196 7.22435 15.0124 6.4843C14.2875 6.23864 13.2162 6.11798 12.9291 6.24964Z" fill="#96A3AE"/>
</g>
</svg>
