<svg width="161" height="41" viewBox="0 0 161 41" fill="none" xmlns="http://www.w3.org/2000/svg">
<path d="M46.9649 23.9062H29.3639V25.4218H46.9649V23.9062Z" fill="#3FECFF"/>
<path d="M50.17 40.3202H20.0623C8.98653 40.3202 0 31.3125 0 20.2745C0 9.2365 8.98653 0.200195 20.0623 0.200195H30.1077C41.1835 0.200195 50.17 9.2079 50.17 20.2459V40.3202ZM20.0623 10.1802C14.5101 10.1802 9.98821 14.6983 9.98821 20.2459C9.98821 25.7935 14.5101 30.3117 20.0623 30.3117H40.2104V20.2459C40.2104 14.6983 35.6885 10.1802 30.1364 10.1802H20.0623Z" fill="url(#paint0_linear_119_47276)"/>
<path opacity="0.5" d="M40.1819 30.3402V33.5715C40.1819 37.289 37.1768 40.2916 33.4563 40.2916H21.293C18.3738 40.3488 16.3704 40.12 13.8519 39.3193C13.5657 39.2335 13.1936 39.0905 12.793 38.9476C10.6179 38.1183 6.95458 36.231 3.92091 32.1703C2.80475 30.6834 1.74583 28.7674 1.05896 26.6799C1.05896 26.6799 9.15829 33.1712 20.0623 30.3402H40.1819Z" fill="url(#paint1_linear_119_47276)"/>
<path d="M31.4528 26.4227H29.1919C28.2188 26.4227 27.4461 25.622 27.4461 24.6783C27.4461 23.706 28.2475 22.934 29.1919 22.934H31.4528C32.4259 22.934 33.1986 23.7346 33.1986 24.6783C33.1986 25.622 32.4259 26.4227 31.4528 26.4227Z" fill="url(#paint2_linear_119_47276)"/>
<path d="M54.7207 0H61.6466V24.3637L70.8621 15.3846H79.8486L68.315 26.1652L80.7645 39.9771H71.549L62.3907 29.4824L61.6466 30.1687V40.0056H54.7207V0Z" fill="#303031"/>
<path d="M80.0778 15.3846H87.805L94.273 29.2536L100.741 15.3846H108.468L96.0761 39.9771H92.4414L80.0778 15.3846Z" fill="#303031"/>
<path d="M109.899 15.3846H116.825V39.9771H109.899V15.3846Z" fill="#303031"/>
<path d="M118.771 39.9771V15.3846H125.697V18.5588C127.586 15.8993 130.133 14.5839 133.31 14.5839C136.544 14.5839 138.948 15.5848 140.579 17.5865C141.867 19.1879 142.525 21.4755 142.525 24.5067V39.9485H135.6V26.537C135.6 24.2207 135.17 22.6194 134.283 21.7043C133.482 20.875 132.394 20.4461 131.049 20.4461C129.16 20.4461 127.729 21.161 126.785 22.5908C126.069 23.7346 125.697 25.3074 125.697 27.3663V39.9199H118.771V39.9771Z" fill="#303031"/>
<path d="M160.269 21.2754H155.49V39.9485H148.564V21.2754H145.845V15.3846H148.564V6.97745H155.49V15.3846H160.269V21.2754Z" fill="#303031"/>
<defs>
<linearGradient id="paint0_linear_119_47276" x1="-0.0204916" y1="20.2522" x2="50.1744" y2="20.2522" gradientUnits="userSpaceOnUse">
<stop stop-color="#0091BF"/>
<stop offset="1" stop-color="#3FECFF"/>
</linearGradient>
<linearGradient id="paint1_linear_119_47276" x1="1.03586" y1="33.4968" x2="40.1904" y2="33.4968" gradientUnits="userSpaceOnUse">
<stop stop-color="#3FECFF"/>
<stop offset="1" stop-color="#0091BF"/>
</linearGradient>
<linearGradient id="paint2_linear_119_47276" x1="27.4256" y1="24.6585" x2="33.2047" y2="24.6585" gradientUnits="userSpaceOnUse">
<stop stop-color="#0091BF"/>
<stop offset="1" stop-color="#3FECFF"/>
</linearGradient>
</defs>
</svg>
