<svg width="35" height="35" viewBox="0 0 35 35" fill="none" xmlns="http://www.w3.org/2000/svg">
<path fill-rule="evenodd" clip-rule="evenodd" d="M15.8563 2.79861C16.1215 3.03554 16.1258 3.38389 15.8664 3.61565C15.698 3.76609 15.6451 3.77755 14.9372 3.81681C8.73542 4.1608 3.80678 9.26769 3.80579 15.3507C3.80567 15.9868 3.19986 16.2788 2.80254 15.8342L2.62546 15.636L2.66151 14.8468C2.95008 8.52487 7.87489 3.34016 14.2072 2.69172C15.2924 2.58065 15.6374 2.60298 15.8563 2.79861ZM15.7128 6.17508C15.911 6.26115 16.087 6.58107 16.0499 6.78822C15.9873 7.13838 15.7581 7.26143 15.0815 7.30802C10.7888 7.60374 7.61947 10.7732 7.32096 15.069C7.26147 15.9249 6.92823 16.2566 6.43583 15.95C6.16156 15.7792 6.11423 15.6053 6.15639 14.9234C6.42414 10.594 9.61392 7.01258 13.8684 6.26453C14.5051 6.15258 15.5447 6.10216 15.7128 6.17508ZM28.5288 6.89401C29.3624 7.20601 31.1534 9.17662 31.7501 10.4384C32.7264 12.5027 32.6485 14.5801 31.5117 16.7943C28.2158 23.2138 23.2034 28.2774 17.0362 31.4172C15.5407 32.1785 14.8235 32.3722 13.4887 32.375C11.3479 32.3794 9.97833 31.7583 8.1242 29.9422C6.82372 28.6684 6.60244 28.1327 7.02297 27.2762C7.26257 26.7881 12.1516 21.9384 12.5582 21.7855C13.4426 21.4528 13.7944 21.6199 15.2624 23.07C17.1145 24.8995 17.0661 24.8974 19.2655 23.2357C20.0909 22.6121 20.259 22.5637 20.5591 22.8638C20.9666 23.2714 20.8179 23.5398 19.7368 24.3479C18.059 25.6019 17.5397 25.8073 16.6396 25.5728C16.0405 25.4168 15.8495 25.2739 14.6518 24.0863C13.4043 22.8493 13.272 22.7557 12.9724 22.8979C12.8697 22.9466 11.7204 24.0539 10.4184 25.3584C7.50392 28.2786 7.6746 27.8263 8.99614 29.1277C11.3816 31.4766 13.6 31.8491 16.4837 30.3849C22.4528 27.3539 27.5563 22.1656 30.5335 16.1017C31.8557 13.4086 31.398 11.1521 29.0601 8.83821C28.1436 7.93116 28.0585 7.88103 27.7644 8.0755C27.5559 8.21333 23.2494 12.5034 23.0494 12.7725C22.7338 13.1972 22.7436 13.2147 24.0351 14.5197C25.3076 15.8057 25.3933 15.9109 25.5584 16.3908C25.8787 17.3216 25.5919 18.1462 24.4151 19.6781C23.9478 20.2864 23.2298 20.1955 23.2298 19.528C23.2298 19.3304 23.259 19.2796 23.8568 18.4407C24.8446 17.0541 24.8177 16.9366 23.1162 15.2208C21.6778 13.7704 21.5189 13.4489 21.8048 12.568C21.9339 12.1701 26.7417 7.2801 27.2716 7.00776C27.6222 6.82748 28.2091 6.77438 28.5288 6.89401ZM15.7653 9.71689C16.3514 10.0868 16.0627 10.7341 15.281 10.8025C12.7417 11.0246 11.0371 12.7291 10.815 15.2685C10.7468 16.049 10.0926 16.3419 9.73332 15.7528C9.2747 15.0006 10.1206 12.6174 11.271 11.4209C12.4633 10.1807 14.9853 9.22448 15.7653 9.71689ZM15.7153 13.1857C16.3373 13.456 16.1005 14.1972 15.3533 14.3188C14.7403 14.4186 14.4311 14.7278 14.3314 15.3408C14.208 16.0987 13.4616 16.3262 13.1947 15.6873C12.724 14.5609 14.5987 12.7005 15.7153 13.1857ZM22.4912 21.0988C22.6905 21.2981 22.7374 21.5347 22.6218 21.7581C22.3249 22.3324 21.5316 22.1368 21.5316 21.4893C21.5316 21.0127 22.1524 20.76 22.4912 21.0988Z" fill="white"/>
</svg>
