<svg width="35" height="35" viewBox="0 0 35 35" fill="none" xmlns="http://www.w3.org/2000/svg">
<path fill-rule="evenodd" clip-rule="evenodd" d="M16.1568 2.01484C11.9124 2.78648 9.08243 6.94668 9.94072 11.153C10.5952 14.3604 13.2185 16.8417 16.4309 17.2919L17.027 17.3755L17.0087 18.983L16.9904 20.5906L15.7961 21.215C14.6967 21.7898 14.5959 21.8294 14.5289 21.7137C10.8066 15.286 1.63497 16.7245 0.0988708 23.9769C-0.131472 25.0645 0.066953 27.3403 0.423186 27.6972C0.734898 28.0095 1.32736 27.7389 1.25284 27.3185C1.23483 27.2169 1.16647 26.8404 1.10099 26.4818C0.406542 22.6802 3.20414 19.025 7.08264 18.6664C13.2756 18.0938 16.8164 25.5513 12.4797 30.0333C11.851 30.6831 11.7848 30.7071 11.723 30.3078C11.6063 29.5526 11.1089 28.9432 10.1127 28.3348C9.3449 27.8658 9.28038 27.6626 9.78819 27.3126C12.7265 25.287 11.3033 20.6546 7.74106 20.6493C4.20668 20.6441 2.7149 25.2189 5.5888 27.2497C6.1999 27.6815 6.16634 27.8153 5.3123 28.3512C4.30565 28.9829 3.98435 29.3639 3.76332 30.1877C3.6975 30.4331 3.63565 30.6448 3.62579 30.6584C3.58086 30.7203 2.87038 30.0443 2.52182 29.6081C1.93853 28.8782 1.80668 28.8149 1.45168 29.0947C0.690789 29.6943 2.98072 31.8667 5.20127 32.6516C10.7821 34.6243 16.5269 29.5456 15.2464 23.771C15.1627 23.3936 15.0803 23.0076 15.0632 22.9132C15.0341 22.7525 15.1116 22.7006 16.2798 22.097L17.5275 21.4524L18.782 22.097C19.7251 22.5817 20.0266 22.7672 19.9972 22.8446C19.0372 25.3723 19.754 28.6013 21.7369 30.6808C26.5207 35.6978 34.9633 32.3246 34.9944 25.3838C35.0255 18.3995 26.5423 14.9786 21.7235 20.0322C21.2502 20.5285 20.5178 21.5336 20.5178 21.6867C20.5178 21.8278 20.2135 21.7106 19.1822 21.1721L18.0863 20.6L18.0679 18.9889L18.0496 17.3778L18.7186 17.2671C24.5815 16.2966 27.223 9.35598 23.4848 4.74408C23.2102 4.40541 22.8845 4.34577 22.6411 4.58967C22.4113 4.81992 22.4711 5.05654 22.9163 5.67934C24.8863 8.43487 24.6048 11.9719 22.2237 14.3801C21.6488 14.9616 21.5767 14.9848 21.5259 14.605C21.4267 13.8641 20.9102 13.23 19.9083 12.6191C19.1559 12.1603 19.0793 11.9501 19.5507 11.6375C22.5378 9.65692 21.1196 4.93892 17.5356 4.93363C14.0018 4.92842 12.5143 9.55672 15.4081 11.5536C15.9786 11.9473 15.9554 12.1101 15.2679 12.5353C14.1499 13.2268 13.702 13.7564 13.5282 14.5921C13.4319 15.0552 13.4517 15.0619 12.7344 14.3176C10.4824 11.9809 10.152 8.58454 11.9185 5.93141C13.8093 3.09181 17.4765 2.11201 20.5057 3.63719C21.2309 4.00236 21.4741 4.04319 21.6822 3.83477C22.6441 2.8709 18.6623 1.55936 16.1568 2.01484ZM17.9913 5.96318C20.0848 6.35806 20.897 8.98402 19.3818 10.4594C18.3121 11.5011 16.5446 11.4633 15.5915 10.3783C13.9182 8.47357 15.5346 5.49981 17.9913 5.96318ZM18.2575 12.3818C18.2575 12.7095 18.4141 12.8685 19.2685 13.4089C20.3367 14.0846 20.5201 14.3247 20.5707 15.1149L20.603 15.6189L20.098 15.8289C18.434 16.521 16.4535 16.5161 14.8735 15.816L14.4904 15.6462V15.2409C14.4904 14.4138 14.7041 14.1023 15.7043 13.4716C16.6837 12.8541 16.7507 12.7903 16.7507 12.4747V12.2169L17.5041 12.2183C18.25 12.2197 18.2575 12.2212 18.2575 12.3818ZM28.1786 18.6939C33.6136 19.2103 35.943 26.2457 31.9744 30.1581C31.3489 30.7748 31.3967 30.7721 31.2498 30.2005C31.0394 29.3822 30.7063 28.9859 29.6959 28.3514C28.8418 27.8153 28.8083 27.6814 29.4193 27.2497C30.6075 26.4101 31.1975 24.7944 30.8274 23.3936C30.6152 22.5905 29.6241 22.5788 29.8049 23.3814C30.5534 26.7058 26.3327 28.4202 24.8757 25.3838C23.7813 23.1031 26.1704 20.8954 28.5826 21.9584L28.942 22.1168L29.1306 21.9762C29.8723 21.4234 28.8033 20.6473 27.3033 20.6493C23.6996 20.6543 22.2622 25.2695 25.2267 27.3168C25.727 27.6624 25.6602 27.8677 24.8954 28.3348C23.8993 28.9432 23.4019 29.5526 23.2851 30.3078C23.2234 30.7071 23.1572 30.6831 22.5285 30.0333C18.6192 25.9931 21.068 19.2086 26.6327 18.6623C27.185 18.6081 27.2989 18.6104 28.1786 18.6939ZM8.70853 21.8233C10.0578 22.329 10.7568 24.0743 10.1346 25.3838C8.9025 27.9768 5.14106 27.1497 5.14106 24.2857C5.14106 22.3577 6.89846 21.1447 8.70853 21.8233ZM8.46298 28.0944C8.46298 28.4241 8.6164 28.587 9.36709 29.0546C10.5167 29.7706 10.7917 30.1428 10.7917 30.9828V31.3415L10.2952 31.5481C8.64538 32.2342 6.64743 32.2267 5.07168 31.5285L4.68127 31.3555L4.70572 30.8181C4.72606 30.3691 4.76154 30.233 4.92113 29.9914C5.12065 29.6893 5.20812 29.6205 6.2712 28.9294C6.90928 28.5145 6.9223 28.5008 6.94284 28.2171L6.9638 27.9278L7.71339 27.9285C8.45949 27.9292 8.46298 27.9299 8.46298 28.0944ZM28.0653 28.2171C28.0859 28.5008 28.0989 28.5145 28.737 28.9294C29.8 29.6205 29.8875 29.6893 30.087 29.9914C30.2466 30.233 30.2821 30.3691 30.3024 30.8181L30.3269 31.3555L29.9365 31.5285C28.3607 32.2267 26.3628 32.2342 24.713 31.5481L24.2164 31.3415V30.9828C24.2164 30.1428 24.4915 29.7706 25.6411 29.0546C26.3917 28.587 26.5452 28.4241 26.5452 28.0944C26.5452 27.9299 26.5487 27.9292 27.2948 27.9285L28.0443 27.9278L28.0653 28.2171Z" fill="white"/>
</svg>
