<svg width="35" height="36" viewBox="0 0 35 36" fill="none" xmlns="http://www.w3.org/2000/svg">
<path fill-rule="evenodd" clip-rule="evenodd" d="M25.8289 0.0617688C25.6348 0.173687 22.4864 4.44033 22.429 4.66917C22.3829 4.85293 22.5294 5.26567 22.6737 5.35882C22.7247 5.3917 23.1054 5.43396 23.5198 5.4528L24.2732 5.48704L24.2909 9.68225L24.3085 13.8775L22.921 13.8779C21.0824 13.8783 20.712 14.0055 20.4348 14.7313C20.2735 15.1536 20.3115 16.6382 20.4905 16.9114C20.6068 17.0888 20.6068 17.1045 20.4905 17.2819C20.3103 17.5568 20.2736 19.0398 20.4365 19.4662C20.5435 19.7466 20.5441 19.7946 20.4437 20.0894C20.3694 20.3072 20.3348 20.6553 20.3348 21.1842V21.9596H19.8554H19.3759V16.4117V10.8638H19.9958C20.9627 10.8638 21.3894 10.4772 21.0784 9.88321C20.9482 9.63451 18.2045 5.84608 17.9814 5.60691C17.739 5.34704 17.3242 5.30081 17.0739 5.50567C16.9281 5.62499 13.987 9.60519 13.8391 9.88321C13.5196 10.4837 13.9546 10.8638 14.9614 10.8638H15.6088V16.4117V21.9596L14.4273 21.9601C12.5226 21.9607 12.0489 22.2707 12.0476 23.5179C12.0474 23.7156 12.0274 23.8775 12.0032 23.8775C11.979 23.8775 11.7555 23.819 11.5066 23.7475C11.2577 23.676 10.9692 23.5983 10.8657 23.5749L10.6773 23.5324V20.0748V16.6172L11.2766 16.617C12.2345 16.6169 12.7162 16.2236 12.439 15.668C12.3038 15.397 9.41587 11.4006 9.24067 11.242C8.71115 10.7628 8.47375 11.0113 5.49587 15.1618C4.78416 16.1538 5.05936 16.6172 6.36005 16.6172H6.97868V17.6103C6.97868 18.7365 7.03464 18.8775 7.48176 18.8775C7.93553 18.8775 7.97183 18.7599 7.97183 17.2892V15.9894L7.74813 15.7896C7.54327 15.6066 7.48142 15.5898 7.01183 15.5898C6.72991 15.5898 6.49957 15.5666 6.49998 15.5384C6.50094 15.4745 8.75498 12.4108 8.81711 12.389C8.86854 12.3709 11.0422 15.3655 11.0761 15.5012C11.0927 15.5674 10.9761 15.5898 10.6149 15.5898C10.1777 15.5898 10.1102 15.6088 9.90786 15.7896L9.68416 15.9894L9.66478 19.7241L9.64546 23.4588L9.32231 23.4986C8.99156 23.5394 8.43245 23.6438 8.16382 23.7148L8.01334 23.7546L7.99258 22.1792C7.96923 20.4053 7.94471 20.3158 7.48176 20.3158C6.99067 20.3158 6.97868 20.3653 6.97868 22.3927V24.1957L6.50923 24.5165C3.66046 26.463 3.1971 30.5916 5.54108 33.1437C7.50354 35.2803 10.821 35.6359 13.1375 33.9579L13.4376 33.7405L21.6979 33.7403C30.9577 33.7403 30.2023 33.7827 30.6382 33.2378C30.9011 32.9091 30.9939 31.3799 30.7842 30.8309C30.6856 30.5727 30.6851 30.5194 30.7787 30.2952C30.9277 29.9389 30.9251 28.4044 30.7751 28.1144C30.6772 27.9251 30.6772 27.8818 30.7751 27.637C30.9243 27.264 30.926 25.769 30.7777 25.3982C30.6832 25.1622 30.6831 25.1149 30.7772 24.9345C30.9249 24.6512 30.9255 23.0965 30.7779 22.7278C30.6838 22.4926 30.6838 22.4402 30.7779 22.2149C30.9277 21.8567 30.9256 20.3233 30.7751 20.0322C30.6772 19.8429 30.6772 19.7996 30.7751 19.5548C30.8529 19.3605 30.8828 19.0485 30.8828 18.4322C30.8828 17.816 30.8529 17.504 30.7751 17.3097C30.6765 17.0632 30.6769 17.0222 30.7802 16.8225C30.9811 16.4339 30.903 14.8051 30.6663 14.4479C30.3696 14.0001 30.1137 13.9153 28.9821 13.8895L28.0061 13.8673V9.66006V5.4528H28.7159C29.5722 5.4528 29.7885 5.32273 29.785 4.80992C29.7832 4.54992 27.1557 0.736358 26.5855 0.166084C26.4192 -0.000217516 26.0295 -0.0539846 25.8289 0.0617688ZM27.2695 2.77786C28.6092 4.63862 28.5527 4.49389 27.9404 4.49389C26.9128 4.49389 26.9787 4.15389 26.9787 9.45622V13.8775H26.1225H25.2664V9.38588V4.8943L25.0661 4.6941C24.8801 4.50807 24.8292 4.49389 24.347 4.49389C24.0579 4.49389 23.828 4.46451 23.828 4.42759C23.828 4.34286 26.0866 1.27382 26.1464 1.27732C26.1709 1.27876 26.6764 1.95396 27.2695 2.77786ZM18.6568 8.20684C19.2595 9.04129 19.7629 9.7493 19.7755 9.78019C19.7881 9.81108 19.5934 9.83636 19.3429 9.83636C18.8548 9.83636 18.6574 9.90396 18.4699 10.1355C18.3599 10.2713 18.3515 10.6916 18.3501 16.1206L18.3485 21.9596H17.4924H16.6362V16.1752C16.6362 12.162 16.6135 10.3408 16.5619 10.2276C16.4399 9.95992 16.1518 9.83636 15.6496 9.83636C15.3933 9.83636 15.1979 9.80663 15.1979 9.76773C15.1979 9.65725 17.4072 6.68547 17.4877 6.68766C17.5279 6.68876 18.054 7.37239 18.6568 8.20684ZM29.8571 15.0805C29.986 15.4196 29.9405 16.3266 29.7869 16.4802C29.6292 16.6379 21.7828 16.7005 21.4947 16.5463C21.335 16.4607 21.2923 15.1392 21.4444 14.987C21.5066 14.9249 22.5361 14.9049 25.6585 14.9049H29.7903L29.8571 15.0805ZM29.8264 17.7458C29.9759 17.9738 29.9451 19.1215 29.7869 19.2214C29.6244 19.324 21.5476 19.3094 21.4444 19.2062C21.3019 19.0637 21.334 17.7363 21.4821 17.6501C21.5598 17.6048 23.0309 17.5795 25.6586 17.5781L29.7153 17.5761L29.8264 17.7458ZM29.853 20.4483C29.9427 20.616 29.9456 21.5511 29.8571 21.784C29.7908 21.9583 29.7846 21.9596 29.0102 21.9596C28.092 21.9596 27.8691 22.06 27.8691 22.4733C27.8691 22.8867 28.092 22.987 29.0102 22.987C29.933 22.987 29.9239 22.9781 29.9239 23.8819C29.9239 24.7749 30.2748 24.6994 26.1225 24.6994H22.5951V23.8432V22.987H24.3324C26.3092 22.987 26.4307 22.9573 26.4307 22.4733C26.4307 21.9709 26.3727 21.9596 23.7982 21.9596C22.1227 21.9596 21.5051 21.9381 21.4444 21.8775C21.3567 21.7897 21.3243 20.4451 21.4079 20.3615C21.5402 20.2292 29.7811 20.3139 29.853 20.4483ZM21.5653 23.1195C21.7015 23.3739 21.6541 24.4075 21.4992 24.5624C21.3045 24.7571 13.4137 24.7796 13.1998 24.586C13.0476 24.4483 13.0126 23.2134 13.1568 23.0692C13.319 22.907 21.4777 22.9557 21.5653 23.1195ZM11.2595 24.73C14.6553 25.8762 15.6598 30.0568 13.1464 32.5823C10.1366 35.6066 5.06293 33.5177 5.06293 29.2542C5.06293 26.0208 8.23101 23.7077 11.2595 24.73ZM9.48793 25.8003C9.33258 25.9225 9.30745 25.9939 9.30745 26.314C9.30745 26.5759 9.2808 26.6857 9.21717 26.6857C8.08827 26.6857 7.32779 28.122 7.95484 29.0696C8.29621 29.5853 8.64957 29.726 9.70669 29.7668C10.706 29.8054 10.8828 29.8844 10.8828 30.2922C10.8828 30.7221 10.6636 30.7953 9.37594 30.7953C8.22437 30.7953 8.20258 30.798 8.03724 30.9634C7.60347 31.3971 7.91046 31.7794 8.71923 31.8126L9.30745 31.8367V32.1944C9.30745 32.6069 9.49327 32.8501 9.80841 32.8501C10.1122 32.8501 10.2664 32.6325 10.2664 32.2035V31.8311L10.5796 31.7841C11.6274 31.627 12.2114 30.4023 11.6621 29.514C11.2874 28.9079 10.8833 28.7414 9.78505 28.7409C8.82485 28.7403 8.52169 28.5131 8.78978 27.9948C8.93135 27.7209 8.97252 27.7131 10.26 27.7131C11.5449 27.7131 11.7047 27.6551 11.7047 27.1885C11.7047 26.839 11.5024 26.7235 10.8414 26.6957L10.2664 26.6716V26.3019C10.2664 25.7123 9.89991 25.4762 9.48793 25.8003ZM21.5286 25.7659C21.6834 25.9207 21.6834 27.1081 21.5286 27.263C21.4395 27.3521 21.2273 27.3706 20.2957 27.3706C19.0233 27.3706 18.8965 27.4162 18.8965 27.8737C18.8965 28.3123 19.0327 28.361 20.3247 28.3842C21.684 28.4084 21.6362 28.3785 21.6362 29.2033C21.6362 30.1314 21.9692 30.0418 18.5174 30.0418H15.5403V29.2257V28.4094L16.3553 28.3866C17.2897 28.3604 17.4581 28.2821 17.4581 27.8737C17.4581 27.4298 17.3134 27.3706 16.2273 27.3706H15.2705L15.0355 26.862C14.9063 26.5824 14.7051 26.2146 14.5883 26.0449C14.4715 25.8752 14.3759 25.7188 14.3759 25.6973C14.3759 25.5906 21.4209 25.6582 21.5286 25.7659ZM29.8264 25.828C29.9759 26.056 29.9451 27.2037 29.7869 27.3036C29.7257 27.3423 28.252 27.369 26.1396 27.3696L22.5951 27.3706V26.5144V25.6583H26.1552H29.7153L29.8264 25.828ZM29.853 28.5305C29.9427 28.6982 29.9456 29.6333 29.8571 29.8662L29.7903 30.0418H26.1927H22.5951V29.2199V28.398H26.1886C29.6713 28.398 29.7843 28.4021 29.853 28.5305ZM21.5653 31.2017C21.7015 31.4561 21.6541 32.4897 21.4992 32.6446C21.3664 32.7775 14.4444 32.8746 14.4444 32.7435C14.4444 32.7227 14.564 32.5075 14.71 32.2653C14.856 32.0231 15.0445 31.655 15.1289 31.4471L15.2822 31.0692H18.3883C21.3891 31.0692 21.4968 31.0738 21.5653 31.2017ZM29.8571 31.2449C29.8938 31.3416 29.9239 31.6652 29.9239 31.9641C29.9239 32.857 30.2748 32.7816 26.1225 32.7816H22.5951V31.9254V31.0692H26.1927H29.7903L29.8571 31.2449Z" fill="white"/>
</svg>
