<svg width="30" height="30" viewBox="0 0 30 30" fill="none" xmlns="http://www.w3.org/2000/svg">
<path d="M23.6461 21.944H21.9998L22.0074 20.9877C22.0074 20.5627 22.3564 20.215 22.7828 20.215H22.8878C23.3151 20.215 23.6651 20.5627 23.6651 20.9877L23.6461 21.944ZM17.4708 19.8947C17.0531 19.8947 16.7114 20.1753 16.7114 20.519V25.17C16.7114 25.513 17.0531 25.793 17.4708 25.793C17.8901 25.793 18.2321 25.513 18.2321 25.17V20.519C18.2321 20.175 17.8901 19.8947 17.4708 19.8947ZM27.4998 17.293V26.141C27.4998 28.2633 25.6594 30 23.4098 30H6.59009C4.33976 30 2.49976 28.2633 2.49976 26.141V17.293C2.49976 15.1707 4.33976 13.4337 6.59009 13.4337H23.4098C25.6594 13.4337 27.4998 15.1707 27.4998 17.293ZM7.71209 27.1017L7.71076 17.7813L9.79576 17.782V16.401L4.23776 16.3927V17.7503L5.97276 17.7553V27.1017H7.71209ZM13.9621 19.1697H12.2238V24.1467C12.2238 24.8667 12.2674 25.2267 12.2211 25.3537C12.0798 25.7397 11.4444 26.1497 11.1968 25.3953C11.1548 25.2633 11.1918 24.865 11.1911 24.181L11.1841 19.1697H9.45542L9.46076 24.1023C9.46209 24.8583 9.44376 25.422 9.46676 25.6787C9.50909 26.131 9.49409 26.6583 9.91376 26.9597C10.6958 27.523 12.1948 26.8757 12.5698 26.0703L12.5664 27.098L13.9624 27.0997L13.9621 19.1697ZM19.5231 24.869L19.5194 20.7267C19.5181 19.148 18.3371 18.2027 16.7341 19.48L16.7411 16.4003L15.0048 16.403L14.9964 27.033L16.4244 27.0123L16.5544 26.3503C18.3788 28.024 19.5258 26.877 19.5231 24.869ZM24.9634 24.32L23.6601 24.327C23.6594 24.3787 23.6574 24.4383 23.6568 24.5033V25.2307C23.6568 25.62 23.3351 25.937 22.9444 25.937H22.6891C22.2978 25.937 21.9761 25.62 21.9761 25.2307V25.15V24.35V23.3177H24.9608V22.1943C24.9608 21.3733 24.9398 20.5527 24.8718 20.0833C24.6581 18.5987 22.5741 18.363 21.5214 19.123C21.1911 19.3603 20.9388 19.678 20.7921 20.1047C20.6441 20.5317 20.5704 21.115 20.5704 21.856V24.326C20.5711 28.432 25.5584 27.8517 24.9634 24.32ZM18.2774 10.9107C18.3671 11.1287 18.5064 11.3053 18.6954 11.4387C18.8821 11.57 19.1208 11.636 19.4068 11.636C19.6574 11.636 19.8794 11.5683 20.0728 11.4287C20.2654 11.2897 20.4278 11.082 20.5604 10.805L20.5274 11.487H22.4651V3.24667H20.9398V9.66C20.9398 10.0073 20.6538 10.2917 20.3041 10.2917C19.9564 10.2917 19.6694 10.0073 19.6694 9.66V3.24667H18.0774V8.80467C18.0774 9.51267 18.0904 9.98467 18.1114 10.224C18.1331 10.4617 18.1878 10.6897 18.2774 10.9107ZM12.4054 6.25667C12.4054 5.46567 12.4714 4.848 12.6024 4.40267C12.7344 3.959 12.9714 3.60233 13.3148 3.33333C13.6571 3.063 14.0954 2.92767 14.6284 2.92767C15.0768 2.92767 15.4608 3.01567 15.7814 3.188C16.1038 3.36133 16.3524 3.58633 16.5248 3.864C16.7004 4.14267 16.8198 4.429 16.8834 4.722C16.9484 5.019 16.9804 5.467 16.9804 6.07133V8.15533C16.9804 8.91967 16.9498 9.482 16.8901 9.839C16.8311 10.197 16.7044 10.529 16.5081 10.8403C16.3148 11.1483 16.0651 11.3787 15.7624 11.5257C15.4564 11.674 15.1064 11.7467 14.7111 11.7467C14.2694 11.7467 13.8974 11.6857 13.5908 11.5583C13.2831 11.4317 13.0454 11.2407 12.8761 10.987C12.7051 10.733 12.5848 10.4237 12.5121 10.063C12.4391 9.70267 12.4044 9.16067 12.4044 8.43833L12.4054 6.25667ZM13.9231 9.53C13.9231 9.99667 14.2704 10.3777 14.6934 10.3777C15.1168 10.3777 15.4628 9.99667 15.4628 9.53V5.14333C15.4628 4.67733 15.1168 4.29633 14.6934 4.29633C14.2704 4.29633 13.9231 4.67733 13.9231 5.14333V9.53ZM8.56042 11.745H10.3884L10.3904 5.425L12.5504 0.011H10.5511L9.40276 4.03233L8.23809 0H6.25942L8.55742 5.428L8.56042 11.745Z" fill="#08294F"/>
</svg>
